<svg xmlns="http://www.w3.org/2000/svg" xmlns:xlink="http://www.w3.org/1999/xlink" width="90" height="90" viewBox="0 0 90 90">
  <defs>
    <clipPath id="clip-path">
      <rect id="Rectángulo_43734" data-name="Rectángulo 43734" width="57.561" height="53.487" fill="none" stroke="#fff" stroke-width="1"/>
    </clipPath>
  </defs>
  <g id="Grupo_136527" data-name="Grupo 136527" transform="translate(5485 9778)">
    <circle id="Elipse_5244" data-name="Elipse 5244" cx="45" cy="45" r="45" transform="translate(-5485 -9778)" fill="#b13e8d"/>
    <g id="Grupo_136516" data-name="Grupo 136516" transform="translate(-5469 -9760)" style="isolation: isolate">
      <g id="Grupo_136515" data-name="Grupo 136515" clip-path="url(#clip-path)">
        <path id="Trazado_193616" data-name="Trazado 193616" d="M57.771,40.552a3.066,3.066,0,0,0-2.725-1.1H36.341c-1.745,0-2.509,1.693-3.017,2.821-.342.759-3.877,9.738-6.064,15.3h-7.5a3.35,3.35,0,0,0-1.376-3.517l-8.1-5.195V43.242a.608.608,0,0,0-1.216,0V49.2a.607.607,0,0,0,.28.512l8.364,5.364a2.121,2.121,0,0,1-1.984,3.719L4.481,54.317a2.786,2.786,0,0,1-1.764-2.591V41.877c0-4.935,3.232-8.321,9.349-9.811a9.2,9.2,0,0,0,12.894,0c3.529.858,6.1,2.334,7.651,4.392a.608.608,0,0,0,.972-.731c-1.626-2.164-4.223-3.737-7.721-4.686a9.217,9.217,0,1,0-14.7,0C4.839,32.757,1.5,36.487,1.5,41.877v9.85a4,4,0,0,0,2.53,3.719L10.955,58.2A3.306,3.306,0,0,0,9.57,60.891a3.4,3.4,0,0,0,3.312,3.388H47.109c1.125,0,2.659-.494,3.577-2.85.6-1.529,6.253-15.857,7.055-17.836a3.19,3.19,0,0,0,.03-3.04M18.514,17.484a8,8,0,1,1-8,8,8.011,8.011,0,0,1,8-8m38.1,25.651c-.8,1.981-6.464,16.321-7.06,17.851-.545,1.4-1.344,2.076-2.444,2.076H12.882a2.164,2.164,0,0,1-2.1-2.172,2.1,2.1,0,0,1,1.738-2.063l2.755,1.1a3.291,3.291,0,0,0,1.219.233,3.362,3.362,0,0,0,2.7-1.362h8.474a.608.608,0,0,0,.566-.386c3.687-9.385,5.944-15.083,6.195-15.64.518-1.148,1.019-2.1,1.906-2.1H55.046c.61,0,1.4.1,1.716.561a2.286,2.286,0,0,1-.149,1.9" transform="translate(-1.038 -11.254)" fill="#fff" stroke="#fff" stroke-width="1"/>
        <path id="Trazado_193617" data-name="Trazado 193617" d="M57.771,40.552a3.066,3.066,0,0,0-2.725-1.1H36.341c-1.745,0-2.509,1.693-3.017,2.821-.342.759-3.877,9.738-6.064,15.3h-7.5a3.35,3.35,0,0,0-1.376-3.517l-8.1-5.195V43.242a.608.608,0,0,0-1.216,0V49.2a.607.607,0,0,0,.28.512l8.364,5.364a2.121,2.121,0,0,1-1.984,3.719L4.481,54.317a2.786,2.786,0,0,1-1.764-2.591V41.877c0-4.935,3.232-8.321,9.349-9.811a9.2,9.2,0,0,0,12.894,0c3.529.858,6.1,2.334,7.651,4.392a.608.608,0,0,0,.972-.731c-1.626-2.164-4.223-3.737-7.721-4.686a9.217,9.217,0,1,0-14.7,0C4.839,32.757,1.5,36.487,1.5,41.877v9.85a4,4,0,0,0,2.53,3.719L10.955,58.2A3.306,3.306,0,0,0,9.57,60.891a3.4,3.4,0,0,0,3.312,3.388H47.109c1.125,0,2.659-.494,3.577-2.85.6-1.529,6.253-15.857,7.055-17.836A3.19,3.19,0,0,0,57.771,40.552ZM18.514,17.484a8,8,0,1,1-8,8A8.011,8.011,0,0,1,18.514,17.484Zm38.1,25.651c-.8,1.981-6.464,16.321-7.06,17.851-.545,1.4-1.344,2.076-2.444,2.076H12.882a2.164,2.164,0,0,1-2.1-2.172,2.1,2.1,0,0,1,1.738-2.063l2.755,1.1a3.291,3.291,0,0,0,1.219.233,3.362,3.362,0,0,0,2.7-1.362h8.474a.608.608,0,0,0,.566-.386c3.687-9.385,5.944-15.083,6.195-15.64.518-1.148,1.019-2.1,1.906-2.1H55.046c.61,0,1.4.1,1.716.561A2.286,2.286,0,0,1,56.614,43.136Z" transform="translate(-1.038 -11.254)" fill="none" stroke="#fff" stroke-miterlimit="10" stroke-width="1"/>
        <path id="Trazado_193618" data-name="Trazado 193618" d="M70.493,97.458a.608.608,0,1,0,0,1.216h4.976a.608.608,0,1,0,0-1.216Z" transform="translate(-48.344 -67.418)" fill="#fff" stroke="#fff" stroke-width="1"/>
        <path id="Trazado_193619" data-name="Trazado 193619" d="M70.493,97.458a.608.608,0,1,0,0,1.216h4.976a.608.608,0,1,0,0-1.216Z" transform="translate(-48.344 -67.418)" fill="none" stroke="#fff" stroke-miterlimit="10" stroke-width="1"/>
        <path id="Trazado_193620" data-name="Trazado 193620" d="M78.565,2.717H89.1L84.769,9.658a.608.608,0,0,0,.194.837A.608.608,0,0,0,85.8,10.3l4.737-7.586h6.071l-7.22,11.561a.608.608,0,1,0,1.031.644l7.622-12.2h4.951V25.055a.608.608,0,0,0,1.216,0V2.109A.608.608,0,0,0,103.6,1.5H78.565a.608.608,0,1,0,0,1.216" transform="translate(-53.928 -1.038)" fill="#fff" stroke="#fff" stroke-width="1"/>
        <path id="Trazado_193621" data-name="Trazado 193621" d="M78.565,2.717H89.1L84.769,9.658a.608.608,0,0,0,.194.837A.608.608,0,0,0,85.8,10.3l4.737-7.586h6.071l-7.22,11.561a.608.608,0,1,0,1.031.644l7.622-12.2h4.951V25.055a.608.608,0,0,0,1.216,0V2.109A.608.608,0,0,0,103.6,1.5H78.565a.608.608,0,1,0,0,1.216Z" transform="translate(-53.928 -1.038)" fill="none" stroke="#fff" stroke-miterlimit="10" stroke-width="1"/>
      </g>
    </g>
  </g>
</svg>
