<svg xmlns="http://www.w3.org/2000/svg" xmlns:xlink="http://www.w3.org/1999/xlink" width="90" height="90" viewBox="0 0 90 90">
  <defs>
    <clipPath id="clip-path">
      <rect id="Rectángulo_43729" data-name="Rectángulo 43729" width="61.333" height="52.426" fill="#fff"/>
    </clipPath>
  </defs>
  <g id="Grupo_136524" data-name="Grupo 136524" transform="translate(5256 9783)">
    <circle id="Elipse_5245" data-name="Elipse 5245" cx="45" cy="45" r="45" transform="translate(-5256 -9783)" fill="#b13e8d"/>
    <g id="Grupo_136506" data-name="Grupo 136506" transform="translate(-5242 -9764)">
      <g id="Grupo_136505" data-name="Grupo 136505" clip-path="url(#clip-path)">
        <path id="Trazado_193600" data-name="Trazado 193600" d="M61.215,9.42a3.556,3.556,0,0,0-2.752-2.6V3.263A1.059,1.059,0,0,0,57.4,2.2H45.756a7.154,7.154,0,0,0-10.329,0H16.393a7.154,7.154,0,0,0-10.329,0H1.058A1.059,1.059,0,0,0,0,3.263V15.08a1.06,1.06,0,0,0,1.059,1.059H3.71a22.593,22.593,0,0,0-.878,6.551V49.254A3.176,3.176,0,0,0,6,52.426H16.452a3.176,3.176,0,0,0,3.173-3.173V22.69a12.469,12.469,0,0,0-.2-2.1l2.406,1.263a3.573,3.573,0,0,0,4.745-1.357l2.554-4.356h3.948A22.6,22.6,0,0,0,32.2,22.69V49.254a3.176,3.176,0,0,0,3.173,3.173H45.815a3.176,3.176,0,0,0,3.172-3.173V22.69a12.461,12.461,0,0,0-.2-2.1l2.406,1.263a3.573,3.573,0,0,0,4.745-1.357l4.9-8.365a3.551,3.551,0,0,0,.375-2.71m-4.871-5.1V7.044a3.551,3.551,0,0,0-1.672,1.47l-3.179,5.423-5.037-2.645a7.151,7.151,0,0,0,.715-6.971Zm-10.7,2.85a5.053,5.053,0,1,1-5.053-5.054,5.059,5.059,0,0,1,5.053,5.054m-29.363,0a5.054,5.054,0,1,1-5.054-5.054,5.059,5.059,0,0,1,5.054,5.054M2.117,14.02v-9.7H4.649a7.152,7.152,0,0,0,1.223,7.612,9.494,9.494,0,0,0-.725.993,11.405,11.405,0,0,0-.608,1.094Zm22.628,5.4a1.464,1.464,0,0,1-1.258.72,1.439,1.439,0,0,1-.675-.167L18.342,17.63a1.059,1.059,0,0,0-1.507,1.243,14.093,14.093,0,0,1,.67,3.816V49.254a1.056,1.056,0,0,1-1.055,1.054H12.287V37.625a1.059,1.059,0,1,0-2.118,0V50.308H6A1.056,1.056,0,0,1,4.95,49.254V22.69c0-4.145.949-7.453,2.547-9.4a7.155,7.155,0,0,0,8.064-.413l6.478,3.4a1.06,1.06,0,0,0,1.406-.4l3.69-6.294a1.456,1.456,0,1,1,2.512,1.473Zm5.622-5.4,1.109-1.891A3.579,3.579,0,0,0,30.2,7.238h0a3.578,3.578,0,0,0-4.891,1.276L22.13,13.937l-5.037-2.644a7.15,7.15,0,0,0,.715-6.971h16.2a7.155,7.155,0,0,0,1.223,7.612,9.558,9.558,0,0,0-.725.993A11.476,11.476,0,0,0,33.9,14.02Zm28.645-2.962-4.9,8.365a1.462,1.462,0,0,1-1.258.72,1.436,1.436,0,0,1-.675-.167l-4.47-2.346A1.059,1.059,0,0,0,46.2,18.873a14.062,14.062,0,0,1,.67,3.816V49.254a1.055,1.055,0,0,1-1.054,1.054H41.651V37.625a1.059,1.059,0,1,0-2.118,0V50.308H35.369a1.055,1.055,0,0,1-1.054-1.054V22.69c0-4.145.949-7.453,2.547-9.4a7.155,7.155,0,0,0,8.064-.413l6.478,3.4a1.06,1.06,0,0,0,1.406-.4L56.5,9.585a1.456,1.456,0,0,1,2.512,1.473" transform="translate(0.001)" fill="#fff"/>
      </g>
    </g>
  </g>
</svg>
