<svg xmlns="http://www.w3.org/2000/svg" xmlns:xlink="http://www.w3.org/1999/xlink" width="190" height="110.333" viewBox="0 0 190 110.333">
  <defs>
    <linearGradient id="linear-gradient" x1="0.5" x2="0.5" y2="1" gradientUnits="objectBoundingBox">
      <stop offset="0" stop-color="#f7ca2e" stop-opacity="0"/>
      <stop offset="0.091" stop-color="#f7ca2e" stop-opacity="0.129"/>
      <stop offset="0.283" stop-color="#f7ca2e" stop-opacity="0.388"/>
      <stop offset="0.465" stop-color="#f7ca2e" stop-opacity="0.612"/>
      <stop offset="0.633" stop-color="#f7ca2e" stop-opacity="0.78"/>
      <stop offset="0.784" stop-color="#f7ca2e" stop-opacity="0.902"/>
      <stop offset="0.911" stop-color="#f7ca2e" stop-opacity="0.969"/>
      <stop offset="1" stop-color="#f7ca2e"/>
    </linearGradient>
    <linearGradient id="linear-gradient-2" x1="0.5" x2="0.5" y2="1" gradientUnits="objectBoundingBox">
      <stop offset="0" stop-color="#b13e8d" stop-opacity="0"/>
      <stop offset="0.091" stop-color="#b13e8d" stop-opacity="0.129"/>
      <stop offset="0.283" stop-color="#b13e8d" stop-opacity="0.388"/>
      <stop offset="0.465" stop-color="#b13e8d" stop-opacity="0.612"/>
      <stop offset="0.633" stop-color="#b13e8d" stop-opacity="0.78"/>
      <stop offset="0.784" stop-color="#b13e8d"/>
      <stop offset="0.911" stop-color="#b13e8d" stop-opacity="0.969"/>
      <stop offset="1" stop-color="#b13e8d"/>
    </linearGradient>
    <filter id="Rectángulo_40717" x="41" y="1" width="108" height="108" filterUnits="userSpaceOnUse">
      <feOffset dy="3" input="SourceAlpha"/>
      <feGaussianBlur stdDeviation="3" result="blur"/>
      <feFlood flood-opacity="0.161"/>
      <feComposite operator="in" in2="blur"/>
      <feComposite in="SourceGraphic"/>
    </filter>
    <clipPath id="clip-path">
      <rect id="Rectángulo_43712" data-name="Rectángulo 43712" width="63" height="63" fill="none"/>
    </clipPath>
  </defs>
  <g id="Grupo_136655" data-name="Grupo 136655" transform="translate(-180 -2885)">
    <g id="Grupo_136229" data-name="Grupo 136229" transform="translate(0 2485)">
      <rect id="Rectángulo_40586" data-name="Rectángulo 40586" width="190" height="20" transform="translate(180 442)" fill="none"/>
      <g id="Grupo_108405" data-name="Grupo 108405" transform="translate(209.5 464)">
        <path id="Rectángulo_5242" data-name="Rectángulo 5242" d="M0,0H12a0,0,0,0,1,0,0V43.333a3,3,0,0,1-3,3H3a3,3,0,0,1-3-3V0A0,0,0,0,1,0,0Z" transform="translate(0 0)" fill="url(#linear-gradient)"/>
      </g>
      <g id="Grupo_108406" data-name="Grupo 108406" transform="translate(340 452) rotate(180)">
        <path id="Rectángulo_5242-2" data-name="Rectángulo 5242" d="M0,0H12a0,0,0,0,1,0,0V49a3,3,0,0,1-3,3H3a3,3,0,0,1-3-3V0A0,0,0,0,1,0,0Z" transform="translate(0 0)" fill="url(#linear-gradient-2)"/>
      </g>
    </g>
    <g id="Grupo_136464" data-name="Grupo 136464">
      <g transform="matrix(1, 0, 0, 1, 180, 2885)" filter="url(#Rectángulo_40717)">
        <path id="Rectángulo_40717-2" data-name="Rectángulo 40717" d="M10,0H80A10,10,0,0,1,90,10V90a0,0,0,0,1,0,0H10A10,10,0,0,1,0,80V10A10,10,0,0,1,10,0Z" transform="translate(50 7)" fill="#f6f6f6"/>
      </g>
      <g id="Grupo_136463" data-name="Grupo 136463" transform="translate(244 2906)">
        <g id="Grupo_136462" data-name="Grupo 136462" clip-path="url(#clip-path)">
          <path id="Trazado_193547" data-name="Trazado 193547" d="M25.287,29.652H2.13V22.058C2.13,19,4.144,18.223,6.276,17.4c0,0,3.246-1.266,5.3-2.065a8.672,8.672,0,0,0,11.2.024L31.1,18.628a1.065,1.065,0,1,0,.779-1.983l-7.563-2.973a8.7,8.7,0,1,0-14.273-.03c-1.78.691-4.54,1.768-4.54,1.768C3.313,16.26,0,17.546,0,22.058v8.659a1.065,1.065,0,0,0,1.065,1.065H25.287a1.065,1.065,0,0,0,0-2.13M17.193,2.13A6.566,6.566,0,1,1,10.627,8.7,6.573,6.573,0,0,1,17.193,2.13" transform="translate(0 0)" fill="#6836b1"/>
          <path id="Trazado_193548" data-name="Trazado 193548" d="M120.455,88.33s-.325,0-2.282,0h-.022c-2.631,0-5.4-2.437-6.8-6.73a16.662,16.662,0,1,0-9.956,0c-1.4,4.293-4.169,6.73-6.8,6.73h-.018c-1.956,0-2.282,0-2.282,0A1.065,1.065,0,0,0,91.235,89.4v5.355A1.065,1.065,0,0,0,92.3,95.816h28.15a1.065,1.065,0,0,0,1.065-1.065V89.4a1.065,1.065,0,0,0-1.059-1.065M91.843,65.7A14.531,14.531,0,1,1,106.375,80.23,14.547,14.547,0,0,1,91.843,65.7m27.541,27.987H93.365V90.46H94.6c3.948,0,7.283-3.338,8.867-8.359a16.446,16.446,0,0,0,5.815,0c1.583,5.021,4.918,8.359,8.867,8.359h1.235Z" transform="translate(-60.036 -32.816)" fill="#6836b1"/>
          <path id="Trazado_193549" data-name="Trazado 193549" d="M131.058,81.562a8.82,8.82,0,1,0-8.82,8.82,8.83,8.83,0,0,0,8.82-8.82m-15.51,0a6.69,6.69,0,1,1,6.69,6.69,6.7,6.7,0,0,1-6.69-6.69" transform="translate(-75.9 -48.679)" fill="#6836b1"/>
          <path id="Trazado_193550" data-name="Trazado 193550" d="M137.9,95.1a2.131,2.131,0,1,0-2.13,2.13,2.133,2.133,0,0,0,2.13-2.13" transform="translate(-89.432 -62.212)" fill="#6836b1"/>
          <path id="Trazado_193551" data-name="Trazado 193551" d="M70.881,180.329A1.674,1.674,0,1,0,72.555,182a1.676,1.676,0,0,0-1.674-1.674" transform="translate(-46.314 -120.677)" fill="#6836b1"/>
          <path id="Trazado_193552" data-name="Trazado 193552" d="M47.811,180.329A1.674,1.674,0,1,0,49.485,182a1.676,1.676,0,0,0-1.674-1.674" transform="translate(-30.875 -120.677)" fill="#6836b1"/>
          <path id="Trazado_193553" data-name="Trazado 193553" d="M24.743,180.329A1.674,1.674,0,1,0,26.417,182a1.676,1.676,0,0,0-1.674-1.674" transform="translate(-15.438 -120.677)" fill="#6836b1"/>
          <path id="Trazado_193554" data-name="Trazado 193554" d="M1.674,180.329A1.674,1.674,0,1,0,3.348,182a1.676,1.676,0,0,0-1.674-1.674" transform="translate(0 -120.677)" fill="#6836b1"/>
          <path id="Trazado_193555" data-name="Trazado 193555" d="M1.674,157.259a1.674,1.674,0,1,0,1.674,1.674,1.676,1.676,0,0,0-1.674-1.674" transform="translate(0 -105.238)" fill="#6836b1"/>
          <path id="Trazado_193556" data-name="Trazado 193556" d="M1.674,134.191a1.674,1.674,0,1,0,1.674,1.674,1.676,1.676,0,0,0-1.674-1.674" transform="translate(0 -89.801)" fill="#6836b1"/>
          <path id="Trazado_193557" data-name="Trazado 193557" d="M1.674,111.122A1.674,1.674,0,1,0,3.348,112.8a1.676,1.676,0,0,0-1.674-1.674" transform="translate(0 -74.363)" fill="#6836b1"/>
        </g>
      </g>
    </g>
  </g>
</svg>
