<svg xmlns="http://www.w3.org/2000/svg" xmlns:xlink="http://www.w3.org/1999/xlink" width="190" height="110.333" viewBox="0 0 190 110.333">
  <defs>
    <linearGradient id="linear-gradient" x1="0.5" x2="0.5" y2="1" gradientUnits="objectBoundingBox">
      <stop offset="0" stop-color="#f7ca2e" stop-opacity="0"/>
      <stop offset="0.091" stop-color="#f7ca2e" stop-opacity="0.129"/>
      <stop offset="0.283" stop-color="#f7ca2e" stop-opacity="0.388"/>
      <stop offset="0.465" stop-color="#f7ca2e" stop-opacity="0.612"/>
      <stop offset="0.633" stop-color="#f7ca2e" stop-opacity="0.78"/>
      <stop offset="0.784" stop-color="#f7ca2e" stop-opacity="0.902"/>
      <stop offset="0.911" stop-color="#f7ca2e" stop-opacity="0.969"/>
      <stop offset="1" stop-color="#f7ca2e"/>
    </linearGradient>
    <linearGradient id="linear-gradient-2" x1="0.5" x2="0.5" y2="1" gradientUnits="objectBoundingBox">
      <stop offset="0" stop-color="#b13e8d" stop-opacity="0"/>
      <stop offset="0.091" stop-color="#b13e8d" stop-opacity="0.129"/>
      <stop offset="0.283" stop-color="#b13e8d" stop-opacity="0.388"/>
      <stop offset="0.465" stop-color="#b13e8d" stop-opacity="0.612"/>
      <stop offset="0.633" stop-color="#b13e8d" stop-opacity="0.78"/>
      <stop offset="0.784" stop-color="#b13e8d"/>
      <stop offset="0.911" stop-color="#b13e8d" stop-opacity="0.969"/>
      <stop offset="1" stop-color="#b13e8d"/>
    </linearGradient>
    <filter id="Rectángulo_40717" x="41" y="1" width="108" height="108" filterUnits="userSpaceOnUse">
      <feOffset dy="3" input="SourceAlpha"/>
      <feGaussianBlur stdDeviation="3" result="blur"/>
      <feFlood flood-opacity="0.161"/>
      <feComposite operator="in" in2="blur"/>
      <feComposite in="SourceGraphic"/>
    </filter>
  </defs>
  <g id="Grupo_136652" data-name="Grupo 136652" transform="translate(-181 -408)">
    <g id="Grupo_133242" data-name="Grupo 133242" transform="translate(1 8)">
      <rect id="Rectángulo_40586" data-name="Rectángulo 40586" width="190" height="20" transform="translate(180 442)" fill="none"/>
      <g id="Grupo_108405" data-name="Grupo 108405" transform="translate(209.5 464)">
        <path id="Rectángulo_5242" data-name="Rectángulo 5242" d="M0,0H12a0,0,0,0,1,0,0V43.333a3,3,0,0,1-3,3H3a3,3,0,0,1-3-3V0A0,0,0,0,1,0,0Z" transform="translate(0 0)" fill="url(#linear-gradient)"/>
      </g>
      <g id="Grupo_108406" data-name="Grupo 108406" transform="translate(340 452) rotate(180)">
        <path id="Rectángulo_5242-2" data-name="Rectángulo 5242" d="M0,0H12a0,0,0,0,1,0,0V49a3,3,0,0,1-3,3H3a3,3,0,0,1-3-3V0A0,0,0,0,1,0,0Z" transform="translate(0 0)" fill="url(#linear-gradient-2)"/>
      </g>
    </g>
    <g id="Grupo_136461" data-name="Grupo 136461">
      <g transform="matrix(1, 0, 0, 1, 181, 408)" filter="url(#Rectángulo_40717)">
        <path id="Rectángulo_40717-2" data-name="Rectángulo 40717" d="M10,0H80A10,10,0,0,1,90,10V90a0,0,0,0,1,0,0H10A10,10,0,0,1,0,80V10A10,10,0,0,1,10,0Z" transform="translate(50 7)" fill="#f6f6f6"/>
      </g>
      <g id="Grupo_136460" data-name="Grupo 136460" transform="translate(244 429)">
        <path id="Trazado_190122" data-name="Trazado 190122" d="M759.406,169.266a1.879,1.879,0,1,0,1.879,1.879A1.885,1.885,0,0,0,759.406,169.266Z" transform="translate(-740.606 -110.501)" fill="#6836bf"/>
        <path id="Trazado_190123" data-name="Trazado 190123" d="M749.84,169.266a1.879,1.879,0,1,0,1.879,1.879A1.885,1.885,0,0,0,749.84,169.266Z" transform="translate(-739.497 -110.501)" fill="#6836bf"/>
        <path id="Trazado_190124" data-name="Trazado 190124" d="M740.275,169.266a1.879,1.879,0,1,0,1.879,1.879A1.885,1.885,0,0,0,740.275,169.266Z" transform="translate(-738.387 -110.501)" fill="#6836bf"/>
        <path id="Trazado_190125" data-name="Trazado 190125" d="M740.275,159.7a1.879,1.879,0,1,0,1.879,1.879A1.885,1.885,0,0,0,740.275,159.7Z" transform="translate(-738.387 -109.392)" fill="#6836bf"/>
        <path id="Trazado_190126" data-name="Trazado 190126" d="M740.275,150.135a1.879,1.879,0,1,0,1.879,1.879A1.885,1.885,0,0,0,740.275,150.135Z" transform="translate(-738.387 -108.282)" fill="#6836bf"/>
        <path id="Trazado_190127" data-name="Trazado 190127" d="M770.007,124.6v3.818a1.23,1.23,0,1,0,2.46,0V124.6c0-4.553-3.323-5.842-5.518-6.688,0,0-2.571-1-4.228-1.648a8.712,8.712,0,1,0-14.589,0c-1.657.641-4.228,1.648-4.228,1.648-2.2.854-5.518,2.144-5.518,6.688v11.625a1.23,1.23,0,0,0,2.46,0V124.6c0-2.665,1.563-3.468,3.946-4.39,0,0,3.109-1.213,5.091-1.982a8.615,8.615,0,0,0,2.306,1.367l-2.221,10.173a1.243,1.243,0,0,0,.239,1.034l4.254,5.3a1.236,1.236,0,0,0,.965.461,1.249,1.249,0,0,0,.965-.461l4.254-5.3a1.215,1.215,0,0,0,.239-1.034l-2.221-10.173a8.708,8.708,0,0,0,2.306-1.367c1.982.769,5.091,1.982,5.091,1.982C768.444,121.131,770.007,121.934,770.007,124.6Zm-14.572-19.346a6.244,6.244,0,1,1-6.244,6.244A6.252,6.252,0,0,1,755.435,105.252Zm2.921,24.463-2.921,3.647-2.921-3.647,2.084-9.541c.273.026.555.043.837.043s.564-.017.837-.043Z" transform="translate(-738.386 -102.792)" fill="#6836bf"/>
        <path id="Trazado_190128" data-name="Trazado 190128" d="M799.142,144.065s-2.571-1-4.228-1.648a8.712,8.712,0,1,0-14.589,0c-1.657.641-4.228,1.648-4.228,1.648-2.2.854-5.518,2.144-5.518,6.688v16.365a1.23,1.23,0,0,0,1.23,1.23h31.612a1.23,1.23,0,0,0,1.23-1.23V150.753c0-4.553-3.323-5.842-5.518-6.688Zm-11.522-12.65a6.244,6.244,0,1,1-6.244,6.244A6.252,6.252,0,0,1,787.62,131.415Zm2.921,24.463-2.921,3.647-2.921-3.647,2.084-9.541c.273.026.555.043.837.043s.564-.017.837-.043Zm11.651,10.01H773.04V150.762c0-2.665,1.563-3.468,3.946-4.39,0,0,3.109-1.213,5.091-1.982a8.614,8.614,0,0,0,2.306,1.367l-2.221,10.173a1.243,1.243,0,0,0,.239,1.034l4.254,5.3a1.236,1.236,0,0,0,.965.461,1.249,1.249,0,0,0,.965-.461l4.254-5.3a1.214,1.214,0,0,0,.239-1.034l-2.221-10.173a8.843,8.843,0,0,0,2.306-1.367c1.982.769,5.091,1.982,5.091,1.982,2.383.922,3.946,1.725,3.946,4.39v15.127Z" transform="translate(-742.12 -105.825)" fill="#6836bf"/>
        <path id="Trazado_190129" data-name="Trazado 190129" d="M800.231,102.792h-15.2a6.612,6.612,0,0,0-6.6,6.6V114.8a6.612,6.612,0,0,0,6.6,6.6h10.933c.811.3,3.886,1.742,2.93,6.38a1.227,1.227,0,0,0,.512,1.264,1.2,1.2,0,0,0,.692.214,1.267,1.267,0,0,0,.675-.2c4-2.605,5.321-5.714,4.015-9.489a6.618,6.618,0,0,0,2.058-4.775v-5.407a6.612,6.612,0,0,0-6.6-6.6Zm4.143,12.009a4.157,4.157,0,0,1-1.777,3.391,1.231,1.231,0,0,0-.427,1.478c.017.034.026.06.043.094.957,2.212.769,3.938-.709,5.552a7.19,7.19,0,0,0-5-6.321,1.142,1.142,0,0,0-.342-.051H785.036a4.152,4.152,0,0,1-4.143-4.143v-5.407a4.152,4.152,0,0,1,4.143-4.143h15.2a4.152,4.152,0,0,1,4.143,4.143V114.8Z" transform="translate(-743.029 -102.792)" fill="#6836bf"/>
      </g>
    </g>
  </g>
</svg>
