<svg xmlns="http://www.w3.org/2000/svg" width="718.033" height="336.851" viewBox="0 0 718.033 336.851">
  <g id="Grupo_136771" data-name="Grupo 136771" transform="translate(-516.5 -3236.669)">
    <g id="Grupo_136769" data-name="Grupo 136769" transform="translate(120.5 -10)">
      <rect id="Rect치ngulo_43803" data-name="Rect치ngulo 43803" width="497" height="60" rx="30" transform="translate(617.033 3361.34)" fill="#6836bf"/>
      <rect id="Rect치ngulo_43804" data-name="Rect치ngulo 43804" width="497" height="60" rx="30" transform="translate(617.033 3481.34)" fill="#6836bf"/>
      <path id="Trazado_193844" data-name="Trazado 193844" d="M34.514,0H462.486C481.548,0,497,13.431,497,30s-15.452,30-34.514,30H34.514C15.452,60,0,46.569,0,30S15.452,0,34.514,0Z" transform="translate(617.033 3421.34)" fill="#f7ca2e"/>
      <g id="Grupo_136692" data-name="Grupo 136692" transform="translate(-61.967 142.34)">
        <circle id="Elipse_5399" data-name="Elipse 5399" cx="15" cy="15" r="15" transform="translate(757.967 3234)" fill="#f7ca2e"/>
        <text id="_1" data-name="1" transform="translate(767.967 3256)" fill="#12263f" font-size="18" font-family="Roboto-Bold, Roboto" font-weight="700"><tspan x="0" y="0">1</tspan></text>
      </g>
      <g id="Grupo_136693" data-name="Grupo 136693" transform="translate(-53 263.34)">
        <circle id="Elipse_5399-2" data-name="Elipse 5399" cx="15" cy="15" r="15" transform="translate(749 3234)" fill="#f7ca2e"/>
        <text id="_3" data-name="3" transform="translate(759 3256)" fill="#12263f" font-size="18" font-family="Roboto-Bold, Roboto" font-weight="700"><tspan x="0" y="0">3</tspan></text>
      </g>
      <g id="Grupo_136694" data-name="Grupo 136694" transform="translate(-53 202.34)">
        <circle id="Elipse_5399-3" data-name="Elipse 5399" cx="15" cy="15" r="15" transform="translate(749 3234)" fill="#6836bf"/>
        <text id="_2" data-name="2" transform="translate(759 3256)" fill="#fff" font-size="18" font-family="Roboto-Bold, Roboto" font-weight="700"><tspan x="0" y="0">2</tspan></text>
      </g>
      <g id="Capa_1" data-name="Capa 1" transform="translate(368.033 3264.801)">
        <g id="Grupo_136224" data-name="Grupo 136224" transform="translate(-19)">
          <g id="Grupo_136223" data-name="Grupo 136223" transform="translate(46.967 -18.131)">
            <path id="Trazado_190455" data-name="Trazado 190455" d="M191.826,411.158c-74.447,9.034-142.353-44.189-151.381-118.642-9.028-74.436,44.189-142.347,118.63-151.381S301.44,185.33,310.462,259.766c9.028,74.453-44.194,142.364-118.636,151.386Z" transform="translate(-37.2 -75.307)" fill="#7c2c67"/>
            <g id="Grupo_136217" data-name="Grupo 136217" transform="translate(13.019 61.887)">
              <path id="Trazado_190456" data-name="Trazado 190456" d="M210.422,406.078C135.98,415.106,68.069,361.889,59.036,287.436,50.008,213,103.23,145.089,177.666,136.056S320.03,180.25,329.052,254.692,284.858,397.056,210.416,406.078Z" transform="translate(-58.037 -135.057)" fill="#b13e8d"/>
              <path id="Trazado_190457" data-name="Trazado 190457" d="M212.393,414.36C137.946,423.388,70.04,370.172,61.007,295.719a136.243,136.243,0,0,1,75.67-138.749c-51.9,24.192-84.895,79.83-77.64,139.682,9.034,74.453,76.939,127.67,151.386,118.642a135.6,135.6,0,0,0,42.96-12.632,135.586,135.586,0,0,1-40.99,11.7Z" transform="translate(-58.038 -144.273)" fill="#8c3475"/>
              <path id="Trazado_190458" data-name="Trazado 190458" d="M226.914,398.809a124.69,124.69,0,1,1,0,.006Z" transform="translate(-77.81 -154.826)" fill="#fff"/>
              <path id="Trazado_190459" data-name="Trazado 190459" d="M243.394,391.528a73.241,73.241,0,1,0-.006,0Z" transform="translate(-97.569 -174.594)" fill="#b13e8d"/>
              <path id="Trazado_190460" data-name="Trazado 190460" d="M259.891,384.269a54.289,54.289,0,1,1,47.364-60.436,54.352,54.352,0,0,1-47.364,60.436Z" transform="translate(-117.346 -194.365)" fill="#fff"/>
              <path id="Trazado_190461" data-name="Trazado 190461" d="M299.96,346.891a27.054,27.054,0,1,1-30.108-23.6,27.054,27.054,0,0,1,30.108,23.6Z" transform="translate(-137.105 -214.138)" fill="#b13e8d"/>
            </g>
            <g id="Grupo_136218" data-name="Grupo 136218" transform="translate(31.656 123.171)" opacity="0.41">
              <path id="Trazado_190462" data-name="Trazado 190462" d="M95.421,240.82q-2.755,4-5.221,8.188l100.366,59.318,22.448,8.147-17.7-16.607Z" transform="translate(-90.2 -240.82)" fill="#856706"/>
            </g>
            <g id="Grupo_136222" data-name="Grupo 136222">
              <path id="Trazado_190463" data-name="Trazado 190463" d="M192.316,210.826l10.876,25.745-19.829-19.052L66.06,53.043l8.958-6.693Z" transform="translate(-48.392 -35.864)" fill="#e2a805"/>
              <path id="Trazado_190464" data-name="Trazado 190464" d="M121.6,111.285a3.476,3.476,0,0,1-.672,4.873l-4.624,3.506a3.48,3.48,0,0,1-4.873-.672l-50.8-71.434a3.481,3.481,0,0,1,.672-4.873l4.624-3.506a3.481,3.481,0,0,1,4.873.672Z" transform="translate(-45.811 -32.552)" fill="#7c2c67"/>
              <path id="Trazado_190465" data-name="Trazado 190465" d="M122.315,111.285,71.515,39.85a3.481,3.481,0,0,0-4.873-.672l-4.624,3.506a2.812,2.812,0,0,0-.388.353,3.478,3.478,0,0,1,4.583.869l50.8,71.428a3.476,3.476,0,0,1-.284,4.525c.1-.058.2-.127.3-.2l4.624-3.506a3.477,3.477,0,0,0,.672-4.873Z" transform="translate(-46.529 -32.552)" fill="#7c2c67"/>
              <path id="Trazado_190466" data-name="Trazado 190466" d="M122.315,111.285,71.515,39.85a3.481,3.481,0,0,0-4.873-.672l-4.624,3.506a2.812,2.812,0,0,0-.388.353,3.425,3.425,0,0,1,.527-.261l2.109-1.6a3.48,3.48,0,0,1,4.873.672l50.8,71.428a3.478,3.478,0,0,1,.052,4.131l1.651-1.246a3.477,3.477,0,0,0,.672-4.873Z" transform="translate(-46.529 -32.552)" fill="#7c2c67"/>
              <g id="Grupo_136219" data-name="Grupo 136219" transform="translate(30.529)">
                <path id="Trazado_190467" data-name="Trazado 190467" d="M97.459,36.543C93.207,31.067,88.213,24.8,85.08,18.6a49.484,49.484,0,0,1,3.527-7.424,40.863,40.863,0,0,1,5.332-7.962C99.1-2.45,106.961-.193,110.427,6.52c3.922,7.578,4.187,17,3.742,25.326-.377,7.083-.158,16.384-4.381,22.294-4.467-5.669-7.977-11.985-12.333-17.6Z" transform="translate(-85.08 0.005)" fill="#b13e8d"/>
                <path id="Trazado_190468" data-name="Trazado 190468" d="M121.683,35.538c-1.137-8.26-3.186-17.471-8.468-24.177-3-3.814-7.438-5.483-11.285-4.457a28.746,28.746,0,0,1,2.817-3.692C109.9-2.45,117.768-.193,121.235,6.52c3.922,7.578,4.187,17,3.742,25.326-.269,5.1-.233,11.353-1.769,16.66a118.067,118.067,0,0,0-1.521-12.968Z" transform="translate(-95.884 0.005)" fill="#7c2c67"/>
                <path id="Trazado_190469" data-name="Trazado 190469" d="M115.31,8.984c5.443,7.725,7.162,18.031,7.934,27.234.266,3.165.693,6.706.858,10.28a32.631,32.631,0,0,1-.9,4.184,118.063,118.063,0,0,0-1.521-12.968c-1.137-8.26-3.186-17.471-8.468-24.177-3-3.814-7.438-5.483-11.285-4.457a28.746,28.746,0,0,1,2.817-3.692,10.47,10.47,0,0,1,2.433-2,13.379,13.379,0,0,1,8.131,5.594Z" transform="translate(-95.884 -2.172)" fill="#b13e8d"/>
              </g>
              <g id="Grupo_136221" data-name="Grupo 136221" transform="translate(0 23.227)">
                <path id="Trazado_190470" data-name="Trazado 190470" d="M37.649,83.143c-3.886-6.082-8.289-13.172-13.28-18.411a51.64,51.64,0,0,0-8.536.858,42.52,42.52,0,0,0-9.7,2.444C-1.244,71.1-1.789,79.605,3.59,85.353,9.661,91.844,18.825,95.4,27.16,97.883c7.09,2.11,16.154,5.576,23.445,3.5-4-6.365-8.971-12.013-12.953-18.242Z" transform="translate(-0.004 -64.727)" fill="#b13e8d"/>
                <g id="Grupo_136220" data-name="Grupo 136220" transform="translate(16.295 0.001)">
                  <path id="Trazado_190471" data-name="Trazado 190471" d="M60.01,65c.093-.007.187-.014.276-.025C60.2,64.981,60.1,64.984,60.01,65Z" transform="translate(-54.771 -64.884)" fill="#b13e8d"/>
                  <path id="Trazado_190472" data-name="Trazado 190472" d="M64.652,64.75c-.086,0-.172.007-.262.011Z" transform="translate(-57.58 -64.743)" fill="#b13e8d"/>
                  <path id="Trazado_190473" data-name="Trazado 190473" d="M63.226,64.8c-.09,0-.176.011-.266.014C63.05,64.811,63.139,64.8,63.226,64.8Z" transform="translate(-56.663 -64.775)" fill="#b13e8d"/>
                  <path id="Trazado_190474" data-name="Trazado 190474" d="M58.52,65.129c.093-.011.187-.018.28-.029C58.707,65.111,58.613,65.118,58.52,65.129Z" transform="translate(-53.816 -64.967)" fill="#b13e8d"/>
                  <path id="Trazado_190475" data-name="Trazado 190475" d="M138.74,163.37c.043.065.086.133.129.2C138.826,163.5,138.783,163.435,138.74,163.37Z" transform="translate(-105.251 -127.976)" fill="#b13e8d"/>
                  <path id="Trazado_190476" data-name="Trazado 190476" d="M133.78,156.09c.126.176.248.348.366.527Z" transform="translate(-102.071 -123.308)" fill="#b13e8d"/>
                  <path id="Trazado_190477" data-name="Trazado 190477" d="M53.433,64.73c-.391.14-.782.291-1.17.452-7.377,3.072-7.923,11.572-2.544,17.32,6.068,6.491,15.239,10.054,23.574,12.534,1.037.3,2.117.642,3.226.99.273.373.542.746.807,1.127-3.355-4.718-7.022-9.189-10.1-14C63.34,77.07,58.938,69.98,53.946,64.741c-.226-.007-.463-.007-.7,0,.061,0,.126,0,.187,0Z" transform="translate(-45.877 -64.73)" fill="#b13e8d"/>
                  <path id="Trazado_190478" data-name="Trazado 190478" d="M136.36,159.8c.075.108.147.219.222.327C136.507,160.019,136.435,159.908,136.36,159.8Z" transform="translate(-103.725 -125.687)" fill="#b13e8d"/>
                  <path id="Trazado_190479" data-name="Trazado 190479" d="M61.49,64.9c.09-.007.179-.011.273-.018C61.669,64.887,61.583,64.894,61.49,64.9Z" transform="translate(-55.72 -64.826)" fill="#b13e8d"/>
                  <path id="Trazado_190480" data-name="Trazado 190480" d="M46.79,66.642c.065-.007.133-.022.2-.032Z" transform="translate(-46.295 -65.935)" fill="#b13e8d"/>
                  <path id="Trazado_190481" data-name="Trazado 190481" d="M48.18,66.432l.226-.032Z" transform="translate(-47.186 -65.801)" fill="#b13e8d"/>
                  <path id="Trazado_190482" data-name="Trazado 190482" d="M52.8,65.77c-.086.011-.176.022-.262.036C52.626,65.8,52.716,65.784,52.8,65.77Z" transform="translate(-49.982 -65.397)" fill="#b13e8d"/>
                  <path id="Trazado_190483" data-name="Trazado 190483" d="M45.41,66.869c.057-.011.118-.018.176-.029C45.528,66.847,45.467,66.858,45.41,66.869Z" transform="translate(-45.41 -66.083)" fill="#b13e8d"/>
                  <path id="Trazado_190484" data-name="Trazado 190484" d="M54.3,65.58l-.269.032Z" transform="translate(-50.937 -65.275)" fill="#b13e8d"/>
                  <path id="Trazado_190485" data-name="Trazado 190485" d="M55.52,65.439c.09-.007.183-.018.276-.029C55.7,65.421,55.613,65.432,55.52,65.439Z" transform="translate(-51.892 -65.166)" fill="#b13e8d"/>
                  <path id="Trazado_190486" data-name="Trazado 190486" d="M57.02,65.269c.093-.007.187-.018.276-.029C57.2,65.247,57.11,65.258,57.02,65.269Z" transform="translate(-52.854 -65.057)" fill="#b13e8d"/>
                  <path id="Trazado_190487" data-name="Trazado 190487" d="M51.325,65.97c-.086.011-.169.022-.255.036C51.156,66,51.239,65.984,51.325,65.97Z" transform="translate(-49.039 -65.525)" fill="#b13e8d"/>
                  <path id="Trazado_190488" data-name="Trazado 190488" d="M49.86,66.18c-.079.011-.161.025-.24.036C49.7,66.2,49.781,66.191,49.86,66.18Z" transform="translate(-48.109 -65.66)" fill="#b13e8d"/>
                </g>
                <path id="Trazado_190489" data-name="Trazado 190489" d="M31.937,99.23c-7.718-4.008-16.046-9.236-20.779-16.761-2.695-4.277-2.774-9.211-.413-12.62a30.354,30.354,0,0,0-4.622,1.468C-1.254,74.385-1.8,82.89,3.58,88.638c6.071,6.491,15.236,10.051,23.571,12.53,5.106,1.518,11.238,3.743,16.99,4.094a122.8,122.8,0,0,1-12.207-6.028Z" transform="translate(0.002 -68.012)" fill="#7c2c67"/>
                <path id="Trazado_190490" data-name="Trazado 190490" d="M11.633,82.935c5.68,8.041,15.2,13.33,23.973,17.306,3.014,1.367,6.351,3.028,9.8,4.439a34.475,34.475,0,0,0,4.424.588A122.8,122.8,0,0,1,37.626,99.24C29.908,95.232,21.58,90,16.847,82.48c-2.695-4.277-2.774-9.211-.413-12.62a30.355,30.355,0,0,0-4.622,1.468,10.87,10.87,0,0,0-2.82,1.686,13.886,13.886,0,0,0,2.637,9.925Z" transform="translate(-5.687 -68.018)" fill="#b13e8d"/>
              </g>
            </g>
          </g>
        </g>
      </g>
      <text id="Mejorar_las_habilidades_blandas_y_duras" data-name="Mejorar las habilidades blandas y duras" transform="translate(734 3379.729)" fill="#fff" font-size="16" font-family="Roboto-Bold, Roboto" font-weight="700"><tspan x="0" y="17">Mejorar las habilidades blandas y duras</tspan></text>
      <text id="Mejorar_las_habilidades_blandas_y_duras-2" data-name="Mejorar las habilidades blandas y duras" transform="translate(734 3440.84)" fill="#12263f" font-size="16" font-family="Roboto-Bold, Roboto" font-weight="700"><tspan x="0" y="17">Mejorar las habilidades blandas y duras</tspan></text>
      <text id="Retener_al_talento_como_prioridad" data-name="Retener al talento como prioridad" transform="translate(734 3500.84)" fill="#fff" font-size="16" font-family="Roboto-Bold, Roboto" font-weight="700"><tspan x="0" y="17">Retener al talento como prioridad</tspan></text>
    </g>
  </g>
</svg>
