<svg xmlns="http://www.w3.org/2000/svg" xmlns:xlink="http://www.w3.org/1999/xlink" width="80" height="80" viewBox="0 0 80 80">
  <defs>
    <clipPath id="clip-path">
      <rect id="Rectángulo_43747" data-name="Rectángulo 43747" width="39.5" height="57.859" fill="none"/>
    </clipPath>
  </defs>
  <g id="Grupo_136590" data-name="Grupo 136590" transform="translate(-190 -5341)">
    <circle id="Elipse_5355" data-name="Elipse 5355" cx="40" cy="40" r="40" transform="translate(190 5341)" fill="#b13e8d"/>
    <g id="Grupo_136552" data-name="Grupo 136552" transform="translate(210 5352)">
      <g id="Grupo_136551" data-name="Grupo 136551" clip-path="url(#clip-path)">
        <path id="Trazado_193686" data-name="Trazado 193686" d="M23.221,44.264c-.982,0-2.138,0-3.5-.01-3.984-.016-7.967-.048-7.967-.048a1.156,1.156,0,0,1-.16-.013,3.023,3.023,0,0,1-2.9-3.166c.068-2.852-.973-5.447-3.481-8.676C2.909,29.38.7,26.046.151,21.8A19.157,19.157,0,0,1,5.582,6.042,18.939,18.939,0,0,1,20.955.076c10.2.939,17.265,7.8,18.436,17.92a17.14,17.14,0,0,1-3.818,12.628l-.524.683c-1.811,2.355-3.522,4.579-4.017,7.423l-.07.388a6.767,6.767,0,0,0-.17,1.515A3.094,3.094,0,0,1,27.838,44.2l-.012-.082a37.289,37.289,0,0,1-4.605.149M11.858,42.007c5.6.045,14.586.087,15.617.021.024,0,.049-.009.074-.012.874-.116,1.1-.386,1.048-1.256a8.554,8.554,0,0,1,.2-2.039l.066-.366c.588-3.379,2.546-5.925,4.44-8.387l.518-.676c2.724-3.571,3.83-7.183,3.383-11.042C36.147,9.091,30,3.116,20.754,2.266a16.783,16.783,0,0,0-13.588,5.3A16.97,16.97,0,0,0,2.332,21.513c.459,3.522,2.177,6.341,4.616,9.49,1.889,2.431,4.044,5.775,3.941,10.076-.008.355-.018.755.969.928" transform="translate(0 0)" fill="#fff"/>
        <path id="Trazado_193687" data-name="Trazado 193687" d="M46.454,138.864h-12a3.092,3.092,0,0,1-3.09-3.089V126.8h2.2v8.977a.891.891,0,0,0,.89.89h12a.89.89,0,0,0,.889-.89V126.8h2.2v8.977a3.092,3.092,0,0,1-3.088,3.089" transform="translate(-20.705 -83.693)" fill="#fff"/>
        <rect id="Rectángulo_43745" data-name="Rectángulo 43745" width="15.258" height="2.199" transform="translate(12.495 49.334)" fill="#fff"/>
        <rect id="Rectángulo_43746" data-name="Rectángulo 43746" width="15.258" height="2.199" transform="translate(12.495 45.646)" fill="#fff"/>
        <path id="Trazado_193688" data-name="Trazado 193688" d="M51.929,162.843h-5.09a1.917,1.917,0,0,1-1.944-1.884v-1.9h2.2v1.588h4.58v-1.588h2.2v1.9a1.917,1.917,0,0,1-1.944,1.884" transform="translate(-29.633 -104.984)" fill="#fff"/>
        <path id="Trazado_193689" data-name="Trazado 193689" d="M33.239,43.178a4.108,4.108,0,0,1-4.053-3.472,5.23,5.23,0,0,1-3.317-8.827,5.23,5.23,0,0,1,3.307-8.826,4.1,4.1,0,0,1,8.164.565V39.076a4.106,4.106,0,0,1-4.1,4.1m-2.959-5.71a1.1,1.1,0,0,1,1.093,1.283,1.9,1.9,0,1,0,3.768.326V22.618a1.9,1.9,0,0,0-3.8,0,1.935,1.935,0,0,0,.038.368,1.1,1.1,0,0,1-1.249,1.295,2.952,2.952,0,0,0-.461-.051,3.036,3.036,0,0,0-1.484,5.692,1.1,1.1,0,0,1,0,1.915,3.036,3.036,0,0,0,1.484,5.692,2.909,2.909,0,0,0,.449-.049,1.1,1.1,0,0,1,.167-.012" transform="translate(-16.116 -12.222)" fill="#fff"/>
        <path id="Trazado_193690" data-name="Trazado 193690" d="M41.739,34.142a3.038,3.038,0,0,1-3.1-2.19l2.089-.687c.2.622.531.711,1.134.675.077,0,.14-.007.186-.007l.013,2.2c-.109.006-.215.01-.317.01" transform="translate(-25.501 -20.636)" fill="#fff"/>
        <path id="Trazado_193691" data-name="Trazado 193691" d="M36.671,52.425a.928.928,0,0,0-.562-.553,4.319,4.319,0,0,0-2.692.493L32.4,50.415c.255-.134,2.538-1.284,4.432-.621a3.12,3.12,0,0,1,1.85,1.742Z" transform="translate(-21.385 -32.731)" fill="#fff"/>
        <path id="Trazado_193692" data-name="Trazado 193692" d="M42.31,67.567c-.035-.235-.127-.649-.353-.773a1.581,1.581,0,0,0-1.118.1l-.917-2A3.723,3.723,0,0,1,43,64.858a3.019,3.019,0,0,1,1.487,2.388Z" transform="translate(-26.35 -42.591)" fill="#fff"/>
        <path id="Trazado_193693" data-name="Trazado 193693" d="M42.344,44.157a6.267,6.267,0,0,1-3.316-1.128L40.3,41.238a3.483,3.483,0,0,0,2.536.65l.638,2.1a3.9,3.9,0,0,1-1.135.164" transform="translate(-25.76 -27.219)" fill="#fff"/>
        <path id="Trazado_193694" data-name="Trazado 193694" d="M60.064,43.179a4.106,4.106,0,0,1-4.1-4.1h2.2a1.9,1.9,0,1,0,3.769-.323,1.1,1.1,0,0,1,1.248-1.275,3.028,3.028,0,0,0,1.944-5.641,1.1,1.1,0,0,1,0-1.915,3.036,3.036,0,0,0-1.484-5.692,2.988,2.988,0,0,0-.462.051,1.1,1.1,0,0,1-1.248-1.3,1.9,1.9,0,1,0-3.767-.365h-2.2a4.1,4.1,0,0,1,8.163-.565,5.23,5.23,0,0,1,3.308,8.826,5.23,5.23,0,0,1-3.318,8.827,4.108,4.108,0,0,1-4.053,3.472" transform="translate(-36.938 -12.223)" fill="#fff"/>
        <path id="Trazado_193695" data-name="Trazado 193695" d="M70.081,34.145c-.1,0-.2,0-.3-.01l-.047-2.2c.046,0,.108,0,.186.007.6.039.93-.054,1.134-.675l2.089.686a3.021,3.021,0,0,1-3.059,2.193" transform="translate(-46.025 -20.637)" fill="#fff"/>
        <path id="Trazado_193696" data-name="Trazado 193696" d="M69.527,52.425l-2.011-.889a3.122,3.122,0,0,1,1.85-1.742c1.893-.663,4.177.487,4.432.621l-1.02,1.948.51-.974-.507.976a4.339,4.339,0,0,0-2.692-.493.927.927,0,0,0-.562.553" transform="translate(-44.563 -32.731)" fill="#fff"/>
        <path id="Trazado_193697" data-name="Trazado 193697" d="M67.226,67.567l-2.176-.322a3.019,3.019,0,0,1,1.487-2.388,3.721,3.721,0,0,1,3.076.039l-.924,1.995.462-1-.455,1a1.575,1.575,0,0,0-1.118-.1c-.225.124-.318.538-.352.773" transform="translate(-42.936 -42.591)" fill="#fff"/>
        <path id="Trazado_193698" data-name="Trazado 193698" d="M67.41,44.157a3.9,3.9,0,0,1-1.135-.164l.638-2.1a3.5,3.5,0,0,0,2.536-.65l1.277,1.791a6.268,6.268,0,0,1-3.316,1.128" transform="translate(-43.744 -27.219)" fill="#fff"/>
      </g>
    </g>
  </g>
</svg>
