<svg xmlns="http://www.w3.org/2000/svg" xmlns:xlink="http://www.w3.org/1999/xlink" width="66.95" height="68.95" viewBox="0 0 66.95 68.95">
  <defs>
    <clipPath id="clip-path">
      <rect id="Rectángulo_43752" data-name="Rectángulo 43752" width="66.95" height="68.95" transform="translate(0 -2)" fill="#b13e8d"/>
    </clipPath>
  </defs>
  <g id="Grupo_136558" data-name="Grupo 136558" transform="translate(0 2)">
    <g id="Grupo_136557" data-name="Grupo 136557" clip-path="url(#clip-path)">
      <path id="Trazado_193709" data-name="Trazado 193709" d="M70.121,37.695a1.105,1.105,0,1,0,2.206-.145c-.225-3.416-.43-6.336-.611-8.681-.377-4.9.827-5.563,3.735-7.168.267-.148,4.716-2.643,6.751-3.771a9.743,9.743,0,0,0,1.9.967l-2.761,13.34a1.106,1.106,0,0,0,.3,1l5.1,5.143a1.106,1.106,0,0,0,.785.327h.044a1.107,1.107,0,0,0,.785-.327l5.1-5.143a1.106,1.106,0,0,0,.3-1L90.982,18.9a9.755,9.755,0,0,0,1.9-.967c2.035,1.128,6.484,3.623,6.751,3.771,2.908,1.605,4.111,2.27,3.735,7.168-.18,2.345-.386,5.265-.611,8.681a1.106,1.106,0,0,0,1.03,1.176l.074,0a1.1,1.1,0,0,0,1.1-1.032c.221-3.359.432-6.353.609-8.657.463-6.023-1.45-7.385-4.87-9.273-.26-.144-4.19-2.35-6.012-3.361a9.762,9.762,0,1,0-14.291,0c-1.822,1.011-5.752,3.217-6.012,3.361-3.421,1.888-5.334,3.25-4.87,9.273.177,2.3.388,5.3.609,8.657M91.458,32.1l-3.918,3.952L83.621,32.1l2.622-12.667a9.529,9.529,0,0,0,2.592,0ZM87.539,2.212a7.551,7.551,0,1,1-7.551,7.551,7.56,7.56,0,0,1,7.551-7.551" transform="translate(-45.607 -0.001)" fill="#b13e8d"/>
      <path id="Trazado_193710" data-name="Trazado 193710" d="M65.845,86.106H9.594V75.975l5.623-4.688a2.411,2.411,0,1,0-1.492-1.634L7.781,74.608a1.105,1.105,0,0,0-.4.849V86.106H1.105A1.105,1.105,0,0,0,0,87.211v6.474a1.105,1.105,0,0,0,1.105,1.106H5l4.266,15.118a1.1,1.1,0,0,0,1.064.805H56.619a1.1,1.1,0,0,0,1.063-.805l4.266-15.118h3.9a1.105,1.105,0,0,0,1.105-1.106V87.211a1.105,1.105,0,0,0-1.105-1.106M55.783,108.5H11.168L7.3,94.791H59.652ZM64.74,92.58H2.211V88.316H64.74Z" transform="translate(0 -43.763)" fill="#b13e8d"/>
    </g>
  </g>
</svg>
