<svg id="Grupo_136566" data-name="Grupo 136566" xmlns="http://www.w3.org/2000/svg" xmlns:xlink="http://www.w3.org/1999/xlink" width="70" height="69.856" viewBox="0 0 70 69.856">
  <defs>
    <clipPath id="clip-path">
      <rect id="Rectángulo_43758" data-name="Rectángulo 43758" width="70" height="69.857" fill="#b13e8d"/>
    </clipPath>
  </defs>
  <g id="Grupo_136565" data-name="Grupo 136565" clip-path="url(#clip-path)">
    <path id="Trazado_193729" data-name="Trazado 193729" d="M89.2,10.158a1.21,1.21,0,0,0,1.21-1.21V1.21A1.21,1.21,0,0,0,89.2,0H42.154a8.457,8.457,0,0,0-8.447,8.447V22.262a1.211,1.211,0,0,0,2.421,0v-7.9A8.419,8.419,0,0,0,42.154,16.9h45.83V67.436H72.6a1.211,1.211,0,0,0,0,2.421H89.2a1.21,1.21,0,0,0,1.21-1.21V15.684a1.21,1.21,0,0,0-1.21-1.21H42.154a6.027,6.027,0,0,1,0-12.053h45.83V8.948a1.21,1.21,0,0,0,1.21,1.21" transform="translate(-20.405)" fill="#b13e8d"/>
    <path id="Trazado_193730" data-name="Trazado 193730" d="M59.4,18.339a1.21,1.21,0,1,0,0,2.421H96a1.21,1.21,0,1,0,0-2.421Z" transform="translate(-35.226 -11.102)" fill="#b13e8d"/>
    <path id="Trazado_193731" data-name="Trazado 193731" d="M98.3,79.457a1.21,1.21,0,1,0,0,2.421h10.74a1.211,1.211,0,0,0,1.211-1.21V65.1a1.211,1.211,0,0,0-1.211-1.21H92.173a1.211,1.211,0,0,0,0,2.421h15.66v13.15Z" transform="translate(-55.067 -38.675)" fill="#b13e8d"/>
    <path id="Trazado_193732" data-name="Trazado 193732" d="M39.707,83.713s-3.685-1.437-6.619-2.576a11.8,11.8,0,1,0-19,0c-2.934,1.14-6.619,2.576-6.619,2.576C4.495,84.866,0,86.61,0,92.688v13.7a1.21,1.21,0,0,0,1.21,1.21H45.965a1.21,1.21,0,0,0,1.21-1.21v-13.7c0-6.077-4.495-7.821-7.469-8.975M23.588,64.771a9.378,9.378,0,1,1-9.378,9.377,9.388,9.388,0,0,1,9.378-9.377m21.167,40.41H37.92V97.638a1.21,1.21,0,1,0-2.421,0v7.543H11.677V97.638a1.211,1.211,0,0,0-2.421,0v7.543H2.421V92.688c0-4.42,3.011-5.588,5.923-6.718,0,0,4.234-1.65,7.51-2.922a11.763,11.763,0,0,0,15.468,0c3.275,1.272,7.509,2.922,7.509,2.922,2.912,1.13,5.924,2.3,5.924,6.718Z" transform="translate(0 -37.745)" fill="#b13e8d"/>
  </g>
</svg>
