<svg xmlns="http://www.w3.org/2000/svg" xmlns:xlink="http://www.w3.org/1999/xlink" width="505" height="407" viewBox="0 0 505 407">
  <defs>
    <clipPath id="clip-path">
      <rect id="Rectángulo_43575" data-name="Rectángulo 43575" width="505" height="407" transform="translate(180 969)" fill="#4d1414"/>
    </clipPath>
  </defs>
  <g id="Enmascarar_grupo_184" data-name="Enmascarar grupo 184" transform="translate(-180 -969)" clip-path="url(#clip-path)">
    <g id="IL2" transform="translate(141.125 976.664)">
      <g id="Capa_2" data-name="Capa 2" transform="translate(0 0.002)">
        <g id="Capa_1" data-name="Capa 1">
          <g id="Grupo_136351" data-name="Grupo 136351">
            <rect id="_06" data-name="06" width="582.75" height="388.5" transform="translate(0 19.167)" fill="#fff" opacity="0"/>
            <g id="Grupo_136350" data-name="Grupo 136350" transform="translate(42.764)">
              <path id="Trazado_193139" data-name="Trazado 193139" d="M202.223,2.158c-89.635-19.2-190.487,93.335-131.4,197.977,26.469,46.871-26.723,82.236,0,117.573s92.038,22.225,244.748,22.225c59.666,0,110.763,14.309,138.637,9.693,43.471-7.2,45.484-37.377,50.907-62.25,8.9-40.823-9.177-70.021-26.995-86.47s19.468-52.774,26.469-92.981-10.011-91.938-58.079-97.6C399.474,4.787,372.769,64.381,329.5,66.213S263.3,10.691,202.214,2.158Z" transform="translate(-34.578 -0.002)" fill="#e8e1f6"/>
              <g id="Grupo_136292" data-name="Grupo 136292" transform="translate(400.769 226.683)">
                <path id="Trazado_193140" data-name="Trazado 193140" d="M385.037,273.69h0c1.913-5.413,7.363-8.551,11.833-12.16s8.515-9.485,6.193-14.744c-1.17-2.648-3.881-5-3.237-7.816.943-4.117,7.644-3.9,9.6-7.644,1.36-2.593-.236-5.713-.254-8.642-.018-3.79,2.648-7.091,5.658-9.4s6.483-4.017,9.222-6.638,4.688-6.61,3.464-10.2c3.555,6.066,7.155,12.214,9,19s1.732,14.391-1.85,20.439c-2.43,4.108-6.52,7.934-5.939,12.668.363,2.947,2.485,5.3,4.262,7.68s3.337,5.4,2.376,8.2c-1.052,3.047-4.579,4.452-6.447,7.082-2.448,3.446-1.578,8.143-2.176,12.332-1,6.964-6.465,12.831-13.058,15.3-6.429,2.4-15.941,2.947-20.6-2.865-4.7-5.858-10.791-14.8-8.034-22.6Z" transform="translate(-384.357 -196.441)" fill="#debccd"/>
                <path id="Trazado_193141" data-name="Trazado 193141" d="M405.08,271.758a78.151,78.151,0,0,1,16.1-12.695c.2-.118.027-.435-.172-.317a78.174,78.174,0,0,0-15.642,12.205c.472-1.052.952-2.095,1.442-3.137,5.559-11.915,11.988-23.531,15.515-36.271.063-.218.118-.444.181-.662l.018-.018,5.93-7.345c.145-.181-.163-.372-.308-.19q-2.707,3.36-5.413,6.71h0a.162.162,0,0,0,.036-.154,59.416,59.416,0,0,0,1.841-19.659c-.018-.227-.381-.236-.363,0a58.606,58.606,0,0,1-1.714,19.07c-1.034-2.521-2.068-5.051-3.1-7.572-.091-.218-.408-.036-.317.172q1.632,4,3.273,7.989a114.113,114.113,0,0,1-6.674,18.435c-2.3,5.151-4.824,10.2-7.281,15.288a79.6,79.6,0,0,0-.336-23.93c-.036-.227-.39-.136-.354.091a79.361,79.361,0,0,1,.227,24.556.138.138,0,0,0,.054.136,155.707,155.707,0,0,0-8.433,20.357,65.358,65.358,0,0,0-3.337,21.735.181.181,0,0,0,.363,0c-.39-12.142,3.509-23.758,8.379-34.739a.14.14,0,0,0,.1-.054Z" transform="translate(-382.529 -194.346)" fill="#fff"/>
              </g>
              <g id="Grupo_136293" data-name="Grupo 136293" transform="translate(409.562 289.634)">
                <path id="Trazado_193142" data-name="Trazado 193142" d="M408.325,266.279c1.242-3.065,2.2-6.293,4.081-9.013s4.933-4.924,8.234-4.7,6.284,3.754,5.114,6.846c-.472,1.251-1.478,2.729-.58,3.718.843.934,2.43.19,3.228-.789a19.864,19.864,0,0,0,2.666-5.549c.753-1.922,1.75-3.881,3.518-4.942s4.47-.762,5.4,1.079a10.183,10.183,0,0,0,.916,2.1c.834.988,2.457.825,3.545.127a29.813,29.813,0,0,0,2.838-2.63c3.473-2.938,9.639-1.469,11.425,2.711s-1.415,9.648-5.939,10.129c-1.406.145-2.847-.109-4.207.272s-2.621,1.777-2.122,3.092c.5,1.342,2.276,1.569,3.4,2.448,1.868,1.46,1.478,4.652-.29,6.239s-4.334,1.9-6.71,1.723-4.706-.771-7.082-.653c-.834.036-1.814.281-2.095,1.061-.444,1.251,1.215,2.095,2.294,2.884,2.575,1.877,2.349,6.112.208,8.469s-5.513,3.174-8.705,3.319h0c-5.141.236-10.183-.961-15.116-2.24-4.779-1.242-9.993-1.75-14.663-3.183-6.574-2.013.408-6.4,2.784-9.3a51.93,51.93,0,0,0,7.862-13.23Z" transform="translate(-391.52 -250.994)" fill="#f7ca2e"/>
                <path id="Trazado_193143" data-name="Trazado 193143" d="M429,282.755c.209.009.19-.317-.018-.326a106,106,0,0,0-30.994,2.757,303.716,303.716,0,0,0,30.767-15.325h.018a59.045,59.045,0,0,1,12.523.662c.209.036.281-.281.073-.317a59.01,59.01,0,0,0-12-.707c2.158-1.242,4.307-2.5,6.438-3.8q5.917-3.591,11.67-7.454a.164.164,0,0,0-.181-.272Q441.29,262,435.1,265.744c.979-2.194,1.95-4.4,2.929-6.592.082-.19-.208-.345-.29-.145-1.034,2.33-2.068,4.652-3.1,6.982a.392.392,0,0,1-.009.045q-10.963,6.6-22.452,12.251a100.386,100.386,0,0,0,8.8-16.721c.082-.19-.208-.345-.29-.145a99.823,99.823,0,0,1-9.086,17.156q-3.441,1.687-6.937,3.292-6.23,2.856-12.586,5.432c-.19.082-.091.39.1.308q1.972-.8,3.944-1.632a.3.3,0,0,0,.091,0,104.751,104.751,0,0,1,32.771-3.219Z" transform="translate(-391.977 -249.924)" fill="#f2f2f2"/>
              </g>
              <path id="Trazado_193144" data-name="Trazado 193144" d="M116.74,305.039c-7.2-.725-8.614-1.26-15.343-3.935s-12.9-7.553-15.451-14.327c-1.8-4.788-1.723-10.247-4.289-14.672-2.24-3.854-6.184-6.384-9.077-9.775-9.285-10.863-6.275-28.2-14.518-39.871,12.3,9.177,25.172,19.079,30.794,33.36,1.6,4.071,2.566,8.4,4.543,12.3,3.364,6.638,9.34,11.48,14.726,16.6s10.564,11.235,11.462,18.616l-2.847,1.7Z" transform="translate(-33.824 34.247)" fill="#e4bbd7"/>
              <path id="Trazado_193145" data-name="Trazado 193145" d="M125.832,298.733c-6.792,2.485-8.306,2.612-15.524,3.137S95.4,300.683,90.159,295.7c-3.709-3.527-6.012-8.478-10.247-11.344-3.691-2.5-8.342-3.056-12.423-4.842-13.085-5.74-17.927-22.66-30.431-29.579,15.062,2.911,30.966,6.23,42.238,16.63,3.21,2.965,5.958,6.438,9.44,9.095,5.912,4.516,13.4,6.266,20.484,8.542s14.4,5.513,18.426,11.779l-1.823,2.766Z" transform="translate(-37.058 38.477)" fill="#cab8e9"/>
              <g id="Grupo_136294" data-name="Grupo 136294" transform="translate(50.161 222.031)">
                <path id="Trazado_193146" data-name="Trazado 193146" d="M91.764,192.41a96.6,96.6,0,0,0-8.506,21.808,44,44,0,0,0,8.424,2.349,78.153,78.153,0,0,1-9.376,1.8,86.417,86.417,0,0,0-1.659,21.917,119.555,119.555,0,0,0,13.375,1.687c4.171.109-4.815,2.612-12.858,4.135q.462,3.74,1.269,7.445A84.774,84.774,0,0,0,87,268.017c5.876-.426,11.833-.952,13.094-1.406,1.632-.589-4.661,3.319-10.9,6.275,1.143,2.339,2.385,4.634,3.736,6.9a101.6,101.6,0,0,0,7.381,10.791,29.254,29.254,0,0,0,4.071-1.877c.961-.68.2,2.693-1.406,5.105a80.783,80.783,0,0,0,6.248,6.474c2.938,2.7,5.413,3.926,7.535,4-9.839-36.253-18.888-75.19-24.955-111.824-.018-.009-.027-.027-.045-.036Z" transform="translate(-80.527 -192.41)" fill="#6836bf"/>
                <path id="Trazado_193147" data-name="Trazado 193147" d="M117.944,266.777c2.566.372,7.508.181,12.124-.118a78.311,78.311,0,0,0-2.04-20.811c-.245-1.034-.517-2.067-.807-3.092-5.178,1.85-11.752,3.7-9.494,2.276,1.623-1.025,5.232-3.645,8.361-5.958a86.211,86.211,0,0,0-11.861-23c-4.761,2.285-10.99,4.371-8.859,3.264,1.659-.87,4.017-4.189,5.894-7.173A104.442,104.442,0,0,0,90.3,192.457c6.066,36.634,15.116,75.571,24.955,111.824,3.872.136,6.556-3.536,8.705-8.941.544-1.36,1.043-2.729,1.514-4.1-3.391-1.65-7.771-6.075-5.967-5.613,1.07.272,4.289.834,7.318,1.333a84.833,84.833,0,0,0,2.92-15.306c-7.336-1.768-15.578-5.4-11.8-4.86Z" transform="translate(-79.023 -192.403)" fill="#3e2072"/>
              </g>
              <path id="Trazado_193148" data-name="Trazado 193148" d="M529.542,299.247c11.761,27.412-487.738,27.412-475.931,0C41.85,271.844,541.349,271.844,529.542,299.247Z" transform="translate(-34.542 42.905)" fill="#fcedae"/>
              <g id="Grupo_136302" data-name="Grupo 136302" transform="translate(237.802 63.998)">
                <path id="Trazado_193149" data-name="Trazado 193149" d="M409.675,201.426,245.648,191.76V92.051L409.675,60.286Z" transform="translate(-242.746 -54.719)" fill="#fdfdfd"/>
                <g id="Grupo_136298" data-name="Grupo 136298" transform="translate(68.116 48.422)">
                  <g id="Grupo_136295" data-name="Grupo 136295" transform="translate(34.653)">
                    <path id="Trazado_193150" data-name="Trazado 193150" d="M336.92,114.249c-1.36-2-.054-4.9-1.07-5.93-.979-.725-1.859.127-2.385,1.152-.109.218.145.39.272.172.345-.852,1.124-1.315,1.741-.68.617.689.145,1.8.19,2.648-1.043-1.152-3.527.172-3.473,2.067.063,2.2,3.119,2.548,4.026.562.063.145.136.281.209.426.19.345.68-.073.49-.417Zm-.952-.444c-.843,1.215-2.548,1.768-3.21.172-.5-1.578,1.9-3.11,2.92-1.9a5.476,5.476,0,0,0,.345,1.687A.24.24,0,0,0,335.968,113.8Z" transform="translate(-332.191 -95.787)" fill="#7a95c9"/>
                    <path id="Trazado_193151" data-name="Trazado 193151" d="M341.329,110c-.281,0-3.618.236-3.156.635a5.052,5.052,0,0,0,3.174-.363C341.483,110.2,341.465,110,341.329,110Z" transform="translate(-331.277 -95.487)" fill="#7a95c9"/>
                    <path id="Trazado_193152" data-name="Trazado 193152" d="M341.348,111.646c-.263-.027-3.818.408-3.21.834C338.455,112.553,342.01,112.236,341.348,111.646Z" transform="translate(-331.287 -95.233)" fill="#7a95c9"/>
                    <path id="Trazado_193153" data-name="Trazado 193153" d="M379.632,97.423a63.517,63.517,0,0,0-7.563,1.442c-7.29,1.288-15.116,2.131-22.053,3.618a59.708,59.708,0,0,0-5.223,12.695c-1.279-2.412-2.249-4.942-3.31-7.463-.045-.109-.2,0-.172.109a33.579,33.579,0,0,0,3.2,7.8c.073.145.227.109.317.018,1.75-4.28,3.5-8.732,5.559-12.931,4.688-.263,9.367-1.678,14.091-2.113,5.042-.78,10.219-1.088,15.161-2.847.163-.073.181-.336,0-.326Z" transform="translate(-330.788 -97.423)" fill="#7a95c9"/>
                    <path id="Trazado_193154" data-name="Trazado 193154" d="M352.154,112c-2.1,1.088-4.851,1.206-3.881-2.086.871-1.977,2.031-2.476,4-2.049.1.045.209-.136.118-.209-2.53-2.176-6.855,3.283-3.872,5.4,1.224,1.088,5.259-.78,3.636-1.061Z" transform="translate(-329.834 -95.924)" fill="#7a95c9"/>
                    <path id="Trazado_193155" data-name="Trazado 193155" d="M355.18,107.606c-.653.073-1.315.172-1.968.254l.091-.118c-.018-.063.054-.444,0-.435,2.757-.789,2.584-4.389-.39-2.748-.172.091-.091.417.091.336.354-.163,1.152-.553,1.478-.254.9.807-.218,1.687-.916,1.968-.4.181-.744.209-.816.725-.172,1.007.163,1.351,1.07,1.07l1.369-.163c.363-.045.335-.662-.027-.617Z" transform="translate(-329.033 -96.389)" fill="#7a95c9"/>
                    <path id="Trazado_193156" data-name="Trazado 193156" d="M368.725,105.722c-.707.082-1.406.181-2.1.272l.1-.127c-.027-.063.063-.453,0-.453,2.974-.843,2.747-4.552-.417-2.847-.19.1-.1.435.1.345.381-.163,1.233-.58,1.587-.272.635.49.317,1.206-.172,1.551-.49.58-1.514.417-1.678,1.251-.19,1.07.2,1.387,1.152,1.1.49-.054.979-.118,1.469-.181.39-.054.354-.689-.027-.644Z" transform="translate(-326.972 -96.699)" fill="#7a95c9"/>
                    <path id="Trazado_193157" data-name="Trazado 193157" d="M360.3,107.946c-.354.082-3.5.372-3.228.7.988.381,2.213-.073,3.255-.163.281-.054.254-.562-.027-.544Z" transform="translate(-328.364 -95.804)" fill="#7a95c9"/>
                    <path id="Trazado_193158" data-name="Trazado 193158" d="M367.122,108.591c-.435-2.466-2.947-1.6-4.117-.19.118-.354-.036-4.28-.571-3.491-.009,1.315.054,2.566-.027,3.9a5.756,5.756,0,0,0,.336,2.911c.435.39.426-.544.372-.807,1.442,1.351,4.67-.118,4.008-2.312ZM365,110.759a2.181,2.181,0,0,1-2.022-.7c-.009-.281,0-.952,0-1.224,3.419-3.672,5.3,1.424,2.013,1.922Z" transform="translate(-327.545 -96.286)" fill="#7a95c9"/>
                    <path id="Trazado_193159" data-name="Trazado 193159" d="M367.9,128.323c-1.6-2.258-.073-5.35-1.251-6.465-1.143-.825-2.176.063-2.793,1.161a.188.188,0,1,0,.317.2c.4-.907,1.324-1.378,2.04-.671.716.753.181,1.941.227,2.874-1.224-1.288-4.135.045-4.071,2.095.082,2.394,3.654,2.884,4.715.771l.245.462c.218.381.8-.054.571-.426Zm-1.115-.526c-1,1.3-3.011,1.8-3.772.054-.562-1.832,2.3-3.255,3.419-1.941a5.669,5.669,0,0,0,.408,1.841.276.276,0,0,0-.063.045Z" transform="translate(-327.546 -93.711)" fill="#7a95c9"/>
                    <path id="Trazado_193160" data-name="Trazado 193160" d="M341.33,126.851a15.947,15.947,0,0,0-3.147.3C337.558,127.785,342.164,127.477,341.33,126.851Z" transform="translate(-331.278 -92.892)" fill="#7a95c9"/>
                    <path id="Trazado_193161" data-name="Trazado 193161" d="M341.35,128.509a12.864,12.864,0,0,0-3.21.444C337.36,129.57,342.265,129.044,341.35,128.509Z" transform="translate(-331.289 -92.637)" fill="#7a95c9"/>
                    <path id="Trazado_193162" data-name="Trazado 193162" d="M379.632,115.8a62.524,62.524,0,0,0-7.563,1.1c-7.29.961-15.107,1.451-22.053,2.63a57.28,57.28,0,0,0-5.223,12.459c-1.279-2.466-2.249-5.042-3.31-7.617-.045-.109-.2-.009-.172.1a35.188,35.188,0,0,0,3.2,7.943.184.184,0,0,0,.317.027c1.75-4.189,3.5-8.578,5.559-12.686,4.679-.054,9.367-1.26,14.091-1.478,5.024-.553,10.21-.626,15.161-2.167.163-.063.181-.326,0-.326Z" transform="translate(-330.788 -94.597)" fill="#7a95c9"/>
                    <path id="Trazado_193163" data-name="Trazado 193163" d="M352.154,129.335c-2.113,1-4.851.97-3.881-2.258.88-1.968,2.077-2.376,4-1.868.1.045.209-.127.118-.2-2.575-2.312-6.837,3.047-3.872,5.223,1.224,1.143,5.259-.544,3.636-.9Z" transform="translate(-329.833 -93.263)" fill="#7a95c9"/>
                    <path id="Trazado_193164" data-name="Trazado 193164" d="M355.18,125.1c-.653.045-1.315.109-1.968.163l.091-.118c-.018-.063.054-.435,0-.435.181-.154.825-.308,1.007-.435,1.922-1.333.671-3.645-1.4-2.339-.172.082-.091.417.091.345.354-.145,1.152-.508,1.478-.19.889.834-.2,1.668-.916,1.931-.4.163-.744.181-.816.689-.172.988.163,1.36,1.07,1.115.453-.036.916-.063,1.369-.109.363-.036.336-.644-.027-.626Z" transform="translate(-329.033 -93.708)" fill="#7a95c9"/>
                    <path id="Trazado_193165" data-name="Trazado 193165" d="M370.009,123.7c-.707.054-1.415.118-2.122.172a1.144,1.144,0,0,0,.1-.118c-.027-.073.064-.453,0-.453.2-.163.889-.326,1.088-.453,2.1-1.433.671-3.781-1.505-2.421-.19.091-.1.426.1.354.381-.154,1.233-.526,1.6-.209a.922.922,0,0,1-.172,1.551c-.49.562-1.532.354-1.7,1.179-.19,1.061.2,1.406,1.152,1.152.49-.036.979-.073,1.478-.118.39-.036.363-.671-.027-.644Z" transform="translate(-326.779 -93.945)" fill="#7a95c9"/>
                    <path id="Trazado_193166" data-name="Trazado 193166" d="M360.3,125.658c-.354.073-3.5.218-3.228.553.988.426,2.2.027,3.255-.018.281-.045.254-.553-.027-.544Z" transform="translate(-328.364 -93.077)" fill="#7a95c9"/>
                    <path id="Trazado_193167" data-name="Trazado 193167" d="M336.258,129.341c-.345-2.222-2.439-1.687-3.509-.372.091-.354,0-3.89-.49-3.255.181,2.049-.408,4.353.263,6.3.381.372.372-.5.317-.734,1.269,1.333,3.99.073,3.419-1.95Zm-1.8,1.9a1.925,1.925,0,0,1-1.723-.734c-.009-.254,0-.88,0-1.133,2.938-3.228,4.5,1.587,1.714,1.868Z" transform="translate(-332.192 -93.079)" fill="#7a95c9"/>
                    <path id="Trazado_193168" data-name="Trazado 193168" d="M353.369,146.935c-1.487-2.231-.063-5.132-1.17-6.293-1.061-.852-2.022-.036-2.593.988-.127.218.163.417.29.2.372-.852,1.233-1.269,1.9-.553.662.744.172,1.877.209,2.784-1.133-1.3-3.845-.145-3.781,1.841a2.355,2.355,0,0,0,4.389.961c.073.154.145.308.227.462.209.372.734-.009.526-.39Zm-1.034-.553c-.952,1.251-2.838,1.551-3.5-.118-.526-1.777,2.131-3.038,3.183-1.714a5.926,5.926,0,0,0,.381,1.8.239.239,0,0,0-.054.045Z" transform="translate(-329.724 -90.824)" fill="#7a95c9"/>
                    <path id="Trazado_193169" data-name="Trazado 193169" d="M341.329,143.716c-.281-.018-3.618-.091-3.156.354a5.009,5.009,0,0,0,3.174-.073.142.142,0,0,0-.018-.272Z" transform="translate(-331.277 -90.298)" fill="#7a95c9"/>
                    <path id="Trazado_193170" data-name="Trazado 193170" d="M341.347,145.366c-.272-.054-3.808.063-3.21.544C338.464,146.01,341.991,146.019,341.347,145.366Z" transform="translate(-331.287 -90.043)" fill="#7a95c9"/>
                    <path id="Trazado_193171" data-name="Trazado 193171" d="M379.632,134.16a60.186,60.186,0,0,0-7.563.762c-7.29.635-15.1.771-22.053,1.641a54.453,54.453,0,0,0-5.223,12.232c-1.279-2.521-2.249-5.141-3.31-7.762-.045-.109-.2-.018-.172.1a37.033,37.033,0,0,0,3.2,8.088.189.189,0,0,0,.317.045c1.741-4.108,3.5-8.415,5.559-12.432,4.679.154,9.358-.834,14.091-.852,5.014-.326,10.2-.172,15.161-1.478.163-.054.181-.317,0-.326Z" transform="translate(-330.788 -91.768)" fill="#7a95c9"/>
                    <path id="Trazado_193172" data-name="Trazado 193172" d="M336.467,147.3c-2.031.907-4.461.635-3.573-2.339.816-1.85,1.9-2.185,3.682-1.614.091.054.2-.109.109-.19-2.457-2.358-6.266,2.748-3.564,4.842C334.245,149.153,337.963,147.711,336.467,147.3Z" transform="translate(-332.192 -90.475)" fill="#7a95c9"/>
                    <path id="Trazado_193173" data-name="Trazado 193173" d="M355.18,142.587c-.653.018-1.315.054-1.968.073.027-.036.064-.073.091-.109-.018-.064.054-.435,0-.435,2.766-.535,2.557-4.171-.39-2.784-.172.082-.091.408.091.345.354-.127,1.152-.453,1.478-.127.889.852-.181,1.659-.916,1.886-.4.145-.744.145-.816.653-.172.97.154,1.369,1.07,1.161.453-.009.916-.027,1.369-.045.363-.018.335-.635-.027-.626Z" transform="translate(-329.033 -91.019)" fill="#7a95c9"/>
                    <path id="Trazado_193174" data-name="Trazado 193174" d="M368.725,141.913c-.707.018-1.406.054-2.1.082.036-.036.063-.082.1-.118-.027-.073.063-.453,0-.453,2.974-.562,2.729-4.316-.417-2.884-.19.082-.1.426.1.354,2.131-1.025,2.72,1.2.608,1.823-.426.145-.789.154-.88.68-.063.39-.1,1.016.281,1.2a18.415,18.415,0,0,0,2.339-.045c.39-.018.354-.653-.027-.644Z" transform="translate(-326.972 -91.142)" fill="#7a95c9"/>
                    <path id="Trazado_193175" data-name="Trazado 193175" d="M360.3,143.362c-.336.045-3.527.063-3.228.408.979.472,2.194.127,3.255.127.281-.027.254-.544-.027-.544Z" transform="translate(-328.365 -90.351)" fill="#7a95c9"/>
                    <path id="Trazado_193176" data-name="Trazado 193176" d="M367.122,144.658c-.426-2.43-2.82-1.941-4.117-.562.109-.363-.027-4.262-.571-3.536-.009,1.315.054,2.575-.027,3.9a5.923,5.923,0,0,0,.336,2.938c.444.426.426-.508.372-.78,1.369,1.451,4.67.372,4.008-1.959ZM365,146.635a2.417,2.417,0,0,1-2.022-.88c-.009-.281,0-.952,0-1.224,3.419-3.364,5.3,1.9,2.013,2.1Z" transform="translate(-327.545 -90.795)" fill="#7a95c9"/>
                  </g>
                  <g id="Grupo_136296" data-name="Grupo 136296" transform="translate(0 7.257)">
                    <path id="Trazado_193177" data-name="Trazado 193177" d="M306.134,115.274c-1.143-1.8-.045-4.425-.9-5.441-.825-.671-1.569.109-2,1.052-.091.2.127.354.227.154.29-.78.952-1.206,1.469-.617.526.644.118,1.65.163,2.43-.88-1.061-2.974.145-2.929,1.886a1.737,1.737,0,0,0,3.391.526c.054.127.118.263.181.39.163.317.571-.063.408-.381Zm-.8-.417c-.716,1.133-2.158,1.6-2.711.145-.426-1.369,1.532-2.884,2.457-1.741a5.463,5.463,0,0,0,.29,1.551c-.018.009-.027.027-.045.036Z" transform="translate(-302.162 -102.808)" fill="#7a95c9"/>
                    <path id="Trazado_193178" data-name="Trazado 193178" d="M321.162,108.161c-1.941,1.106-4.09,1.016-3.283-1.886.689-1.723,1.678-2.321,3.382-1.922.091.036.181-.127.1-.19-2.194-1.995-5.785,3.165-3.283,5.005C319.112,110.156,322.531,108.406,321.162,108.161Z" transform="translate(-299.842 -103.711)" fill="#7a95c9"/>
                    <path id="Trazado_193179" data-name="Trazado 193179" d="M322.278,123.939c-.317-2.131-2.258-1.587-3.255-.308.082-.336,0-3.736-.453-3.119.172,1.968-.372,4.189.245,6.066.354.345.336-.49.3-.707a1.939,1.939,0,0,0,3.165-1.922Zm-1.678,1.85a1.694,1.694,0,0,1-1.6-.689c-.009-.245,0-.843,0-1.088,2.729-3.147,4.171,1.46,1.6,1.777Z" transform="translate(-299.645 -101.136)" fill="#7a95c9"/>
                    <path id="Trazado_193180" data-name="Trazado 193180" d="M329.4,118.752l-.036-.036h0c-5.93-3.972-12-8.025-17.809-11.87-1.07-.716-2.466-2.049-3.845-1.605,0-.381-.19-.227-.172.054-.336.1-.571.453-.027.345-.281,4.126-.045,8.243-.3,12.35.027.39-.462,4.733.163,3.944,5.16-.481,15.9-1.152,21.871-2.729a.3.3,0,0,0,.154-.453ZM307.439,121.2a24.108,24.108,0,0,0,.181-3.2,17.464,17.464,0,0,0,2.82-.181,27.6,27.6,0,0,0-.127,3.119,25.83,25.83,0,0,0-2.875.263Zm10.156-.689c-2.367.181-4.552.345-6.91.417-.045-.571.281-3.482-.091-3.591a21.7,21.7,0,0,0-2.965.263c.036-3.954.39-8.052.118-11.969,1.959-.036,3.972,1.931,5.568,3.011,4.978,3.419,10.228,6.737,15.4,10.129-3.772.589-7.472,1.5-11.117,1.75Z" transform="translate(-301.408 -103.511)" fill="#7a95c9"/>
                  </g>
                  <g id="Grupo_136297" data-name="Grupo 136297" transform="translate(5.377 38.154)">
                    <path id="Trazado_193181" data-name="Trazado 193181" d="M310.921,143.748c-1.17-1.913-.045-4.479-.925-5.595-.843-.753-1.6-.018-2.067.9-.1.2.127.372.236.181.3-.762.979-1.143,1.505-.508.526.68.127,1.678.163,2.476-.9-1.152-3.056-.1-3.01,1.668a1.825,1.825,0,0,0,3.482.825c.054.136.118.272.181.408.163.336.589-.018.417-.345Zm-.825-.49c-.771,1.143-2.267,1.378-2.784-.082-.435-1.469,1.614-2.775,2.53-1.551a5.786,5.786,0,0,0,.3,1.6.16.16,0,0,0-.045.036Z" transform="translate(-306.822 -129.354)" fill="#7a95c9"/>
                    <path id="Trazado_193182" data-name="Trazado 193182" d="M323.968,141.394c-1.968.934-4.153.635-3.337-2.213.734-1.759,1.75-2.158,3.437-1.614.091.045.181-.109.1-.181-2.312-2.249-5.849,2.775-3.337,4.733,1.043,1.1,4.525-.345,3.128-.725Z" transform="translate(-304.798 -129.512)" fill="#7a95c9"/>
                    <path id="Trazado_193183" data-name="Trazado 193183" d="M321.175,160.236c-.281-2.058-2.158-1.9-3.228-.644.073-.354.009-3.691-.453-3.156.163,1.995-.372,4.162.245,6.066.354.381.336-.453.29-.68a1.807,1.807,0,0,0,3.147-1.6Zm-1.668,1.678a1.951,1.951,0,0,1-1.587-.843c-.009-.245,0-.843,0-1.088,2.7-2.865,4.144,1.877,1.578,1.931Z" transform="translate(-305.188 -126.5)" fill="#7a95c9"/>
                    <path id="Trazado_193184" data-name="Trazado 193184" d="M312.454,130.5c-1.288,6.919-.2,21.173-.227,27.113,2.167.1,4.371-.408,6.556-.453,2.321-.154,4.77,0,7.127-.39-.036.662.254.444.29-.045.281.018.336-.227.027-.227.19-1.823-1.161-3.6-1.922-4.96-3.8-6.837-7.934-14.218-11.716-20.956-.027-.045-.091-.109-.136-.091Zm.263,23.041a13.985,13.985,0,0,0,2.53-.245,34.115,34.115,0,0,0,.163,3.609,12.344,12.344,0,0,0-2.612.3c.027-1.143-.018-2.421-.082-3.654Zm-.1-22.2c3.228,5.876,6.592,12.178,9.929,18.018,1.124,2,3.092,4.543,3.337,7.109-3.4-.272-6.792.272-10.156.408-.027-.372.154-4.47-.4-3.954a18.507,18.507,0,0,0-2.648.136,184.757,184.757,0,0,1-.073-21.726Z" transform="translate(-306.051 -130.487)" fill="#7a95c9"/>
                  </g>
                </g>
                <g id="Grupo_136299" data-name="Grupo 136299" transform="translate(2.902 5.568)" opacity="0.5">
                  <path id="Trazado_193185" data-name="Trazado 193185" d="M247.117,93.311l162.558-30.84V60.286L245.648,92.051V191.76l1.469.091Z" transform="translate(-245.648 -60.286)" fill="#f2f2f2"/>
                </g>
                <path id="Trazado_193186" data-name="Trazado 193186" d="M410.062,61.029v141.14l-164.027-9.657V92.794Zm5.93-5.568-5.93,1.2L246.035,89.7l-2.9.589V195.414l2.9.19,164.027,10.945,5.93.4V55.462Z" transform="translate(-243.133 -55.462)" fill="#fcedae"/>
                <g id="Grupo_136301" data-name="Grupo 136301" transform="translate(8.741 37.442)">
                  <g id="Grupo_136300" data-name="Grupo 136300" transform="translate(7.191 8.423)">
                    <path id="Trazado_193187" data-name="Trazado 193187" d="M288.822,126.573,256.94,129.22V95.207Zm-31.1,1.786,29.089-2.475-29.089-28.7Z" transform="translate(-256.94 -95.207)" fill="#7a95c9"/>
                    <path id="Trazado_193188" data-name="Trazado 193188" d="M261.129,124.948l-4.189.345v-4.244l4.189-.39v4.28Zm-3.41-.517,2.612-.227v-2.666l-2.612.236v2.648Z" transform="translate(-256.94 -91.289)" fill="#7a95c9"/>
                  </g>
                  <path id="Trazado_193189" data-name="Trazado 193189" d="M272.979,135.386c-31.647,1.052-27.675-43.027,0-47.2C308.461,83.745,304.118,133.636,272.979,135.386Zm0-46.373c-26.759,3.981-30.595,46.617,0,45.547C302.966,132.82,307.137,84.8,272.979,89.013Z" transform="translate(-250.708 -87.908)" fill="#7a95c9"/>
                </g>
                <path id="Trazado_193190" data-name="Trazado 193190" d="M292.809,177.748,283.7,177.2V175.8l9.113.526Z" transform="translate(-236.888 -36.934)" fill="#7a95c9"/>
              </g>
              <g id="Grupo_136318" data-name="Grupo 136318" transform="translate(155.83 187.129)">
                <g id="Grupo_136306" data-name="Grupo 136306" transform="translate(0 15.134)">
                  <path id="Trazado_193191" data-name="Trazado 193191" d="M268.664,296.935l60.029-12.559v-95.33l-60.029,12.559Z" transform="translate(-157.23 -173.16)" fill="#532b98"/>
                  <path id="Trazado_193192" data-name="Trazado 193192" d="M282.563,296.962,266.278,283.8l-42.773,5.93L178.384,284.2v-95.33l104.18,12.758Z" transform="translate(-171.129 -173.187)" fill="#c0ade3"/>
                  <g id="Grupo_136303" data-name="Grupo 136303" transform="translate(52.33 23.159)" opacity="0.5">
                    <path id="Trazado_193193" data-name="Trazado 193193" d="M260.218,200.527l-42.773-5.178v42.918l42.773-8.741Z" transform="translate(-217.446 -195.349)" fill="#cab8e9"/>
                  </g>
                  <g id="Grupo_136304" data-name="Grupo 136304" transform="translate(7.254 15.687)">
                    <path id="Trazado_193194" data-name="Trazado 193194" d="M223.5,194.405l-45.121-5.531V284.2l45.121,5.531Z" transform="translate(-178.384 -188.874)" fill="#e6e0ff"/>
                    <path id="Trazado_193195" data-name="Trazado 193195" d="M254.551,198.2v95.33l16.286,1.995V200.2Z" transform="translate(-166.657 -187.438)" fill="#e6e0ff"/>
                  </g>
                  <g id="Grupo_136305" data-name="Grupo 136305">
                    <path id="Trazado_193196" data-name="Trazado 193196" d="M283.332,204.177,172.1,190.838v-7.064l111.234,12.758Z" transform="translate(-172.097 -173.972)" fill="#c0ade3"/>
                    <path id="Trazado_193197" data-name="Trazado 193197" d="M268.491,204.124l62.976-12.94V184.12l-62.976,12.359Z" transform="translate(-157.257 -173.919)" fill="#3e2072"/>
                    <path id="Trazado_193198" data-name="Trazado 193198" d="M346.307,185.481l-114.571-10.2-59.639,9.8L283.332,197.84Z" transform="translate(-172.097 -175.28)" fill="#e6e0ff"/>
                  </g>
                </g>
                <g id="Grupo_136317" data-name="Grupo 136317" transform="translate(86.416)">
                  <g id="Grupo_136312" data-name="Grupo 136312" transform="translate(0 14.245)">
                    <path id="Trazado_193199" data-name="Trazado 193199" d="M277.3,196.061l29.171-14.88-25.753-6.592-33.66,16.975Z" transform="translate(-246.972 -174.498)" fill="#664694"/>
                    <path id="Trazado_193200" data-name="Trazado 193200" d="M248.042,190.372,277.6,194.86c.925-1.968,1.188-7.78-.336-9.657l-29.561-4.643A43.108,43.108,0,0,1,248.042,190.372Z" transform="translate(-246.872 -173.578)" fill="#f2f2f2"/>
                    <path id="Trazado_193201" data-name="Trazado 193201" d="M303.888,186.7l-.209-9.684-30.749,8.605c.526,1.133,1.143,9.367.345,10.065l30.6-8.986Z" transform="translate(-242.989 -174.124)" fill="#6836bf"/>
                    <path id="Trazado_193202" data-name="Trazado 193202" d="M268.778,190.244l1.587-1.4,2.53,1.768s-.653-4.924.471-5.178c-.2,0-4.18-.3-4.371-.281-.517.426-.227,5.078-.227,5.078Z" transform="translate(-243.642 -172.871)" fill="#7451c1"/>
                    <g id="Grupo_136311" data-name="Grupo 136311" transform="translate(34.585 3.419)">
                      <g id="Grupo_136307" data-name="Grupo 136307" transform="translate(2.457 5.803)" opacity="0.51">
                        <path id="Trazado_193203" data-name="Trazado 193203" d="M279.084,182.791l1.034-.29.336,9.956-1.034.3Z" transform="translate(-279.084 -182.501)" fill="#fff"/>
                      </g>
                      <g id="Grupo_136308" data-name="Grupo 136308" transform="translate(23.168)" opacity="0.51">
                        <path id="Trazado_193204" data-name="Trazado 193204" d="M298.219,187.2l-.988.29h-.054l-.145-9.721,1.043-.3Z" transform="translate(-297.031 -177.472)" fill="#fff"/>
                      </g>
                      <g id="Grupo_136309" data-name="Grupo 136309" transform="translate(0 6.587)" opacity="0.51">
                        <path id="Trazado_193205" data-name="Trazado 193205" d="M276.954,183.376a3.417,3.417,0,0,1,1.043-.19l.336,9.893-1.034.308-.336-10Z" transform="translate(-276.954 -183.18)" fill="#fff"/>
                      </g>
                      <g id="Grupo_136310" data-name="Grupo 136310" transform="translate(6.126 4.464)" opacity="0.51">
                        <path id="Trazado_193206" data-name="Trazado 193206" d="M284.651,188.683a1.9,1.9,0,0,0,.544-.091l10.419-2.947c2.911-.861,1.532-5.014-1.315-4.2l-10.419,2.947a2.188,2.188,0,0,0,.771,4.289Z" transform="translate(-282.262 -181.341)" fill="#fff"/>
                      </g>
                    </g>
                    <path id="Trazado_193207" data-name="Trazado 193207" d="M246.984,181.61c34.539,5.695,27.457,5.432,60.691-4.207l-28.636-2.893-32.055,7.109Z" transform="translate(-246.984 -174.51)" fill="#cab8e9"/>
                  </g>
                  <g id="Grupo_136313" data-name="Grupo 136313" transform="translate(1.786 7.318)">
                    <path id="Trazado_193208" data-name="Trazado 193208" d="M248.595,180.1c.58-.054,21.618,3.582,21.5,2.512C268.915,182.582,249.175,179.091,248.595,180.1Z" transform="translate(-248.522 -166.75)" fill="#7a95c9"/>
                    <path id="Trazado_193209" data-name="Trazado 193209" d="M300.88,180.988l-32.4,3.527-19.949-13.166,30.83-2.339,20.91,2.82Z" transform="translate(-248.532 -168.429)" fill="#cacfea"/>
                    <path id="Trazado_193210" data-name="Trazado 193210" d="M267.927,174.8l-19.387-3.763.961,10.392,18.988,2.775-.562-9.4Z" transform="translate(-248.531 -168.117)" fill="#f2f2f2"/>
                    <path id="Trazado_193211" data-name="Trazado 193211" d="M301.205,171.913c.073.372.508,8.351.553,9.1l-33.324,3.709c.254-.272.045-9.349-.082-9.6-7.209-1.6-14.463-2.575-19.813-3.7l30.821-2.9C287.35,169.891,293.217,170.553,301.205,171.913Z" transform="translate(-248.531 -168.504)" fill="#8d3170"/>
                    <path id="Trazado_193212" data-name="Trazado 193212" d="M261.709,180.785l1.406-1.668,2.213,2.086s-.535-5.849.462-6.157c-.172,0-3.672-.326-3.845-.3-.453.517-.236,6.048-.236,6.048Z" transform="translate(-246.511 -167.546)" fill="#243262"/>
                    <path id="Trazado_193213" data-name="Trazado 193213" d="M300.951,171.916l-32.744,3.21-19.668-3.7,30.74-2.92,21.681,3.409Z" transform="translate(-248.531 -168.506)" fill="#873363"/>
                    <path id="Trazado_193214" data-name="Trazado 193214" d="M289.464,176.155c.036,1.143,2.14,1.079,2.058-.082C291.486,174.931,289.383,174.994,289.464,176.155Z" transform="translate(-242.23 -167.468)" fill="#d07f9d"/>
                    <path id="Trazado_193215" data-name="Trazado 193215" d="M269.411,178.52c.036,1.143,2.14,1.079,2.058-.082C271.433,177.3,269.329,177.36,269.411,178.52Z" transform="translate(-245.318 -167.104)" fill="#d07f9d"/>
                    <path id="Trazado_193216" data-name="Trazado 193216" d="M268.053,181.644l28.446-3.137-.263-4.806L267.98,176.82l.073,4.824Zm28.056-3.419-27.7,3.056-.063-4.18,27.53-3.038.227,4.162Z" transform="translate(-245.537 -167.707)" fill="#d07f9d"/>
                  </g>
                  <g id="Grupo_136316" data-name="Grupo 136316" transform="translate(3.137)">
                    <path id="Trazado_193217" data-name="Trazado 193217" d="M249.97,171.455c.435-.073,18.661,3.718,18.507,2.648C267.4,174.066,250.559,170.4,249.97,171.455Z" transform="translate(-249.661 -160.764)" fill="#cacfea"/>
                    <path id="Trazado_193218" data-name="Trazado 193218" d="M294.961,171.939l-27.684,3.627-17.229-10.41L276.59,162.7l18,2.965.372,6.284Z" transform="translate(-249.649 -162.083)" fill="#e5d8c0"/>
                    <path id="Trazado_193219" data-name="Trazado 193219" d="M267.151,168.5l-17.111-3.672.68,7.572,16.549,2.838-.127-6.737Z" transform="translate(-249.651 -161.755)" fill="#f2f2f2"/>
                    <path id="Trazado_193220" data-name="Trazado 193220" d="M295.387,165.76c.082.535.39,5.695.408,6.239l-28.6,3.854c.018-.925-.036-6.021-.091-6.719-6.2-1.687-12.45-2.711-17.056-3.89l26.532-3.047c6.882,1.433,11.924,2.131,18.807,3.573Z" transform="translate(-249.649 -162.16)" fill="#cab8e9"/>
                    <g id="Grupo_136314" data-name="Grupo 136314" transform="translate(20.085 2.907)" opacity="0.51">
                      <path id="Trazado_193221" data-name="Trazado 193221" d="M287.235,172.024l-.889.118-.49-7.436a2.3,2.3,0,0,1,.9.054l.481,7.263Z" transform="translate(-264.221 -164.684)" fill="#fff"/>
                      <path id="Trazado_193222" data-name="Trazado 193222" d="M269.306,174.434l-.4-7.39.889-.054.4,7.327Z" transform="translate(-266.831 -164.329)" fill="#fff"/>
                      <path id="Trazado_193223" data-name="Trazado 193223" d="M267.108,167.326l.889-.045.336,7.281-.889.118Z" transform="translate(-267.108 -164.284)" fill="#fff"/>
                    </g>
                    <path id="Trazado_193224" data-name="Trazado 193224" d="M295.223,165.756l-28.192,3.373L249.7,165.148l26.85-2.983,18.661,3.591Z" transform="translate(-249.703 -162.165)" fill="#cab8e9"/>
                    <g id="Grupo_136315" data-name="Grupo 136315" transform="translate(37.13 5.709)" opacity="0.51">
                      <path id="Trazado_193225" data-name="Trazado 193225" d="M281.881,169.138a1.871,1.871,0,1,0,3.736-.19A1.871,1.871,0,1,0,281.881,169.138Z" transform="translate(-281.879 -167.112)" fill="#fff"/>
                    </g>
                  </g>
                </g>
              </g>
              <g id="Grupo_136332" data-name="Grupo 136332" transform="translate(40.524 80.914)">
                <g id="Grupo_136320" data-name="Grupo 136320" transform="translate(96.848 51.853)">
                  <path id="Trazado_193226" data-name="Trazado 193226" d="M202.44,160.605c5.631-4.9,17.474-13.538,17.474-13.538.644-1.043,27.249-24.111,8.85-13.357.381-1.061,5.912-5.413,5.586-6.03s-7.39,4.543-7.771,4.271,7-5.595,6.42-6.393-7.952,4.525-8.424,4.38,6.837-5.9,5.74-6.5-10.99,9.14-12,9.077,1.8-5.413,1.333-7.572-6.855,9.911-6.855,9.911c-1.832,2.067-18.036,13.574-18.036,13.574l7.671,12.169Z" transform="translate(-150.15 -113.77)" fill="#f7bc90"/>
                  <path id="Trazado_193227" data-name="Trazado 193227" d="M216.355,130.87l-2.194,5.7s.635-5.586.236-5.967l1.95.272Z" transform="translate(-147.163 -112.662)" fill="#f7bc90"/>
                  <path id="Trazado_193228" data-name="Trazado 193228" d="M197.048,144.708s-25.734-41.766-39.835-26.161C149.333,127.271,185.677,172.4,193,176.1l33.106-23.712L215.755,134.67,197.048,144.7Z" transform="translate(-156.102 -115.056)" fill="#8d3170"/>
                  <g id="Grupo_136319" data-name="Grupo 136319" transform="translate(12.582 3.392)" opacity="0.2">
                    <path id="Trazado_193229" data-name="Trazado 193229" d="M220.678,145.525C217.948,147.411,195.261,163,193,161.149c-1.668-1.378-5.74-5.359-8.052-7.644,1.215-9.884-1.016-23.875-17.945-35.509,1.569,1.161,5.64,4.733,9.63,12.8,4.824,9.775,4.561,32.771,4.516,35.092,4.479,5.114,8.288,8.8,10.165,9.757l33.106-23.712-3.754-6.42Z" transform="translate(-167.005 -117.995)" fill="#5d4070"/>
                  </g>
                </g>
                <g id="Grupo_136327" data-name="Grupo 136327" transform="translate(40.152 31.914)">
                  <g id="Grupo_136321" data-name="Grupo 136321" transform="translate(71.246 224.573)">
                    <path id="Trazado_193230" data-name="Trazado 193230" d="M168.711,292.387l4.09,17.238,26.414-.181-.009-2.086-15.089-8.623-1.188-6.13Z" transform="translate(-168.711 -292.387)" fill="#f59486"/>
                    <path id="Trazado_193231" data-name="Trazado 193231" d="M184.019,297.585c-8.061-.526-6.656,7.463-14.082.245l.58,10.99,29.017-.181-.018-2.086-15.5-8.968Z" transform="translate(-168.522 -291.591)" fill="#1a124c"/>
                  </g>
                  <g id="Grupo_136322" data-name="Grupo 136322" transform="translate(0 224.4)">
                    <path id="Trazado_193232" data-name="Trazado 193232" d="M142.451,292.238,138.6,309.53l-26.424.181-.009-2.095,14.962-8.823,1.8-6.148Z" transform="translate(-106.171 -292.238)" fill="#f59486"/>
                    <path id="Trazado_193233" data-name="Trazado 193233" d="M127.364,297.157c8.1-4.679,8.324,8.07,15.66.762l-2.339,11.017-33.7.181s-.018-1.369-.018-2.086C112.375,298.989,127.364,297.157,127.364,297.157Z" transform="translate(-106.97 -291.644)" fill="#1a124c"/>
                  </g>
                  <path id="Trazado_193234" data-name="Trazado 193234" d="M132.06,171.538l-8.3,142.727,19.514.381c10.555-70.284,16.866-118.969,18.7-114.317,1.478,3.745,5.341,53.083,12.387,116.775l17.682-1.052s9.449-74.011-6.783-145.5l-53.21.988Z" transform="translate(-104.385 -86.573)" fill="#947917"/>
                  <g id="Grupo_136326" data-name="Grupo 136326" transform="translate(25.76)">
                    <g id="Grupo_136324" data-name="Grupo 136324" transform="translate(0 13.039)">
                      <path id="Trazado_193235" data-name="Trazado 193235" d="M129.3,146.173c1.551,19.768-.308,31.592,1.2,49.9,17.755.009,39.581-1.143,57.336-1.052,1.233-49.728-4.18-76.178-17.782-79.1-1.7-1.288-3.4-2.557-5.087-3.854-4.851-.979-9.585-1.995-14.49-2.992-1.678.744-6.248,2.92-6.792,3.092-4.7.58-3.3.807-9.113,2.43,0,0-5.549,31.565-5.268,31.574Z" transform="translate(-129.294 -109.076)" fill="#6a2554"/>
                      <g id="Grupo_136323" data-name="Grupo 136323" transform="translate(0.01 37.087)" opacity="0.2">
                        <path id="Trazado_193236" data-name="Trazado 193236" d="M129.3,141.225c1.551,19.768-.308,31.592,1.2,49.9,17.455,0,38.837-1.1,56.429-1.061-41.612-2.584-57.689-48.848-57.626-48.848Z" transform="translate(-129.303 -141.216)" fill="#1a124c"/>
                      </g>
                    </g>
                    <g id="Grupo_136325" data-name="Grupo 136325" transform="translate(19.932)">
                      <path id="Trazado_193237" data-name="Trazado 193237" d="M146.576,113.482c.426-2.684,2.086-13.23,2.466-15.705l14.762.843c.562,4.561,1.714,13.928,2.276,18.516.961,13.511-19.514-3.663-19.514-3.663Z" transform="translate(-146.567 -97.777)" fill="#ffbb96"/>
                      <path id="Trazado_193238" data-name="Trazado 193238" d="M164.861,110.417c-11.96,1.514-16.3-11.38-16.141-12.64l14.762.843Z" transform="translate(-146.236 -97.777)" fill="#ff917a"/>
                    </g>
                  </g>
                </g>
                <g id="Grupo_136329" data-name="Grupo 136329" transform="translate(77.644)">
                  <path id="Trazado_193239" data-name="Trazado 193239" d="M151.811,73.67c8.315-1.578,13.692,1.959,15.624,10.482.481,1.968.87,4.371.354,5.486a18.65,18.65,0,0,1-3.9,19.06c-.934,1.007-5.432.462-6.692.218-10.618-2.122-9.557-13.8-9.557-13.8-.236-.707-4.18-.979-4.4-1.7-2.167-7.018-1.079-18.145,8.569-19.731Z" transform="translate(-139.023 -69.631)" fill="#ffbb96"/>
                  <path id="Trazado_193240" data-name="Trazado 193240" d="M162.118,93.744a8.74,8.74,0,0,0,2.666,6.4,19.007,19.007,0,0,0-.036-12.668c.018-.045.036-.091.054-.145a8.71,8.71,0,0,0-2.684,6.411Z" transform="translate(-135.972 -67.471)" fill="#ff917a"/>
                  <path id="Trazado_193241" data-name="Trazado 193241" d="M147.875,89.439a4.427,4.427,0,0,0-3.618,2.122c1.242.336,2.929.608,3.083,1.061a15.968,15.968,0,0,0,2,8.723c4.933-1.823,4.035-11.951-1.478-11.906Z" transform="translate(-138.722 -67.147)" fill="#ff917a"/>
                  <path id="Trazado_193242" data-name="Trazado 193242" d="M158.56,97.3a4.95,4.95,0,0,0,1.605-.3l-.172-.426s-3.156,1.233-6.683-1.8l-.3.354a7.952,7.952,0,0,0,5.559,2.167Z" transform="translate(-137.374 -66.324)" fill="#38261f"/>
                  <path id="Trazado_193243" data-name="Trazado 193243" d="M155.125,84.355c-.671-.671-3.954.825-4.09.907-1.016.626-.644,1.315-.49,1.542.091.136.472-.082,1.415-.336,2.439-.644,4-.2,3.165-2.113Z" transform="translate(-137.784 -67.956)" fill="#243262"/>
                  <path id="Trazado_193244" data-name="Trazado 193244" d="M160.3,84.15c.372-.689,2.92.063,3.029.118a1.3,1.3,0,0,1,.825,1.424c-.045.127-.363,0-1.115-.109C160.99,85.4,160.02,85.846,160.3,84.15Z" transform="translate(-136.259 -68.005)" fill="#243262"/>
                  <path id="Trazado_193245" data-name="Trazado 193245" d="M152.806,89.428c.308,1.233,1.542.907,1.206-.317C153.7,87.878,152.47,88.2,152.806,89.428Z" transform="translate(-137.415 -67.317)" fill="#38261f"/>
                  <path id="Trazado_193246" data-name="Trazado 193246" d="M161.207,88.349c.308,1.224,1.433.934,1.1-.29C162,86.835,160.871,87.125,161.207,88.349Z" transform="translate(-136.122 -67.48)" fill="#38261f"/>
                  <path id="Trazado_193247" data-name="Trazado 193247" d="M167.556,83.245s5.513-8.769,1.124-10.092-11.8-4.008-18.879.145-9.013,9.249-10.074,10.845c-1.351,2.04,2.748,10.065,5.45,14.9.861,1.542,2.43,1.251,3.092-.39l-.317-.762c.807-2.131.907-13.166,1.025-15.6,0,0,13.438.68,16.848-2.5A9.021,9.021,0,0,1,167.556,83.245Z" transform="translate(-139.46 -69.974)" fill="#243262"/>
                  <path id="Trazado_193248" data-name="Trazado 193248" d="M144.925,77.325c8.261-10.138,22.416-5.867,22.561-5.822l.136-.435c-.145-.045-14.6-4.407-23.05,5.976l.354.29Z" transform="translate(-138.674 -70.121)" fill="#243262"/>
                  <g id="Grupo_136328" data-name="Grupo 136328" transform="translate(2.297 21.168)">
                    <path id="Trazado_193249" data-name="Trazado 193249" d="M141.7,94.069c1.877,5.559,9.367,3.165,7.68-2.448C147.5,86.062,140.01,88.456,141.7,94.069Z" transform="translate(-141.451 -88.464)" fill="#ffbb96"/>
                    <path id="Trazado_193250" data-name="Trazado 193250" d="M144.928,93.876c.336-.744,1.487-.943,2.067-1.034-.562-1.841-2.312-2.757-3.564-1.95l.236.39a1.931,1.931,0,0,1,2.666,1.206c-.517.127-1.569.472-1.841,1.233Z" transform="translate(-141.146 -88.136)" fill="#38261f"/>
                  </g>
                  <path id="Trazado_193251" data-name="Trazado 193251" d="M148.38,78.336s3.337,13.357-.97,14.137l-.136-11.77Z" transform="translate(-138.258 -68.856)" fill="#243262"/>
                  <path id="Trazado_193252" data-name="Trazado 193252" d="M159.663,93.075c3.382-2.131,1.868-3.065-1.369-3.691l-.082.453c3.618.78,3.6,1.206,1.215,2.838Z" transform="translate(-136.573 -67.155)" fill="#38261f"/>
                </g>
                <g id="Grupo_136331" data-name="Grupo 136331" transform="translate(0 33.062)">
                  <path id="Trazado_193253" data-name="Trazado 193253" d="M78.949,126.849c-2.167-4.951-2.476-10.89-6.774-22.66,1.732-1.668,4.235,5.35,4.235,5.35-2.367-7.844-2.421-13.475,2.031-1.043,0,0-2.2-8.569-1.224-8.7s3.854,9.059,3.854,9.059-1.542-9.866-.58-10.083c1.07-.236,5.314,13.738,5.477,13.275.317-.88,1.143-5.513,2.584-5.522,1.777.707-1.551,13.52-.354,13.856l-9.249,6.474Z" transform="translate(-72.175 -98.772)" fill="#f7bc90"/>
                  <path id="Trazado_193254" data-name="Trazado 193254" d="M139.674,114.49c42.682-17.909-8.732,63.647-37.958,45.774-10.219-5.812-25.762-35.237-25.762-35.237l11.979-9.666c29.108,33.215,25.172,18.507,51.741-.871Z" transform="translate(-71.593 -96.751)" fill="#8d3170"/>
                  <g id="Grupo_136330" data-name="Grupo 136330" transform="translate(4.362 26.1)" opacity="0.2">
                    <path id="Trazado_193255" data-name="Trazado 193255" d="M124.323,150.316c-5.649,4.09-17.075,6.638-29.5-5.5C89.9,140,80.6,124.518,78.657,121.39l-2.7,2.176S91.5,152.991,101.717,158.8c10.981,6.719,25.081-.6,36.162-11.4l.272-10.21s-3.745,5.812-13.828,13.121Z" transform="translate(-75.955 -121.39)" fill="#8d3170"/>
                  </g>
                </g>
              </g>
              <g id="Grupo_136349" data-name="Grupo 136349" transform="translate(316.537 86.143)">
                <g id="Grupo_136333" data-name="Grupo 136333" transform="translate(35.415 252.028)">
                  <path id="Trazado_193256" data-name="Trazado 193256" d="M369.068,294.388c-3.972,9.984,6.42,3.79.444,23.513l-3.627.154-.408-6.574c-4.334,2.485-6.121,6.465-7.789,6.765s-15.6,1.034-15.6,1.034c-.453-1.823,5.822-4.461,6.139-4.706,5.912-9.294,12.695-11.806,12.459-21.518l8.379,1.333Z" transform="translate(-342.05 -293.055)" fill="#ffbb96"/>
                  <path id="Trazado_193257" data-name="Trazado 193257" d="M342.085,317.953s13.919-.734,15.6-1.034,3.455-4.28,7.789-6.765l.408,6.574,3.627-.154s3.464-12.4,1.016-14.907c-6.347,2.058-11.425,12.867-22.307,11.589-.326.245-6.592,2.884-6.139,4.706Z" transform="translate(-342.053 -291.729)" fill="#243262"/>
                </g>
                <g id="Grupo_136334" data-name="Grupo 136334" transform="translate(92.158 250.514)">
                  <path id="Trazado_193258" data-name="Trazado 193258" d="M413.5,291.852c-2.149,10.4,7.009,2.911,4.588,23.186l-3.555.671-1.56-6.438c-3.836,3.083-4.888,7.272-6.483,7.816s-15.189,3.273-15.189,3.273c-.771-1.732,4.951-5.25,5.223-5.54,4.244-10.138,10.419-13.511,8.478-23.077l8.5.109Z" transform="translate(-391.224 -291.743)" fill="#ffbb96"/>
                  <path id="Trazado_193259" data-name="Trazado 193259" d="M391.306,319.239s13.593-2.738,15.189-3.273,2.648-4.733,6.483-7.816l1.56,6.438,3.555-.671s1.224-12.767-1.632-14.889c-11.7,3.373-3.691,14.6-19.94,14.681-.272.29-5.994,3.8-5.223,5.54Z" transform="translate(-391.226 -290.621)" fill="#243262"/>
                </g>
                <g id="Grupo_136337" data-name="Grupo 136337" transform="translate(0 57.506)">
                  <path id="Trazado_193260" data-name="Trazado 193260" d="M327.08,143l.172.091,2.929,1.478,3.546-8.542-4.661-2.82-1.786,3.663c-.036,1.1-.163,5.005-.2,6.139Z" transform="translate(-308.943 -123.143)" fill="#ffbb96"/>
                  <g id="Grupo_136336" data-name="Grupo 136336">
                    <path id="Trazado_193261" data-name="Trazado 193261" d="M327.481,142.9l2.929,1.478c1.505-4.552-.526-9.893-.526-9.893-1.152,1.587-3.156,4.343-4.289,5.9,0,0,.626.753,1.732,1.968C327.481,142.524,327.644,142.615,327.481,142.9Z" transform="translate(-309.172 -122.947)" fill="#ff917a"/>
                    <g id="Grupo_136335" data-name="Grupo 136335">
                      <path id="Trazado_193262" data-name="Trazado 193262" d="M329.3,143.782c-3.083,1.931-14.545-4.1-14.436-4.09-2.367-1.269-1.7-2.947-.562-2.82-3.972-.789-3.391-3.935-1.351-3.555-2.621-.834-1.279-3.691.635-2.63l.082-.063c-1.587-.626-.526-2.9,2.158-2.149l10.818,2.766c-.426-.435-3.645-5.15-.68-6.755.526.834,6.094,7.535,6.928,10.092.88,4.289-2.14,8.442-3.591,9.213Z" transform="translate(-311.363 -124.486)" fill="#ffbb96"/>
                      <path id="Trazado_193263" data-name="Trazado 193263" d="M320.528,140.219l-.49.027c-.408-8.533,1.877-9.993,1.977-10.047l.254.417s-2.131,1.46-1.741,9.612Z" transform="translate(-310.035 -123.606)" fill="#ff917a"/>
                      <rect id="Rectángulo_43633" data-name="Rectángulo 43633" width="0.49" height="9.113" transform="translate(1.525 9.082) rotate(-70.89)" fill="#ff917a"/>
                      <rect id="Rectángulo_43634" data-name="Rectángulo 43634" width="0.49" height="8.551" transform="matrix(0.334, -0.943, 0.943, 0.334, 2.073, 12.414)" fill="#ff917a"/>
                      <rect id="Rectángulo_43635" data-name="Rectángulo 43635" width="0.49" height="9.186" transform="translate(2.082 6.237) rotate(-71.62)" fill="#ff917a"/>
                      <path id="Trazado_193264" data-name="Trazado 193264" d="M326.549,135.983c-3.754-2.992-2.276-5.812-2.267-5.84l.426.236-.218-.118.218.118c-.054.1-1.279,2.494,2.14,5.223l-.308.381Z" transform="translate(-309.419 -123.615)" fill="#ff917a"/>
                    </g>
                  </g>
                </g>
                <g id="Grupo_136338" data-name="Grupo 136338" transform="translate(65.69 1.253)">
                  <path id="Trazado_193265" data-name="Trazado 193265" d="M415,118.29a6.188,6.188,0,0,0-8.061,1.9c-1.206-1.623-2.412-3.255-3.618-4.878a11.272,11.272,0,0,1,.807,5.758c-2.938.58-6.511,1.043-9.24-.39a2.3,2.3,0,0,1-.426-1.578c-.054-1.859-.1-3.718-.154-5.577-1.777.843-2.2,3.192-2.884,4.906-.88-.426-1.768-.843-2.639-1.3a16.321,16.321,0,0,1-8.95.517,11.331,11.331,0,0,1,.58-5.785l-3.428,5.005a6.183,6.183,0,0,0-8.125-1.587c-2.884-5.486,6.03-7.6,7.807-11.589.97-2.185-.2-6.175-.517-7.164-1.732-2.267-1.641-1.9-2.376-4.706C371.08,87.459,371.3,75.254,386.4,75.753l9.956.635c10.319,1.9,11.135,13.837,11.135,13.837,3.237,5.885-2.82,9.539-.734,16.775,1.922,3.917,10.927,5.7,8.243,11.289Z" transform="translate(-368.289 -75.738)" fill="#243262"/>
                  <path id="Trazado_193266" data-name="Trazado 193266" d="M398.17,101.085c.136,3.682,2.983,6.9,4.5,9.022-.426-.308-7.463-5.6-5.713-.263-.1-.145-2.312-5.958-2.312-5.958,3.029,2.53,3.246-.834,3.527-2.8Z" transform="translate(-364.231 -71.836)" fill="#253c55"/>
                  <path id="Trazado_193267" data-name="Trazado 193267" d="M406.306,114.328a2.53,2.53,0,0,0,.39-1.46,3.817,3.817,0,0,0-.4-1.469,5.743,5.743,0,0,0-.861-1.26,6.494,6.494,0,0,0-1.143-1.025h0a19.927,19.927,0,0,1-2.6-1.641,6.909,6.909,0,0,1-2.049-2.294,4.732,4.732,0,0,1-.462-1.487,6.82,6.82,0,0,1-.018-1.551,18.121,18.121,0,0,1,.617-3.029h0V99.1a5.738,5.738,0,0,0,.472-2.494,7.64,7.64,0,0,0-.544-2.494,12.978,12.978,0,0,0-1.179-2.285,20.172,20.172,0,0,0-1.542-2.077l.218-.181a19.788,19.788,0,0,1,1.542,2.122,13.228,13.228,0,0,1,1.179,2.349,7.855,7.855,0,0,1,.526,2.575,6,6,0,0,1-.508,2.575h0a18.379,18.379,0,0,0-.635,2.983,6.508,6.508,0,0,0,0,1.514,4.329,4.329,0,0,0,.435,1.451,6.764,6.764,0,0,0,1.995,2.276,21.932,21.932,0,0,0,2.575,1.668h0a6.5,6.5,0,0,1,1.133,1.043,5.716,5.716,0,0,1,.852,1.279,3.655,3.655,0,0,1,.39,1.478,2.5,2.5,0,0,1-.4,1.46Z" transform="translate(-363.871 -73.608)" fill="#253c55"/>
                </g>
                <path id="Trazado_193268" data-name="Trazado 193268" d="M374.973,215.427c5.268,22.162,19.623,72.116,32.535,96.835a2.384,2.384,0,0,0,3.165,1.143c3.382-1.723,12.613-2.539,11.915-7.218-3.482-23.4-14-55.522-14-55.522s3.4-10.02,4.842-28.953c.553-7.318.716-13.973.091-18.344-1.6-11.1,1.188-17.7-15.17-31.356-7.9-.091-13.021-.372-21.21-3.056-8.578,24.945-5.214,34.158-2.158,46.481Z" transform="translate(-302.075 -60.133)" fill="#3e2072"/>
                <path id="Trazado_193269" data-name="Trazado 193269" d="M355.442,317.294l9.4,2.122c15.452-6.012,25.861-68.108,25.607-64.871,0,0,19.6-30.277,28.3-44.9,2.829-4.752,14.935-18.571-2.466-40.8-5.223,1.75-26.269,2.53-27.339,2.43-13.565,52.076-26.333,92.854-35.12,143.425a2.172,2.172,0,0,0,1.623,2.6Z" transform="translate(-304.833 -60.151)" fill="#3e2072"/>
                <g id="Grupo_136339" data-name="Grupo 136339" transform="translate(80.251 28.952)">
                  <path id="Trazado_193270" data-name="Trazado 193270" d="M395.742,117.632c-2.294,5.658-8.95,6.429-14.835-.716.934-5.114,2.466-10.346,1.7-15.7l12.115-1.478,1.016,17.9Z" transform="translate(-380.907 -99.741)" fill="#ffbb96"/>
                  <path id="Trazado_193271" data-name="Trazado 193271" d="M382.689,104.688a43.856,43.856,0,0,1-.988,7.626c11.217,1.587,12.514-12.251,12.514-12.251S387.005,103,382.7,104.688Z" transform="translate(-380.785 -99.692)" fill="#ee6a4a"/>
                </g>
                <g id="Grupo_136346" data-name="Grupo 136346" transform="translate(16.2 39.848)">
                  <path id="Trazado_193272" data-name="Trazado 193272" d="M331.4,133.028c-3.645-.97-4.026,4.271-5.014,6.674-.408,1.36-1.288,2.811-.88,4.044.263.78,1.315,1.4,1.841,1.922.834.871,2.947,2.639,4.062,1.614,1.886-2.711,2.421-6.3,3.283-9.458,1.025-3.872-.562-3.564-3.283-4.788Z" transform="translate(-325.401 -105.531)" fill="#f7ca2e"/>
                  <path id="Trazado_193273" data-name="Trazado 193273" d="M417.932,169.108c-11.6,8.506-27.43,7.318-40.642,3.645a5.473,5.473,0,0,1-2.938-1.56c-1.333-2.249-.227-5.785.245-8.224l42.356-2.612c.58,2.566,3.165,6.511.97,8.75Z" transform="translate(-317.963 -101.305)" fill="#f7ca2e"/>
                  <path id="Trazado_193274" data-name="Trazado 193274" d="M330.3,150.424c29.733,16.957,47.7,24.293,67.319-9.866,4.888-7.381,9.149-15.4,10.727-24.193-25.734-7.88-32.472,11.471-43.77,30.468-10.99-4.715-20.62-8.36-30.169-9.231-2.548,2.04-5.3,11.371-4.108,12.813Z" transform="translate(-324.691 -108.356)" fill="#fcedae"/>
                  <path id="Trazado_193275" data-name="Trazado 193275" d="M372.046,160.919c-.571,8.56.009,13.638,9.53,15.406,12.223,1.868,27.811,2.321,37.613-6.384,2.2-2.557.19-5.767-.472-8.551-1.587-7.59-1.133-15.488-2.34-23.15-.589-4.951-.635-11.054-3.192-15.433-3.391-5.667-14.771-8.714-20.647-8.361-8.759-.408-21.01,4.6-22.461,18.018-1.279,9.521,1.3,18.988,1.959,28.455Z" transform="translate(-318.577 -108.377)" fill="#fcedae"/>
                  <path id="Trazado_193276" data-name="Trazado 193276" d="M405.818,118.38s-11.6,2.272-4.177,27.338c.5,1.674,1.179,3.735,1.991,5.941,5.014,13.611-6.075,26.442-16.023,26.106,0,0,3.854,2.2,13.656.526a65.394,65.394,0,0,0,18.58-6.665s6.765-38.157-14.028-53.237Z" transform="translate(-316.029 -107.469)" fill="#f7ca2e"/>
                  <path id="Trazado_193277" data-name="Trazado 193277" d="M399.591,118.139c2.9-1.206,6.329-.263,8.841,1.424,11.045,7.626,11.915,22.252,13.076,34.4.326,2.457.762,4.888,1.279,7.309,1.75,5.513,1.088,7.4-3.908,10.491-2.9,1.786-7.109.2-8.36-2.865-1.324-4.035-2.521-8.116-3.944-12.124-1.94-5.377-3.772-10.773-5.8-16.113-1.786-6.139-9.013-18.444-1.188-22.533Z" transform="translate(-314.53 -107.889)" fill="#fcedae"/>
                  <g id="Grupo_136345" data-name="Grupo 136345" transform="translate(64.685 39.88)">
                    <path id="Trazado_193278" data-name="Trazado 193278" d="M421.16,158.877c1.206-.336,1.3.245,1.6,1.2a15.016,15.016,0,0,1,.744,3.391c.5,6.275-3.328,11.861-7.88,15.832-1.351,1.188-3.065,2.566-4.969,2.149-3.818-1.75-4.325-6.7-5.849-10.192-.408-1.36-1.342-3.183-1.215-4.625C404.357,163.339,417.778,159.938,421.16,158.877Z" transform="translate(-378.051 -141.427)" fill="#fcedae"/>
                    <g id="Grupo_136342" data-name="Grupo 136342">
                      <rect id="Rectángulo_43636" data-name="Rectángulo 43636" width="38.193" height="28.627" transform="translate(0.014 27.69) rotate(-46.44)" fill="#361852"/>
                      <g id="Grupo_136340" data-name="Grupo 136340" transform="translate(0.473 0.408)">
                        <rect id="Rectángulo_43637" data-name="Rectángulo 43637" width="36.933" height="27.956" transform="translate(0 26.764) rotate(-46.44)" fill="#e6e0ff"/>
                        <rect id="Rectángulo_43638" data-name="Rectángulo 43638" width="36.933" height="0.209" transform="translate(19.754 45.527) rotate(-46.49)" fill="#afcdec"/>
                        <rect id="Rectángulo_43639" data-name="Rectángulo 43639" width="36.933" height="0.1" transform="translate(19.063 44.875) rotate(-46.54)" fill="#afcdec"/>
                      </g>
                      <g id="Grupo_136341" data-name="Grupo 136341">
                        <rect id="Rectángulo_43640" data-name="Rectángulo 43640" width="38.193" height="25.861" transform="translate(0 27.677) rotate(-46.44)" fill="#873363"/>
                        <rect id="Rectángulo_43641" data-name="Rectángulo 43641" width="2.521" height="19.704" transform="translate(23.54 7.152) rotate(-46.44)" fill="#f2f2f2"/>
                        <path id="Trazado_193279" data-name="Trazado 193279" d="M407.4,144.838l-24.837,26.115L400,187.538l24.837-26.115Zm-7.39,41.694L383.563,170.89l23.821-25.045,16.449,15.642-23.821,25.045Z" transform="translate(-381.285 -143.574)" fill="#f2f2f2"/>
                      </g>
                    </g>
                    <g id="Grupo_136344" data-name="Grupo 136344" transform="translate(20.087 22.485)">
                      <path id="Trazado_193280" data-name="Trazado 193280" d="M414.94,176.038s.762-9.131-11.181-12.795c0,0-2.775-.444.163,3.319,0,0-5.25-4.035-2.775,1.578,0,0-4.044-2.711-.725,3.546-6.674-.317,9.966,24.537,14.527,4.353Z" transform="translate(-398.863 -163.227)" fill="#ffbb96"/>
                      <g id="Grupo_136343" data-name="Grupo 136343" transform="translate(1.318 3.049)">
                        <path id="Trazado_193281" data-name="Trazado 193281" d="M408.25,170.454c-1.832-1.433-5.042-4.18-5.1-4.071-.272-.172-.045-.671.263-.462-.3-.091,5.849,4,4.842,4.534Z" transform="translate(-399.54 -165.87)" fill="#ff917a"/>
                        <path id="Trazado_193282" data-name="Trazado 193282" d="M405.248,172.237a.248.248,0,0,1-.272-.118c-1.823-2.92-4.334-4-4.235-4.706.444-.426,2.738,1.8,4.634,4.4A.28.28,0,0,1,405.248,172.237Z" transform="translate(-399.893 -165.64)" fill="#ff917a"/>
                        <path id="Trazado_193283" data-name="Trazado 193283" d="M402.731,174.276a.266.266,0,0,1-.308-.19,11.978,11.978,0,0,0-2.349-3.292c-.653-2.049,3.645,3.147,2.657,3.482Z" transform="translate(-400.006 -165.185)" fill="#ff917a"/>
                      </g>
                    </g>
                  </g>
                  <path id="Trazado_193284" data-name="Trazado 193284" d="M372.624,126.852c-4.688,9.757-2.049,21.019-1.088,31.311.345,2.775-.336,5.568.136,8.342.58,4.86,5.386,7.354,9.8,7.9-4.2-.834-8.787-3.283-9.249-7.989-.39-2.738.326-5.54,0-8.315-.889-10.292-3.672-21.318.4-31.257Z" transform="translate(-318.547 -106.465)" fill="#f7ca2e"/>
                  <path id="Trazado_193285" data-name="Trazado 193285" d="M379.073,117.13c1.306-9.34-.082-5.84,8.814-6.783,13.511-.472,10.056-4.733,13.13,6.7-2.158,2.856-15.714,3.3-19.55,2.938-2.086-.109-3.074-.5-2.385-2.856Z" transform="translate(-317.17 -109.184)" fill="#f7ca2e"/>
                </g>
                <path id="Trazado_193286" data-name="Trazado 193286" d="M392.356,78.29c-11.026-2.358-15.941,7.154-15.633,16.648a16.381,16.381,0,0,0,3.709,16.34,2.684,2.684,0,0,0,1.6.7c12.577,2.321,13.4-10.1,13.4-10.1.218-.617,5.586-6.656,5.713-7.309C402.657,86.859,400.762,79.932,392.356,78.29Z" transform="translate(-301.423 -74.148)" fill="#ffbb96"/>
                <path id="Trazado_193287" data-name="Trazado 193287" d="M381.29,102.027a1.962,1.962,0,0,1-1.106-.345l.127-.508c.073.054,1.841,1.351,3.981-1.85l.19.426c-1.26,1.877-2.4,2.294-3.2,2.285Z" transform="translate(-300.767 -70.853)" fill="#38261f"/>
                <path id="Trazado_193288" data-name="Trazado 193288" d="M383.9,89.592c.6-.58,3.455.78,3.564.861.88.562.544,1.161.4,1.36-.082.118-.408-.082-1.233-.317-2.158-.608-3.464-.218-2.738-1.9Z" transform="translate(-300.228 -72.374)" fill="#243262"/>
                <path id="Trazado_193289" data-name="Trazado 193289" d="M380.409,89.417c-.372-.571-2.748.036-2.856.073-.816.281-.816.762-.744.952.045.109.345.018,1.052-.018,1.841-.073,2.82.481,2.548-1Z" transform="translate(-301.291 -72.416)" fill="#243262"/>
                <path id="Trazado_193290" data-name="Trazado 193290" d="M380.08,98.075c-1.542-.544-1.868-2.367-.009-3.827l.3.336c-1.523,1.2-1.424,2.612-.127,3.065l-.163.426Z" transform="translate(-300.98 -71.635)" fill="#38261f"/>
                <g id="Grupo_136347" data-name="Grupo 136347" transform="translate(92.029 21.84)">
                  <path id="Trazado_193291" data-name="Trazado 193291" d="M399.394,99.1c-1.505,5.894-9.449,4.008-8.134-1.941C392.765,91.269,400.708,93.155,399.394,99.1Z" transform="translate(-391.114 -93.578)" fill="#ffbb96"/>
                  <path id="Trazado_193292" data-name="Trazado 193292" d="M395.433,99.183c-.4-.744-1.614-.871-2.213-.916.435-1.941,2.167-3,3.509-2.267l-.209.408a2.031,2.031,0,0,0-2.693,1.478c.544.091,1.668.354,2.013,1.124l-.417.181Z" transform="translate(-390.789 -93.241)" fill="#38261f"/>
                </g>
                <g id="Grupo_136348" data-name="Grupo 136348" transform="translate(74.498 22.514)">
                  <path id="Trazado_193293" data-name="Trazado 193293" d="M393.6,99.241a23.025,23.025,0,0,0,.073-4.08c-5.722-.181-7.354,8.016-2.122,10.092a14.1,14.1,0,0,0,2.04-6.012Z" transform="translate(-374.002 -94.009)" fill="#ff917a"/>
                  <path id="Trazado_193294" data-name="Trazado 193294" d="M376.252,94.162a16.4,16.4,0,0,0,.535,8.542A5.294,5.294,0,0,0,376.252,94.162Z" transform="translate(-375.921 -94.162)" fill="#ff917a"/>
                </g>
                <path id="Trazado_193295" data-name="Trazado 193295" d="M385.728,93.925c-.263,1.3-1.451,1.043-1.161-.254C384.83,92.374,386.018,92.628,385.728,93.925Z" transform="translate(-300.099 -71.855)" fill="#38261f"/>
                <path id="Trazado_193296" data-name="Trazado 193296" d="M378.94,93.251c-.245,1.179-1.324.952-1.061-.227C378.124,91.846,379.2,92.072,378.94,93.251Z" transform="translate(-301.128 -71.943)" fill="#38261f"/>
                <path id="Trazado_193297" data-name="Trazado 193297" d="M376.273,92.949s2.838-9.322,7.327-9.748c-.154,3.02.018,7.49,3.31,7.263,0,0-3.981-1.777-2.022-6.81,0,0,1.17,8.451,10.773,14.663,4.162-2.82,6.583.49,7.381-7.173,2.847-20.339-33.215-24.22-26.777,1.8Z" transform="translate(-301.489 -74.652)" fill="#243262"/>
              </g>
            </g>
          </g>
        </g>
      </g>
    </g>
  </g>
</svg>
