<svg id="Grupo_136568" data-name="Grupo 136568" xmlns="http://www.w3.org/2000/svg" xmlns:xlink="http://www.w3.org/1999/xlink" width="70" height="70" viewBox="0 0 70 70">
  <defs>
    <clipPath id="clip-path">
      <rect id="Rectángulo_43759" data-name="Rectángulo 43759" width="70" height="70" fill="#b13e8d"/>
    </clipPath>
  </defs>
  <g id="Grupo_136567" data-name="Grupo 136567" clip-path="url(#clip-path)">
    <path id="Trazado_193733" data-name="Trazado 193733" d="M68.816,109.46H50.531V89.05l4.839-2.061a1.183,1.183,0,0,0,.72-1.089V80.152a1.183,1.183,0,0,0-1.184-1.184H15.094a1.183,1.183,0,0,0-1.184,1.184V85.9a1.183,1.183,0,0,0,.72,1.089l4.839,2.061V109.46H1.184A1.183,1.183,0,0,0,0,110.644v8.116a1.184,1.184,0,0,0,1.184,1.184H68.816A1.184,1.184,0,0,0,70,118.76v-8.116a1.183,1.183,0,0,0-1.184-1.184m-47.7-22.282-4.839-2.061V81.335H53.722v3.783l-4.839,2.061a1.184,1.184,0,0,0-.72,1.089V109.46H21.836V88.267a1.184,1.184,0,0,0-.72-1.089m46.516,30.4H2.367v-5.749H67.633Z" transform="translate(0 -49.943)" fill="#b13e8d"/>
    <path id="Trazado_193734" data-name="Trazado 193734" d="M52.085,20.282v3.84a1.184,1.184,0,0,0,2.367,0v-3.84c0-2.448,1.439-3.19,3.635-4.042,0,0,2.876-1.121,4.706-1.832a8.108,8.108,0,0,0,10.3,0c1.83.71,4.707,1.832,4.707,1.832,2.2.852,3.635,1.593,3.635,4.041v3.84a1.184,1.184,0,0,0,2.367,0v-3.84c0-4.251-3.221-5.5-5.146-6.248,0,0-2.359-.921-3.882-1.512a8.126,8.126,0,1,0-13.658,0c-1.522.591-3.881,1.511-3.881,1.511-1.925.747-5.146,2-5.146,6.248M67.941,2.367a5.759,5.759,0,1,1-5.759,5.759,5.766,5.766,0,0,1,5.759-5.759" transform="translate(-32.941)" fill="#b13e8d"/>
    <path id="Trazado_193735" data-name="Trazado 193735" d="M1.1,52.9a1.184,1.184,0,0,0,.54.88L6.06,56.608v9.261a1.184,1.184,0,0,0,2.367,0V55.961a1.184,1.184,0,0,0-.546-1L3.4,52.1c-.168-1.722-.677-6.993-.984-10.975-.286-3.717.562-4.185,2.827-5.436.214-.118,3.7-2.074,5.872-3.277a1.184,1.184,0,0,0,.148-1.974A5.727,5.727,0,1,1,19.32,22.44a1.184,1.184,0,1,0,1.888-1.429,8.1,8.1,0,1,0-12.643,10.1c-1.542.857-4.258,2.383-4.465,2.5C1.343,35.134-.326,36.32.057,41.3.429,46.132,1.094,52.834,1.1,52.9" transform="translate(-0.002 -11.256)" fill="#b13e8d"/>
    <path id="Trazado_193736" data-name="Trazado 193736" d="M132.572,22.669a1.183,1.183,0,0,0,1.658-.23,5.727,5.727,0,1,1,8.056,7.995,1.183,1.183,0,0,0,.148,1.973c2.192,1.214,5.657,3.159,5.871,3.278,2.265,1.25,3.113,1.718,2.827,5.435-.306,3.982-.815,9.253-.983,10.975l-4.482,2.868a1.185,1.185,0,0,0-.545,1V65.87a1.184,1.184,0,0,0,2.367,0V56.609l4.42-2.828a1.184,1.184,0,0,0,.54-.88c.007-.067.673-6.769,1.044-11.6.383-4.983-1.287-6.168-4.043-7.69-.207-.114-2.91-1.633-4.465-2.5a8.1,8.1,0,1,0-12.643-10.1,1.183,1.183,0,0,0,.23,1.658" transform="translate(-83.548 -11.256)" fill="#b13e8d"/>
  </g>
</svg>
