<svg xmlns="http://www.w3.org/2000/svg" xmlns:xlink="http://www.w3.org/1999/xlink" width="110" height="110" viewBox="0 0 110 110">
  <defs>
    <clipPath id="clip-path">
      <rect id="Rectángulo_43772" data-name="Rectángulo 43772" width="70" height="68.307" fill="#fff"/>
    </clipPath>
  </defs>
  <g id="Grupo_136584" data-name="Grupo 136584" transform="translate(-1095 -9534)">
    <circle id="Elipse_5377" data-name="Elipse 5377" cx="55" cy="55" r="55" transform="translate(1095 9534)" fill="#b13e8d"/>
    <g id="Grupo_136580" data-name="Grupo 136580" transform="translate(1115 9555)">
      <g id="Grupo_136579" data-name="Grupo 136579" clip-path="url(#clip-path)">
        <path id="Trazado_193758" data-name="Trazado 193758" d="M31.166,19.664c-.259-.143-4.124-2.312-5.916-3.307a9.764,9.764,0,1,0-14.393,0c-1.792,1-5.657,3.165-5.916,3.307C1.519,21.553-.4,22.916.068,28.94S1.36,43.3,1.369,43.382a1.156,1.156,0,0,0,.527.859l5.653,3.617V64.722a3.59,3.59,0,0,0,3.586,3.586H24.972a3.59,3.59,0,0,0,3.587-3.586V47.858l5.653-3.617a1.154,1.154,0,0,0,.526-.859c.009-.084.838-8.43,1.3-14.443s-1.45-7.386-4.872-9.276M18.053,2.311A7.455,7.455,0,1,1,10.6,9.765a7.463,7.463,0,0,1,7.454-7.454m0,17.219a9.778,9.778,0,0,0,1.245-.082L21.89,31.966l-3.837,3.869-3.836-3.869,2.591-12.519a9.766,9.766,0,0,0,1.245.082m15.683,9.233c-.392,5.09-1.048,11.867-1.241,13.834l-5.714,3.656a1.155,1.155,0,0,0-.532.973v17.5A1.278,1.278,0,0,1,24.972,66H19.208V52.273a1.155,1.155,0,0,0-2.31,0V66H11.135a1.278,1.278,0,0,1-1.277-1.277v-17.5a1.156,1.156,0,0,0-.532-.973L3.612,42.6c-.193-1.967-.849-8.744-1.241-13.834-.372-4.836.816-5.492,3.686-7.077.266-.146,4.67-2.617,6.685-3.734a9.735,9.735,0,0,0,1.824.931L11.83,32.1a1.155,1.155,0,0,0,.311,1.047l5.071,5.115a1.155,1.155,0,0,0,.82.342h.044a1.155,1.155,0,0,0,.82-.342l5.071-5.115a1.156,1.156,0,0,0,.311-1.047L21.541,18.884a9.731,9.731,0,0,0,1.824-.931c2.016,1.118,6.419,3.588,6.685,3.734,2.87,1.584,4.058,2.24,3.686,7.076" transform="translate(0 -0.001)" fill="#fff"/>
        <path id="Trazado_193759" data-name="Trazado 193759" d="M121.561,12.394A22.527,22.527,0,0,0,109.253.086a1.155,1.155,0,0,0-1.505.635l-.824,2.027A19.078,19.078,0,0,0,82.91,14.272a1.155,1.155,0,1,0,2.17.792,16.769,16.769,0,0,1,20.971-10.17l-6.3,15.495a1.154,1.154,0,0,0,1.5,1.5l15.491-6.3A16.761,16.761,0,0,1,92.574,35.416a1.155,1.155,0,1,0-1.138,2.01,19.07,19.07,0,0,0,27.457-22.7l2.035-.827a1.155,1.155,0,0,0,.634-1.505m-18.637,6.328L109.44,2.692a20.246,20.246,0,0,1,9.516,9.515Z" transform="translate(-51.647 0)" fill="#fff"/>
        <path id="Trazado_193760" data-name="Trazado 193760" d="M122,133.968H97.174a1.155,1.155,0,1,0,0,2.31H122a1.155,1.155,0,1,0,0-2.31" transform="translate(-59.863 -83.522)" fill="#fff"/>
        <path id="Trazado_193761" data-name="Trazado 193761" d="M122,153.742H97.174a1.155,1.155,0,1,0,0,2.31H122a1.155,1.155,0,1,0,0-2.31" transform="translate(-59.863 -95.85)" fill="#fff"/>
        <path id="Trazado_193762" data-name="Trazado 193762" d="M122,173.516H97.174a1.155,1.155,0,1,0,0,2.31H122a1.155,1.155,0,1,0,0-2.31" transform="translate(-59.863 -108.178)" fill="#fff"/>
      </g>
    </g>
  </g>
</svg>
