<svg xmlns="http://www.w3.org/2000/svg" xmlns:xlink="http://www.w3.org/1999/xlink" width="108" height="108" viewBox="0 0 108 108">
  <defs>
    <filter id="Rectángulo_43781" x="0" y="0" width="108" height="108" filterUnits="userSpaceOnUse">
      <feOffset dy="3" input="SourceAlpha"/>
      <feGaussianBlur stdDeviation="3" result="blur"/>
      <feFlood flood-opacity="0.161"/>
      <feComposite operator="in" in2="blur"/>
      <feComposite in="SourceGraphic"/>
    </filter>
    <clipPath id="clip-path">
      <rect id="Rectángulo_43782" data-name="Rectángulo 43782" width="64" height="64" fill="#6836bf"/>
    </clipPath>
  </defs>
  <g id="Grupo_136648" data-name="Grupo 136648" transform="translate(-958 -2000)">
    <g id="Grupo_136626" data-name="Grupo 136626" transform="translate(422)">
      <g transform="matrix(1, 0, 0, 1, 536, 2000)" filter="url(#Rectángulo_43781)">
        <path id="Rectángulo_43781-2" data-name="Rectángulo 43781" d="M10,0H80A10,10,0,0,1,90,10V90a0,0,0,0,1,0,0H10A10,10,0,0,1,0,80V10A10,10,0,0,1,10,0Z" transform="translate(9 6)" fill="#f6f6f6"/>
      </g>
      <g id="Grupo_136623" data-name="Grupo 136623" transform="translate(558 2019)">
        <g id="Grupo_136622" data-name="Grupo 136622" clip-path="url(#clip-path)">
          <path id="Trazado_193780" data-name="Trazado 193780" d="M64,35a3,3,0,0,0-3-3H57.816A2.966,2.966,0,0,0,58,31V27a1,1,0,0,0-1-1H52a1,1,0,0,0-1,1v4a2.966,2.966,0,0,0,.184,1H46.868l-.9-6.273a9.027,9.027,0,0,0-1.4-3.665l.091-.637A3,3,0,0,0,41.694,18H36.889A6.973,6.973,0,0,0,39,13V7A7,7,0,0,0,25,7v6a6.973,6.973,0,0,0,2.111,5H22.306a3,3,0,0,0-2.97,3.425l.091.636a9.06,9.06,0,0,0-1.4,3.666L17.132,32h-2a3.018,3.018,0,0,0,.132-.507l.721-4.329A1,1,0,0,0,15,26H14V21a3,3,0,0,0-6,0v5H7a1,1,0,0,0-.986,1.164l.721,4.329A3.018,3.018,0,0,0,6.867,32H3a2.993,2.993,0,0,0-1,5.816V61a3,3,0,0,0,6,0V38h8.8a4.986,4.986,0,0,0-.929,3.9h0l2.931,16.122A3.969,3.969,0,0,0,15,61.973V63a1,1,0,0,0,1,1h8a3,3,0,0,0,3-3V59c0-.031-1.82-11-1.82-11H38.82S37,58.969,37,59v2a3,3,0,0,0,3,3h8a1,1,0,0,0,1-1V61.973a3.969,3.969,0,0,0-3.805-3.956L48.127,41.9A4.986,4.986,0,0,0,47.2,38H56v5a1,1,0,0,0,2,0V38h2V61a1,1,0,0,1-2,0V47a1,1,0,0,0-2,0V61a3,3,0,0,0,6,0V37.816A3,3,0,0,0,64,35M53,31V28h3v3a1,1,0,0,1-1,1H54a1,1,0,0,1-1-1m-8.153,1H43.089a2.9,2.9,0,0,0,.146-.575L44,26.072ZM27,7A5,5,0,0,1,37,7V8H35.828a1,1,0,0,1-.707-.293L33.707,6.293a1,1,0,0,0-1.414,0L30.879,7.707A1,1,0,0,1,30.172,8H27Zm0,6V10h3.172a2.978,2.978,0,0,0,2.121-.879L33,8.414l.707.707A2.978,2.978,0,0,0,35.828,10H37v3a5,5,0,0,1-10,0m-5.449,7.345A.984.984,0,0,1,22.306,20H41.694a1,1,0,0,1,.99,1.142l-1.429,10a1,1,0,0,1-.989.858H23.734a1,1,0,0,1-.989-.858l-1.429-10a.986.986,0,0,1,.235-.8M20,26.072l.765,5.353a2.9,2.9,0,0,0,.146.575H19.153ZM10,21a1,1,0,0,1,2,0v5H10ZM8.708,31.165,8.181,28h5.638l-.527,3.165a1,1,0,0,1-.986.835H9.694a1,1,0,0,1-.986-.835M6,61a1,1,0,0,1-2,0V38H6Zm19,0a1,1,0,0,1-1,1H17v-.027A1.975,1.975,0,0,1,18.973,60H25Zm-.153-15-.139-.835A1,1,0,0,1,25.694,44H38.306a1,1,0,0,1,.986,1.165L39.153,46ZM47,61.973,40,62a1,1,0,0,1-1-1V60h6.027A1.975,1.975,0,0,1,47,61.973m-1.489-22.9a3,3,0,0,1,.648,2.46L43.165,58H39.181l2.084-12.507A3,3,0,0,0,38.306,42H25.694a3,3,0,0,0-2.959,3.493L24.819,58H20.835L17.842,41.537A3,3,0,0,1,20.793,38H43.207a3,3,0,0,1,2.3,1.077M61,36H3a1,1,0,0,1,0-2H61a1,1,0,0,1,0,2" fill="#6836bf"/>
          <path id="Trazado_193781" data-name="Trazado 193781" d="M52.1,23.447a1,1,0,0,0,1.789-.9l-.553-1.1a1.015,1.015,0,0,1,0-.9l.553-1.1a1,1,0,0,0-1.789-.9l-.553,1.107a3.02,3.02,0,0,0,0,2.683Z" fill="#6836bf"/>
          <path id="Trazado_193782" data-name="Trazado 193782" d="M56.1,23.447a1,1,0,0,0,1.789-.9l-.553-1.1a1.015,1.015,0,0,1,0-.9l.553-1.1a1,1,0,0,0-1.789-.9l-.553,1.107a3.02,3.02,0,0,0,0,2.683Z" fill="#6836bf"/>
          <path id="Trazado_193783" data-name="Trazado 193783" d="M32,30a4,4,0,1,0-4-4,4,4,0,0,0,4,4m0-6a2,2,0,1,1-2,2,2,2,0,0,1,2-2" fill="#6836bf"/>
        </g>
      </g>
    </g>
  </g>
</svg>
