<svg xmlns="http://www.w3.org/2000/svg" xmlns:xlink="http://www.w3.org/1999/xlink" width="110" height="110" viewBox="0 0 110 110">
  <defs>
    <clipPath id="clip-path">
      <rect id="Rectángulo_43723" data-name="Rectángulo 43723" width="72.333" height="79.289" fill="#fff"/>
    </clipPath>
  </defs>
  <g id="Grupo_136638" data-name="Grupo 136638" transform="translate(-1095 -2475)">
    <circle id="Elipse_5379" data-name="Elipse 5379" cx="55" cy="55" r="55" transform="translate(1095 2475)" fill="#b13e8d"/>
    <g id="Grupo_136492" data-name="Grupo 136492" transform="translate(1114 2484)">
      <g id="Grupo_136491" data-name="Grupo 136491" clip-path="url(#clip-path)">
        <path id="Trazado_193586" data-name="Trazado 193586" d="M33.78,43.691H79.224A1.391,1.391,0,0,0,80.615,42.3V29.591c0-3.988-1.787-5.447-5.085-6.744-1.386-.545-5.315-2.074-9.2-3.585a12.142,12.142,0,1,0-19.655,0c-3.886,1.511-7.815,3.04-9.2,3.585-3.3,1.3-5.085,2.756-5.085,6.744V42.3a1.391,1.391,0,0,0,1.391,1.391M56.5,2.783a9.36,9.36,0,1,1-9.36,9.36,9.371,9.371,0,0,1,9.36-9.36M35.171,29.591c0-2.37.559-3.069,3.321-4.155,1.506-.592,6.028-2.351,10.226-3.983a12.113,12.113,0,0,0,15.569,0c4.2,1.632,8.719,3.39,10.226,3.983,2.762,1.086,3.321,1.786,3.321,4.155V40.909H69.266V34.485a1.391,1.391,0,0,0-2.782,0v6.424H46.521V34.485a1.391,1.391,0,0,0-2.782,0v6.424H35.171Z" transform="translate(-20.335 -0.001)" fill="#fff"/>
        <path id="Trazado_193587" data-name="Trazado 193587" d="M67.465,150.027v-7.986a1.391,1.391,0,0,0-1.391-1.391H37.558v-6.909a1.391,1.391,0,0,0-2.782,0v6.909H6.26a1.391,1.391,0,0,0-1.391,1.391v7.986a6.26,6.26,0,1,0,2.782,0v-6.595H34.776v6.595a6.26,6.26,0,1,0,2.782,0v-6.595H64.683v6.595a6.26,6.26,0,1,0,2.782,0m-57.728,6.1a3.478,3.478,0,1,1-3.477-3.477,3.482,3.482,0,0,1,3.477,3.477m29.907,0a3.478,3.478,0,1,1-3.478-3.477,3.482,3.482,0,0,1,3.478,3.477M66.074,159.6a3.478,3.478,0,1,1,3.477-3.478,3.481,3.481,0,0,1-3.477,3.478" transform="translate(0 -83.096)" fill="#fff"/>
      </g>
    </g>
  </g>
</svg>
