<svg xmlns="http://www.w3.org/2000/svg" xmlns:xlink="http://www.w3.org/1999/xlink" width="90" height="90" viewBox="0 0 90 90">
  <defs>
    <clipPath id="clip-path">
      <rect id="Rectángulo_43730" data-name="Rectángulo 43730" width="54" height="54" fill="#fff"/>
    </clipPath>
  </defs>
  <g id="Grupo_136532" data-name="Grupo 136532" transform="translate(-755 -1924)">
    <g id="Grupo_136523" data-name="Grupo 136523">
      <circle id="Elipse_5239" data-name="Elipse 5239" cx="45" cy="45" r="45" transform="translate(755 1924)" fill="#b13e8d"/>
      <g id="Grupo_136508" data-name="Grupo 136508" transform="translate(772.75 1941.75)">
        <g id="Grupo_136507" data-name="Grupo 136507" transform="translate(0.25 0.25)" clip-path="url(#clip-path)">
          <path id="Trazado_193601" data-name="Trazado 193601" d="M95.244,29.336a1.1,1.1,0,0,1-.778-1.878l12.511-12.511a1.1,1.1,0,0,1,1.556,0l3.966,3.966V2.2H95.786l3.966,3.966a1.1,1.1,0,0,1,0,1.556L87.24,20.233a1.1,1.1,0,0,1-1.556-1.556L97.417,6.944,92.351,1.877A1.1,1.1,0,0,1,93.129,0H113.6a1.1,1.1,0,0,1,1.1,1.1v20.47a1.1,1.1,0,0,1-1.878.778l-5.066-5.066L96.022,29.014a1.1,1.1,0,0,1-.778.322" transform="translate(-60.466 -0.232)" fill="#fff"/>
          <path id="Trazado_193602" data-name="Trazado 193602" d="M1.1,73.341a1.1,1.1,0,0,1-.778-1.878L15.734,56.051a1.1,1.1,0,0,1,1.556,0l2.2,2.2V47.731H8.97l2.2,2.2a1.1,1.1,0,0,1,0,1.556L1.878,60.773A1.1,1.1,0,0,1,.322,59.217l8.511-8.511-3.3-3.3a1.1,1.1,0,0,1,.778-1.878H20.587a1.1,1.1,0,0,1,1.1,1.1V60.9a1.1,1.1,0,0,1-1.878.778l-3.3-3.3L1.878,73.019a1.1,1.1,0,0,1-.778.322" transform="translate(-0.233 -32.361)" fill="#fff"/>
          <path id="Trazado_193603" data-name="Trazado 193603" d="M58.365,133.036a1.1,1.1,0,0,1-.778-1.878l9.289-9.289a1.1,1.1,0,0,1,1.556,0l2.2,2.2V113.55H60.112l2.2,2.2a1.1,1.1,0,0,1,0,1.556L46.9,132.714a1.1,1.1,0,0,1-1.556-1.556l14.633-14.633-3.3-3.3a1.1,1.1,0,0,1,.778-1.879H71.729a1.1,1.1,0,0,1,1.1,1.1v14.273a1.1,1.1,0,0,1-1.878.778l-3.3-3.3-8.511,8.511a1.1,1.1,0,0,1-.778.322" transform="translate(-31.999 -78.803)" fill="#fff"/>
          <path id="Trazado_193604" data-name="Trazado 193604" d="M1.1,142.162a1.1,1.1,0,0,1-.778-1.878L16,124.6a1.1,1.1,0,0,1,1.556,1.556L1.878,141.84a1.1,1.1,0,0,1-.778.322" transform="translate(-0.233 -87.929)" fill="#fff"/>
          <path id="Trazado_193605" data-name="Trazado 193605" d="M63.62,8.8a1.1,1.1,0,0,1-.778-1.878l6.6-6.6A1.1,1.1,0,0,1,71,1.878l-6.6,6.6a1.1,1.1,0,0,1-.778.322" transform="translate(-44.348 -0.233)" fill="#fff"/>
          <path id="Trazado_193606" data-name="Trazado 193606" d="M156.219,102.336a1.1,1.1,0,0,1-.778-1.878l6.6-6.6a1.1,1.1,0,1,1,1.556,1.556l-6.6,6.6a1.1,1.1,0,0,1-.778.322" transform="translate(-109.689 -66.233)" fill="#fff"/>
        </g>
      </g>
    </g>
  </g>
</svg>
