<svg xmlns="http://www.w3.org/2000/svg" xmlns:xlink="http://www.w3.org/1999/xlink" width="88" height="88" viewBox="0 0 88 88">
  <defs>
    <filter id="Rectángulo_40821" x="0" y="0" width="88" height="88" filterUnits="userSpaceOnUse">
      <feOffset dy="3" input="SourceAlpha"/>
      <feGaussianBlur stdDeviation="3" result="blur"/>
      <feFlood flood-opacity="0.161"/>
      <feComposite operator="in" in2="blur"/>
      <feComposite in="SourceGraphic"/>
    </filter>
    <clipPath id="clip-path">
      <rect id="Rectángulo_43567" data-name="Rectángulo 43567" width="40" height="40" fill="#12263f" stroke="#12263f" stroke-width="1"/>
    </clipPath>
  </defs>
  <g id="Grupo_136673" data-name="Grupo 136673" transform="translate(-950.333 -230)">
    <g id="Grupo_128460" data-name="Grupo 128460" transform="translate(44 -6)">
      <g id="Grupo_135807" data-name="Grupo 135807">
        <g transform="matrix(1, 0, 0, 1, 906.33, 236)" filter="url(#Rectángulo_40821)">
          <path id="Rectángulo_40821-2" data-name="Rectángulo 40821" d="M10,0H60A10,10,0,0,1,70,10V70a0,0,0,0,1,0,0H10A10,10,0,0,1,0,60V10A10,10,0,0,1,10,0Z" transform="translate(9 6)" fill="#7fc733"/>
        </g>
      </g>
    </g>
    <g id="Grupo_136154" data-name="Grupo 136154" transform="translate(974.708 252.6)">
      <g id="Grupo_136153" data-name="Grupo 136153" transform="translate(-0.375 -1.6)" clip-path="url(#clip-path)">
        <path id="Trazado_190433" data-name="Trazado 190433" d="M102.36,0H80.472a.676.676,0,0,0,0,1.353h21.212V25.7H82.562a.676.676,0,0,0,0,1.353h19.8a.676.676,0,0,0,.676-.676V.676A.676.676,0,0,0,102.36,0" transform="translate(-63.037 0)" fill="#12263f" stroke="#12263f" stroke-width="1"/>
        <path id="Trazado_190434" data-name="Trazado 190434" d="M154.965,156.825a1.063,1.063,0,1,0,1.063,1.063,1.064,1.064,0,0,0-1.063-1.063" transform="translate(-121.578 -123.887)" fill="#12263f" stroke="#12263f" stroke-width="1"/>
        <path id="Trazado_190435" data-name="Trazado 190435" d="M131.9,156.825a1.063,1.063,0,1,0,1.063,1.063,1.064,1.064,0,0,0-1.063-1.063" transform="translate(-103.355 -123.887)" fill="#12263f" stroke="#12263f" stroke-width="1"/>
        <path id="Trazado_190436" data-name="Trazado 190436" d="M108.827,156.825a1.063,1.063,0,1,0,1.063,1.063,1.064,1.064,0,0,0-1.063-1.063" transform="translate(-85.13 -123.887)" fill="#12263f" stroke="#12263f" stroke-width="1"/>
        <path id="Trazado_190437" data-name="Trazado 190437" d="M21.57,19.238l4.284-3.283a2.605,2.605,0,0,0,.7-3.194l5.954-4.775a.676.676,0,0,0-.846-1.055l-6,4.815a2.607,2.607,0,0,0-3.063.133l-2.606,1.958-5.55-3.913a5.718,5.718,0,1,0-8.084-.345c-1.05.583-3.313,1.853-3.465,1.937-2,1.106-3.125,1.9-2.853,5.432S.8,25.355.8,25.4a.676.676,0,0,0,.308.5l3.31,2.118V37.9A2.1,2.1,0,0,0,6.52,40h8.1a2.1,2.1,0,0,0,2.1-2.1V18.486l1.613.939.033.018a3.2,3.2,0,0,0,1.581.36,2.607,2.607,0,0,0,1.62-.565m-11-17.885A4.365,4.365,0,1,1,6.206,5.718a4.37,4.37,0,0,1,4.365-4.365m5.815,15.373a.676.676,0,0,0-1.017.585V37.9a.748.748,0,0,1-.747.747H11.248V30.61a.676.676,0,1,0-1.353,0v8.037H6.52a.748.748,0,0,1-.747-.747V27.654a.677.677,0,0,0-.312-.57L2.115,24.944c-.113-1.152-.5-5.121-.727-8.1-.218-2.832.478-3.216,2.158-4.144.155-.086,2.734-1.532,3.915-2.187a5.7,5.7,0,0,0,5.813.243l6.34,4.47a.676.676,0,0,0,.8-.012l3.008-2.259.017-.013a1.256,1.256,0,0,1,1.766.194h0a1.256,1.256,0,0,1-.182,1.756l-4.284,3.283a1.259,1.259,0,0,1-.785.276,1.863,1.863,0,0,1-.951-.2Z" transform="translate(0 0)" fill="#12263f" stroke="#12263f" stroke-width="1"/>
      </g>
    </g>
  </g>
</svg>
