<svg xmlns="http://www.w3.org/2000/svg" xmlns:xlink="http://www.w3.org/1999/xlink" width="190" height="112" viewBox="0 0 190 112">
  <defs>
    <linearGradient id="linear-gradient" x1="0.5" x2="0.5" y2="1" gradientUnits="objectBoundingBox">
      <stop offset="0" stop-color="#f7ca2e" stop-opacity="0"/>
      <stop offset="0.091" stop-color="#f7ca2e" stop-opacity="0.129"/>
      <stop offset="0.283" stop-color="#f7ca2e" stop-opacity="0.388"/>
      <stop offset="0.465" stop-color="#f7ca2e" stop-opacity="0.612"/>
      <stop offset="0.633" stop-color="#f7ca2e" stop-opacity="0.78"/>
      <stop offset="0.784" stop-color="#f7ca2e" stop-opacity="0.902"/>
      <stop offset="0.911" stop-color="#f7ca2e" stop-opacity="0.969"/>
      <stop offset="1" stop-color="#f7ca2e"/>
    </linearGradient>
    <linearGradient id="linear-gradient-2" x1="0.5" x2="0.5" y2="1" gradientUnits="objectBoundingBox">
      <stop offset="0" stop-color="#b13e8d" stop-opacity="0"/>
      <stop offset="0.091" stop-color="#b13e8d" stop-opacity="0.129"/>
      <stop offset="0.283" stop-color="#b13e8d" stop-opacity="0.388"/>
      <stop offset="0.465" stop-color="#b13e8d" stop-opacity="0.612"/>
      <stop offset="0.633" stop-color="#b13e8d" stop-opacity="0.78"/>
      <stop offset="0.784" stop-color="#b13e8d"/>
      <stop offset="0.911" stop-color="#b13e8d" stop-opacity="0.969"/>
      <stop offset="1" stop-color="#b13e8d"/>
    </linearGradient>
    <filter id="Rectángulo_40720" x="41.5" y="4" width="108" height="108" filterUnits="userSpaceOnUse">
      <feOffset dy="3" input="SourceAlpha"/>
      <feGaussianBlur stdDeviation="3" result="blur"/>
      <feFlood flood-opacity="0.161"/>
      <feComposite operator="in" in2="blur"/>
      <feComposite in="SourceGraphic"/>
    </filter>
    <clipPath id="clip-path">
      <rect id="Rectángulo_43571" data-name="Rectángulo 43571" width="61.449" height="60.57" fill="#6836bf"/>
    </clipPath>
  </defs>
  <g id="Grupo_136676" data-name="Grupo 136676" transform="translate(-180 -399)">
    <g id="Grupo_128321" data-name="Grupo 128321">
      <rect id="Rectángulo_40586" data-name="Rectángulo 40586" width="190" height="20" transform="translate(180 444)" fill="none"/>
      <g id="Grupo_108405" data-name="Grupo 108405" transform="translate(209.5 463)">
        <path id="Rectángulo_5242" data-name="Rectángulo 5242" d="M0,0H12a0,0,0,0,1,0,0V43.333a3,3,0,0,1-3,3H3a3,3,0,0,1-3-3V0A0,0,0,0,1,0,0Z" transform="translate(0 0)" fill="url(#linear-gradient)"/>
      </g>
      <g id="Grupo_108406" data-name="Grupo 108406" transform="translate(340 451) rotate(180)">
        <path id="Rectángulo_5242-2" data-name="Rectángulo 5242" d="M0,0H12a0,0,0,0,1,0,0V49a3,3,0,0,1-3,3H3a3,3,0,0,1-3-3V0A0,0,0,0,1,0,0Z" transform="translate(0 0)" fill="url(#linear-gradient-2)"/>
      </g>
      <g transform="matrix(1, 0, 0, 1, 180, 399)" filter="url(#Rectángulo_40720)">
        <path id="Rectángulo_40720-2" data-name="Rectángulo 40720" d="M10,0H80A10,10,0,0,1,90,10V90a0,0,0,0,1,0,0H10A10,10,0,0,1,0,80V10A10,10,0,0,1,10,0Z" transform="translate(50.5 10)" fill="#f6f6f6"/>
      </g>
    </g>
    <g id="Grupo_136177" data-name="Grupo 136177" transform="translate(849.5 580)">
      <g id="Grupo_136176" data-name="Grupo 136176" transform="translate(-605 -156)" clip-path="url(#clip-path)">
        <path id="Trazado_190439" data-name="Trazado 190439" d="M28.17,103s-2.417-.942-4.429-1.724a8.482,8.482,0,1,0-13.942,0C7.787,102.054,5.37,103,5.37,103c-2.139.83-5.37,2.084-5.37,6.485v9.633a1.039,1.039,0,0,0,1.039,1.039H32.5a1.039,1.039,0,0,0,1.039-1.039v-9.633c0-4.4-3.231-5.655-5.37-6.485M16.77,90.044a6.4,6.4,0,1,1-6.4,6.4,6.411,6.411,0,0,1,6.4-6.4m14.692,28.031H27.033v-5.114a1.039,1.039,0,0,0-2.078,0v5.114H8.585v-5.114a1.039,1.039,0,0,0-2.078,0v5.114H2.078v-8.595c0-2.978,1.964-3.741,4.044-4.547,0,0,2.866-1.117,5.174-2.013a8.459,8.459,0,0,0,10.948,0c2.307.9,5.174,2.013,5.174,2.013,2.08.807,4.044,1.569,4.044,4.547Z" transform="translate(0 -59.584)" fill="#6836bf"/>
        <path id="Trazado_190440" data-name="Trazado 190440" d="M99.029,103s-2.69-1.05-4.422-1.722a8.485,8.485,0,0,0-9.852-12.808,1.039,1.039,0,1,0,.7,1.955,6.4,6.4,0,0,1,6.69,10.563,1.039,1.039,0,0,0,.358,1.7c2.2.854,5.77,2.245,5.77,2.245,2.08.807,4.044,1.569,4.044,4.547v8.595h-6.94a1.039,1.039,0,0,0,0,2.078h7.979a1.039,1.039,0,0,0,1.039-1.039V109.48c0-4.4-3.231-5.655-5.37-6.484" transform="translate(-56.944 -59.583)" fill="#6836bf"/>
        <path id="Trazado_190441" data-name="Trazado 190441" d="M142.4,103s-2.69-1.05-4.422-1.722a8.485,8.485,0,0,0-9.852-12.808,1.039,1.039,0,1,0,.7,1.955,6.4,6.4,0,0,1,6.69,10.563,1.039,1.039,0,0,0,.358,1.7c2.2.854,5.769,2.244,5.769,2.244,2.08.807,4.044,1.569,4.044,4.547v8.595h-6.94a1.039,1.039,0,1,0,0,2.078h7.979a1.039,1.039,0,0,0,1.039-1.039V109.48c0-4.4-3.232-5.655-5.37-6.484" transform="translate(-86.319 -59.583)" fill="#6836bf"/>
        <path id="Trazado_190442" data-name="Trazado 190442" d="M60.41,4.452H36.118a5.493,5.493,0,0,0-10.787,0H1.039A1.039,1.039,0,0,0,0,5.491v5.937a1.039,1.039,0,0,0,1.039,1.039H2.968V39.278a1.039,1.039,0,1,0,2.078,0V12.467H56.4V39.278a1.039,1.039,0,1,0,2.078,0V12.467H60.41a1.039,1.039,0,0,0,1.039-1.039V5.491A1.039,1.039,0,0,0,60.41,4.452m-1.039,5.937H2.078V6.53H26.272a1.039,1.039,0,0,0,1.039-1.039,3.414,3.414,0,0,1,6.828,0A1.039,1.039,0,0,0,35.177,6.53H59.371Z" transform="translate(0 0.001)" fill="#6836bf"/>
        <path id="Trazado_190443" data-name="Trazado 190443" d="M91.8,11.96a1.633,1.633,0,1,0,1.633,1.633A1.635,1.635,0,0,0,91.8,11.96" transform="translate(-61.073 -8.101)" fill="#6836bf"/>
        <path id="Trazado_190444" data-name="Trazado 190444" d="M55.523,52.995a1.04,1.04,0,0,0-1.117,0l-6.469,4.121-6.469-4.121a1.04,1.04,0,0,0-1.117,0l-7.027,4.476a1.039,1.039,0,0,0,1.117,1.753L40.91,55.1l6.469,4.121a1.04,1.04,0,0,0,1.117,0L54.965,55.1l6.469,4.121a1.04,1.04,0,0,0,1.117,0l5.511-3.511a2.077,2.077,0,1,0-1.12-1.842c0,.03,0,.059,0,.089l-4.954,3.156Z" transform="translate(-22.247 -35.082)" fill="#6836bf"/>
      </g>
    </g>
  </g>
</svg>
