<svg xmlns="http://www.w3.org/2000/svg" xmlns:xlink="http://www.w3.org/1999/xlink" width="90" height="90" viewBox="0 0 90 90">
  <defs>
    <clipPath id="clip-path">
      <rect id="Rectángulo_43735" data-name="Rectángulo 43735" width="56" height="55.434" fill="#fff" stroke="#fff" stroke-width="0.5"/>
    </clipPath>
  </defs>
  <g id="Grupo_136764" data-name="Grupo 136764" transform="translate(-965 -1925)">
    <g id="Grupo_136531" data-name="Grupo 136531" transform="translate(0 1)">
      <circle id="Elipse_5240" data-name="Elipse 5240" cx="45" cy="45" r="45" transform="translate(965 1924)" fill="#b13e8d"/>
    </g>
    <g id="Grupo_136518" data-name="Grupo 136518" transform="translate(984 1944)">
      <g id="Grupo_136517" data-name="Grupo 136517" transform="translate(-2 -2)" clip-path="url(#clip-path)">
        <path id="Trazado_193622" data-name="Trazado 193622" d="M26.6,87.246a26.125,26.125,0,0,0-26.1,26.1.6.6,0,0,0,.6.6H52.087a.6.6,0,0,0,.6-.6,26.125,26.125,0,0,0-26.1-26.1M4.877,101.2h8.9a43.692,43.692,0,0,0-1.634,11.538H1.715A24.724,24.724,0,0,1,4.877,101.2m10.15,0H25.992v11.538H13.343A42.489,42.489,0,0,1,15.027,101.2M27.2,88.48c4.444.376,8.325,4.878,10.58,11.511H27.2ZM25.992,99.992H15.412c2.254-6.633,6.135-11.136,10.58-11.511ZM27.2,101.2H38.163a42.5,42.5,0,0,1,1.684,11.538H27.2Zm12.218,0h8.9a24.725,24.725,0,0,1,3.162,11.538H41.051A43.691,43.691,0,0,0,39.417,101.2m8.174-1.207H39.044a30.077,30.077,0,0,0-2.117-4.964,17.313,17.313,0,0,0-5.033-6,24.962,24.962,0,0,1,15.7,10.969M21.3,89.023a17.313,17.313,0,0,0-5.033,6,30.051,30.051,0,0,0-2.117,4.964H5.6A24.962,24.962,0,0,1,21.3,89.023" transform="translate(1.404 -58.665)" fill="#fff" stroke="#fff" stroke-width="0.5"/>
        <path id="Trazado_193623" data-name="Trazado 193623" d="M26.6,87.246a26.125,26.125,0,0,0-26.1,26.1.6.6,0,0,0,.6.6H52.087a.6.6,0,0,0,.6-.6A26.125,26.125,0,0,0,26.6,87.246ZM4.877,101.2h8.9a43.692,43.692,0,0,0-1.634,11.538H1.715A24.724,24.724,0,0,1,4.877,101.2Zm10.15,0H25.992v11.538H13.343A42.489,42.489,0,0,1,15.027,101.2ZM27.2,88.48c4.444.376,8.325,4.878,10.58,11.511H27.2ZM25.992,99.992H15.412c2.254-6.633,6.135-11.136,10.58-11.511ZM27.2,101.2H38.163a42.5,42.5,0,0,1,1.684,11.538H27.2Zm12.218,0h8.9a24.725,24.725,0,0,1,3.162,11.538H41.051A43.691,43.691,0,0,0,39.417,101.2Zm8.174-1.207H39.044a30.077,30.077,0,0,0-2.117-4.964,17.313,17.313,0,0,0-5.033-6A24.962,24.962,0,0,1,47.591,99.992ZM21.3,89.023a17.313,17.313,0,0,0-5.033,6,30.051,30.051,0,0,0-2.117,4.964H5.6A24.962,24.962,0,0,1,21.3,89.023Z" transform="translate(1.404 -58.665)" fill="#fff" stroke="#fff" stroke-miterlimit="10" stroke-width="0.5"/>
        <path id="Trazado_193624" data-name="Trazado 193624" d="M3.24,51.43a7.77,7.77,0,0,0-.019,8.06.6.6,0,0,0,.829.2l14.11-8.532a.6.6,0,0,0,.2-.829,7.77,7.77,0,0,0-7.147-3.727,5.357,5.357,0,1,0-9.938,2.927,5.323,5.323,0,0,0,1.961,1.9m7.826-3.388c.017-.07.026-.14.041-.209a6.557,6.557,0,0,1,5.887,2.623L3.965,58.334A6.561,6.561,0,0,1,4.377,51.9a5.4,5.4,0,0,0,1.495.214,5.354,5.354,0,0,0,5.194-4.075m-7.35-4.834a4.15,4.15,0,1,1-1.4,5.7,4.126,4.126,0,0,1,1.4-5.7" transform="translate(1.399 -26.921)" fill="#fff" stroke="#fff" stroke-width="0.5"/>
        <path id="Trazado_193625" data-name="Trazado 193625" d="M3.24,51.43a7.77,7.77,0,0,0-.019,8.06.6.6,0,0,0,.829.2l14.11-8.532a.6.6,0,0,0,.2-.829,7.77,7.77,0,0,0-7.147-3.727,5.357,5.357,0,1,0-9.938,2.927A5.323,5.323,0,0,0,3.24,51.43Zm7.826-3.388c.017-.07.026-.14.041-.209a6.557,6.557,0,0,1,5.887,2.623L3.965,58.334A6.561,6.561,0,0,1,4.377,51.9a5.4,5.4,0,0,0,1.495.214,5.354,5.354,0,0,0,5.194-4.075Zm-7.35-4.834a4.15,4.15,0,1,1-1.4,5.7A4.126,4.126,0,0,1,3.716,43.209Z" transform="translate(1.399 -26.921)" fill="#fff" stroke="#fff" stroke-miterlimit="10" stroke-width="0.5"/>
        <path id="Trazado_193626" data-name="Trazado 193626" d="M119.855,43.988a5.326,5.326,0,0,0-.768,2.614,7.769,7.769,0,0,0-7.147,3.731.6.6,0,0,0,.2.829l14.109,8.532a.6.6,0,0,0,.829-.2,7.768,7.768,0,0,0-.016-8.062,5.357,5.357,0,1,0-7.212-7.44m6.483,14.346-13.029-7.878a6.564,6.564,0,0,1,5.885-2.634c.015.074.025.147.043.22a5.356,5.356,0,0,0,5.194,4.075,5.39,5.39,0,0,0,1.495-.214,6.558,6.558,0,0,1,.412,6.431m-1.891-15.723a4.15,4.15,0,1,1-3.559,2,4.128,4.128,0,0,1,3.559-2" transform="translate(-75.704 -26.921)" fill="#fff" stroke="#fff" stroke-width="0.5"/>
        <path id="Trazado_193627" data-name="Trazado 193627" d="M119.855,43.988a5.326,5.326,0,0,0-.768,2.614,7.769,7.769,0,0,0-7.147,3.731.6.6,0,0,0,.2.829l14.109,8.532a.6.6,0,0,0,.829-.2,7.768,7.768,0,0,0-.016-8.062,5.357,5.357,0,1,0-7.212-7.44Zm6.483,14.346-13.029-7.878a6.564,6.564,0,0,1,5.885-2.634c.015.074.025.147.043.22a5.356,5.356,0,0,0,5.194,4.075,5.39,5.39,0,0,0,1.495-.214A6.558,6.558,0,0,1,126.338,58.334Zm-1.891-15.723a4.15,4.15,0,1,1-3.559,2A4.128,4.128,0,0,1,124.447,42.611Z" transform="translate(-75.704 -26.921)" fill="#fff" stroke="#fff" stroke-miterlimit="10" stroke-width="0.5"/>
        <path id="Trazado_193628" data-name="Trazado 193628" d="M31.233,10.517a32.484,32.484,0,0,1,8.482-3.825,7.63,7.63,0,0,0,.389,4.274,29.284,29.284,0,0,0-5.847,2.344.6.6,0,1,0,.565,1.067,27.973,27.973,0,0,1,5.824-2.3,7.658,7.658,0,0,0,13.179,0,27.97,27.97,0,0,1,5.823,2.3.6.6,0,1,0,.565-1.067,29.276,29.276,0,0,0-5.847-2.344,7.627,7.627,0,0,0,.389-4.274,32.484,32.484,0,0,1,8.482,3.825.6.6,0,0,0,.643-1.022,33.407,33.407,0,0,0-9.53-4.172,7.661,7.661,0,0,0-14.232,0,33.407,33.407,0,0,0-9.53,4.172.6.6,0,1,0,.643,1.022m16-8.809A6.457,6.457,0,1,1,40.78,8.164a6.464,6.464,0,0,1,6.456-6.456" transform="translate(-19.237 1.404)" fill="#fff" stroke="#fff" stroke-width="0.5"/>
        <path id="Trazado_193629" data-name="Trazado 193629" d="M31.233,10.517a32.484,32.484,0,0,1,8.482-3.825,7.63,7.63,0,0,0,.389,4.274,29.284,29.284,0,0,0-5.847,2.344.6.6,0,1,0,.565,1.067,27.973,27.973,0,0,1,5.824-2.3,7.658,7.658,0,0,0,13.179,0,27.97,27.97,0,0,1,5.823,2.3.6.6,0,1,0,.565-1.067,29.276,29.276,0,0,0-5.847-2.344,7.627,7.627,0,0,0,.389-4.274,32.484,32.484,0,0,1,8.482,3.825.6.6,0,0,0,.643-1.022,33.407,33.407,0,0,0-9.53-4.172,7.661,7.661,0,0,0-14.232,0,33.407,33.407,0,0,0-9.53,4.172.6.6,0,1,0,.643,1.022Zm16-8.809A6.457,6.457,0,1,1,40.78,8.164,6.464,6.464,0,0,1,47.236,1.707Z" transform="translate(-19.237 1.404)" fill="#fff" stroke="#fff" stroke-miterlimit="10" stroke-width="0.5"/>
        <path id="Trazado_193630" data-name="Trazado 193630" d="M77.013,23.76a.6.6,0,0,0,.966,0l2.886-3.848a.6.6,0,1,0-.966-.724l-2.4,3.2-2.4-3.2a.6.6,0,0,0-.966.724Z" transform="translate(-49.497 -11.37)" fill="#fff" stroke="#fff" stroke-width="0.5"/>
        <path id="Trazado_193631" data-name="Trazado 193631" d="M77.013,23.76a.6.6,0,0,0,.966,0l2.886-3.848a.6.6,0,1,0-.966-.724l-2.4,3.2-2.4-3.2a.6.6,0,0,0-.966.724Z" transform="translate(-49.497 -11.37)" fill="#fff" stroke="#fff" stroke-miterlimit="10" stroke-width="0.5"/>
      </g>
    </g>
  </g>
</svg>
