<svg xmlns="http://www.w3.org/2000/svg" width="90" height="90" viewBox="0 0 90 90">
  <g id="Grupo_136530" data-name="Grupo 136530" transform="translate(-1175 -1924)">
    <circle id="Elipse_5241" data-name="Elipse 5241" cx="45" cy="45" r="45" transform="translate(1175 1924)" fill="#b13e8d"/>
    <g id="Grupo_133477" data-name="Grupo 133477" transform="translate(3071.92 12157)">
      <path id="Trazado_188312" data-name="Trazado 188312" d="M665.7,232.238l-3.68-2.023c-.138.525-.237,1.026-.4,1.5a9.634,9.634,0,0,1-6.172,6.246c-.254.089-.445.151-.442.508.02,2.319.01,4.639.013,6.958a1.426,1.426,0,0,0,.031.214,2.973,2.973,0,0,1,2.616.545A2.706,2.706,0,0,1,662,247.41a8.248,8.248,0,0,1,1.629.018,2.511,2.511,0,0,1,2.006,2.458q.026,5.937-.007,11.874a5.59,5.59,0,0,1-1.048,3.152,9.937,9.937,0,0,1-.991,1.325,2.42,2.42,0,0,0-.55,2.274h1.677V273.8H645.309v-5.241h1.722a4.5,4.5,0,0,0-.282-2.239c-.972-1.877-1.861-3.8-2.8-5.692a10.956,10.956,0,0,1-.768-3.538c-.135-1-.254-2.008-.371-3.012a4.746,4.746,0,0,0-.862-2.24,13.6,13.6,0,0,1-.786-1.2,2.214,2.214,0,0,1,1.946-3.336,5.7,5.7,0,0,1,5.6,4.651,34.126,34.126,0,0,0,.825,3.451,5.48,5.48,0,0,0,.163-.94c.011-5.32.006-10.64.015-15.96a.451.451,0,0,0-.362-.507,9.591,9.591,0,0,1-6.536-7.42,1.692,1.692,0,0,0-.064-.212.956.956,0,0,0-.073-.128l-3.655,2c.26.229.481.419.7.615a8.778,8.778,0,0,1,2.184,10,8.849,8.849,0,1,1-9.327-12.233,8.582,8.582,0,0,1,4.188.448.943.943,0,0,0,.873-.08c1.494-.839,2.993-1.667,4.507-2.468a.965.965,0,0,0,.57-.84,9.706,9.706,0,0,1,19.278-.139,1.17,1.17,0,0,0,.71,1.043c1.487.772,2.938,1.613,4.42,2.395a1.128,1.128,0,0,0,.8.077,8.914,8.914,0,1,1-2.943,1.814C665.2,232.671,665.424,232.482,665.7,232.238Zm-12.457,19.475v-.638q0-6.517,0-13.033a3.064,3.064,0,0,0-.015-.551.878.878,0,0,0-1.742,0,3.154,3.154,0,0,0-.013.551c0,5.357.017,10.714-.021,16.071a6.2,6.2,0,0,1-.462,2.239c-.652,1.6-.7,1.564-2.435,1.555-.377,0-.5-.133-.563-.484-.336-1.751-.674-3.5-1.06-5.243a3.75,3.75,0,0,0-3.017-3.02,1.51,1.51,0,0,0-1.168.13c-.39.361.11.73.322,1.032a7.43,7.43,0,0,1,1.508,3.622c.1,1.025.21,2.051.38,3.066a12.617,12.617,0,0,0,.642,2.884c.824,1.925,1.79,3.79,2.74,5.658a3.718,3.718,0,0,1,.481,2.105,8.389,8.389,0,0,0,0,.84h12.4a8.04,8.04,0,0,0-.008-1.012,2.232,2.232,0,0,1,.623-1.853A19.634,19.634,0,0,0,663.061,264a4.228,4.228,0,0,0,.808-2.479q.012-5.687,0-11.376c0-.652-.342-1.048-.876-1.053s-.883.392-.891,1.038c-.007.526,0,1.052,0,1.564h-1.771c0-1.167.009-2.289,0-3.412a.884.884,0,0,0-.859-.958.9.9,0,0,0-.905.968c-.008.2,0,.405,0,.608v2.8H656.79v-1.69c0-.571.011-1.142,0-1.712a.88.88,0,0,0-1.22-.9.907.907,0,0,0-.549.933c0,1.117,0,2.235,0,3.379Zm5.429-18.2a7.825,7.825,0,0,0-.9-10.573,7.955,7.955,0,0,0-11.16.325,7.762,7.762,0,0,0-.564,10.229,7.207,7.207,0,0,1,3.328-3.2c-1.9-2.328-1.911-4.74-.07-6.5a4.42,4.42,0,0,1,5.984-.1c1.938,1.728,1.967,4.092.057,6.6A7.233,7.233,0,0,1,658.677,233.509Zm-19.341,10.151a6.924,6.924,0,0,0-.685-9.4,7.054,7.054,0,0,0-9.988.214,6.891,6.891,0,0,0-.452,9.177l2.508-1.949c-1.807-2.294-1.842-4.606-.056-6.365a4.417,4.417,0,0,1,5.937-.243,4.3,4.3,0,0,1,1.555,2.834,4.41,4.41,0,0,1-1.352,3.766Zm28.571-1.954c-1.816-2.346-1.836-4.648-.016-6.4a4.419,4.419,0,0,1,5.939-.174,4.3,4.3,0,0,1,1.522,2.853,4.4,4.4,0,0,1-1.358,3.713l2.528,1.966a6.919,6.919,0,0,0-.679-9.4,7.054,7.054,0,0,0-9.989.209,6.894,6.894,0,0,0-.454,9.18Zm-13.12-5.256c.793-.449,1.574-.879,2.336-1.342a.484.484,0,0,0,.106-.442,5.267,5.267,0,0,0-9.727-.013.5.5,0,0,0,.091.449,6.748,6.748,0,0,0,2.41,1.239A2.723,2.723,0,0,1,654.787,236.45Zm8.175,33.886H647.094v1.7h15.867Zm-10.581-40.69a2.649,2.649,0,1,0-2.673-2.659A2.665,2.665,0,0,0,652.381,229.645Zm-15.958,8.84a2.654,2.654,0,1,0-2.629,2.648A2.664,2.664,0,0,0,636.423,238.486Zm37.188-.026a2.654,2.654,0,1,0-2.659,2.674A2.663,2.663,0,0,0,673.611,238.46Zm-35.645,6.558c-1.926-2.794-6.559-2.788-8.371-.021C631.634,246.9,635.544,246.915,637.966,245.018ZM666.784,245c2.055,1.893,6.461,1.885,8.348-.016C673.209,242.222,668.578,242.231,666.784,245Z" transform="translate(-2503.835 -10434.027)" fill="#fff"/>
    </g>
  </g>
</svg>
