<svg xmlns="http://www.w3.org/2000/svg" xmlns:xlink="http://www.w3.org/1999/xlink" width="90" height="90" viewBox="0 0 90 90">
  <defs>
    <clipPath id="clip-path">
      <rect id="Rectángulo_41342" data-name="Rectángulo 41342" width="53" height="53" transform="translate(0.4 0.4)" fill="#fff"/>
    </clipPath>
  </defs>
  <g id="Grupo_136529" data-name="Grupo 136529" transform="translate(5907 9778)">
    <circle id="Elipse_5242" data-name="Elipse 5242" cx="45" cy="45" r="45" transform="translate(-5907 -9778)" fill="#b13e8d"/>
    <g id="Grupo_133527" data-name="Grupo 133527" transform="translate(-5888 -9759)">
      <g id="Grupo_133526" data-name="Grupo 133526" transform="translate(-0.4 -0.4)" clip-path="url(#clip-path)">
        <path id="Trazado_190231" data-name="Trazado 190231" d="M46.948,14.68a6.522,6.522,0,0,0,.819-3.173,6.288,6.288,0,1,0-12.573,0,6.571,6.571,0,0,0,.263,1.84C29.668,10.239,28.116,1.31,28.1,1.21a1,1,0,0,0-.232-.5A1.806,1.806,0,0,0,25.913.1c-.8.305-1.26,1.2-1.43,2.857-.761,2.78-2.725,8.132-6.953,10.395a6.562,6.562,0,0,0,.263-1.842,6.372,6.372,0,0,0-6.286-6.441,6.372,6.372,0,0,0-6.286,6.441A6.522,6.522,0,0,0,6.04,14.68,9.509,9.509,0,0,0,0,23.864v9.586c0,1.191,1.1,2.078,2.162,2.937.474.383,1.355,1.095,1.422,1.381C5.249,48.639,5.617,52.066,5.62,52.1a.98.98,0,0,0,.965.888h9.02a.98.98,0,0,0,.964-.876c.022-.194,2.281-19.435,3.388-26.937a15.478,15.478,0,0,1,4.016-8.437,18.238,18.238,0,0,0,2.517-3.469,18.332,18.332,0,0,0,2.524,3.469,15.48,15.48,0,0,1,4.015,8.437c1.107,7.5,3.365,26.743,3.388,26.937a.98.98,0,0,0,.964.876H46.4a.98.98,0,0,0,.965-.888c0-.033.368-3.439,2.032-14.312.07-.305.952-1.017,1.426-1.4,1.063-.859,2.162-1.747,2.162-2.937V23.864a9.509,9.509,0,0,0-6.04-9.184M41.481,7.056a4.452,4.452,0,1,1-4.344,4.451,4.4,4.4,0,0,1,4.344-4.451m2.135,18.619-2.135,2.73-2.135-2.73L41,17.928c.16.013.32.021.483.021s.323-.008.482-.021ZM11.507,7.056a4.452,4.452,0,0,1,0,8.9,4.452,4.452,0,0,1,0-8.9m2.135,18.619-2.135,2.73-2.135-2.73,1.652-7.748c.16.013.32.021.483.021s.323-.008.483-.021Zm8.914-10.3a17.431,17.431,0,0,0-4.518,9.5C17.063,31.485,15.2,47.127,14.745,51H11.968V39.013a.971.971,0,1,0-1.942,0V51H7.447c-.2-1.593-.718-5.537-1.946-13.555-.177-1.036-1.128-1.8-2.136-2.618-.473-.382-1.354-1.094-1.422-1.374V23.864A7.594,7.594,0,0,1,7.315,16.3,6.276,6.276,0,0,0,9.134,17.47L7.376,25.714a1.012,1.012,0,0,0,.191.835l3.182,4.07a.956.956,0,0,0,1.515,0l3.182-4.07a1.013,1.013,0,0,0,.191-.835L13.881,17.47a6.3,6.3,0,0,0,2.061-1.4c4.424-1.089,7.132-4.674,8.738-8.014a16.615,16.615,0,0,0,.762,2.909,15.473,15.473,0,0,1-2.885,4.413M49.623,34.825c-1.008.814-1.959,1.582-2.139,2.635C46.258,45.465,45.738,49.406,45.541,51H42.962V39.013a.971.971,0,1,0-1.942,0V51H38.243c-.458-3.871-2.318-19.513-3.293-26.121a17.427,17.427,0,0,0-4.518-9.5A15.065,15.065,0,0,1,26.349,4.351a12.339,12.339,0,0,1,.1-1.531c.782,3.228,3.454,11.484,10.589,13.245a6.3,6.3,0,0,0,2.064,1.405l-1.758,8.244a1.012,1.012,0,0,0,.191.835l3.182,4.07a.956.956,0,0,0,1.515,0l3.182-4.07a1.014,1.014,0,0,0,.191-.835L43.854,17.47A6.28,6.28,0,0,0,45.673,16.3a7.593,7.593,0,0,1,5.373,7.562l0,9.562c-.07.305-.951,1.016-1.425,1.4" transform="translate(0.406 0.407)" fill="#fff"/>
        <path id="Trazado_190232" data-name="Trazado 190232" d="M97.791,115.9a1.506,1.506,0,1,0,1.469,1.5,1.489,1.489,0,0,0-1.469-1.5" transform="translate(-70.89 -84.638)" fill="#fff"/>
        <path id="Trazado_190233" data-name="Trazado 190233" d="M97.791,140.892a1.506,1.506,0,1,0,1.469,1.5,1.489,1.489,0,0,0-1.469-1.5" transform="translate(-70.89 -102.978)" fill="#fff"/>
        <path id="Trazado_190234" data-name="Trazado 190234" d="M97.791,165.884a1.506,1.506,0,1,0,1.469,1.5,1.489,1.489,0,0,0-1.469-1.5" transform="translate(-70.89 -121.317)" fill="#fff"/>
      </g>
    </g>
  </g>
</svg>
