<svg xmlns="http://www.w3.org/2000/svg" xmlns:xlink="http://www.w3.org/1999/xlink" width="90" height="90" viewBox="0 0 90 90">
  <defs>
    <clipPath id="clip-path">
      <rect id="Rectángulo_43731" data-name="Rectángulo 43731" width="53" height="54" transform="translate(-1.5 -2.5)" fill="#fff"/>
    </clipPath>
  </defs>
  <g id="Grupo_136528" data-name="Grupo 136528" transform="translate(5709 9778)">
    <circle id="Elipse_5243" data-name="Elipse 5243" cx="45" cy="45" r="45" transform="translate(-5709 -9778)" fill="#b13e8d"/>
    <g id="Grupo_136510" data-name="Grupo 136510" transform="translate(-5688.75 -9757.75)">
      <g id="Grupo_136509" data-name="Grupo 136509" transform="translate(0.25 0.25)" clip-path="url(#clip-path)">
        <path id="Trazado_193607" data-name="Trazado 193607" d="M46.054,17.49h-.6V5.418A5.424,5.424,0,0,0,40.038,0H11.93A5.424,5.424,0,0,0,6.512,5.418V9.553H5.418A5.424,5.424,0,0,0,0,14.972v20a5.426,5.426,0,0,0,4.916,5.395l2.566,4.443a.99.99,0,0,0,1.714,0l2.553-4.42h12.2v.747a5.424,5.424,0,0,0,5.418,5.418H39.852L42.4,50.977a.99.99,0,0,0,1.714,0l2.574-4.458a5.426,5.426,0,0,0,4.78-5.381V22.909a5.425,5.425,0,0,0-5.418-5.418M11.177,38.412a.99.99,0,0,0-.857.495l-1.981,3.43-1.981-3.43a.99.99,0,0,0-.857-.495H5.418A3.442,3.442,0,0,1,1.98,34.974v-20a3.443,3.443,0,0,1,3.438-3.439H6.512v9.315a5.425,5.425,0,0,0,5.16,5.412l3.278,5.677a.99.99,0,0,0,1.714,0l3.275-5.671h4.007V38.412Zm12.769-15.5v1.378H19.367a.99.99,0,0,0-.857.495l-2.7,4.682-2.7-4.682a.99.99,0,0,0-.857-.495H11.93a3.442,3.442,0,0,1-3.438-3.438V5.418A3.442,3.442,0,0,1,11.93,1.98H40.038a3.442,3.442,0,0,1,3.438,3.438V17.49H29.364a5.424,5.424,0,0,0-5.418,5.418m25.547,18.23a3.442,3.442,0,0,1-3.438,3.438.99.99,0,0,0-.962.754L43.261,48.5l-1.981-3.43a.989.989,0,0,0-.857-.495H29.364a3.442,3.442,0,0,1-3.438-3.438V22.909a3.442,3.442,0,0,1,3.438-3.438h16.69a3.442,3.442,0,0,1,3.438,3.438Z" transform="translate(-0.236 -0.236)" fill="#fff"/>
        <path id="Trazado_193608" data-name="Trazado 193608" d="M77.075,38.934a.99.99,0,0,0-.99-.99H54.368a.99.99,0,1,0,0,1.98H76.085a.99.99,0,0,0,.99-.99" transform="translate(-39.478 -28.132)" fill="#fff"/>
        <path id="Trazado_193609" data-name="Trazado 193609" d="M58.93,60.371H54.367a.99.99,0,0,0,0,1.98H58.93a.99.99,0,0,0,0-1.98" transform="translate(-39.478 -44.62)" fill="#fff"/>
        <path id="Trazado_193610" data-name="Trazado 193610" d="M127.933,100.153H114.744a.99.99,0,0,0,0,1.98h13.189a.99.99,0,1,0,0-1.98" transform="translate(-83.866 -73.866)" fill="#fff"/>
        <path id="Trazado_193611" data-name="Trazado 193611" d="M120.975,122.58h-6.232a.99.99,0,0,0,0,1.98h6.232a.99.99,0,0,0,0-1.98" transform="translate(-83.866 -90.354)" fill="#fff"/>
      </g>
    </g>
  </g>
</svg>
