<svg xmlns="http://www.w3.org/2000/svg" xmlns:xlink="http://www.w3.org/1999/xlink" width="90" height="90" viewBox="0 0 90 90">
  <defs>
    <clipPath id="clip-path">
      <rect id="Rectángulo_41340" data-name="Rectángulo 41340" width="60" height="60" fill="#fff"/>
    </clipPath>
  </defs>
  <g id="Grupo_136525" data-name="Grupo 136525" transform="translate(5035 9783)">
    <circle id="Elipse_5246" data-name="Elipse 5246" cx="45" cy="45" r="45" transform="translate(-5035 -9783)" fill="#b13e8d"/>
    <g id="Grupo_136212" data-name="Grupo 136212" transform="translate(-5017.167 -9768.167)">
      <g id="Grupo_133522" data-name="Grupo 133522" transform="translate(0.167 0.167)" clip-path="url(#clip-path)">
        <path id="Trazado_190223" data-name="Trazado 190223" d="M55.688,42.221a4.371,4.371,0,0,0-2.073.687,2.513,2.513,0,0,1-1.235.444.947.947,0,0,1-.4-.168V37.1a3.737,3.737,0,0,0-1.171-2.714,3.729,3.729,0,0,0,1.171-2.711V25.595a.95.95,0,0,1,.4-.168,2.516,2.516,0,0,1,1.236.444,4.369,4.369,0,0,0,2.073.688,4.434,4.434,0,0,0,3.258-1.268,4.692,4.692,0,0,0,0-6.749,4.446,4.446,0,0,0-3.258-1.268,4.369,4.369,0,0,0-2.073.687,2.513,2.513,0,0,1-1.235.444.947.947,0,0,1-.4-.168V12.156A3.763,3.763,0,0,0,48.215,8.4H45.057a.988.988,0,0,1-.186-.424,2.509,2.509,0,0,1,.445-1.233,4.342,4.342,0,0,0,.689-2.067,4.431,4.431,0,0,0-1.271-3.249,4.719,4.719,0,0,0-6.766,0A4.43,4.43,0,0,0,36.7,4.678a4.345,4.345,0,0,0,.689,2.067,2.5,2.5,0,0,1,.445,1.232.983.983,0,0,1-.186.425h-9a3.754,3.754,0,0,0-2.783,1.236,3.749,3.749,0,0,0-2.528-.982h-6.08a.972.972,0,0,1-.186-.423A2.5,2.5,0,0,1,17.514,7,4.338,4.338,0,0,0,18.2,4.933a4.427,4.427,0,0,0-1.271-3.249,4.719,4.719,0,0,0-6.766,0A4.427,4.427,0,0,0,8.9,4.933,4.341,4.341,0,0,0,9.585,7a2.5,2.5,0,0,1,.445,1.231.979.979,0,0,1-.186.425H3.765A3.763,3.763,0,0,0,0,12.411v6.356a1.1,1.1,0,0,0,.114.489A3.15,3.15,0,0,0,2.747,20.87a4.562,4.562,0,0,0,2.287-.726A2.339,2.339,0,0,1,6.1,19.738a2.254,2.254,0,0,1,1.645.647,2.485,2.485,0,0,1,0,3.573A2.25,2.25,0,0,1,6.1,24.6,2.336,2.336,0,0,1,5.034,24.2a4.57,4.57,0,0,0-2.287-.725H2.719a3.122,3.122,0,0,0-2.6,1.615A1.1,1.1,0,0,0,0,25.575v6.356a3.728,3.728,0,0,0,1.042,2.585A3.734,3.734,0,0,0,0,37.1v6.356a1.1,1.1,0,0,0,.114.489,3.129,3.129,0,0,0,2.632,1.615,4.57,4.57,0,0,0,2.287-.725A2.336,2.336,0,0,1,6.1,44.43a2.242,2.242,0,0,1,1.645.647,2.485,2.485,0,0,1,0,3.573A2.247,2.247,0,0,1,6.1,49.3a2.336,2.336,0,0,1-1.063-.407,4.562,4.562,0,0,0-2.287-.725H2.719a3.122,3.122,0,0,0-2.6,1.615A1.1,1.1,0,0,0,0,50.267v6.356a3.763,3.763,0,0,0,3.764,3.754h19.57a3.756,3.756,0,0,0,2.656-1.1,3.757,3.757,0,0,0,2.656,1.1h19.57a3.763,3.763,0,0,0,3.764-3.754V50.541a.942.942,0,0,1,.4-.168,2.514,2.514,0,0,1,1.236.444,4.368,4.368,0,0,0,2.073.687,4.45,4.45,0,0,0,3.258-1.268,4.691,4.691,0,0,0,0-6.748,4.444,4.444,0,0,0-3.258-1.268M28.646,10.612h9.426a1.11,1.11,0,0,0,.6-.177,3.123,3.123,0,0,0,1.375-2.487,4.544,4.544,0,0,0-.727-2.282,2.318,2.318,0,0,1-.408-1.06,2.237,2.237,0,0,1,.648-1.641,2.5,2.5,0,0,1,3.582,0,2.238,2.238,0,0,1,.648,1.641,2.325,2.325,0,0,1-.408,1.06,4.532,4.532,0,0,0-.727,2.281,3.122,3.122,0,0,0,1.375,2.488,1.11,1.11,0,0,0,.6.177h3.583a1.547,1.547,0,0,1,1.548,1.544v6.526a1.1,1.1,0,0,0,.2.628,3.183,3.183,0,0,0,2.45,1.306A4.571,4.571,0,0,0,54.7,19.89a2.338,2.338,0,0,1,1.062-.407,2.252,2.252,0,0,1,1.645.646,2.486,2.486,0,0,1,0,3.573,2.242,2.242,0,0,1-1.645.647,2.338,2.338,0,0,1-1.062-.407,4.565,4.565,0,0,0-2.288-.726H52.38a3.17,3.17,0,0,0-2.42,1.306,1.1,1.1,0,0,0-.2.629v6.526a1.977,1.977,0,0,1-2.054,1.671H45.057a.985.985,0,0,1-.186-.423,2.507,2.507,0,0,1,.445-1.233,4.345,4.345,0,0,0,.689-2.067,4.43,4.43,0,0,0-1.271-3.249,4.719,4.719,0,0,0-6.766,0A4.43,4.43,0,0,0,36.7,29.624a4.348,4.348,0,0,0,.689,2.067,2.5,2.5,0,0,1,.445,1.231.979.979,0,0,1-.186.425h-9a3.745,3.745,0,0,0-2.237.743,3.721,3.721,0,0,0,.689-2.159V25.849a.944.944,0,0,1,.4-.168,2.513,2.513,0,0,1,1.236.444,4.37,4.37,0,0,0,2.073.687,4.447,4.447,0,0,0,3.258-1.268,4.691,4.691,0,0,0,0-6.748,4.456,4.456,0,0,0-3.258-1.268,4.369,4.369,0,0,0-2.073.688,2.516,2.516,0,0,1-1.234.444.949.949,0,0,1-.4-.168V12.156a1.548,1.548,0,0,1,1.548-1.544M2.216,25.926a1.021,1.021,0,0,1,.5-.244,2.513,2.513,0,0,1,1.237.444,4.369,4.369,0,0,0,2.073.687,4.45,4.45,0,0,0,3.258-1.268,4.691,4.691,0,0,0,0-6.748,4.45,4.45,0,0,0-3.258-1.268,4.369,4.369,0,0,0-2.073.688,2.516,2.516,0,0,1-1.234.444,1.024,1.024,0,0,1-.5-.244V12.411a1.548,1.548,0,0,1,1.548-1.544h6.5a1.11,1.11,0,0,0,.6-.177A3.123,3.123,0,0,0,12.245,8.2a4.537,4.537,0,0,0-.727-2.281,2.331,2.331,0,0,1-.408-1.06,2.24,2.24,0,0,1,.648-1.641,2.5,2.5,0,0,1,3.582,0,2.238,2.238,0,0,1,.648,1.641,2.32,2.32,0,0,1-.408,1.06A4.541,4.541,0,0,0,14.853,8.2a3.122,3.122,0,0,0,1.375,2.486,1.108,1.108,0,0,0,.6.177h6.5a1.548,1.548,0,0,1,1.548,1.544v6.525a1.1,1.1,0,0,0,.2.628A3.169,3.169,0,0,0,27.5,20.87h.028a4.564,4.564,0,0,0,2.288-.726,2.338,2.338,0,0,1,1.062-.407,2.248,2.248,0,0,1,1.645.647,2.483,2.483,0,0,1,0,3.573,2.25,2.25,0,0,1-1.645.647,2.337,2.337,0,0,1-1.063-.407,4.57,4.57,0,0,0-2.287-.725,3.183,3.183,0,0,0-2.45,1.306,1.1,1.1,0,0,0-.2.628v6.526c0,.673-.321,1.418-1.548,1.417H20.176a.981.981,0,0,1-.186-.423,2.5,2.5,0,0,1,.445-1.233,4.342,4.342,0,0,0,.689-2.067,4.429,4.429,0,0,0-1.271-3.25,4.719,4.719,0,0,0-6.766,0,4.43,4.43,0,0,0-1.271,3.249,4.351,4.351,0,0,0,.689,2.067,2.5,2.5,0,0,1,.445,1.232.982.982,0,0,1-.186.425h-9a1.36,1.36,0,0,1-1.548-1.417ZM23.334,58.167H3.765a1.548,1.548,0,0,1-1.548-1.544V50.618a1.02,1.02,0,0,1,.5-.244,2.514,2.514,0,0,1,1.236.444,4.366,4.366,0,0,0,2.073.687,4.451,4.451,0,0,0,3.258-1.268,4.691,4.691,0,0,0,0-6.748,4.445,4.445,0,0,0-3.258-1.268,4.369,4.369,0,0,0-2.073.687,2.513,2.513,0,0,1-1.235.444,1.023,1.023,0,0,1-.5-.244V37.1a1.548,1.548,0,0,1,1.548-1.544h9.426a1.113,1.113,0,0,0,.6-.177,3.122,3.122,0,0,0,1.375-2.487,4.538,4.538,0,0,0-.727-2.282,2.332,2.332,0,0,1-.408-1.06,2.241,2.241,0,0,1,.648-1.641,2.5,2.5,0,0,1,3.582,0,2.237,2.237,0,0,1,.648,1.641,2.316,2.316,0,0,1-.408,1.06,4.54,4.54,0,0,0-.727,2.282,3.123,3.123,0,0,0,1.375,2.487,1.112,1.112,0,0,0,.6.177h3.583A1.548,1.548,0,0,1,24.882,37.1v6.356a1.1,1.1,0,0,0,.115.489,3.142,3.142,0,0,0,2.631,1.615,4.573,4.573,0,0,0,2.288-.725,2.335,2.335,0,0,1,1.063-.407,2.24,2.24,0,0,1,1.645.646,2.484,2.484,0,0,1,0,3.573,2.239,2.239,0,0,1-1.645.647,2.334,2.334,0,0,1-1.062-.407,4.566,4.566,0,0,0-2.288-.725H27.6A3.121,3.121,0,0,0,25,49.778a1.1,1.1,0,0,0-.115.489v6.356a1.548,1.548,0,0,1-1.548,1.544M57.4,48.649a2.246,2.246,0,0,1-1.645.646,2.335,2.335,0,0,1-1.062-.407,4.565,4.565,0,0,0-2.288-.725H52.38a3.168,3.168,0,0,0-2.42,1.306,1.1,1.1,0,0,0-.2.628v6.526a1.548,1.548,0,0,1-1.548,1.544H28.646A1.548,1.548,0,0,1,27.1,56.623V50.618a1.022,1.022,0,0,1,.5-.244,2.514,2.514,0,0,1,1.236.444,4.368,4.368,0,0,0,2.072.687,4.429,4.429,0,0,0,3.258-1.268,4.69,4.69,0,0,0,0-6.748,4.439,4.439,0,0,0-3.258-1.268,4.37,4.37,0,0,0-2.073.687,2.512,2.512,0,0,1-1.235.444,1.023,1.023,0,0,1-.5-.244V37.1a1.548,1.548,0,0,1,1.548-1.544h9.426a1.11,1.11,0,0,0,.6-.177,3.122,3.122,0,0,0,1.375-2.487,4.547,4.547,0,0,0-.727-2.282,2.318,2.318,0,0,1-.408-1.06,2.237,2.237,0,0,1,.648-1.641,2.5,2.5,0,0,1,3.582,0,2.238,2.238,0,0,1,.648,1.641,2.325,2.325,0,0,1-.408,1.06,4.534,4.534,0,0,0-.727,2.282,3.121,3.121,0,0,0,1.375,2.487,1.11,1.11,0,0,0,.6.177h3.583A1.548,1.548,0,0,1,49.763,37.1v6.526a1.1,1.1,0,0,0,.2.628,3.19,3.19,0,0,0,2.45,1.306,4.569,4.569,0,0,0,2.287-.725,2.339,2.339,0,0,1,1.063-.407,2.245,2.245,0,0,1,1.645.646,2.485,2.485,0,0,1,0,3.573" transform="translate(-0.189 -0.189)" fill="#fff"/>
      </g>
    </g>
  </g>
</svg>
