<svg xmlns="http://www.w3.org/2000/svg" xmlns:xlink="http://www.w3.org/1999/xlink" width="609.999" height="610.472" viewBox="0 0 609.999 610.472">
  <defs>
    <clipPath id="clip-path">
      <rect id="Rectángulo_43788" data-name="Rectángulo 43788" width="97.668" height="96.188" fill="#6836bf"/>
    </clipPath>
  </defs>
  <g id="Grupo_136767" data-name="Grupo 136767" transform="translate(-495.002 -2360)">
    <g id="Grupo_136681" data-name="Grupo 136681" transform="translate(495.002 2360)">
      <g id="Capa_1" data-name="Capa 1" transform="translate(0 0)">
        <g id="Grupo_136214" data-name="Grupo 136214">
          <path id="Trazado_190447" data-name="Trazado 190447" d="M304.072,2.3V51.884a2.3,2.3,0,0,0,2.3,2.3h.246a33.918,33.918,0,0,1,0,67.836h-.246a2.291,2.291,0,0,0-2.3,2.288v46.771a2.3,2.3,0,0,1-2.215,2.3l-.757.027c-.383.009-.747.036-1.121.064l-.875.046c-1.085.055-2.169.118-3.236.2-.447.036-.912.082-1.367.128l-1.149.109c-.884.082-1.768.164-2.643.273-.447.055-2.826.383-2.826.383-.766.1-1.522.21-2.27.319-.574.091-1.13.191-1.686.292l-1.13.2c-.893.155-1.55.273-2.206.41-.574.118-2.972.638-2.972.638-.675.146-1.34.292-2.005.456-.62.146-1.24.31-1.86.474l-.556.146c-.957.246-1.723.447-2.479.656s-1.495.438-2.233.665c-.984.3-1.777.538-2.571.793-.82.273-1.641.547-2.461.829-.766.264-1.513.52-2.261.793-.839.31-1.659.629-2.479.948-.839.328-1.5.583-2.16.857-.839.337-1.659.693-2.488,1.057-.738.319-1.395.611-2.051.912-.839.383-1.668.775-2.5,1.167-.656.319-1.3.629-1.942.948-.839.419-1.686.857-2.525,1.294-.611.319-1.212.647-1.814.975-.857.465-1.7.948-2.543,1.431l-1.5.884c-1.048.629-1.905,1.149-2.753,1.677l-1.44.93c-.984.638-1.841,1.2-2.7,1.787l-1.34.93c-.948.665-1.823,1.285-2.7,1.932-.419.31-.839.629-1.258.948-.893.675-1.787,1.358-2.671,2.06l-1.057.866c-.93.757-1.841,1.513-2.735,2.288l-.857.757c-.957.839-1.9,1.668-2.817,2.525l-.6.574c-1.012.948-1.987,1.887-2.944,2.844l-.191.2a132.036,132.036,0,0,0-27.437,40.189,2.294,2.294,0,0,1-2.106,1.376,2.162,2.162,0,0,1-.675-.1l-41.037-12.588a2.3,2.3,0,0,1-1.577-2.653,38.453,38.453,0,0,0-37.719-46.178,38.935,38.935,0,0,0-35.532,23.718,2.293,2.293,0,0,1-2.115,1.413,2.123,2.123,0,0,1-.675-.1L21.123,203.919a2.286,2.286,0,0,1-1.477-2.972A305.534,305.534,0,0,1,301.748,0" transform="translate(-1.726)" fill="#6836bf"/>
          <path id="Trazado_190448" data-name="Trazado 190448" d="M339.662.07C465.354,2.13,578.63,82.892,621.527,201.036a2.3,2.3,0,0,1-.109,1.8,2.271,2.271,0,0,1-1.376,1.167l-46.78,14.3a2.355,2.355,0,0,0-1.367,1.139,2.277,2.277,0,0,0-.137,1.777,33.9,33.9,0,1,1-64.81,19.817,2.294,2.294,0,0,0-1.112-1.395,2.334,2.334,0,0,0-1.1-.283,2.533,2.533,0,0,0-.684.1l-45.878,14.019a2.125,2.125,0,0,1-.675.1,2.3,2.3,0,0,1-2.106-1.376,132.678,132.678,0,0,0-115.637-78.839l-.829-.027a2.3,2.3,0,0,1-2.224-2.3v-42.4a2.3,2.3,0,0,1,2.042-2.279,38.507,38.507,0,0,0,0-76.551,2.29,2.29,0,0,1-2.042-2.279V2.321" transform="translate(-29.787 -0.006)" fill="#b13e8d"/>
          <path id="Trazado_190449" data-name="Trazado 190449" d="M524.772,569.495a1.4,1.4,0,0,1-.337-.027,2.272,2.272,0,0,1-1.522-.93l-29.807-41.183a2.293,2.293,0,0,0-1.86-.948,2.293,2.293,0,0,0-1.349.438,33.862,33.862,0,0,1-53.835-27.4,34,34,0,0,1,14.111-27.492,2.294,2.294,0,0,0,.51-3.209l-26.735-36.953a2.29,2.29,0,0,1,.419-3.136c1.9-1.531,3.81-3.163,5.834-4.977.036-.027.064-.055.1-.082,0,0,1.121-.984,1.331-1.185,1.2-1.112,2.37-2.27,3.528-3.418l.592-.574c.328-.328.665-.647.975-.975,1.112-1.139,2.188-2.306,3.245-3.482l.419-.465a1.708,1.708,0,0,1,.228-.219c.155-.164.283-.3.41-.447.055-.064.255-.337.319-.4a131.79,131.79,0,0,0,32.824-87.015c0-4.321-.21-8.66-.629-12.88-.41-4.175-1.021-8.386-1.832-12.524-.793-4.047-1.8-8.131-2.981-12.114-.693-2.343-1.477-4.722-2.315-7.064a2.341,2.341,0,0,1,.1-1.8,2.287,2.287,0,0,1,1.385-1.167l40.946-12.515a2.125,2.125,0,0,1,.675-.1,2.3,2.3,0,0,1,2.124,1.422,38.484,38.484,0,0,0,74.117-14.557,37.93,37.93,0,0,0-.82-7.848,2.3,2.3,0,0,1,1.577-2.671l42.851-13.1a2.107,2.107,0,0,1,.665-.1,2.292,2.292,0,0,1,2.179,1.577s.738,2.215.738,2.242a304.907,304.907,0,0,1,14.512,93.2c0,93.505-42.04,180.584-115.327,238.931l-2.015,1.613s-3.072,2.379-3.983,3.072a2.3,2.3,0,0,1-1.386.465Z" transform="translate(-37.466 -20.205)" fill="#6836bf"/>
          <path id="Trazado_190450" data-name="Trazado 190450" d="M317.153,650.594a303.032,303.032,0,0,1-176.118-55.986,2.3,2.3,0,0,1-.538-3.218l30.163-41.748a2.3,2.3,0,0,0-.483-3.172,33.885,33.885,0,0,1,39.679-54.929,2.323,2.323,0,0,0,1.3.41,2.29,2.29,0,0,0,1.869-.948l26.27-36.361a2.306,2.306,0,0,1,3.163-.547A131.894,131.894,0,0,0,269,468.2c1.659.656,3.327,1.267,5.023,1.85,3.364,1.167,6.837,2.215,10.319,3.108,3.509.9,7.092,1.659,10.647,2.261a132.094,132.094,0,0,0,16.526,1.741q2.8.123,5.633.119c1.987,0,3.965-.055,5.934-.137.419-.018,1.923-.119,1.923-.119,1.331-.082,2.634-.164,3.938-.273.538-.046,1.067-.109,1.6-.164l.693-.073c1.176-.119,2.352-.255,3.519-.419.8-.109,1.6-.219,2.406-.346,1.121-.173,2.224-.355,3.336-.556.811-.146,1.613-.292,2.425-.447,1.085-.219,2.179-.456,3.263-.7,0,0,1.8-.4,2.361-.538,1.094-.273,2.179-.565,3.254-.857.064-.018,1.814-.483,2.251-.611q2.625-.766,5.178-1.623c.483-.164,2.826-1.012,2.826-1.012.82-.292,1.632-.583,2.425-.893.711-.273,1.4-.565,2.106-.848l.757-.31c.766-.31,1.522-.629,2.279-.948.9-.392,1.8-.8,2.707-1.221.775-.356,1.541-.72,2.315-1.094.911-.447,1.823-.9,2.725-1.367.711-.365,1.431-.747,2.151-1.139.912-.492,1.832-.984,2.725-1.5.492-.283,2.416-1.422,2.416-1.422.893-.538,1.623-.966,2.343-1.413l1.559-1.012c1.231-.793,2.388-1.559,3.482-2.315a2.306,2.306,0,0,1,3.163.547l24.165,33.39a2.3,2.3,0,0,1-.319,3.044,38.462,38.462,0,0,0,44.829,61.948,2.29,2.29,0,0,1,2.99.647l27.282,37.683a2.29,2.29,0,0,1,.4,1.714,2.316,2.316,0,0,1-.939,1.5,303.04,303.04,0,0,1-176.455,56.2Z" transform="translate(-12.391 -40.121)" fill="#f7ca2e"/>
          <path id="Trazado_190451" data-name="Trazado 190451" d="M122.711,568.37a2.3,2.3,0,0,1-1.386-.465C45.358,510.433,0,419.362,0,324.307a306.275,306.275,0,0,1,14.721-95.055l.164-.492a2.28,2.28,0,0,1,2.179-1.586,2.2,2.2,0,0,1,.675.1L65.4,241.9a2.418,2.418,0,0,0,.675.1,2.31,2.31,0,0,0,2.206-1.668,33.9,33.9,0,1,1,64.81,19.881,2.284,2.284,0,0,0,1.513,2.9L179.1,276.752a2.295,2.295,0,0,1,1.486,2.963l-.447,1.294a134.2,134.2,0,0,0-6.818,43.289,131.344,131.344,0,0,0,49.533,103.386,2.3,2.3,0,0,1,.428,3.145l-23.837,32.988a2.29,2.29,0,0,1-1.869.948,2.25,2.25,0,0,1-1.094-.283,38.5,38.5,0,0,0-56.852,33.845,37.972,37.972,0,0,0,12.142,28.021,2.291,2.291,0,0,1,.292,3.017L124.57,567.413a2.307,2.307,0,0,1-1.522.93,2.2,2.2,0,0,1-.337.027Z" transform="translate(0 -19.089)" fill="#b13e8d"/>
        </g>
      </g>
      <ellipse id="Elipse_5249" data-name="Elipse 5249" cx="111.235" cy="111.235" rx="111.235" ry="111.235" transform="translate(193.763 193.792)" fill="#fef7dc"/>
      <g id="Grupo_136654" data-name="Grupo 136654" transform="translate(256.164 216.099)">
        <g id="Grupo_136653" data-name="Grupo 136653" transform="translate(0 0)" clip-path="url(#clip-path)">
          <path id="Trazado_193821" data-name="Trazado 193821" d="M36.517,16A1.517,1.517,0,0,0,35,17.517v1.517a1.517,1.517,0,0,0,3.034,0V17.517A1.517,1.517,0,0,0,36.517,16" transform="translate(18.386 7.763)" fill="#6836bf"/>
          <path id="Trazado_193822" data-name="Trazado 193822" d="M28.517,16A1.517,1.517,0,0,0,27,17.517v1.517a1.517,1.517,0,0,0,3.034,0V17.517A1.517,1.517,0,0,0,28.517,16" transform="translate(14.249 7.763)" fill="#6836bf"/>
          <path id="Trazado_193823" data-name="Trazado 193823" d="M75.464,40H12.949A4.551,4.551,0,0,0,8.47,45.364l4.965,27.308a4.547,4.547,0,0,0,4.477,3.738H70.5a4.546,4.546,0,0,0,4.477-3.738L79.94,45.366A4.551,4.551,0,0,0,75.464,40m1.493,4.823L71.992,72.13A1.518,1.518,0,0,1,70.5,73.376H17.913A1.517,1.517,0,0,1,16.42,72.13L11.454,44.823a1.516,1.516,0,0,1,1.494-1.789H75.464a1.516,1.516,0,0,1,1.493,1.789" transform="translate(4.629 20.173)" fill="#6836bf"/>
          <path id="Trazado_193824" data-name="Trazado 193824" d="M25.836,31.859h1.517a13.667,13.667,0,0,0,9.1,12.857V47.03a1.519,1.519,0,0,1-1.517,1.517H27.353a13.6,13.6,0,0,0-12.66,8.534,1.517,1.517,0,0,0,2.813,1.138,10.579,10.579,0,0,1,9.847-6.637h5.069a9.107,9.107,0,0,0,17.17,0h5.069a10.579,10.579,0,0,1,9.847,6.637,1.517,1.517,0,0,0,2.813-1.138,13.6,13.6,0,0,0-12.66-8.534H47.075a1.519,1.519,0,0,1-1.517-1.517V44.716a13.667,13.667,0,0,0,9.1-12.857h1.517a6.049,6.049,0,0,0,3.034-11.293V18.205a18.205,18.205,0,0,0-36.41,0v2.361a6.049,6.049,0,0,0,3.034,11.293M46.292,51.5a6.044,6.044,0,0,1-10.571,0A4.55,4.55,0,0,0,39.49,47.03V45.423a12.9,12.9,0,0,0,3.034,0V47.03A4.55,4.55,0,0,0,46.292,51.5m5.334-19.643a10.62,10.62,0,0,1-21.239,0v-9.1H41.268a4.518,4.518,0,0,0,3.218-1.334l1.073-1.073,1.073,1.073a4.518,4.518,0,0,0,3.218,1.334h1.778Zm0-12.137H49.848a1.531,1.531,0,0,1-1.073-.445l-2.145-2.145a1.516,1.516,0,0,0-2.145,0L42.34,19.278a1.531,1.531,0,0,1-1.073.445H30.387V18.205a10.62,10.62,0,0,1,21.239,0Zm4.551,9.1H54.661V22.756h1.517a3.034,3.034,0,0,1,0,6.068M25.836,18.205a15.171,15.171,0,0,1,30.342,0v1.517H54.661V18.205a13.654,13.654,0,0,0-27.308,0v1.517H25.836Zm0,4.551h1.517v6.068H25.836a3.034,3.034,0,1,1,0-6.068" transform="translate(7.828 -0.51)" fill="#6836bf"/>
          <path id="Trazado_193825" data-name="Trazado 193825" d="M34.585,47a7.585,7.585,0,1,0,7.585,7.585A7.594,7.594,0,0,0,34.585,47m0,12.137a4.551,4.551,0,1,1,4.551-4.551,4.557,4.557,0,0,1-4.551,4.551" transform="translate(14.249 23.793)" fill="#6836bf"/>
          <path id="Trazado_193826" data-name="Trazado 193826" d="M69.274,14H54.1a4.557,4.557,0,0,0-4.551,4.551v7.585a1.519,1.519,0,0,1-1.517,1.517H46.517a1.517,1.517,0,0,0-1.073,2.59l3.662,3.662a4.518,4.518,0,0,0,3.218,1.334H69.274a4.557,4.557,0,0,0,4.551-4.551V18.551A4.557,4.557,0,0,0,69.274,14m1.517,16.688a1.519,1.519,0,0,1-1.517,1.517H52.325a1.531,1.531,0,0,1-1.073-.445l-1.435-1.437a4.558,4.558,0,0,0,2.769-4.187V18.551A1.519,1.519,0,0,1,54.1,17.034H69.274a1.519,1.519,0,0,1,1.517,1.517Z" transform="translate(23.557 6.729)" fill="#6836bf"/>
          <path id="Trazado_193827" data-name="Trazado 193827" d="M24.718,33.906l3.662-3.662a1.517,1.517,0,0,0-1.073-2.59H25.791a1.519,1.519,0,0,1-1.517-1.517V18.551A4.557,4.557,0,0,0,19.722,14H4.551A4.557,4.557,0,0,0,0,18.551V30.688a4.557,4.557,0,0,0,4.551,4.551H21.5a4.518,4.518,0,0,0,3.218-1.334M3.034,30.688V18.551a1.519,1.519,0,0,1,1.517-1.517H19.722a1.519,1.519,0,0,1,1.517,1.517v7.585a4.558,4.558,0,0,0,2.769,4.187l-1.435,1.437a1.531,1.531,0,0,1-1.073.445H4.551a1.519,1.519,0,0,1-1.517-1.517" transform="translate(0.288 6.729)" fill="#6836bf"/>
          <path id="Trazado_193828" data-name="Trazado 193828" d="M58.068,17a6.069,6.069,0,0,0-4.29,10.36l0,0A6.068,6.068,0,1,0,58.068,17m-1.517,3.442v2l-1.415,1.415a3.1,3.1,0,0,1-.1-.787,3.032,3.032,0,0,1,1.517-2.626m1.517,5.66a3.087,3.087,0,0,1-.787-.1l1.86-1.86a1.513,1.513,0,0,0,.445-1.073V20.442a3.033,3.033,0,0,1-1.517,5.66" transform="translate(27.176 8.28)" fill="#6836bf"/>
          <path id="Trazado_193829" data-name="Trazado 193829" d="M11.03,24.141a1.515,1.515,0,0,0,2.145,0l4.551-4.551a1.517,1.517,0,0,0-2.145-2.145L12.1,20.923l-.445-.445a1.515,1.515,0,0,0-2.145,0L6.034,23.958v-5.44a1.517,1.517,0,0,0-3.034,0v9.1a1.532,1.532,0,0,0,.117.58,1.512,1.512,0,0,0,.821.821,1.532,1.532,0,0,0,.58.117H16.654a1.517,1.517,0,1,0,0-3.034H8.179L10.585,23.7Z" transform="translate(1.839 8.28)" fill="#6836bf"/>
        </g>
      </g>
    </g>
    <path id="Trazado_194014" data-name="Trazado 194014" d="M61.047,15.383a4.577,4.577,0,0,1-2.013,1.323,8.429,8.429,0,0,1-2.883.47,5.711,5.711,0,0,1-2.914-.725,4.836,4.836,0,0,1-1.934-2.1,7.408,7.408,0,0,1-.7-3.243v-.87a7.868,7.868,0,0,1,.646-3.318A4.779,4.779,0,0,1,53.115,4.77a6.135,6.135,0,0,1,6.412.343,4.639,4.639,0,0,1,1.521,3.16H58.481A2.552,2.552,0,0,0,57.7,6.664a2.484,2.484,0,0,0-1.657-.51A2.338,2.338,0,0,0,54,7.165a5.315,5.315,0,0,0-.712,3.006v.817a5.06,5.06,0,0,0,.765,3.041,2.618,2.618,0,0,0,2.241,1.028,2.925,2.925,0,0,0,2.118-.633V12.219h-2.4V10.276h5.036Zm6.346,1.793a4.668,4.668,0,0,1-3.406-1.283,4.561,4.561,0,0,1-1.314-3.419v-.246a5.745,5.745,0,0,1,.554-2.562A4.064,4.064,0,0,1,64.8,7.925a4.4,4.4,0,0,1,2.316-.611,3.947,3.947,0,0,1,3.072,1.23A5,5,0,0,1,71.3,12.034v1.037H65.249a2.36,2.36,0,0,0,.743,1.494,2.245,2.245,0,0,0,1.569.563,2.742,2.742,0,0,0,2.294-1.063l1.248,1.4a3.813,3.813,0,0,1-1.547,1.261A5.075,5.075,0,0,1,67.393,17.176ZM67.1,9.362a1.587,1.587,0,0,0-1.226.512,2.651,2.651,0,0,0-.6,1.466h3.533v-.2a1.891,1.891,0,0,0-.457-1.311A1.638,1.638,0,0,0,67.1,9.362ZM77.9,14.372a.818.818,0,0,0-.461-.734,5.241,5.241,0,0,0-1.481-.479q-3.393-.712-3.393-2.883a2.613,2.613,0,0,1,1.05-2.114,4.237,4.237,0,0,1,2.747-.848,4.56,4.56,0,0,1,2.9.853,2.687,2.687,0,0,1,1.085,2.215H77.8a1.229,1.229,0,0,0-.352-.9,1.488,1.488,0,0,0-1.1-.356,1.52,1.52,0,0,0-.993.29.916.916,0,0,0-.352.738.783.783,0,0,0,.4.681,4.114,4.114,0,0,0,1.349.448,11.019,11.019,0,0,1,1.6.426,2.628,2.628,0,0,1,2.013,2.558,2.481,2.481,0,0,1-1.116,2.1,4.815,4.815,0,0,1-2.883.8,5.029,5.029,0,0,1-2.123-.426,3.561,3.561,0,0,1-1.455-1.169,2.716,2.716,0,0,1-.527-1.6h2.408a1.326,1.326,0,0,0,.5,1.037,1.987,1.987,0,0,0,1.248.36,1.839,1.839,0,0,0,1.1-.277A.861.861,0,0,0,77.9,14.372Zm7.146-9.22V7.49h1.626V9.354H85.042V14.1a1.133,1.133,0,0,0,.2.756,1.015,1.015,0,0,0,.773.229,4.051,4.051,0,0,0,.747-.062v1.925a5.229,5.229,0,0,1-1.538.229,2.425,2.425,0,0,1-2.725-2.7V9.354H81.113V7.49H82.5V5.152ZM90.763,17H88.214V7.49h2.549Zm-2.7-11.971a1.251,1.251,0,0,1,.382-.94,1.648,1.648,0,0,1,2.079,0,1.244,1.244,0,0,1,.387.94,1.247,1.247,0,0,1-.391.949,1.629,1.629,0,0,1-2.065,0A1.247,1.247,0,0,1,88.065,5.029Zm4.395,7.128A5.64,5.64,0,0,1,93,9.635a3.989,3.989,0,0,1,1.569-1.714,4.577,4.577,0,0,1,2.377-.606,4.33,4.33,0,0,1,3.142,1.178,4.727,4.727,0,0,1,1.358,3.2l.018.65a4.97,4.97,0,0,1-1.222,3.511,4.735,4.735,0,0,1-6.561,0,5.058,5.058,0,0,1-1.226-3.586Zm2.54.18a3.555,3.555,0,0,0,.51,2.073,1.831,1.831,0,0,0,2.9.009,3.89,3.89,0,0,0,.519-2.267,3.519,3.519,0,0,0-.519-2.06,1.686,1.686,0,0,0-1.459-.731,1.658,1.658,0,0,0-1.441.726A3.955,3.955,0,0,0,95,12.338ZM97.452,3.5h2.769L97.786,6.225H95.72Zm7.919,3.99.079,1.1a3.32,3.32,0,0,1,2.733-1.274,2.759,2.759,0,0,1,2.25.888,4.142,4.142,0,0,1,.756,2.654V17h-2.54V10.9a1.654,1.654,0,0,0-.352-1.176,1.572,1.572,0,0,0-1.169-.366,1.747,1.747,0,0,0-1.608.916V17h-2.54V7.49ZM47.218,41a2.821,2.821,0,0,1-.255-.853,3.073,3.073,0,0,1-2.4,1.028,3.376,3.376,0,0,1-2.316-.809,2.6,2.6,0,0,1-.918-2.039,2.687,2.687,0,0,1,1.121-2.32,5.529,5.529,0,0,1,3.239-.817h1.169v-.545a1.567,1.567,0,0,0-.338-1.055,1.331,1.331,0,0,0-1.068-.4,1.513,1.513,0,0,0-1.006.308,1.045,1.045,0,0,0-.365.844H41.54a2.551,2.551,0,0,1,.51-1.529,3.37,3.37,0,0,1,1.441-1.1,5.253,5.253,0,0,1,2.092-.4,4.15,4.15,0,0,1,2.791.883,3.09,3.09,0,0,1,1.033,2.483V38.8a4.546,4.546,0,0,0,.378,2.048V41Zm-2.1-1.767a2.188,2.188,0,0,0,1.037-.25,1.645,1.645,0,0,0,.7-.672V36.676h-.949q-1.907,0-2.03,1.318l-.009.149a1.017,1.017,0,0,0,.334.782A1.3,1.3,0,0,0,45.117,39.233Zm8.622-7.743.079,1.063a3.342,3.342,0,0,1,2.733-1.239,2.536,2.536,0,0,1,2.522,1.45,3.265,3.265,0,0,1,2.856-1.45,2.836,2.836,0,0,1,2.3.9,4.141,4.141,0,0,1,.756,2.711V41H62.441V34.922a1.818,1.818,0,0,0-.316-1.185,1.4,1.4,0,0,0-1.116-.374,1.585,1.585,0,0,0-1.582,1.092L59.435,41h-2.54V34.93a1.8,1.8,0,0,0-.325-1.2,1.414,1.414,0,0,0-1.107-.37,1.645,1.645,0,0,0-1.564.9V41h-2.54V31.49ZM75.51,36.333a5.758,5.758,0,0,1-.976,3.564,3.231,3.231,0,0,1-2.725,1.279,2.969,2.969,0,0,1-2.47-1.187L69.226,41H66.941V27.5h2.54v4.843a2.893,2.893,0,0,1,2.312-1.028,3.258,3.258,0,0,1,2.729,1.279,5.767,5.767,0,0,1,.989,3.6Zm-2.54-.194a3.8,3.8,0,0,0-.457-2.111,1.544,1.544,0,0,0-1.362-.666,1.675,1.675,0,0,0-1.67,1v3.764a1.7,1.7,0,0,0,1.688,1,1.569,1.569,0,0,0,1.617-1.217A6.294,6.294,0,0,0,72.97,36.139ZM79.755,41H77.206V31.49h2.549Zm-2.7-11.971a1.251,1.251,0,0,1,.382-.94,1.648,1.648,0,0,1,2.079,0,1.342,1.342,0,0,1,0,1.89,1.629,1.629,0,0,1-2.065,0A1.247,1.247,0,0,1,77.057,29.029Zm9.167,12.146a4.668,4.668,0,0,1-3.406-1.283A4.561,4.561,0,0,1,81.5,36.474v-.246a5.745,5.745,0,0,1,.554-2.562,4.064,4.064,0,0,1,1.569-1.74,4.4,4.4,0,0,1,2.316-.611,3.947,3.947,0,0,1,3.072,1.23,5,5,0,0,1,1.121,3.489v1.037H84.079a2.36,2.36,0,0,0,.743,1.494,2.245,2.245,0,0,0,1.569.563,2.742,2.742,0,0,0,2.294-1.063l1.248,1.4a3.813,3.813,0,0,1-1.547,1.261A5.075,5.075,0,0,1,86.224,41.176Zm-.29-7.813a1.587,1.587,0,0,0-1.226.512,2.651,2.651,0,0,0-.6,1.466h3.533v-.2a1.891,1.891,0,0,0-.457-1.311A1.638,1.638,0,0,0,85.934,33.362Zm7.98-1.872.079,1.1a3.32,3.32,0,0,1,2.733-1.274,2.759,2.759,0,0,1,2.25.888,4.142,4.142,0,0,1,.756,2.654V41h-2.54V34.9a1.654,1.654,0,0,0-.352-1.176,1.572,1.572,0,0,0-1.169-.366,1.747,1.747,0,0,0-1.608.916V41h-2.54V31.49ZM104.7,29.152V31.49h1.626v1.863H104.7V38.1a1.133,1.133,0,0,0,.2.756,1.015,1.015,0,0,0,.773.229,4.051,4.051,0,0,0,.747-.062v1.925a5.229,5.229,0,0,1-1.538.229,2.425,2.425,0,0,1-2.725-2.7V33.354H100.77V31.49h1.389V29.152ZM113.25,41a2.821,2.821,0,0,1-.255-.853,3.073,3.073,0,0,1-2.4,1.028,3.376,3.376,0,0,1-2.316-.809,2.6,2.6,0,0,1-.918-2.039,2.687,2.687,0,0,1,1.121-2.32,5.529,5.529,0,0,1,3.239-.817h1.169v-.545a1.567,1.567,0,0,0-.338-1.055,1.331,1.331,0,0,0-1.068-.4,1.513,1.513,0,0,0-1.006.308,1.045,1.045,0,0,0-.365.844h-2.54a2.551,2.551,0,0,1,.51-1.529,3.37,3.37,0,0,1,1.441-1.1,5.253,5.253,0,0,1,2.092-.4,4.15,4.15,0,0,1,2.791.883,3.09,3.09,0,0,1,1.033,2.483V38.8a4.546,4.546,0,0,0,.378,2.048V41Zm-2.1-1.767a2.188,2.188,0,0,0,1.037-.25,1.645,1.645,0,0,0,.7-.672V36.676h-.949q-1.907,0-2.03,1.318l-.009.149a1.017,1.017,0,0,0,.334.782A1.3,1.3,0,0,0,111.15,39.233ZM120.07,41h-2.549V27.5h2.549Z" transform="translate(604.779 2450.945)" fill="#fff"/>
    <path id="Trazado_194016" data-name="Trazado 194016" d="M44.647,17H42.01V11.516H36.869V17H34.232V4.2h2.637V9.389H42.01V4.2h2.637Zm7.646,0a2.821,2.821,0,0,1-.255-.853,3.073,3.073,0,0,1-2.4,1.028,3.376,3.376,0,0,1-2.316-.809,2.6,2.6,0,0,1-.918-2.039,2.687,2.687,0,0,1,1.121-2.32,5.529,5.529,0,0,1,3.239-.817h1.169v-.545a1.567,1.567,0,0,0-.338-1.055,1.331,1.331,0,0,0-1.068-.4,1.513,1.513,0,0,0-1.006.308,1.045,1.045,0,0,0-.365.844h-2.54a2.551,2.551,0,0,1,.51-1.529,3.37,3.37,0,0,1,1.441-1.1,5.253,5.253,0,0,1,2.092-.4,4.15,4.15,0,0,1,2.791.883,3.09,3.09,0,0,1,1.033,2.483V14.8a4.546,4.546,0,0,0,.378,2.048V17Zm-2.1-1.767a2.188,2.188,0,0,0,1.037-.25,1.645,1.645,0,0,0,.7-.672V12.676h-.949q-1.907,0-2.03,1.318l-.009.149a1.017,1.017,0,0,0,.334.782A1.3,1.3,0,0,0,50.193,15.233ZM65,12.333a5.758,5.758,0,0,1-.976,3.564A3.231,3.231,0,0,1,61.3,17.176a2.969,2.969,0,0,1-2.47-1.187L58.718,17H56.433V3.5h2.54V8.343a2.893,2.893,0,0,1,2.312-1.028,3.258,3.258,0,0,1,2.729,1.279,5.767,5.767,0,0,1,.989,3.6Zm-2.54-.194a3.8,3.8,0,0,0-.457-2.111,1.544,1.544,0,0,0-1.362-.666,1.675,1.675,0,0,0-1.67,1v3.764a1.7,1.7,0,0,0,1.688,1,1.569,1.569,0,0,0,1.617-1.217A6.294,6.294,0,0,0,62.463,12.139ZM69.248,17H66.7V7.49h2.549Zm-2.7-11.971a1.251,1.251,0,0,1,.382-.94,1.648,1.648,0,0,1,2.079,0,1.244,1.244,0,0,1,.387.94,1.247,1.247,0,0,1-.391.949,1.629,1.629,0,0,1-2.065,0A1.247,1.247,0,0,1,66.549,5.029ZM74.02,17H71.471V3.5H74.02Zm4.772,0H76.244V7.49h2.549Zm-2.7-11.971a1.251,1.251,0,0,1,.382-.94,1.648,1.648,0,0,1,2.079,0,1.244,1.244,0,0,1,.387.94,1.247,1.247,0,0,1-.391.949,1.629,1.629,0,0,1-2.065,0A1.247,1.247,0,0,1,76.094,5.029Zm4.395,7.146a5.731,5.731,0,0,1,1-3.542,3.237,3.237,0,0,1,2.729-1.318,2.913,2.913,0,0,1,2.294,1.037V3.5h2.549V17H86.764l-.123-1.011A2.989,2.989,0,0,1,84.2,17.176,3.228,3.228,0,0,1,81.5,15.853,5.916,5.916,0,0,1,80.489,12.175Zm2.54.181a3.775,3.775,0,0,0,.466,2.057,1.516,1.516,0,0,0,1.354.715,1.7,1.7,0,0,0,1.661-1V10.36a1.675,1.675,0,0,0-1.644-1Q83.029,9.362,83.029,12.356ZM96.538,17a2.821,2.821,0,0,1-.255-.853,3.073,3.073,0,0,1-2.4,1.028,3.376,3.376,0,0,1-2.316-.809,2.6,2.6,0,0,1-.918-2.039,2.687,2.687,0,0,1,1.121-2.32,5.529,5.529,0,0,1,3.239-.817h1.169v-.545a1.567,1.567,0,0,0-.338-1.055,1.331,1.331,0,0,0-1.068-.4,1.513,1.513,0,0,0-1.006.308,1.045,1.045,0,0,0-.365.844H90.86a2.551,2.551,0,0,1,.51-1.529,3.37,3.37,0,0,1,1.441-1.1,5.253,5.253,0,0,1,2.092-.4,4.15,4.15,0,0,1,2.791.883,3.09,3.09,0,0,1,1.033,2.483V14.8a4.546,4.546,0,0,0,.378,2.048V17Zm-2.1-1.767a2.188,2.188,0,0,0,1.037-.25,1.645,1.645,0,0,0,.7-.672V12.676h-.949q-1.907,0-2.03,1.318l-.009.149a1.017,1.017,0,0,0,.334.782A1.3,1.3,0,0,0,94.437,15.233Zm5.845-3.059a5.731,5.731,0,0,1,1-3.542,3.237,3.237,0,0,1,2.729-1.318A2.913,2.913,0,0,1,106.3,8.352V3.5h2.549V17h-2.294l-.123-1.011a2.989,2.989,0,0,1-2.443,1.187,3.228,3.228,0,0,1-2.694-1.323A5.916,5.916,0,0,1,100.282,12.175Zm2.54.181a3.775,3.775,0,0,0,.466,2.057,1.516,1.516,0,0,0,1.354.715,1.7,1.7,0,0,0,1.661-1V10.36a1.675,1.675,0,0,0-1.644-1Q102.822,9.362,102.822,12.356Zm12.375,4.82a4.668,4.668,0,0,1-3.406-1.283,4.561,4.561,0,0,1-1.314-3.419v-.246a5.745,5.745,0,0,1,.554-2.562,4.064,4.064,0,0,1,1.569-1.74,4.4,4.4,0,0,1,2.316-.611,3.947,3.947,0,0,1,3.072,1.23,5,5,0,0,1,1.121,3.489v1.037h-6.056a2.36,2.36,0,0,0,.743,1.494,2.245,2.245,0,0,0,1.569.563,2.742,2.742,0,0,0,2.294-1.063l1.248,1.4a3.813,3.813,0,0,1-1.547,1.261A5.075,5.075,0,0,1,115.2,17.176Zm-.29-7.813a1.587,1.587,0,0,0-1.226.512,2.651,2.651,0,0,0-.6,1.466h3.533v-.2a1.891,1.891,0,0,0-.457-1.311A1.638,1.638,0,0,0,114.907,9.362Zm10.793,5.01a.818.818,0,0,0-.461-.734,5.241,5.241,0,0,0-1.481-.479q-3.393-.712-3.393-2.883a2.613,2.613,0,0,1,1.05-2.114,4.237,4.237,0,0,1,2.747-.848,4.56,4.56,0,0,1,2.9.853,2.687,2.687,0,0,1,1.085,2.215H125.6a1.229,1.229,0,0,0-.352-.9,1.488,1.488,0,0,0-1.1-.356,1.52,1.52,0,0,0-.993.29.916.916,0,0,0-.352.738.783.783,0,0,0,.4.681,4.114,4.114,0,0,0,1.349.448,11.019,11.019,0,0,1,1.6.426,2.628,2.628,0,0,1,2.013,2.558,2.481,2.481,0,0,1-1.116,2.1,4.815,4.815,0,0,1-2.883.8,5.029,5.029,0,0,1-2.123-.426,3.561,3.561,0,0,1-1.455-1.169,2.716,2.716,0,0,1-.527-1.6h2.408a1.326,1.326,0,0,0,.5,1.037,1.987,1.987,0,0,0,1.248.36,1.839,1.839,0,0,0,1.1-.277A.861.861,0,0,0,125.7,14.372Zm-83.9,21.8a5.573,5.573,0,0,1,1.042-3.524,3.375,3.375,0,0,1,2.808-1.336,2.96,2.96,0,0,1,2.435,1.072l.105-.9h2.3v9.193a4.064,4.064,0,0,1-.567,2.171,3.641,3.641,0,0,1-1.6,1.406,5.608,5.608,0,0,1-2.408.483,5.215,5.215,0,0,1-2.039-.417,3.619,3.619,0,0,1-1.5-1.077L43.509,41.7a2.975,2.975,0,0,0,2.3,1.063,2.178,2.178,0,0,0,1.573-.541,2.027,2.027,0,0,0,.563-1.534v-.51a2.938,2.938,0,0,1-2.312.993,3.366,3.366,0,0,1-2.773-1.34A5.572,5.572,0,0,1,41.8,36.28Zm2.54.181a3.489,3.489,0,0,0,.519,2.035,1.648,1.648,0,0,0,1.424.737,1.762,1.762,0,0,0,1.661-.874V34.236a1.758,1.758,0,0,0-1.644-.874,1.659,1.659,0,0,0-1.437.751A3.933,3.933,0,0,0,44.344,36.356Zm12.48,4.82a4.668,4.668,0,0,1-3.406-1.283A4.561,4.561,0,0,1,52.1,36.474v-.246a5.745,5.745,0,0,1,.554-2.562,4.064,4.064,0,0,1,1.569-1.74,4.4,4.4,0,0,1,2.316-.611,3.947,3.947,0,0,1,3.072,1.23,5,5,0,0,1,1.121,3.489v1.037H54.68a2.36,2.36,0,0,0,.743,1.494,2.245,2.245,0,0,0,1.569.563,2.742,2.742,0,0,0,2.294-1.063l1.248,1.4a3.813,3.813,0,0,1-1.547,1.261A5.075,5.075,0,0,1,56.824,41.176Zm-.29-7.813a1.587,1.587,0,0,0-1.226.512,2.651,2.651,0,0,0-.6,1.466h3.533v-.2a1.891,1.891,0,0,0-.457-1.311A1.638,1.638,0,0,0,56.534,33.362Zm7.98-1.872.079,1.1a3.32,3.32,0,0,1,2.733-1.274,2.759,2.759,0,0,1,2.25.888,4.142,4.142,0,0,1,.756,2.654V41h-2.54V34.9a1.654,1.654,0,0,0-.352-1.176,1.572,1.572,0,0,0-1.169-.366,1.747,1.747,0,0,0-1.608.916V41h-2.54V31.49Zm12.12,9.686a4.668,4.668,0,0,1-3.406-1.283,4.561,4.561,0,0,1-1.314-3.419v-.246a5.745,5.745,0,0,1,.554-2.562,4.064,4.064,0,0,1,1.569-1.74,4.4,4.4,0,0,1,2.316-.611,3.947,3.947,0,0,1,3.072,1.23,5,5,0,0,1,1.121,3.489v1.037H74.49a2.36,2.36,0,0,0,.743,1.494,2.245,2.245,0,0,0,1.569.563A2.742,2.742,0,0,0,79.1,38.064l1.248,1.4A3.813,3.813,0,0,1,78.8,40.723,5.075,5.075,0,0,1,76.635,41.176Zm-.29-7.813a1.587,1.587,0,0,0-1.226.512,2.651,2.651,0,0,0-.6,1.466H78.05v-.2a1.891,1.891,0,0,0-.457-1.311A1.638,1.638,0,0,0,76.345,33.362Zm10.986.51a6.9,6.9,0,0,0-.914-.07,1.86,1.86,0,0,0-1.89.976V41h-2.54V31.49h2.4l.07,1.134a2.354,2.354,0,0,1,2.118-1.31,2.662,2.662,0,0,1,.791.114ZM93.8,41a2.821,2.821,0,0,1-.255-.853,3.073,3.073,0,0,1-2.4,1.028,3.376,3.376,0,0,1-2.316-.809,2.6,2.6,0,0,1-.918-2.039,2.687,2.687,0,0,1,1.121-2.32,5.529,5.529,0,0,1,3.239-.817H93.44v-.545a1.567,1.567,0,0,0-.338-1.055,1.331,1.331,0,0,0-1.068-.4,1.513,1.513,0,0,0-1.006.308,1.045,1.045,0,0,0-.365.844h-2.54a2.551,2.551,0,0,1,.51-1.529,3.37,3.37,0,0,1,1.441-1.1,5.253,5.253,0,0,1,2.092-.4,4.15,4.15,0,0,1,2.791.883,3.09,3.09,0,0,1,1.033,2.483V38.8a4.546,4.546,0,0,0,.378,2.048V41Zm-2.1-1.767a2.188,2.188,0,0,0,1.037-.25,1.645,1.645,0,0,0,.7-.672V36.676H92.49q-1.907,0-2.03,1.318l-.009.149a1.017,1.017,0,0,0,.334.782A1.3,1.3,0,0,0,91.7,39.233ZM100.62,41H98.071V27.5h2.549Zm6.469.176a4.668,4.668,0,0,1-3.406-1.283,4.561,4.561,0,0,1-1.314-3.419v-.246a5.745,5.745,0,0,1,.554-2.562,4.064,4.064,0,0,1,1.569-1.74,4.4,4.4,0,0,1,2.316-.611,3.947,3.947,0,0,1,3.072,1.23A5,5,0,0,1,111,36.034v1.037h-6.056a2.36,2.36,0,0,0,.743,1.494,2.245,2.245,0,0,0,1.569.563,2.742,2.742,0,0,0,2.294-1.063l1.248,1.4a3.813,3.813,0,0,1-1.547,1.261A5.075,5.075,0,0,1,107.089,41.176Zm-.29-7.813a1.587,1.587,0,0,0-1.226.512,2.651,2.651,0,0,0-.6,1.466H108.5v-.2a1.891,1.891,0,0,0-.457-1.311A1.638,1.638,0,0,0,106.8,33.362Zm10.793,5.01a.818.818,0,0,0-.461-.734,5.241,5.241,0,0,0-1.481-.479q-3.393-.712-3.393-2.883a2.613,2.613,0,0,1,1.05-2.114,4.237,4.237,0,0,1,2.747-.848,4.56,4.56,0,0,1,2.9.853,2.687,2.687,0,0,1,1.085,2.215H117.5a1.229,1.229,0,0,0-.352-.9,1.488,1.488,0,0,0-1.1-.356,1.52,1.52,0,0,0-.993.29.916.916,0,0,0-.352.738.783.783,0,0,0,.4.681,4.114,4.114,0,0,0,1.349.448,11.019,11.019,0,0,1,1.6.426,2.628,2.628,0,0,1,2.013,2.558,2.481,2.481,0,0,1-1.116,2.1,4.815,4.815,0,0,1-2.883.8,5.029,5.029,0,0,1-2.123-.426,3.561,3.561,0,0,1-1.455-1.169,2.716,2.716,0,0,1-.527-1.6h2.408a1.326,1.326,0,0,0,.5,1.037,1.987,1.987,0,0,0,1.248.36,1.839,1.839,0,0,0,1.1-.277A.861.861,0,0,0,117.592,38.372Z" transform="translate(520.949 2690.952)" fill="#fff"/>
    <path id="Trazado_194017" data-name="Trazado 194017" d="M48.87,15.383a4.577,4.577,0,0,1-2.013,1.323,8.429,8.429,0,0,1-2.883.47,5.711,5.711,0,0,1-2.914-.725,4.836,4.836,0,0,1-1.934-2.1,7.408,7.408,0,0,1-.7-3.243v-.87a7.868,7.868,0,0,1,.646-3.318A4.779,4.779,0,0,1,40.938,4.77a5.367,5.367,0,0,1,2.852-.743,5.345,5.345,0,0,1,3.56,1.085,4.639,4.639,0,0,1,1.521,3.16H46.3a2.552,2.552,0,0,0-.778-1.608,2.484,2.484,0,0,0-1.657-.51,2.338,2.338,0,0,0-2.048,1.011,5.315,5.315,0,0,0-.712,3.006v.817a5.06,5.06,0,0,0,.765,3.041,2.618,2.618,0,0,0,2.241,1.028,2.925,2.925,0,0,0,2.118-.633V12.219h-2.4V10.276H48.87Zm6.346,1.793a4.668,4.668,0,0,1-3.406-1.283A4.561,4.561,0,0,1,50.5,12.474v-.246a5.745,5.745,0,0,1,.554-2.562,4.064,4.064,0,0,1,1.569-1.74,4.4,4.4,0,0,1,2.316-.611,3.947,3.947,0,0,1,3.072,1.23,5,5,0,0,1,1.121,3.489v1.037H53.071a2.36,2.36,0,0,0,.743,1.494,2.245,2.245,0,0,0,1.569.563,2.742,2.742,0,0,0,2.294-1.063l1.248,1.4a3.813,3.813,0,0,1-1.547,1.261A5.075,5.075,0,0,1,55.216,17.176Zm-.29-7.813a1.587,1.587,0,0,0-1.226.512,2.651,2.651,0,0,0-.6,1.466h3.533v-.2a1.891,1.891,0,0,0-.457-1.311A1.638,1.638,0,0,0,54.926,9.362Zm10.793,5.01a.818.818,0,0,0-.461-.734,5.241,5.241,0,0,0-1.481-.479q-3.393-.712-3.393-2.883a2.613,2.613,0,0,1,1.05-2.114,4.237,4.237,0,0,1,2.747-.848,4.56,4.56,0,0,1,2.9.853,2.687,2.687,0,0,1,1.085,2.215h-2.54a1.229,1.229,0,0,0-.352-.9,1.488,1.488,0,0,0-1.1-.356,1.52,1.52,0,0,0-.993.29.916.916,0,0,0-.352.738.783.783,0,0,0,.4.681,4.114,4.114,0,0,0,1.349.448,11.019,11.019,0,0,1,1.6.426,2.628,2.628,0,0,1,2.013,2.558,2.481,2.481,0,0,1-1.116,2.1,4.815,4.815,0,0,1-2.883.8,5.029,5.029,0,0,1-2.123-.426,3.561,3.561,0,0,1-1.455-1.169,2.716,2.716,0,0,1-.527-1.6h2.408a1.326,1.326,0,0,0,.5,1.037,1.987,1.987,0,0,0,1.248.36,1.839,1.839,0,0,0,1.1-.277A.861.861,0,0,0,65.719,14.372Zm7.146-9.22V7.49H74.49V9.354H72.864V14.1a1.133,1.133,0,0,0,.2.756,1.015,1.015,0,0,0,.773.229,4.051,4.051,0,0,0,.747-.062v1.925a5.229,5.229,0,0,1-1.538.229,2.425,2.425,0,0,1-2.725-2.7V9.354H68.936V7.49h1.389V5.152ZM78.586,17H76.037V7.49h2.549Zm-2.7-11.971a1.251,1.251,0,0,1,.382-.94,1.648,1.648,0,0,1,2.079,0,1.244,1.244,0,0,1,.387.94,1.247,1.247,0,0,1-.391.949,1.629,1.629,0,0,1-2.065,0A1.247,1.247,0,0,1,75.888,5.029Zm4.395,7.128a5.64,5.64,0,0,1,.545-2.522A3.989,3.989,0,0,1,82.4,7.921a4.577,4.577,0,0,1,2.377-.606,4.33,4.33,0,0,1,3.142,1.178,4.727,4.727,0,0,1,1.358,3.2l.018.65a4.97,4.97,0,0,1-1.222,3.511,4.735,4.735,0,0,1-6.561,0,5.058,5.058,0,0,1-1.226-3.586Zm2.54.18a3.555,3.555,0,0,0,.51,2.073,1.831,1.831,0,0,0,2.9.009,3.89,3.89,0,0,0,.519-2.267,3.519,3.519,0,0,0-.519-2.06,1.686,1.686,0,0,0-1.459-.731,1.658,1.658,0,0,0-1.441.726A3.955,3.955,0,0,0,82.822,12.338ZM85.275,3.5h2.769L85.609,6.225H83.543Zm7.919,3.99.079,1.1a3.32,3.32,0,0,1,2.733-1.274,2.759,2.759,0,0,1,2.25.888,4.142,4.142,0,0,1,.756,2.654V17h-2.54V10.9a1.654,1.654,0,0,0-.352-1.176,1.572,1.572,0,0,0-1.169-.366,1.747,1.747,0,0,0-1.608.916V17H90.8V7.49Zm11.83,4.685a5.731,5.731,0,0,1,1-3.542,3.237,3.237,0,0,1,2.729-1.318,2.913,2.913,0,0,1,2.294,1.037V3.5h2.549V17H111.3l-.123-1.011a2.989,2.989,0,0,1-2.443,1.187,3.228,3.228,0,0,1-2.694-1.323A5.916,5.916,0,0,1,105.024,12.175Zm2.54.181a3.775,3.775,0,0,0,.466,2.057,1.516,1.516,0,0,0,1.354.715,1.7,1.7,0,0,0,1.661-1V10.36a1.675,1.675,0,0,0-1.644-1Q107.564,9.362,107.564,12.356Zm12.375,4.82a4.668,4.668,0,0,1-3.406-1.283,4.561,4.561,0,0,1-1.314-3.419v-.246a5.745,5.745,0,0,1,.554-2.562,4.064,4.064,0,0,1,1.569-1.74,4.4,4.4,0,0,1,2.316-.611,3.947,3.947,0,0,1,3.072,1.23,5,5,0,0,1,1.121,3.489v1.037h-6.056a2.36,2.36,0,0,0,.743,1.494,2.245,2.245,0,0,0,1.569.563,2.742,2.742,0,0,0,2.294-1.063l1.248,1.4a3.813,3.813,0,0,1-1.547,1.261A5.075,5.075,0,0,1,119.939,17.176Zm-.29-7.813a1.587,1.587,0,0,0-1.226.512,2.651,2.651,0,0,0-.6,1.466h3.533v-.2a1.891,1.891,0,0,0-.457-1.311A1.638,1.638,0,0,0,119.649,9.362ZM46.554,36.333a5.7,5.7,0,0,1-1,3.52,3.2,3.2,0,0,1-2.694,1.323,2.963,2.963,0,0,1-2.329-1v4.482h-2.54V31.49h2.355l.088.932a2.985,2.985,0,0,1,2.408-1.107,3.22,3.22,0,0,1,2.733,1.3,5.858,5.858,0,0,1,.976,3.586Zm-2.54-.194a3.763,3.763,0,0,0-.47-2.054,1.53,1.53,0,0,0-1.367-.723,1.662,1.662,0,0,0-1.644.917v3.906a1.691,1.691,0,0,0,1.661.943Q44.014,39.128,44.014,36.139Zm9.457-2.267a6.9,6.9,0,0,0-.914-.07,1.86,1.86,0,0,0-1.89.976V41h-2.54V31.49h2.4l.07,1.134a2.354,2.354,0,0,1,2.118-1.31,2.662,2.662,0,0,1,.791.114Zm.51,2.285a5.64,5.64,0,0,1,.545-2.522,3.989,3.989,0,0,1,1.569-1.714,4.577,4.577,0,0,1,2.377-.606,4.33,4.33,0,0,1,3.142,1.178,4.727,4.727,0,0,1,1.358,3.2l.018.65a4.97,4.97,0,0,1-1.222,3.511,4.735,4.735,0,0,1-6.561,0,5.058,5.058,0,0,1-1.226-3.586Zm2.54.18a3.555,3.555,0,0,0,.51,2.073,1.831,1.831,0,0,0,2.9.009,3.89,3.89,0,0,0,.519-2.267,3.519,3.519,0,0,0-.519-2.06,1.686,1.686,0,0,0-1.459-.731,1.658,1.658,0,0,0-1.441.726A3.955,3.955,0,0,0,56.521,36.338Zm11.988,2.79a1.666,1.666,0,0,0,1.143-.387,1.355,1.355,0,0,0,.457-1.028h2.382a3.258,3.258,0,0,1-.527,1.771,3.48,3.48,0,0,1-1.419,1.248,4.442,4.442,0,0,1-1.991.444,4.129,4.129,0,0,1-3.217-1.3A5.13,5.13,0,0,1,64.159,36.3v-.167a5.071,5.071,0,0,1,1.169-3.507,4.08,4.08,0,0,1,3.208-1.31A4,4,0,0,1,71.4,32.33a3.594,3.594,0,0,1,1.094,2.7H70.109a1.745,1.745,0,0,0-.457-1.206,1.7,1.7,0,0,0-2.5.183,3.749,3.749,0,0,0-.453,2.1v.264a3.8,3.8,0,0,0,.448,2.113A1.549,1.549,0,0,0,68.509,39.128Zm9.809,2.048a4.668,4.668,0,0,1-3.406-1.283A4.561,4.561,0,0,1,73.6,36.474v-.246a5.745,5.745,0,0,1,.554-2.562,4.064,4.064,0,0,1,1.569-1.74,4.4,4.4,0,0,1,2.316-.611,3.947,3.947,0,0,1,3.072,1.23,5,5,0,0,1,1.121,3.489v1.037H76.173a2.36,2.36,0,0,0,.743,1.494,2.245,2.245,0,0,0,1.569.563,2.742,2.742,0,0,0,2.294-1.063l1.248,1.4a3.813,3.813,0,0,1-1.547,1.261A5.075,5.075,0,0,1,78.318,41.176Zm-.29-7.813a1.587,1.587,0,0,0-1.226.512,2.651,2.651,0,0,0-.6,1.466h3.533v-.2a1.891,1.891,0,0,0-.457-1.311A1.638,1.638,0,0,0,78.028,33.362Zm10.793,5.01a.818.818,0,0,0-.461-.734,5.241,5.241,0,0,0-1.481-.479q-3.393-.712-3.393-2.883a2.613,2.613,0,0,1,1.05-2.114,4.237,4.237,0,0,1,2.747-.848,4.56,4.56,0,0,1,2.9.853,2.687,2.687,0,0,1,1.085,2.215h-2.54a1.229,1.229,0,0,0-.352-.9,1.488,1.488,0,0,0-1.1-.356,1.52,1.52,0,0,0-.993.29.916.916,0,0,0-.352.738.783.783,0,0,0,.4.681,4.114,4.114,0,0,0,1.349.448,11.019,11.019,0,0,1,1.6.426,2.628,2.628,0,0,1,2.013,2.558,2.481,2.481,0,0,1-1.116,2.1,4.815,4.815,0,0,1-2.883.8,5.029,5.029,0,0,1-2.123-.426,3.561,3.561,0,0,1-1.455-1.169,2.716,2.716,0,0,1-.527-1.6H85.6a1.326,1.326,0,0,0,.5,1.037,1.987,1.987,0,0,0,1.248.36,1.839,1.839,0,0,0,1.1-.277A.861.861,0,0,0,88.821,38.372Zm3.709-2.215a5.64,5.64,0,0,1,.545-2.522,3.989,3.989,0,0,1,1.569-1.714,4.577,4.577,0,0,1,2.377-.606,4.33,4.33,0,0,1,3.142,1.178,4.727,4.727,0,0,1,1.358,3.2l.018.65a4.97,4.97,0,0,1-1.222,3.511,4.735,4.735,0,0,1-6.561,0,5.058,5.058,0,0,1-1.226-3.586Zm2.54.18a3.555,3.555,0,0,0,.51,2.073,1.831,1.831,0,0,0,2.9.009A3.89,3.89,0,0,0,99,36.153a3.519,3.519,0,0,0-.519-2.06,1.686,1.686,0,0,0-1.459-.731,1.658,1.658,0,0,0-1.441.726A3.955,3.955,0,0,0,95.07,36.338Zm13.184,2.035a.818.818,0,0,0-.461-.734,5.241,5.241,0,0,0-1.481-.479q-3.393-.712-3.393-2.883a2.613,2.613,0,0,1,1.05-2.114,4.237,4.237,0,0,1,2.747-.848,4.56,4.56,0,0,1,2.9.853,2.687,2.687,0,0,1,1.085,2.215h-2.54a1.229,1.229,0,0,0-.352-.9,1.488,1.488,0,0,0-1.1-.356,1.52,1.52,0,0,0-.993.29.916.916,0,0,0-.352.738.783.783,0,0,0,.4.681,4.114,4.114,0,0,0,1.349.448,11.019,11.019,0,0,1,1.6.426,2.628,2.628,0,0,1,2.013,2.558,2.481,2.481,0,0,1-1.116,2.1,4.815,4.815,0,0,1-2.883.8,5.029,5.029,0,0,1-2.123-.426,3.561,3.561,0,0,1-1.455-1.169,2.716,2.716,0,0,1-.527-1.6h2.408a1.326,1.326,0,0,0,.5,1.037,1.987,1.987,0,0,0,1.248.36,1.839,1.839,0,0,0,1.1-.277A.861.861,0,0,0,108.254,38.372Zm12.138-.967,1.758-5.915h2.725L121.05,42.477l-.211.5a2.9,2.9,0,0,1-2.812,1.863,4,4,0,0,1-1.125-.167V42.749l.387.009a2.09,2.09,0,0,0,1.077-.22,1.443,1.443,0,0,0,.558-.729l.3-.782-3.331-9.536h2.733ZM18.864,55.49l.079,1.063a3.342,3.342,0,0,1,2.733-1.239,2.536,2.536,0,0,1,2.522,1.45,3.265,3.265,0,0,1,2.856-1.45,2.836,2.836,0,0,1,2.3.9,4.141,4.141,0,0,1,.756,2.711V65H27.566V58.922a1.818,1.818,0,0,0-.316-1.185,1.4,1.4,0,0,0-1.116-.374,1.585,1.585,0,0,0-1.582,1.092L24.56,65H22.02V58.93a1.8,1.8,0,0,0-.325-1.2,1.414,1.414,0,0,0-1.107-.37,1.645,1.645,0,0,0-1.564.9V65h-2.54V55.49Zm17.578,9.686a4.668,4.668,0,0,1-3.406-1.283,4.561,4.561,0,0,1-1.314-3.419v-.246a5.745,5.745,0,0,1,.554-2.562,4.064,4.064,0,0,1,1.569-1.74,4.4,4.4,0,0,1,2.316-.611,3.947,3.947,0,0,1,3.072,1.23,5,5,0,0,1,1.121,3.489v1.037H34.3a2.36,2.36,0,0,0,.743,1.494,2.245,2.245,0,0,0,1.569.563A2.742,2.742,0,0,0,38.9,62.064l1.248,1.4A3.813,3.813,0,0,1,38.6,64.723,5.075,5.075,0,0,1,36.442,65.176Zm-.29-7.813a1.587,1.587,0,0,0-1.226.512,2.651,2.651,0,0,0-.6,1.466h3.533v-.2a1.891,1.891,0,0,0-.457-1.311A1.638,1.638,0,0,0,36.152,57.362Zm8.332-1.872V65.519a3.4,3.4,0,0,1-.835,2.448,3.174,3.174,0,0,1-2.408.875,5.165,5.165,0,0,1-1.257-.149V66.679a4.768,4.768,0,0,0,.8.079q1.151,0,1.151-1.222V55.49Zm-2.751-2.461a1.251,1.251,0,0,1,.382-.94,1.654,1.654,0,0,1,2.083,0,1.348,1.348,0,0,1-.009,1.89,1.629,1.629,0,0,1-2.065,0A1.247,1.247,0,0,1,41.734,53.029Zm4.342,7.128a5.64,5.64,0,0,1,.545-2.522,3.989,3.989,0,0,1,1.569-1.714,4.577,4.577,0,0,1,2.377-.606,4.33,4.33,0,0,1,3.142,1.178,4.727,4.727,0,0,1,1.358,3.2l.018.65a4.97,4.97,0,0,1-1.222,3.511,4.735,4.735,0,0,1-6.561,0,5.058,5.058,0,0,1-1.226-3.586Zm2.54.18a3.555,3.555,0,0,0,.51,2.073,1.831,1.831,0,0,0,2.9.009,3.89,3.89,0,0,0,.519-2.267,3.519,3.519,0,0,0-.519-2.06,1.686,1.686,0,0,0-1.459-.731,1.658,1.658,0,0,0-1.441.726A3.955,3.955,0,0,0,48.615,60.338Zm13.377-2.465a6.9,6.9,0,0,0-.914-.07,1.86,1.86,0,0,0-1.89.976V65h-2.54V55.49h2.4l.07,1.134a2.354,2.354,0,0,1,2.118-1.31,2.662,2.662,0,0,1,.791.114ZM68.461,65a2.821,2.821,0,0,1-.255-.853,3.073,3.073,0,0,1-2.4,1.028,3.376,3.376,0,0,1-2.316-.809,2.6,2.6,0,0,1-.918-2.039,2.687,2.687,0,0,1,1.121-2.32,5.529,5.529,0,0,1,3.239-.817H68.1v-.545a1.567,1.567,0,0,0-.338-1.055,1.331,1.331,0,0,0-1.068-.4,1.513,1.513,0,0,0-1.006.308,1.045,1.045,0,0,0-.365.844h-2.54a2.551,2.551,0,0,1,.51-1.529,3.37,3.37,0,0,1,1.441-1.1,5.253,5.253,0,0,1,2.092-.4,4.15,4.15,0,0,1,2.791.883,3.09,3.09,0,0,1,1.033,2.483V62.8a4.546,4.546,0,0,0,.378,2.048V65Zm-2.1-1.767a2.188,2.188,0,0,0,1.037-.25,1.645,1.645,0,0,0,.7-.672V60.676h-.949q-1.907,0-2.03,1.318l-.009.149a1.017,1.017,0,0,0,.334.782A1.3,1.3,0,0,0,66.36,63.233Zm14.678-.105a1.666,1.666,0,0,0,1.143-.387,1.355,1.355,0,0,0,.457-1.028H85.02a3.258,3.258,0,0,1-.527,1.771,3.48,3.48,0,0,1-1.419,1.248,4.442,4.442,0,0,1-1.991.444,4.129,4.129,0,0,1-3.217-1.3A5.13,5.13,0,0,1,76.688,60.3v-.167a5.071,5.071,0,0,1,1.169-3.507,4.08,4.08,0,0,1,3.208-1.31,4,4,0,0,1,2.861,1.015,3.594,3.594,0,0,1,1.094,2.7H82.638a1.745,1.745,0,0,0-.457-1.206,1.7,1.7,0,0,0-2.5.183,3.749,3.749,0,0,0-.453,2.1v.264a3.8,3.8,0,0,0,.448,2.113A1.549,1.549,0,0,0,81.038,63.128Zm5.036-2.971a5.64,5.64,0,0,1,.545-2.522,3.989,3.989,0,0,1,1.569-1.714,4.577,4.577,0,0,1,2.377-.606,4.33,4.33,0,0,1,3.142,1.178,4.727,4.727,0,0,1,1.358,3.2l.018.65a4.97,4.97,0,0,1-1.222,3.511,4.735,4.735,0,0,1-6.561,0,5.058,5.058,0,0,1-1.226-3.586Zm2.54.18a3.555,3.555,0,0,0,.51,2.073,1.831,1.831,0,0,0,2.9.009,3.89,3.89,0,0,0,.519-2.267,3.519,3.519,0,0,0-.519-2.06,1.686,1.686,0,0,0-1.459-.731,1.658,1.658,0,0,0-1.441.726A3.955,3.955,0,0,0,88.614,60.338ZM98.985,55.49l.079,1.1a3.32,3.32,0,0,1,2.733-1.274,2.759,2.759,0,0,1,2.25.888,4.142,4.142,0,0,1,.756,2.654V65h-2.54V58.9a1.654,1.654,0,0,0-.352-1.176,1.572,1.572,0,0,0-1.169-.366,1.747,1.747,0,0,0-1.608.916V65h-2.54V55.49Zm10.784-2.338V55.49H111.4v1.863H109.77V62.1a1.133,1.133,0,0,0,.2.756,1.015,1.015,0,0,0,.773.229,4.051,4.051,0,0,0,.747-.062v1.925a5.229,5.229,0,0,1-1.538.229,2.425,2.425,0,0,1-2.725-2.7V57.354h-1.389V55.49h1.389V53.152ZM115.491,65h-2.549V55.49h2.549Zm-2.7-11.971a1.251,1.251,0,0,1,.382-.94,1.648,1.648,0,0,1,2.079,0,1.342,1.342,0,0,1,0,1.89,1.629,1.629,0,0,1-2.065,0A1.247,1.247,0,0,1,112.793,53.029Zm7.128,2.461.079,1.1a3.32,3.32,0,0,1,2.733-1.274,2.759,2.759,0,0,1,2.25.888,4.142,4.142,0,0,1,.756,2.654V65H123.2V58.9a1.654,1.654,0,0,0-.352-1.176,1.572,1.572,0,0,0-1.169-.366,1.747,1.747,0,0,0-1.608.916V65h-2.54V55.49Zm13.438,8.543a3.185,3.185,0,0,1-2.6,1.143,3,3,0,0,1-2.333-.879,3.752,3.752,0,0,1-.822-2.575V55.49h2.54v6.151q0,1.487,1.354,1.487a1.834,1.834,0,0,0,1.775-.9V55.49h2.549V65H133.43Zm9.888.967a2.821,2.821,0,0,1-.255-.853,3.073,3.073,0,0,1-2.4,1.028,3.376,3.376,0,0,1-2.316-.809,2.6,2.6,0,0,1-.918-2.039,2.687,2.687,0,0,1,1.121-2.32,5.529,5.529,0,0,1,3.239-.817h1.169v-.545a1.567,1.567,0,0,0-.338-1.055,1.331,1.331,0,0,0-1.068-.4,1.513,1.513,0,0,0-1.006.308,1.045,1.045,0,0,0-.365.844h-2.54a2.551,2.551,0,0,1,.51-1.529,3.37,3.37,0,0,1,1.441-1.1,5.253,5.253,0,0,1,2.092-.4,4.15,4.15,0,0,1,2.791.883,3.09,3.09,0,0,1,1.033,2.483V62.8a4.546,4.546,0,0,0,.378,2.048V65Zm-2.1-1.767a2.188,2.188,0,0,0,1.037-.25,1.645,1.645,0,0,0,.7-.672V60.676h-.949q-1.907,0-2.03,1.318l-.009.149a1.017,1.017,0,0,0,.334.782A1.3,1.3,0,0,0,141.147,63.233Z" transform="translate(918.28 2677.172)" fill="#fff"/>
    <path id="Trazado_194019" data-name="Trazado 194019" d="M15.125,13.643A1.353,1.353,0,0,0,14.6,12.5a6.917,6.917,0,0,0-1.9-.844,13.458,13.458,0,0,1-2.171-.875A3.547,3.547,0,0,1,8.348,7.6a3.09,3.09,0,0,1,.584-1.85,3.812,3.812,0,0,1,1.679-1.27,6.318,6.318,0,0,1,2.457-.457,5.751,5.751,0,0,1,2.443.5,3.891,3.891,0,0,1,1.666,1.4,3.668,3.668,0,0,1,.593,2.057H15.133a1.726,1.726,0,0,0-.554-1.367,2.276,2.276,0,0,0-1.556-.488,2.432,2.432,0,0,0-1.5.409,1.289,1.289,0,0,0-.536,1.077,1.235,1.235,0,0,0,.628,1.046,7.1,7.1,0,0,0,1.85.791,7.994,7.994,0,0,1,3.278,1.679,3.343,3.343,0,0,1,1.028,2.5,3.08,3.08,0,0,1-1.257,2.606,5.5,5.5,0,0,1-3.384.945,6.534,6.534,0,0,1-2.689-.541,4.256,4.256,0,0,1-1.85-1.481,3.793,3.793,0,0,1-.637-2.18H10.6q0,2.118,2.531,2.118A2.462,2.462,0,0,0,14.6,14.71,1.244,1.244,0,0,0,15.125,13.643Zm8.64,3.533a4.668,4.668,0,0,1-3.406-1.283,4.561,4.561,0,0,1-1.314-3.419v-.246A5.745,5.745,0,0,1,19.6,9.666a4.064,4.064,0,0,1,1.569-1.74,4.4,4.4,0,0,1,2.316-.611,3.947,3.947,0,0,1,3.072,1.23,5,5,0,0,1,1.121,3.489v1.037H21.62a2.36,2.36,0,0,0,.743,1.494,2.245,2.245,0,0,0,1.569.563,2.742,2.742,0,0,0,2.294-1.063l1.248,1.4a3.813,3.813,0,0,1-1.547,1.261A5.075,5.075,0,0,1,23.764,17.176Zm-.29-7.813a1.587,1.587,0,0,0-1.226.512,2.651,2.651,0,0,0-.6,1.466h3.533v-.2a1.891,1.891,0,0,0-.457-1.311A1.638,1.638,0,0,0,23.474,9.362Zm5.273,2.813A5.573,5.573,0,0,1,29.789,8.65,3.375,3.375,0,0,1,32.6,7.314a2.96,2.96,0,0,1,2.435,1.072l.105-.9h2.3v9.193a4.064,4.064,0,0,1-.567,2.171,3.641,3.641,0,0,1-1.6,1.406,5.608,5.608,0,0,1-2.408.483,5.215,5.215,0,0,1-2.039-.417,3.619,3.619,0,0,1-1.5-1.077L30.453,17.7a2.975,2.975,0,0,0,2.3,1.063,2.178,2.178,0,0,0,1.573-.541,2.027,2.027,0,0,0,.563-1.534v-.51a2.938,2.938,0,0,1-2.312.993,3.366,3.366,0,0,1-2.773-1.34,5.572,5.572,0,0,1-1.059-3.555Zm2.54.181a3.489,3.489,0,0,0,.519,2.035,1.648,1.648,0,0,0,1.424.737,1.762,1.762,0,0,0,1.661-.874V10.236a1.758,1.758,0,0,0-1.644-.874,1.659,1.659,0,0,0-1.437.751A3.933,3.933,0,0,0,31.288,12.356Zm13.8,3.678a3.185,3.185,0,0,1-2.6,1.143,3,3,0,0,1-2.333-.879,3.752,3.752,0,0,1-.822-2.575V7.49h2.54v6.151q0,1.487,1.354,1.487A1.834,1.834,0,0,0,45,14.23V7.49h2.549V17H45.157Zm9.721-6.161a6.9,6.9,0,0,0-.914-.07,1.86,1.86,0,0,0-1.89.976V17h-2.54V7.49h2.4l.07,1.134a2.354,2.354,0,0,1,2.118-1.31,2.662,2.662,0,0,1,.791.114ZM58.709,17H56.161V7.49h2.549Zm-2.7-11.971a1.251,1.251,0,0,1,.382-.94,1.648,1.648,0,0,1,2.079,0,1.244,1.244,0,0,1,.387.94,1.247,1.247,0,0,1-.391.949,1.629,1.629,0,0,1-2.065,0A1.247,1.247,0,0,1,56.011,5.029Zm4.395,7.146a5.731,5.731,0,0,1,1-3.542,3.237,3.237,0,0,1,2.729-1.318,2.913,2.913,0,0,1,2.294,1.037V3.5h2.549V17H66.681l-.123-1.011a2.989,2.989,0,0,1-2.443,1.187,3.228,3.228,0,0,1-2.694-1.323A5.916,5.916,0,0,1,60.406,12.175Zm2.54.181a3.775,3.775,0,0,0,.466,2.057,1.516,1.516,0,0,0,1.354.715,1.7,1.7,0,0,0,1.661-1V10.36a1.675,1.675,0,0,0-1.644-1Q62.946,9.362,62.946,12.356ZM76.455,17a2.821,2.821,0,0,1-.255-.853,3.073,3.073,0,0,1-2.4,1.028,3.376,3.376,0,0,1-2.316-.809,2.6,2.6,0,0,1-.918-2.039,2.687,2.687,0,0,1,1.121-2.32,5.529,5.529,0,0,1,3.239-.817h1.169v-.545a1.567,1.567,0,0,0-.338-1.055,1.331,1.331,0,0,0-1.068-.4,1.513,1.513,0,0,0-1.006.308,1.045,1.045,0,0,0-.365.844h-2.54a2.551,2.551,0,0,1,.51-1.529,3.37,3.37,0,0,1,1.441-1.1,5.253,5.253,0,0,1,2.092-.4A4.15,4.15,0,0,1,77.61,8.2a3.09,3.09,0,0,1,1.033,2.483V14.8a4.546,4.546,0,0,0,.378,2.048V17Zm-2.1-1.767a2.188,2.188,0,0,0,1.037-.25,1.645,1.645,0,0,0,.7-.672V12.676h-.949q-1.907,0-2.03,1.318l-.009.149a1.017,1.017,0,0,0,.334.782A1.3,1.3,0,0,0,74.354,15.233ZM80.2,12.175a5.731,5.731,0,0,1,1-3.542,3.237,3.237,0,0,1,2.729-1.318,2.913,2.913,0,0,1,2.294,1.037V3.5h2.549V17H86.474l-.123-1.011a2.989,2.989,0,0,1-2.443,1.187,3.228,3.228,0,0,1-2.694-1.323A5.916,5.916,0,0,1,80.2,12.175Zm2.54.181a3.775,3.775,0,0,0,.466,2.057,1.516,1.516,0,0,0,1.354.715,1.7,1.7,0,0,0,1.661-1V10.36a1.675,1.675,0,0,0-1.644-1Q82.739,9.362,82.739,12.356Zm16.031,1.05,1.758-5.915h2.725L99.429,18.477l-.211.5a2.9,2.9,0,0,1-2.812,1.863,4,4,0,0,1-1.125-.167V18.749l.387.009a2.09,2.09,0,0,0,1.077-.22,1.443,1.443,0,0,0,.558-.729l.3-.782L94.27,7.49H97Zm15.117.967a.818.818,0,0,0-.461-.734,5.241,5.241,0,0,0-1.481-.479q-3.393-.712-3.393-2.883a2.613,2.613,0,0,1,1.05-2.114,4.237,4.237,0,0,1,2.747-.848,4.56,4.56,0,0,1,2.9.853,2.687,2.687,0,0,1,1.085,2.215h-2.54a1.229,1.229,0,0,0-.352-.9,1.488,1.488,0,0,0-1.1-.356,1.52,1.52,0,0,0-.993.29.916.916,0,0,0-.352.738.783.783,0,0,0,.4.681,4.114,4.114,0,0,0,1.349.448,11.019,11.019,0,0,1,1.6.426,2.628,2.628,0,0,1,2.013,2.558,2.481,2.481,0,0,1-1.116,2.1,4.815,4.815,0,0,1-2.883.8,5.029,5.029,0,0,1-2.123-.426,3.561,3.561,0,0,1-1.455-1.169,2.716,2.716,0,0,1-.527-1.6h2.408a1.326,1.326,0,0,0,.5,1.037,1.987,1.987,0,0,0,1.248.36,1.839,1.839,0,0,0,1.1-.277A.861.861,0,0,0,113.887,14.372ZM123.5,17a2.821,2.821,0,0,1-.255-.853,3.073,3.073,0,0,1-2.4,1.028,3.376,3.376,0,0,1-2.316-.809,2.6,2.6,0,0,1-.918-2.039,2.687,2.687,0,0,1,1.121-2.32,5.529,5.529,0,0,1,3.239-.817h1.169v-.545a1.567,1.567,0,0,0-.338-1.055,1.331,1.331,0,0,0-1.068-.4,1.513,1.513,0,0,0-1.006.308,1.045,1.045,0,0,0-.365.844h-2.54a2.551,2.551,0,0,1,.51-1.529,3.37,3.37,0,0,1,1.441-1.1,5.253,5.253,0,0,1,2.092-.4,4.15,4.15,0,0,1,2.791.883,3.09,3.09,0,0,1,1.033,2.483V14.8a4.546,4.546,0,0,0,.378,2.048V17Zm-2.1-1.767a2.188,2.188,0,0,0,1.037-.25,1.645,1.645,0,0,0,.7-.672V12.676h-.949q-1.907,0-2.03,1.318l-.009.149a1.017,1.017,0,0,0,.334.782A1.3,1.3,0,0,0,121.4,15.233ZM130.323,17h-2.549V3.5h2.549Zm7.787-.967a3.185,3.185,0,0,1-2.6,1.143,3,3,0,0,1-2.333-.879,3.752,3.752,0,0,1-.822-2.575V7.49h2.54v6.151q0,1.487,1.354,1.487a1.834,1.834,0,0,0,1.775-.9V7.49h2.549V17H138.18Zm3.981-3.858a5.731,5.731,0,0,1,1-3.542,3.237,3.237,0,0,1,2.729-1.318,2.913,2.913,0,0,1,2.294,1.037V3.5h2.549V17h-2.294l-.123-1.011a2.989,2.989,0,0,1-2.443,1.187,3.228,3.228,0,0,1-2.694-1.323A5.916,5.916,0,0,1,142.091,12.175Zm2.54.181a3.775,3.775,0,0,0,.466,2.057,1.516,1.516,0,0,0,1.354.715,1.7,1.7,0,0,0,1.661-1V10.36a1.675,1.675,0,0,0-1.644-1Q144.631,9.362,144.631,12.356ZM30.949,36.157a5.64,5.64,0,0,1,.545-2.522,3.989,3.989,0,0,1,1.569-1.714,4.577,4.577,0,0,1,2.377-.606,4.33,4.33,0,0,1,3.142,1.178,4.727,4.727,0,0,1,1.358,3.2l.018.65a4.97,4.97,0,0,1-1.222,3.511,4.247,4.247,0,0,1-3.278,1.323,4.268,4.268,0,0,1-3.283-1.318,5.058,5.058,0,0,1-1.226-3.586Zm2.54.18A3.555,3.555,0,0,0,34,38.411a1.831,1.831,0,0,0,2.9.009,3.89,3.89,0,0,0,.519-2.267,3.519,3.519,0,0,0-.519-2.06,1.686,1.686,0,0,0-1.459-.731A1.658,1.658,0,0,0,34,34.089,3.955,3.955,0,0,0,33.489,36.338Zm11.988,2.79a1.666,1.666,0,0,0,1.143-.387,1.355,1.355,0,0,0,.457-1.028h2.382a3.258,3.258,0,0,1-.527,1.771,3.48,3.48,0,0,1-1.419,1.248,4.442,4.442,0,0,1-1.991.444,4.129,4.129,0,0,1-3.217-1.3A5.13,5.13,0,0,1,41.127,36.3v-.167A5.071,5.071,0,0,1,42.3,32.624a4.08,4.08,0,0,1,3.208-1.31,4,4,0,0,1,2.861,1.015,3.594,3.594,0,0,1,1.094,2.7H47.077a1.745,1.745,0,0,0-.457-1.206,1.7,1.7,0,0,0-2.5.183,3.749,3.749,0,0,0-.453,2.1v.264a3.8,3.8,0,0,0,.448,2.113A1.549,1.549,0,0,0,45.478,39.128Zm11.127.905A3.185,3.185,0,0,1,54,41.176a3,3,0,0,1-2.333-.879,3.752,3.752,0,0,1-.822-2.575V31.49h2.54v6.151q0,1.487,1.354,1.487a1.834,1.834,0,0,0,1.775-.9V31.49h2.549V41H56.675Zm12.938-3.7a5.7,5.7,0,0,1-1,3.52,3.2,3.2,0,0,1-2.694,1.323,2.963,2.963,0,0,1-2.329-1v4.482h-2.54V31.49h2.355l.088.932a2.985,2.985,0,0,1,2.408-1.107,3.22,3.22,0,0,1,2.733,1.3,5.858,5.858,0,0,1,.976,3.586ZM67,36.139a3.763,3.763,0,0,0-.47-2.054,1.53,1.53,0,0,0-1.367-.723,1.662,1.662,0,0,0-1.644.917v3.906a1.691,1.691,0,0,0,1.661.943Q67,39.128,67,36.139ZM76.626,41a2.821,2.821,0,0,1-.255-.853,3.073,3.073,0,0,1-2.4,1.028,3.376,3.376,0,0,1-2.316-.809,2.6,2.6,0,0,1-.918-2.039,2.687,2.687,0,0,1,1.121-2.32A5.529,5.529,0,0,1,75.1,35.19h1.169v-.545a1.567,1.567,0,0,0-.338-1.055,1.331,1.331,0,0,0-1.068-.4,1.513,1.513,0,0,0-1.006.308,1.045,1.045,0,0,0-.365.844h-2.54a2.551,2.551,0,0,1,.51-1.529,3.37,3.37,0,0,1,1.441-1.1,5.253,5.253,0,0,1,2.092-.4,4.15,4.15,0,0,1,2.791.883,3.09,3.09,0,0,1,1.033,2.483V38.8a4.546,4.546,0,0,0,.378,2.048V41Zm-2.1-1.767a2.188,2.188,0,0,0,1.037-.25,1.645,1.645,0,0,0,.7-.672V36.676h-.949q-1.907,0-2.03,1.318l-.009.149a1.017,1.017,0,0,0,.334.782A1.3,1.3,0,0,0,74.525,39.233Zm10.2-.105a1.666,1.666,0,0,0,1.143-.387,1.355,1.355,0,0,0,.457-1.028H88.7a3.258,3.258,0,0,1-.527,1.771,3.48,3.48,0,0,1-1.419,1.248,4.442,4.442,0,0,1-1.991.444,4.129,4.129,0,0,1-3.217-1.3A5.13,5.13,0,0,1,80.37,36.3v-.167a5.071,5.071,0,0,1,1.169-3.507,4.08,4.08,0,0,1,3.208-1.31,4,4,0,0,1,2.861,1.015,3.594,3.594,0,0,1,1.094,2.7H86.32a1.745,1.745,0,0,0-.457-1.206,1.7,1.7,0,0,0-2.5.183,3.749,3.749,0,0,0-.453,2.1v.264a3.8,3.8,0,0,0,.448,2.113A1.549,1.549,0,0,0,84.721,39.128ZM92.833,41H90.284V31.49h2.549Zm-2.7-11.971a1.251,1.251,0,0,1,.382-.94,1.648,1.648,0,0,1,2.079,0,1.342,1.342,0,0,1,0,1.89,1.629,1.629,0,0,1-2.065,0A1.247,1.247,0,0,1,90.135,29.029Zm4.395,7.128a5.64,5.64,0,0,1,.545-2.522,3.989,3.989,0,0,1,1.569-1.714,4.577,4.577,0,0,1,2.377-.606,4.33,4.33,0,0,1,3.142,1.178,4.727,4.727,0,0,1,1.358,3.2l.018.65a4.97,4.97,0,0,1-1.222,3.511,4.735,4.735,0,0,1-6.561,0,5.058,5.058,0,0,1-1.226-3.586Zm2.54.18a3.555,3.555,0,0,0,.51,2.073,1.831,1.831,0,0,0,2.9.009A3.89,3.89,0,0,0,101,36.153a3.519,3.519,0,0,0-.519-2.06,1.686,1.686,0,0,0-1.459-.731,1.658,1.658,0,0,0-1.441.726A3.955,3.955,0,0,0,97.069,36.338ZM107.44,31.49l.079,1.1a3.32,3.32,0,0,1,2.733-1.274,2.759,2.759,0,0,1,2.25.888,4.142,4.142,0,0,1,.756,2.654V41h-2.54V34.9a1.654,1.654,0,0,0-.352-1.176,1.572,1.572,0,0,0-1.169-.366,1.747,1.747,0,0,0-1.608.916V41h-2.54V31.49ZM120.694,41a2.821,2.821,0,0,1-.255-.853,3.073,3.073,0,0,1-2.4,1.028,3.376,3.376,0,0,1-2.316-.809,2.6,2.6,0,0,1-.918-2.039,2.687,2.687,0,0,1,1.121-2.32,5.529,5.529,0,0,1,3.239-.817h1.169v-.545A1.567,1.567,0,0,0,120,33.591a1.331,1.331,0,0,0-1.068-.4,1.513,1.513,0,0,0-1.006.308,1.045,1.045,0,0,0-.365.844h-2.54a2.551,2.551,0,0,1,.51-1.529,3.37,3.37,0,0,1,1.441-1.1,5.253,5.253,0,0,1,2.092-.4,4.15,4.15,0,0,1,2.791.883,3.09,3.09,0,0,1,1.033,2.483V38.8a4.546,4.546,0,0,0,.378,2.048V41Zm-2.1-1.767a2.188,2.188,0,0,0,1.037-.25,1.645,1.645,0,0,0,.7-.672V36.676h-.949q-1.907,0-2.03,1.318l-.009.149a1.017,1.017,0,0,0,.334.782A1.3,1.3,0,0,0,118.594,39.233ZM127.515,41h-2.549V27.5h2.549Z" transform="translate(721 2852.038)" fill="#12263f"/>
    <path id="Trazado_194015" data-name="Trazado 194015" d="M31.094,12.737a4.528,4.528,0,0,1-1.525,3.252,5.355,5.355,0,0,1-3.625,1.187,4.816,4.816,0,0,1-3.872-1.657,6.793,6.793,0,0,1-1.411-4.548v-.782a7.671,7.671,0,0,1,.65-3.252,4.874,4.874,0,0,1,1.859-2.158,5.207,5.207,0,0,1,2.808-.751,5.217,5.217,0,0,1,3.568,1.187,4.866,4.866,0,0,1,1.564,3.331H28.475a2.673,2.673,0,0,0-.69-1.8,2.555,2.555,0,0,0-1.806-.558,2.24,2.24,0,0,0-1.973.945,5.3,5.3,0,0,0-.672,2.931v.967a5.667,5.667,0,0,0,.628,3.032,2.2,2.2,0,0,0,1.982.958,2.6,2.6,0,0,0,1.824-.558,2.521,2.521,0,0,0,.69-1.727Zm1.169-.58a5.64,5.64,0,0,1,.545-2.522,3.989,3.989,0,0,1,1.569-1.714,4.577,4.577,0,0,1,2.377-.606A4.33,4.33,0,0,1,39.9,8.492a4.727,4.727,0,0,1,1.358,3.2l.018.65a4.97,4.97,0,0,1-1.222,3.511,4.247,4.247,0,0,1-3.278,1.323,4.268,4.268,0,0,1-3.283-1.318,5.058,5.058,0,0,1-1.226-3.586Zm2.54.18a3.555,3.555,0,0,0,.51,2.073,1.831,1.831,0,0,0,2.9.009,3.89,3.89,0,0,0,.519-2.267,3.519,3.519,0,0,0-.519-2.06,1.686,1.686,0,0,0-1.459-.731,1.658,1.658,0,0,0-1.441.726A3.955,3.955,0,0,0,34.8,12.338ZM45.174,7.49l.079,1.1a3.32,3.32,0,0,1,2.733-1.274,2.759,2.759,0,0,1,2.25.888,4.142,4.142,0,0,1,.756,2.654V17h-2.54V10.9A1.654,1.654,0,0,0,48.1,9.728a1.572,1.572,0,0,0-1.169-.366,1.747,1.747,0,0,0-1.608.916V17h-2.54V7.49ZM55.959,5.152V7.49h1.626V9.354H55.959V14.1a1.133,1.133,0,0,0,.2.756,1.015,1.015,0,0,0,.773.229,4.051,4.051,0,0,0,.747-.062v1.925a5.229,5.229,0,0,1-1.538.229,2.425,2.425,0,0,1-2.725-2.7V9.354H52.03V7.49h1.389V5.152ZM61.68,17H59.131V7.49H61.68Zm-2.7-11.971a1.251,1.251,0,0,1,.382-.94,1.648,1.648,0,0,1,2.079,0,1.244,1.244,0,0,1,.387.94,1.247,1.247,0,0,1-.391.949,1.629,1.629,0,0,1-2.065,0A1.247,1.247,0,0,1,58.982,5.029ZM66.11,7.49l.079,1.1a3.32,3.32,0,0,1,2.733-1.274,2.759,2.759,0,0,1,2.25.888,4.142,4.142,0,0,1,.756,2.654V17h-2.54V10.9a1.654,1.654,0,0,0-.352-1.176,1.572,1.572,0,0,0-1.169-.366,1.747,1.747,0,0,0-1.608.916V17h-2.54V7.49Zm13.438,8.543a3.185,3.185,0,0,1-2.6,1.143,3,3,0,0,1-2.333-.879,3.752,3.752,0,0,1-.822-2.575V7.49h2.54v6.151q0,1.487,1.354,1.487a1.834,1.834,0,0,0,1.775-.9V7.49h2.549V17H79.619ZM86.606,17H84.057V7.49h2.549Zm-2.7-11.971a1.251,1.251,0,0,1,.382-.94,1.648,1.648,0,0,1,2.079,0,1.244,1.244,0,0,1,.387.94,1.247,1.247,0,0,1-.391.949,1.629,1.629,0,0,1-2.065,0A1.247,1.247,0,0,1,83.908,5.029ZM88.3,12.175a5.731,5.731,0,0,1,1-3.542,3.237,3.237,0,0,1,2.729-1.318,2.913,2.913,0,0,1,2.294,1.037V3.5h2.549V17H94.578l-.123-1.011a2.989,2.989,0,0,1-2.443,1.187,3.228,3.228,0,0,1-2.694-1.323A5.916,5.916,0,0,1,88.3,12.175Zm2.54.181a3.775,3.775,0,0,0,.466,2.057,1.516,1.516,0,0,0,1.354.715,1.7,1.7,0,0,0,1.661-1V10.36a1.675,1.675,0,0,0-1.644-1Q90.842,9.362,90.842,12.356ZM104.351,17a2.821,2.821,0,0,1-.255-.853,3.073,3.073,0,0,1-2.4,1.028,3.376,3.376,0,0,1-2.316-.809,2.6,2.6,0,0,1-.918-2.039,2.687,2.687,0,0,1,1.121-2.32,5.529,5.529,0,0,1,3.239-.817h1.169v-.545a1.567,1.567,0,0,0-.338-1.055,1.331,1.331,0,0,0-1.068-.4,1.513,1.513,0,0,0-1.006.308,1.045,1.045,0,0,0-.365.844h-2.54a2.551,2.551,0,0,1,.51-1.529,3.37,3.37,0,0,1,1.441-1.1,5.253,5.253,0,0,1,2.092-.4,4.15,4.15,0,0,1,2.791.883,3.09,3.09,0,0,1,1.033,2.483V14.8a4.546,4.546,0,0,0,.378,2.048V17Zm-2.1-1.767a2.188,2.188,0,0,0,1.037-.25,1.645,1.645,0,0,0,.7-.672V12.676h-.949q-1.907,0-2.03,1.318l-.009.149a1.017,1.017,0,0,0,.334.782A1.3,1.3,0,0,0,102.251,15.233Zm5.845-3.059a5.731,5.731,0,0,1,1-3.542,3.237,3.237,0,0,1,2.729-1.318,2.913,2.913,0,0,1,2.294,1.037V3.5h2.549V17h-2.294l-.123-1.011a2.989,2.989,0,0,1-2.443,1.187,3.228,3.228,0,0,1-2.694-1.323A5.916,5.916,0,0,1,108.1,12.175Zm2.54.181a3.775,3.775,0,0,0,.466,2.057,1.516,1.516,0,0,0,1.354.715,1.7,1.7,0,0,0,1.661-1V10.36a1.675,1.675,0,0,0-1.644-1Q110.635,9.362,110.635,12.356Zm12.085-.181a5.731,5.731,0,0,1,1-3.542,3.237,3.237,0,0,1,2.729-1.318,2.913,2.913,0,0,1,2.294,1.037V3.5h2.549V17H129l-.123-1.011a2.989,2.989,0,0,1-2.443,1.187,3.228,3.228,0,0,1-2.694-1.323A5.916,5.916,0,0,1,122.72,12.175Zm2.54.181a3.775,3.775,0,0,0,.466,2.057,1.516,1.516,0,0,0,1.354.715,1.7,1.7,0,0,0,1.661-1V10.36a1.675,1.675,0,0,0-1.644-1Q125.26,9.362,125.26,12.356Zm12.375,4.82a4.668,4.668,0,0,1-3.406-1.283,4.561,4.561,0,0,1-1.314-3.419v-.246a5.745,5.745,0,0,1,.554-2.562,4.064,4.064,0,0,1,1.569-1.74,4.4,4.4,0,0,1,2.316-.611,3.947,3.947,0,0,1,3.072,1.23,5,5,0,0,1,1.121,3.489v1.037h-6.056a2.36,2.36,0,0,0,.743,1.494,2.245,2.245,0,0,0,1.569.563,2.742,2.742,0,0,0,2.294-1.063l1.248,1.4a3.813,3.813,0,0,1-1.547,1.261A5.075,5.075,0,0,1,137.635,17.176Zm-.29-7.813a1.587,1.587,0,0,0-1.226.512,2.651,2.651,0,0,0-.6,1.466h3.533v-.2a1.891,1.891,0,0,0-.457-1.311A1.638,1.638,0,0,0,137.345,9.362Zm-90,22.128.079,1.1a3.32,3.32,0,0,1,2.733-1.274,2.759,2.759,0,0,1,2.25.888,4.142,4.142,0,0,1,.756,2.654V41h-2.54V34.9a1.654,1.654,0,0,0-.352-1.176,1.572,1.572,0,0,0-1.169-.366,1.747,1.747,0,0,0-1.608.916V41h-2.54V31.49Zm12.12,9.686a4.668,4.668,0,0,1-3.406-1.283,4.561,4.561,0,0,1-1.314-3.419v-.246a5.745,5.745,0,0,1,.554-2.562,4.064,4.064,0,0,1,1.569-1.74,4.4,4.4,0,0,1,2.316-.611,3.947,3.947,0,0,1,3.072,1.23,5,5,0,0,1,1.121,3.489v1.037H57.321a2.36,2.36,0,0,0,.743,1.494,2.245,2.245,0,0,0,1.569.563,2.742,2.742,0,0,0,2.294-1.063l1.248,1.4a3.813,3.813,0,0,1-1.547,1.261A5.075,5.075,0,0,1,59.465,41.176Zm-.29-7.813a1.587,1.587,0,0,0-1.226.512,2.651,2.651,0,0,0-.6,1.466H60.88v-.2a1.891,1.891,0,0,0-.457-1.311A1.638,1.638,0,0,0,59.175,33.362Zm5.273,2.813A5.573,5.573,0,0,1,65.49,32.65,3.375,3.375,0,0,1,68.3,31.314a2.96,2.96,0,0,1,2.435,1.072l.105-.9h2.3v9.193a4.064,4.064,0,0,1-.567,2.171,3.641,3.641,0,0,1-1.6,1.406,5.608,5.608,0,0,1-2.408.483,5.215,5.215,0,0,1-2.039-.417,3.619,3.619,0,0,1-1.5-1.077L66.154,41.7a2.975,2.975,0,0,0,2.3,1.063,2.178,2.178,0,0,0,1.573-.541,2.027,2.027,0,0,0,.563-1.534v-.51a2.938,2.938,0,0,1-2.312.993,3.366,3.366,0,0,1-2.773-1.34,5.572,5.572,0,0,1-1.059-3.555Zm2.54.181a3.489,3.489,0,0,0,.519,2.035,1.648,1.648,0,0,0,1.424.737,1.762,1.762,0,0,0,1.661-.874V34.236a1.758,1.758,0,0,0-1.644-.874,1.659,1.659,0,0,0-1.437.751A3.933,3.933,0,0,0,66.989,36.356Zm7.708-.2a5.64,5.64,0,0,1,.545-2.522,3.989,3.989,0,0,1,1.569-1.714,4.577,4.577,0,0,1,2.377-.606,4.33,4.33,0,0,1,3.142,1.178,4.727,4.727,0,0,1,1.358,3.2l.018.65a4.97,4.97,0,0,1-1.222,3.511,4.735,4.735,0,0,1-6.561,0A5.058,5.058,0,0,1,74.7,36.271Zm2.54.18a3.555,3.555,0,0,0,.51,2.073,1.831,1.831,0,0,0,2.9.009,3.89,3.89,0,0,0,.519-2.267,3.519,3.519,0,0,0-.519-2.06,1.686,1.686,0,0,0-1.459-.731,1.658,1.658,0,0,0-1.441.726A3.955,3.955,0,0,0,77.237,36.338Zm11.988,2.79a1.666,1.666,0,0,0,1.143-.387,1.355,1.355,0,0,0,.457-1.028h2.382a3.258,3.258,0,0,1-.527,1.771,3.48,3.48,0,0,1-1.419,1.248,4.442,4.442,0,0,1-1.991.444,4.129,4.129,0,0,1-3.217-1.3A5.13,5.13,0,0,1,84.875,36.3v-.167a5.071,5.071,0,0,1,1.169-3.507,4.08,4.08,0,0,1,3.208-1.31,4,4,0,0,1,2.861,1.015,3.594,3.594,0,0,1,1.094,2.7H90.825a1.745,1.745,0,0,0-.457-1.206,1.7,1.7,0,0,0-2.5.183,3.749,3.749,0,0,0-.453,2.1v.264a3.8,3.8,0,0,0,.448,2.113A1.549,1.549,0,0,0,89.225,39.128ZM97.338,41H94.789V31.49h2.549Zm-2.7-11.971a1.251,1.251,0,0,1,.382-.94,1.648,1.648,0,0,1,2.079,0,1.342,1.342,0,0,1,0,1.89,1.629,1.629,0,0,1-2.065,0A1.247,1.247,0,0,1,94.639,29.029Zm4.395,7.128a5.64,5.64,0,0,1,.545-2.522,3.989,3.989,0,0,1,1.569-1.714,4.577,4.577,0,0,1,2.377-.606,4.33,4.33,0,0,1,3.142,1.178,4.727,4.727,0,0,1,1.358,3.2l.018.65a4.97,4.97,0,0,1-1.222,3.511,4.735,4.735,0,0,1-6.561,0,5.058,5.058,0,0,1-1.226-3.586Zm2.54.18a3.555,3.555,0,0,0,.51,2.073,1.831,1.831,0,0,0,2.9.009,3.89,3.89,0,0,0,.519-2.267,3.519,3.519,0,0,0-.519-2.06,1.686,1.686,0,0,0-1.459-.731,1.658,1.658,0,0,0-1.441.726A3.955,3.955,0,0,0,101.574,36.338Zm13.184,2.035a.818.818,0,0,0-.461-.734,5.241,5.241,0,0,0-1.481-.479q-3.393-.712-3.393-2.883a2.613,2.613,0,0,1,1.05-2.114,4.237,4.237,0,0,1,2.747-.848,4.56,4.56,0,0,1,2.9.853,2.687,2.687,0,0,1,1.085,2.215h-2.54a1.229,1.229,0,0,0-.352-.9,1.488,1.488,0,0,0-1.1-.356,1.52,1.52,0,0,0-.993.29.916.916,0,0,0-.352.738.783.783,0,0,0,.4.681,4.114,4.114,0,0,0,1.349.448,11.019,11.019,0,0,1,1.6.426,2.628,2.628,0,0,1,2.013,2.558,2.481,2.481,0,0,1-1.116,2.1,4.815,4.815,0,0,1-2.883.8,5.029,5.029,0,0,1-2.123-.426,3.561,3.561,0,0,1-1.455-1.169,2.716,2.716,0,0,1-.527-1.6h2.408a1.326,1.326,0,0,0,.5,1.037,1.987,1.987,0,0,0,1.248.36,1.839,1.839,0,0,0,1.1-.277A.861.861,0,0,0,114.757,38.372Z" transform="translate(851.676 2450.945)" fill="#fff"/>
    <path id="Trazado_194018" data-name="Trazado 194018" d="M7.81,12.711a6.06,6.06,0,0,1-.3,2.1,4.082,4.082,0,0,1-1.079,1.525,11.382,11.382,0,0,0-1.055,1.075,2.8,2.8,0,0,0-.42.714,2.157,2.157,0,0,0-.142.792,1.343,1.343,0,0,0,1.5,1.536,1.625,1.625,0,0,0,1.2-.44,1.722,1.722,0,0,0,.464-1.233H10.8a3.771,3.771,0,0,1-1.2,2.928A4.691,4.691,0,0,1,6.364,22.76a4.8,4.8,0,0,1-3.232-.992,3.531,3.531,0,0,1-1.152-2.83,4.357,4.357,0,0,1,1.494-3.05l.947-.909A2.5,2.5,0,0,0,5.1,14.06a4.029,4.029,0,0,0,.21-1.349Zm.352-2.983A1.4,1.4,0,0,1,7.712,10.8a1.6,1.6,0,0,1-1.133.419A1.6,1.6,0,0,1,5.446,10.8,1.4,1.4,0,0,1,5,9.728a1.422,1.422,0,0,1,.435-1.071,1.584,1.584,0,0,1,1.147-.419,1.584,1.584,0,0,1,1.147.419A1.422,1.422,0,0,1,8.161,9.728Zm12.92,3.091H15.456v3.828h6.6V19H12.526V4.781h9.512V7.154H15.456v3.389h5.625Zm5.107-4.385.088,1.221a3.689,3.689,0,0,1,3.037-1.416,3.066,3.066,0,0,1,2.5.986,4.6,4.6,0,0,1,.84,2.949V19H29.831V12.227a1.838,1.838,0,0,0-.391-1.307,1.746,1.746,0,0,0-1.3-.406,1.941,1.941,0,0,0-1.787,1.018V19H23.532V8.434Zm13.145,5.186a6.316,6.316,0,0,1,1.108-3.936,3.624,3.624,0,0,1,3.042-1.445,3.244,3.244,0,0,1,2.705,1.3l.186-1.1h2.48V23.063H46.023V18.092a3.253,3.253,0,0,1-2.559,1.1,3.6,3.6,0,0,1-3.008-1.465A6.626,6.626,0,0,1,39.333,13.619Zm2.822.2a4.143,4.143,0,0,0,.532,2.308,1.7,1.7,0,0,0,1.5.792,1.9,1.9,0,0,0,1.836-1.037V11.511a1.882,1.882,0,0,0-1.816-1,1.725,1.725,0,0,0-1.514.792A4.576,4.576,0,0,0,42.155,13.819ZM57.4,17.926a3.539,3.539,0,0,1-2.891,1.27,3.338,3.338,0,0,1-2.593-.977A4.169,4.169,0,0,1,51,15.357V8.434h2.822v6.834q0,1.652,1.5,1.652a2.038,2.038,0,0,0,1.973-1V8.434h2.832V19H57.478Zm9.727,1.27a5.187,5.187,0,0,1-3.784-1.426,5.068,5.068,0,0,1-1.46-3.8V13.7a6.383,6.383,0,0,1,.615-2.847A4.515,4.515,0,0,1,64.24,8.917a4.893,4.893,0,0,1,2.573-.679,4.385,4.385,0,0,1,3.413,1.367,5.555,5.555,0,0,1,1.245,3.877v1.152H64.743a2.622,2.622,0,0,0,.825,1.66,2.5,2.5,0,0,0,1.743.625,3.046,3.046,0,0,0,2.549-1.182l1.387,1.553a4.237,4.237,0,0,1-1.719,1.4A5.639,5.639,0,0,1,67.126,19.2ZM66.8,10.514a1.764,1.764,0,0,0-1.362.569,2.946,2.946,0,0,0-.669,1.628H68.7v-.226a2.1,2.1,0,0,0-.508-1.457A1.819,1.819,0,0,0,66.8,10.514ZM67.058,4h3.076L67.429,7.027H65.134ZM82.448,16.92a1.851,1.851,0,0,0,1.27-.43,1.506,1.506,0,0,0,.508-1.143h2.646a3.62,3.62,0,0,1-.586,1.968A3.866,3.866,0,0,1,84.709,18.7,4.936,4.936,0,0,1,82.5,19.2a4.587,4.587,0,0,1-3.574-1.44,5.7,5.7,0,0,1-1.309-3.979V13.59a5.635,5.635,0,0,1,1.3-3.9,4.534,4.534,0,0,1,3.564-1.455,4.444,4.444,0,0,1,3.179,1.128,3.994,3.994,0,0,1,1.216,3H84.226a1.939,1.939,0,0,0-.508-1.34,1.887,1.887,0,0,0-2.778.2,4.166,4.166,0,0,0-.5,2.333v.293a4.219,4.219,0,0,0,.5,2.347A1.721,1.721,0,0,0,82.448,16.92ZM94.607,19a3.134,3.134,0,0,1-.283-.947A3.415,3.415,0,0,1,91.657,19.2a3.752,3.752,0,0,1-2.573-.9,2.89,2.89,0,0,1-1.021-2.266,2.986,2.986,0,0,1,1.245-2.578,6.144,6.144,0,0,1,3.6-.908h1.3v-.605a1.741,1.741,0,0,0-.376-1.172,1.479,1.479,0,0,0-1.187-.439,1.682,1.682,0,0,0-1.118.342,1.161,1.161,0,0,0-.405.938H88.3a2.835,2.835,0,0,1,.566-1.7,3.744,3.744,0,0,1,1.6-1.226,5.837,5.837,0,0,1,2.324-.444,4.611,4.611,0,0,1,3.1.981,3.433,3.433,0,0,1,1.147,2.759v4.58a5.052,5.052,0,0,0,.42,2.275V19Zm-2.334-1.963a2.431,2.431,0,0,0,1.152-.278,1.828,1.828,0,0,0,.781-.747V14.2H93.151q-2.119,0-2.256,1.465l-.01.166a1.13,1.13,0,0,0,.371.869A1.441,1.441,0,0,0,92.273,17.037Zm16.445-3.223a6.337,6.337,0,0,1-1.108,3.911,3.554,3.554,0,0,1-2.993,1.47,3.292,3.292,0,0,1-2.588-1.113v4.98H99.206V8.434h2.617l.1,1.035a3.317,3.317,0,0,1,2.676-1.23,3.578,3.578,0,0,1,3.037,1.445,6.509,6.509,0,0,1,1.084,3.984ZM105.9,13.6a4.182,4.182,0,0,0-.522-2.282,1.7,1.7,0,0,0-1.519-.8,1.847,1.847,0,0,0-1.826,1.019v4.339a1.879,1.879,0,0,0,1.846,1.048Q105.9,16.92,105.9,13.6ZM116.589,19a3.134,3.134,0,0,1-.283-.947A3.415,3.415,0,0,1,113.64,19.2a3.752,3.752,0,0,1-2.573-.9,2.89,2.89,0,0,1-1.021-2.266,2.986,2.986,0,0,1,1.245-2.578,6.144,6.144,0,0,1,3.6-.908h1.3v-.605a1.741,1.741,0,0,0-.376-1.172,1.479,1.479,0,0,0-1.187-.439,1.682,1.682,0,0,0-1.118.342,1.161,1.161,0,0,0-.405.938H110.28a2.835,2.835,0,0,1,.566-1.7,3.744,3.744,0,0,1,1.6-1.226,5.837,5.837,0,0,1,2.324-.444,4.611,4.611,0,0,1,3.1.981,3.433,3.433,0,0,1,1.147,2.759v4.58a5.052,5.052,0,0,0,.42,2.275V19Zm-2.334-1.963a2.431,2.431,0,0,0,1.152-.278,1.828,1.828,0,0,0,.781-.747V14.2h-1.055q-2.119,0-2.256,1.465l-.01.166a1.13,1.13,0,0,0,.371.869A1.441,1.441,0,0,0,114.255,17.037Zm11.328-.117a1.851,1.851,0,0,0,1.27-.43,1.506,1.506,0,0,0,.508-1.143h2.646a3.62,3.62,0,0,1-.586,1.968,3.866,3.866,0,0,1-1.577,1.387,4.936,4.936,0,0,1-2.212.493,4.587,4.587,0,0,1-3.574-1.44,5.7,5.7,0,0,1-1.309-3.979V13.59a5.635,5.635,0,0,1,1.3-3.9,4.534,4.534,0,0,1,3.564-1.455,4.444,4.444,0,0,1,3.179,1.128,3.994,3.994,0,0,1,1.216,3H127.36a1.939,1.939,0,0,0-.508-1.34,1.887,1.887,0,0,0-2.778.2,4.166,4.166,0,0,0-.5,2.333v.293a4.219,4.219,0,0,0,.5,2.347A1.721,1.721,0,0,0,125.583,16.92ZM134.6,19h-2.832V8.434H134.6Zm-3-13.3a1.39,1.39,0,0,1,.425-1.045,1.831,1.831,0,0,1,2.31,0,1.382,1.382,0,0,1,.43,1.045,1.386,1.386,0,0,1-.435,1.055,1.81,1.81,0,0,1-2.295,0A1.386,1.386,0,0,1,131.6,5.7Zm8.7.137v2.6h1.807V10.5H140.3v5.273a1.259,1.259,0,0,0,.225.84,1.128,1.128,0,0,0,.859.254,4.5,4.5,0,0,0,.83-.068v2.139a5.81,5.81,0,0,1-1.709.254q-2.969,0-3.027-3V10.5h-1.543V8.434h1.543v-2.6ZM149.8,19a3.134,3.134,0,0,1-.283-.947,3.415,3.415,0,0,1-2.666,1.143,3.752,3.752,0,0,1-2.573-.9,2.889,2.889,0,0,1-1.021-2.266,2.986,2.986,0,0,1,1.245-2.578,6.144,6.144,0,0,1,3.6-.908h1.3v-.605a1.741,1.741,0,0,0-.376-1.172,1.479,1.479,0,0,0-1.187-.439,1.682,1.682,0,0,0-1.118.342,1.161,1.161,0,0,0-.405.938h-2.822a2.835,2.835,0,0,1,.566-1.7,3.744,3.744,0,0,1,1.6-1.226,5.837,5.837,0,0,1,2.324-.444,4.611,4.611,0,0,1,3.1.981,3.433,3.433,0,0,1,1.147,2.759v4.58a5.052,5.052,0,0,0,.42,2.275V19Zm-2.334-1.963a2.431,2.431,0,0,0,1.152-.278,1.828,1.828,0,0,0,.781-.747V14.2h-1.055q-2.119,0-2.256,1.465l-.01.166a1.13,1.13,0,0,0,.371.869A1.441,1.441,0,0,0,147.468,17.037Zm12.871-5.957A7.667,7.667,0,0,0,159.323,11a2.067,2.067,0,0,0-2.1,1.084V19H154.4V8.434h2.666l.078,1.26A2.615,2.615,0,0,1,159.5,8.238a2.957,2.957,0,0,1,.879.127ZM64.436,43a3.134,3.134,0,0,1-.283-.947A3.415,3.415,0,0,1,61.486,43.2a3.752,3.752,0,0,1-2.573-.9,2.89,2.89,0,0,1-1.021-2.266,2.986,2.986,0,0,1,1.245-2.578,6.144,6.144,0,0,1,3.6-.908h1.3v-.605a1.741,1.741,0,0,0-.376-1.172,1.479,1.479,0,0,0-1.187-.439,1.682,1.682,0,0,0-1.118.342,1.161,1.161,0,0,0-.405.938H58.127a2.835,2.835,0,0,1,.566-1.7,3.744,3.744,0,0,1,1.6-1.226,5.837,5.837,0,0,1,2.324-.444,4.611,4.611,0,0,1,3.1.981,3.433,3.433,0,0,1,1.147,2.759v4.58a5.052,5.052,0,0,0,.42,2.275V43ZM62.1,41.037a2.431,2.431,0,0,0,1.152-.278,1.828,1.828,0,0,0,.781-.747V38.2H62.981q-2.119,0-2.256,1.465l-.01.166a1.13,1.13,0,0,0,.371.869A1.441,1.441,0,0,0,62.1,41.037Zm17.637-.957a.909.909,0,0,0-.513-.815,5.824,5.824,0,0,0-1.646-.532q-3.77-.791-3.77-3.2a2.9,2.9,0,0,1,1.167-2.349,4.708,4.708,0,0,1,3.052-.942,5.067,5.067,0,0,1,3.218.947,2.985,2.985,0,0,1,1.206,2.461H79.631a1.366,1.366,0,0,0-.391-1,1.653,1.653,0,0,0-1.221-.4,1.689,1.689,0,0,0-1.1.322,1.017,1.017,0,0,0-.391.82.87.87,0,0,0,.444.757,4.571,4.571,0,0,0,1.5.5,12.244,12.244,0,0,1,1.777.474,2.92,2.92,0,0,1,2.236,2.842,2.756,2.756,0,0,1-1.24,2.339,5.35,5.35,0,0,1-3.2.894,5.588,5.588,0,0,1-2.358-.474,3.957,3.957,0,0,1-1.616-1.3,3.018,3.018,0,0,1-.586-1.782h2.676a1.473,1.473,0,0,0,.557,1.152,2.208,2.208,0,0,0,1.387.4,2.044,2.044,0,0,0,1.226-.308A.957.957,0,0,0,79.738,40.08Zm10.889,1.846a3.539,3.539,0,0,1-2.891,1.27,3.338,3.338,0,0,1-2.593-.977,4.169,4.169,0,0,1-.913-2.861V32.434h2.822v6.834q0,1.652,1.5,1.652a2.038,2.038,0,0,0,1.973-1V32.434h2.832V43H90.705Zm10.586-1.846a.909.909,0,0,0-.513-.815,5.824,5.824,0,0,0-1.646-.532q-3.77-.791-3.77-3.2a2.9,2.9,0,0,1,1.167-2.349,4.708,4.708,0,0,1,3.052-.942,5.067,5.067,0,0,1,3.218.947,2.985,2.985,0,0,1,1.206,2.461h-2.822a1.366,1.366,0,0,0-.391-1,1.653,1.653,0,0,0-1.221-.4,1.689,1.689,0,0,0-1.1.322,1.017,1.017,0,0,0-.391.82.87.87,0,0,0,.444.757,4.571,4.571,0,0,0,1.5.5,12.244,12.244,0,0,1,1.777.474,2.92,2.92,0,0,1,2.236,2.842,2.756,2.756,0,0,1-1.24,2.339,5.35,5.35,0,0,1-3.2.894,5.588,5.588,0,0,1-2.358-.474,3.957,3.957,0,0,1-1.616-1.3,3.018,3.018,0,0,1-.586-1.782h2.676a1.473,1.473,0,0,0,.557,1.152,2.208,2.208,0,0,0,1.387.4,2.044,2.044,0,0,0,1.226-.308A.957.957,0,0,0,101.213,40.08ZM17.043,64.92a1.851,1.851,0,0,0,1.27-.43,1.506,1.506,0,0,0,.508-1.143h2.646a3.62,3.62,0,0,1-.586,1.968A3.866,3.866,0,0,1,19.3,66.7a4.936,4.936,0,0,1-2.212.493,4.587,4.587,0,0,1-3.574-1.44,5.7,5.7,0,0,1-1.309-3.979V61.59a5.635,5.635,0,0,1,1.3-3.9,4.534,4.534,0,0,1,3.564-1.455,4.444,4.444,0,0,1,3.179,1.128,3.994,3.994,0,0,1,1.216,3H18.82a1.939,1.939,0,0,0-.508-1.34,1.693,1.693,0,0,0-1.289-.515,1.7,1.7,0,0,0-1.489.719,4.166,4.166,0,0,0-.5,2.333v.293a4.219,4.219,0,0,0,.5,2.347A1.721,1.721,0,0,0,17.043,64.92Zm5.6-3.3a6.266,6.266,0,0,1,.605-2.8,4.432,4.432,0,0,1,1.743-1.9,5.086,5.086,0,0,1,2.642-.674,4.812,4.812,0,0,1,3.491,1.309A5.252,5.252,0,0,1,32.629,61.1l.02.723a5.523,5.523,0,0,1-1.357,3.9,4.718,4.718,0,0,1-3.643,1.47A4.742,4.742,0,0,1,24,65.73a5.62,5.62,0,0,1-1.362-3.984Zm2.822.2a3.95,3.95,0,0,0,.566,2.3,2.035,2.035,0,0,0,3.223.01,4.322,4.322,0,0,0,.576-2.518,3.91,3.91,0,0,0-.576-2.289,1.873,1.873,0,0,0-1.621-.812,1.842,1.842,0,0,0-1.6.807A4.395,4.395,0,0,0,25.461,61.819ZM37.365,67H34.533V52h2.832Zm8.447,0a3.134,3.134,0,0,1-.283-.947A3.415,3.415,0,0,1,42.863,67.2a3.752,3.752,0,0,1-2.573-.9,2.89,2.89,0,0,1-1.021-2.266,2.986,2.986,0,0,1,1.245-2.578,6.144,6.144,0,0,1,3.6-.908h1.3v-.605a1.741,1.741,0,0,0-.376-1.172,1.479,1.479,0,0,0-1.187-.439,1.682,1.682,0,0,0-1.118.342,1.161,1.161,0,0,0-.405.938H39.5a2.835,2.835,0,0,1,.566-1.7,3.744,3.744,0,0,1,1.6-1.226A5.837,5.837,0,0,1,44,56.238a4.611,4.611,0,0,1,3.1.981,3.433,3.433,0,0,1,1.147,2.759v4.58a5.052,5.052,0,0,0,.42,2.275V67Zm-2.334-1.963a2.431,2.431,0,0,0,1.152-.278,1.828,1.828,0,0,0,.781-.747V62.2H44.358q-2.119,0-2.256,1.465l-.01.166a1.13,1.13,0,0,0,.371.869A1.441,1.441,0,0,0,43.479,65.037Zm16.455-3.223a6.4,6.4,0,0,1-1.084,3.96A3.591,3.591,0,0,1,55.822,67.2a3.3,3.3,0,0,1-2.744-1.318L52.951,67H50.412V52h2.822v5.381A3.214,3.214,0,0,1,55.8,56.238a3.62,3.62,0,0,1,3.032,1.421,6.408,6.408,0,0,1,1.1,4ZM57.111,61.6a4.227,4.227,0,0,0-.508-2.346,1.715,1.715,0,0,0-1.514-.74,1.861,1.861,0,0,0-1.855,1.107V63.8a1.886,1.886,0,0,0,1.875,1.117,1.743,1.743,0,0,0,1.8-1.352A6.993,6.993,0,0,0,57.111,61.6Zm4.121.02a6.267,6.267,0,0,1,.605-2.8,4.432,4.432,0,0,1,1.743-1.9,5.086,5.086,0,0,1,2.642-.674,4.812,4.812,0,0,1,3.491,1.309A5.252,5.252,0,0,1,71.223,61.1l.02.723a5.523,5.523,0,0,1-1.357,3.9,5.261,5.261,0,0,1-7.29,0,5.62,5.62,0,0,1-1.362-3.984Zm2.822.2a3.95,3.95,0,0,0,.566,2.3,2.035,2.035,0,0,0,3.223.01,4.322,4.322,0,0,0,.576-2.518,3.91,3.91,0,0,0-.576-2.289,1.873,1.873,0,0,0-1.621-.812,1.842,1.842,0,0,0-1.6.807A4.395,4.395,0,0,0,64.055,61.819ZM78.918,59.08A7.667,7.667,0,0,0,77.9,59a2.067,2.067,0,0,0-2.1,1.084V67H72.981V56.434h2.666l.078,1.26a2.615,2.615,0,0,1,2.354-1.455,2.957,2.957,0,0,1,.879.127ZM86.106,67a3.134,3.134,0,0,1-.283-.947A3.415,3.415,0,0,1,83.156,67.2a3.752,3.752,0,0,1-2.573-.9,2.89,2.89,0,0,1-1.021-2.266,2.986,2.986,0,0,1,1.245-2.578,6.144,6.144,0,0,1,3.6-.908h1.3v-.605a1.741,1.741,0,0,0-.376-1.172,1.479,1.479,0,0,0-1.187-.439,1.682,1.682,0,0,0-1.118.342,1.161,1.161,0,0,0-.405.938H79.8a2.835,2.835,0,0,1,.566-1.7,3.744,3.744,0,0,1,1.6-1.226,5.837,5.837,0,0,1,2.324-.444,4.611,4.611,0,0,1,3.1.981,3.433,3.433,0,0,1,1.147,2.759v4.58a5.052,5.052,0,0,0,.42,2.275V67Zm-2.334-1.963a2.431,2.431,0,0,0,1.152-.278,1.828,1.828,0,0,0,.781-.747V62.2H84.651q-2.119,0-2.256,1.465l-.01.166a1.13,1.13,0,0,0,.371.869A1.441,1.441,0,0,0,83.772,65.037Zm6.494-3.4A6.368,6.368,0,0,1,91.374,57.7a3.6,3.6,0,0,1,3.032-1.465,3.236,3.236,0,0,1,2.549,1.152V52h2.832V67H97.238L97.1,65.877A3.321,3.321,0,0,1,94.387,67.2a3.587,3.587,0,0,1-2.993-1.47A6.573,6.573,0,0,1,90.266,61.639Zm2.822.2a4.194,4.194,0,0,0,.518,2.286,1.685,1.685,0,0,0,1.5.795,1.888,1.888,0,0,0,1.846-1.109V59.622a1.861,1.861,0,0,0-1.826-1.109Q93.088,58.514,93.088,61.839Zm8.447-.22a6.266,6.266,0,0,1,.605-2.8,4.432,4.432,0,0,1,1.743-1.9,5.086,5.086,0,0,1,2.642-.674,4.812,4.812,0,0,1,3.491,1.309,5.252,5.252,0,0,1,1.509,3.555l.02.723a5.523,5.523,0,0,1-1.357,3.9,5.261,5.261,0,0,1-7.29,0,5.62,5.62,0,0,1-1.362-3.984Zm2.822.2a3.95,3.95,0,0,0,.566,2.3,2.035,2.035,0,0,0,3.223.01,4.322,4.322,0,0,0,.576-2.518,3.91,3.91,0,0,0-.576-2.289,1.873,1.873,0,0,0-1.621-.812,1.842,1.842,0,0,0-1.6.807A4.395,4.395,0,0,0,104.358,61.819Zm14.863-2.739A7.667,7.667,0,0,0,118.205,59a2.067,2.067,0,0,0-2.1,1.084V67h-2.822V56.434h2.666l.078,1.26a2.615,2.615,0,0,1,2.354-1.455,2.957,2.957,0,0,1,.879.127Zm6.035,8.115a5.187,5.187,0,0,1-3.784-1.426,5.068,5.068,0,0,1-1.46-3.8V61.7a6.383,6.383,0,0,1,.615-2.847,4.515,4.515,0,0,1,1.743-1.934,4.893,4.893,0,0,1,2.573-.679,4.385,4.385,0,0,1,3.413,1.367,5.555,5.555,0,0,1,1.245,3.877v1.152h-6.729a2.622,2.622,0,0,0,.825,1.66,2.5,2.5,0,0,0,1.743.625,3.046,3.046,0,0,0,2.549-1.182l1.387,1.553a4.237,4.237,0,0,1-1.719,1.4A5.639,5.639,0,0,1,125.256,67.2Zm-.322-8.682a1.764,1.764,0,0,0-1.362.569,2.946,2.946,0,0,0-.669,1.628h3.926v-.226a2.1,2.1,0,0,0-.508-1.457A1.819,1.819,0,0,0,124.934,58.514Zm11.992,5.566a.909.909,0,0,0-.513-.815,5.824,5.824,0,0,0-1.646-.532q-3.77-.791-3.77-3.2a2.9,2.9,0,0,1,1.167-2.349,4.708,4.708,0,0,1,3.052-.942,5.067,5.067,0,0,1,3.218.947,2.985,2.985,0,0,1,1.206,2.461h-2.822a1.366,1.366,0,0,0-.391-1,1.653,1.653,0,0,0-1.221-.4,1.689,1.689,0,0,0-1.1.322,1.017,1.017,0,0,0-.391.82.87.87,0,0,0,.444.757,4.571,4.571,0,0,0,1.5.5,12.243,12.243,0,0,1,1.777.474,2.92,2.92,0,0,1,2.236,2.842,2.756,2.756,0,0,1-1.24,2.339,5.35,5.35,0,0,1-3.2.894,5.588,5.588,0,0,1-2.358-.474,3.957,3.957,0,0,1-1.616-1.3,3.018,3.018,0,0,1-.586-1.782h2.676a1.473,1.473,0,0,0,.557,1.152,2.208,2.208,0,0,0,1.387.4,2.044,2.044,0,0,0,1.226-.308A.957.957,0,0,0,136.926,64.08Zm6.865-1.436a5.875,5.875,0,0,1,.332-2.18,4.472,4.472,0,0,1,1.216-1.6,6.217,6.217,0,0,0,1.177-1.281,2.011,2.011,0,0,0,.293-1.042q0-1.653-1.523-1.653a1.543,1.543,0,0,0-1.157.445,1.75,1.75,0,0,0-.454,1.228h-2.832a3.766,3.766,0,0,1,1.206-2.923,5.57,5.57,0,0,1,6.45-.054,3.564,3.564,0,0,1,1.143,2.83,3.445,3.445,0,0,1-.371,1.569,6.463,6.463,0,0,1-1.3,1.637l-.791.753a2.682,2.682,0,0,0-.85,1.671l-.039.6Zm-.283,2.993a1.422,1.422,0,0,1,.444-1.076,1.74,1.74,0,0,1,2.275,0,1.518,1.518,0,0,1,.01,2.137,1.782,1.782,0,0,1-2.295,0A1.41,1.41,0,0,1,143.508,65.638Z" transform="translate(719.615 2677.736)" fill="#12263f"/>
  </g>
</svg>
