<svg xmlns="http://www.w3.org/2000/svg" width="540.978" height="473.183" viewBox="0 0 540.978 473.183">
  <g id="Grupo_136767" data-name="Grupo 136767" transform="translate(-529.511 -4696.729)">
    <g id="Grupo_136760" data-name="Grupo 136760" transform="translate(-0.489)">
      <g id="R9" transform="translate(530.001 4696.737)">
        <g id="Capa_2" data-name="Capa 2" transform="translate(-0.001 -0.007)">
          <g id="Capa_1" data-name="Capa 1">
            <g id="Grupo_136234" data-name="Grupo 136234">
              <g id="Shadow_2" data-name="Shadow 2">
                <g id="Grupo_136233" data-name="Grupo 136233">
                  <path id="Trazado_190491" data-name="Trazado 190491" d="M261.354,423.3H18.75C2,423.3-4.788,411.535,3.585,397.043l121.3-210.173,136.466,78.8V423.292Z" transform="translate(0.001 49.878)" fill="#939598"/>
                  <path id="Trazado_190492" data-name="Trazado 190492" d="M242.236,299.767,105.77,220.981l121.3-210.109c8.374-14.506,21.942-14.506,30.316,0L378.7,220.981,242.237,299.767Z" transform="translate(28.227 0.007)" fill="#939598"/>
                  <path id="Trazado_190493" data-name="Trazado 190493" d="M463.338,423.3H220.67V265.72l136.466-78.85L478.5,397.03c8.374,14.506,1.584,26.262-15.164,26.262Z" transform="translate(58.89 49.878)" fill="#939598"/>
                </g>
              </g>
              <g id="Body">
                <g id="_03" data-name="03" transform="translate(279.56 236.748)">
                  <path id="Trazado_190494" data-name="Trazado 190494" d="M463.338,423.3H220.67V265.72l136.466-78.85L478.5,397.03c8.374,14.506,1.584,26.262-15.164,26.262Z" transform="translate(-220.67 -186.87)" fill="#b13e8d"/>
                </g>
                <g id="_02" data-name="02" transform="translate(133.997)">
                  <path id="Trazado_190495" data-name="Trazado 190495" d="M242.236,299.767,105.77,220.981l121.3-210.109c8.374-14.506,21.942-14.506,30.316,0L378.7,220.981,242.237,299.767Z" transform="translate(-105.77 0.007)" fill="#6836bf"/>
                </g>
                <g id="_01" data-name="01" transform="translate(0 236.748)">
                  <path id="Trazado_190496" data-name="Trazado 190496" d="M261.354,423.3H18.75C2,423.3-4.788,411.535,3.585,397.043l121.3-210.173,136.466,78.8V423.292Z" transform="translate(0.001 -186.87)" fill="#f7ca18"/>
                </g>
              </g>
              <g id="Shadow" transform="translate(184.051 224.27)">
                <path id="Trazado_190497" data-name="Trazado 190497" d="M227.968,342.384A82.682,82.682,0,1,1,310.656,259.7,82.782,82.782,0,0,1,227.968,342.384Z" transform="translate(-145.28 -177.02)" fill="#58595b"/>
              </g>
              <g id="Circle" transform="translate(161.586 201.41)">
                <circle id="Elipse_5250" data-name="Elipse 5250" cx="94.951" cy="94.951" r="94.951" transform="translate(0 187.461) rotate(-80.8)" fill="#fff"/>
              </g>
            </g>
          </g>
        </g>
      </g>
      <circle id="Elipse_5251" data-name="Elipse 5251" cx="83" cy="83" r="83" transform="translate(718 4923.729)" fill="#fef7dc"/>
      <g id="Grupo_136764" data-name="Grupo 136764" transform="translate(0 3)">
        <path id="Trazado_193969" data-name="Trazado 193969" d="M34.429,1.719C24.748,1.864,16.4,7.727,9.659,13.872,2.944,19.986.488,26.306.039,34.557-.615,46.55,8.078,58.247,21.3,62.391c14.541,4.555,27.918-.517,37.067-10.647,9.818-10.875,8.327-28.6-.586-39.576C54.475,8.1,47.768,4.6,42.368,2.906a25.117,25.117,0,0,0-7.947-1.186Z" transform="translate(767.437 4782.514)" fill="#f7f4ff" opacity="0.414"/>
        <g id="Grupo_136743" data-name="Grupo 136743" transform="translate(776.862 4770.76)">
          <path id="Trazado_193970" data-name="Trazado 193970" d="M28.222,17.321c-.409-9.18,13.3-22.658,33.075-15.1S76.4,36.963,65.97,53.876s-15.819,20.238-30.2,19.94S21.03,57.809,25.7,46.927s2.872-21.454,2.519-29.606Z" transform="translate(-23.03 -0.006)" fill="#ffb7a4"/>
          <path id="Trazado_193971" data-name="Trazado 193971" d="M52.305,34.185a12.93,12.93,0,0,0-5.943-1.149,22.083,22.083,0,0,1,.254-3.822,27.14,27.14,0,0,1,1.922-6.33.084.084,0,0,1,.022-.044c.674-.862,1.359-1.712,2.11-2.53,2.464-2.7,5.446-4.96,7.6-7.866.829-1.116-.552-2.729-2.088-2.287C51.5,11.5,48.2,14.576,45.224,17.791A46.037,46.037,0,0,0,37.8,28.308a40.124,40.124,0,0,0-4.01,12.362c-.585,4.01-.077,8.3,3.049,11.522,3.193,3.292,8.948,4.286,13.6,2.806a11.832,11.832,0,0,0,8.595-10.13c.431-4.286-2.209-8.606-6.717-10.683Z" transform="translate(-21.925 1.049)" fill="#ff9787"/>
          <path id="Trazado_193972" data-name="Trazado 193972" d="M68.272,16.24a13.649,13.649,0,0,0-2.353-5.281,7.69,7.69,0,0,0-2.176-2.132c-1.1-.619-2.85-.917-3.325.652a4.094,4.094,0,0,0,.541,2.74c.155.309.32.619.475.939.033.055.044.088.066.122V13.3l.2.53c.044.1.177.453.276.674.022.055.11.265.122.3.144.365.265.729.376,1.1.1.342.188.674.265,1.016.044.188.077.387.11.574,0,.044.022.144.033.221a40.09,40.09,0,0,1,.022,4.154,9.541,9.541,0,0,0,.11,1.37,3.342,3.342,0,0,0,.122.74c.055.133.144.254.077.044.133.409.177.84.331,1.259.144.376.354.619.4.829a.517.517,0,0,0,.751.3c.331-.155.74-.166,1.1-.365a6.023,6.023,0,0,0,.994-.751A5.454,5.454,0,0,0,68.471,22.5a14.664,14.664,0,0,0-.166-6.275Z" transform="translate(-19.124 0.865)" fill="#ffd8c4"/>
          <path id="Trazado_193973" data-name="Trazado 193973" d="M66.039,32.271a3.938,3.938,0,0,0-.11-.806,1.966,1.966,0,0,0-.409-.895,3.328,3.328,0,0,0-.243-.309,1.355,1.355,0,0,0-1.359-.365l-.4.166c.387-.177.342-.155-.144.044a1.887,1.887,0,0,0-.53.442,7.6,7.6,0,0,0-.475.608,2.617,2.617,0,0,0-.3.773,4.852,4.852,0,0,0-.188,2.176,2.76,2.76,0,0,0,.1.674,1.753,1.753,0,0,0,.077.221,1.146,1.146,0,0,0,.243.475,1.335,1.335,0,0,0,.342.508h.011a.193.193,0,0,0,.011.055,1.7,1.7,0,0,0,.088.21c.122.276.486.232.663.088,0,0,.1-.077.166-.133.11-.033.365-.155.32-.133a1.721,1.721,0,0,0,.221-.177c.077-.066.088-.077.044-.033s-.033.033,0,.011a.987.987,0,0,0,.331-.243c.055-.055.11-.1.166-.155a2.944,2.944,0,0,0,.442-.608,4.408,4.408,0,0,0,.8-1.834,4.654,4.654,0,0,0,.133-.784Z" transform="translate(-18.967 3.117)" fill="#ffd8c4"/>
        </g>
      </g>
      <path id="Trazado_193974" data-name="Trazado 193974" d="M34.429,5.037C24.748,5.181,16.4,11.045,9.659,17.189,2.944,23.3.488,29.624.039,37.875-.615,49.868,8.078,61.564,21.3,65.709c14.541,4.555,27.918-.517,37.067-10.647,9.818-10.875,8.327-28.6-.586-39.576-3.308-4.069-10.016-7.567-15.415-9.27a25.117,25.117,0,0,0-7.947-1.186Z" transform="translate(906.996 5005.527)" fill="#fef7dc" opacity="0.451"/>
      <g id="Grupo_136745" data-name="Grupo 136745" transform="translate(901.875 4984.111)">
        <path id="Trazado_193975" data-name="Trazado 193975" d="M33.891,73.955C26.6,55.221,22.784,52.436,15.5,41.329S13.423,25.022,20.7,27.1s12.84,10.76,12.84,10.76S32.5,21.208,34.931,11.488,45,3.5,45.691,10.448s3.467,23.6,3.467,23.6,2.08-19.081,5.548-28.8S67.823.786,66.506,9.061,63.385,39.942,63.732,38.9s3.814-20.48,7.293-26.027,10.228-1.063,8.495,4.831-3.987,25.01-3.987,25.01,3.12-13.534,6.946-17,7.986,2.427,5.548,7.639-3.814,16.307-6.241,22.56S76.584,74.3,68.6,82.635s-29.275,5.293-34.707-8.68Z" transform="translate(-11.991 0.001)" fill="#ffb7a4"/>
        <path id="Trazado_193976" data-name="Trazado 193976" d="M43.72,50.438c-.485-1.017-5.744-10.3-7.062-8.321-.821,1.237,1.005,3.363,1.583,4.4a45.3,45.3,0,0,1,2.647,5.559,29.174,29.174,0,0,1,1.63,5.836c.347,2.092.22,4.184.451,6.276.092.786.116,3.456,1.549,3.028,1.526-.451,2-3.49,2.046-4.773a26.388,26.388,0,0,0-2.843-12.02Z" transform="translate(-8.182 6.518)" fill="#ff9787"/>
        <path id="Trazado_193977" data-name="Trazado 193977" d="M70.247,48.262a17.261,17.261,0,0,0-3.525.485,28.763,28.763,0,0,1-3.664.913,17.083,17.083,0,0,1-7.882-.844A30.867,30.867,0,0,1,47.4,44.795c-.439-.3-5.166-3.964-5.513-2.392-.254,1.144.763,2.173,1.5,2.912a33.975,33.975,0,0,0,3.791,3.144A27.019,27.019,0,0,0,55.673,52.9c4.692,1.352,13.256,1.78,15.013-4.091a.45.45,0,0,0-.428-.566Z" transform="translate(-7.342 6.544)" fill="#ff9787"/>
      </g>
      <g id="OBJECTS" transform="translate(628 5013.372)">
        <g id="Grupo_136749" data-name="Grupo 136749" transform="translate(0 0)">
          <path id="Trazado_193978" data-name="Trazado 193978" d="M34.429,0C24.748.144,16.4,6.015,9.652,12.152,2.944,18.266.488,24.586.039,32.837-.615,44.83,8.078,56.527,21.3,60.671c14.541,4.555,27.918-.517,37.067-10.647,9.818-10.875,8.327-28.6-.586-39.576C54.475,6.38,47.768,2.881,42.368,1.178A25.306,25.306,0,0,0,34.429,0Z" transform="translate(-0.005 0.004)" fill="#f7f4ff" opacity="0.28"/>
          <g id="Grupo_136748" data-name="Grupo 136748" transform="translate(-9.268 -8.908)">
            <path id="Trazado_193979" data-name="Trazado 193979" d="M83.593,38.125C83.924,23.557,67.7,6,40.541,6.994S3.124,21.242,4.116,34.486,23.988,62.3,38.887,65.617,83.119,58.67,83.593,38.136Z" transform="translate(-4.051 -6.954)" fill="#ffb7a4"/>
            <path id="Trazado_193980" data-name="Trazado 193980" d="M11.86,34.3c.143-6.131,14.182-21.206,35.6-20.346s28.937,13.884,30.591,22.43S66.922,57.932,46.7,58.406,11.607,45.349,11.86,34.288Z" transform="translate(-3.249 -6.238)" fill="#ffede7"/>
            <path id="Trazado_193981" data-name="Trazado 193981" d="M11.47,31.122C11.779,26.192,26.159,13.7,47.476,13.83s28.474,10.388,29.9,17.225S65.716,48.678,45.546,49.593,10.93,40.032,11.481,31.133Z" transform="translate(-3.289 -6.247)" fill="#fff"/>
            <path id="Trazado_193982" data-name="Trazado 193982" d="M50.86,25.126a9.282,9.282,0,0,0-6.595-4.4,8.371,8.371,0,0,0-2.228.022,7.442,7.442,0,0,0-4.113,1.764c-.132.11-.265.21-.4.32-.022.022-.055.044-.077.066l-.232.232c-.1.1-.221.2-.32.3-6.341,6.848-4.191,29.091,9.186,24.4,7.83-2.746,9.318-15.726,4.775-22.717Z" transform="translate(-1.027 -5.545)" fill="#5e3636"/>
            <path id="Trazado_193983" data-name="Trazado 193983" d="M41.264,23.944a3.387,3.387,0,0,0-.54-.871c-.044-.077-.066-.154-.11-.232a3.088,3.088,0,0,0-1.279-1.158,3.9,3.9,0,0,0-3.463.088,4.92,4.92,0,0,0-2.15,2.79,6.985,6.985,0,0,0-.3,1.169,3.508,3.508,0,0,0-.088,3.286,3.9,3.9,0,0,0,3.308,1.533A5.145,5.145,0,0,0,41.3,27.264a4.484,4.484,0,0,0-.022-3.319Z" transform="translate(-1.08 -5.477)" fill="#fff"/>
            <path id="Trazado_193984" data-name="Trazado 193984" d="M52.9,38.692a3.153,3.153,0,0,0-1.4-1.533,2.909,2.909,0,0,0-2.647.011,2.627,2.627,0,0,0-.54.375,3.7,3.7,0,0,0-1.378.728,3.608,3.608,0,0,0-1.246,2.459,3.828,3.828,0,0,0,2.735,3.981,3.69,3.69,0,0,0,4.235-1.9,5.33,5.33,0,0,0,.618-2.128,4.2,4.2,0,0,0-.4-2.007Z" transform="translate(0.226 -3.881)" fill="#fff"/>
            <path id="Trazado_193985" data-name="Trazado 193985" d="M70.942,35.992a.751.751,0,0,0,.033-.132,2.577,2.577,0,0,1,.077-.276.872.872,0,0,1,.055-.143c.022-.055.055-.121.066-.143a1.74,1.74,0,0,1,.165-.265c.11-.165.187-.353.3-.529a1.119,1.119,0,0,0,.132-.783,1,1,0,0,0-.805-.926,1.251,1.251,0,0,0-.915.121,2.716,2.716,0,0,0-.893.761,3.144,3.144,0,0,0-.364.573,5.549,5.549,0,0,0-.529,1.864c-.143,1.257.265,3.044,1.621,3.463a1.213,1.213,0,0,0,1.522-1.158,2.42,2.42,0,0,0-.287-1.07v-.011h0c-.022-.088-.055-.176-.077-.265s-.055-.2-.077-.3a.083.083,0,0,0-.011-.055,4.42,4.42,0,0,1-.011-.54v-.165Z" transform="translate(2.546 -4.302)" fill="#ff796b"/>
            <path id="Trazado_193986" data-name="Trazado 193986" d="M79.912,36.594a1.5,1.5,0,0,0-.143-.331,24.911,24.911,0,0,0-6.528-14.336,30.145,30.145,0,0,0-15.1-8.381C46.609,10.789,34.026,13.2,23.77,18.961a51.922,51.922,0,0,0-7.289,4.985C14.264,25.754,11.6,27.86,10.5,30.584c-1.191,2.977.1,6.131,1.434,8.833A35.272,35.272,0,0,0,16.3,46.111c7.565,9.23,19.122,13.608,30.9,12.748a69.616,69.616,0,0,0,11.27-1.842,32.692,32.692,0,0,0,10.112-4.025,38.027,38.027,0,0,0,7.973-7.311c2.195-2.569,4.18-5.58,3.341-9.076ZM73.45,43.817a35.684,35.684,0,0,1-6.264,5.834c-4.8,3.286-10.951,4.51-16.608,5.337a37.355,37.355,0,0,1-17.027-1.026A32,32,0,0,1,21.4,46.651c-3.352-3.2-6.562-7.455-7.786-12-.816-3.044,1.323-4.874,3.4-6.749a44.933,44.933,0,0,1,6.363-4.8A46.186,46.186,0,0,1,53.446,16.16c5.558.728,11.182,2.724,15.461,6.44a25.017,25.017,0,0,1,8.072,14.479,12.631,12.631,0,0,1-3.529,6.738Z" transform="translate(-3.436 -6.393)" fill="#ff9787"/>
            <path id="Trazado_193987" data-name="Trazado 193987" d="M23.493,20.756c.452.32-.055-.044-.143-.11a1.313,1.313,0,0,0-.165-.1c-.143-.077-.3-.143-.441-.221h-.011L22.71,20.3l-.232-.2-.507-.441a24.477,24.477,0,0,1-1.831-1.875c-.265-.309-.518-.618-.772-.937a1.407,1.407,0,0,0-.132-.165,2.076,2.076,0,0,1-.176-.254c-.132-.187-.254-.375-.375-.551q-.38-.562-.728-1.125a2.493,2.493,0,0,0-.915-.97.673.673,0,0,0-.893-.011.7.7,0,0,0-.232.507,2.39,2.39,0,0,0,.132,1.489,12.931,12.931,0,0,0,.618,1.522,14.255,14.255,0,0,0,1.544,2.547,15.308,15.308,0,0,0,2.139,2.327,4.6,4.6,0,0,0,1.5,1,1.737,1.737,0,0,0,2.1-.728,1.266,1.266,0,0,0-.43-1.665Z" transform="translate(-2.839 -6.269)" fill="#5e3636"/>
            <g id="Grupo_136747" data-name="Grupo 136747" transform="translate(6.737 12.388)">
              <path id="Trazado_193988" data-name="Trazado 193988" d="M17.382,23.812l-.022-.022a.159.159,0,0,0,.022.033Z" transform="translate(-9.42 -17.611)" fill="#5e3636"/>
              <path id="Trazado_193989" data-name="Trazado 193989" d="M18.122,24.4c.011.066,0,.044-.033-.044h0l-.011-.011v-.011a.764.764,0,0,0-.221-.342,1.877,1.877,0,0,0-.287-.2,9.1,9.1,0,0,0-1.864-1.037,9,9,0,0,1-.97-.618c-.022-.011-.1-.077-.132-.1s-.066-.055-.077-.055c-.154-.132-.3-.265-.452-.4a10.267,10.267,0,0,1-.794-.75c-.121-.132-.243-.265-.364-.408-.011-.022-.088-.11-.121-.154s-.077-.11-.088-.121c-.1-.132-.2-.254-.3-.386.132.176-.055-.088-.066-.1-.1-.132-.187-.276-.276-.408-.121-.187-.276-.386-.342-.485a1.211,1.211,0,0,0-.673-.54.54.54,0,0,0-.75.342,1.412,1.412,0,0,0-.143.43,1.164,1.164,0,0,0,.022.276,3.881,3.881,0,0,0,.11.717,6.926,6.926,0,0,0,.485,1.279A8.7,8.7,0,0,0,12.3,23.44a9.742,9.742,0,0,0,2.084,1.588,4.015,4.015,0,0,0,2.735.728,1.316,1.316,0,0,0,.629-.2h0c.011,0,.022,0,.044-.022a.806.806,0,0,0,.375-.32.711.711,0,0,0-.055-.816Z" transform="translate(-10.16 -18.187)" fill="#5e3636"/>
            </g>
            <path id="Trazado_193990" data-name="Trazado 193990" d="M15.272,27.762c.066.033.011.011-.033-.022a1.785,1.785,0,0,0-.584-.32c-.165-.055-.331-.1-.5-.143-.375-.088-.772-.132-1.147-.221a10.692,10.692,0,0,1-1.059-.309c-.187-.066-.364-.132-.551-.2-.011,0-.1-.044-.143-.055s-.21-.1-.21-.1a16.466,16.466,0,0,1-1.941-1.048,11.066,11.066,0,0,0-.981-.6c-.276-.143-.937-.43-1.158-.033a.971.971,0,0,0-.143.86,3.069,3.069,0,0,0,.265.54,5.53,5.53,0,0,0,.849,1.037,8.477,8.477,0,0,0,2.073,1.511,11.426,11.426,0,0,0,2.371.9,7.087,7.087,0,0,0,1.434.243,3.6,3.6,0,0,0,.772-.077A1.765,1.765,0,0,0,15,29.6c.243-.2.32-.254.21-.154-.066.044-.044.044.066-.011a.961.961,0,0,0,0-1.654Z" transform="translate(-3.771 -5.148)" fill="#5e3636"/>
          </g>
        </g>
      </g>
    </g>
    <path id="Trazado_194014" data-name="Trazado 194014" d="M22.438,14.656H18.328L17.547,17H15.055L19.289,5.625h2.172L25.719,17H23.227Zm-3.477-1.9H21.8L20.375,8.5Zm15.281.094a5.07,5.07,0,0,1-.887,3.129,2.843,2.843,0,0,1-2.395,1.176,2.633,2.633,0,0,1-2.07-.891V20.25H26.633V8.547h2.094l.078.828a2.654,2.654,0,0,1,2.141-.984,2.862,2.862,0,0,1,2.43,1.156,5.207,5.207,0,0,1,.867,3.188Zm-2.258-.164a3.327,3.327,0,0,0-.418-1.82,1.361,1.361,0,0,0-1.215-.641,1.478,1.478,0,0,0-1.461.813V14.5a1.5,1.5,0,0,0,1.477.836Q31.984,15.336,31.984,12.688Zm8.406-2.023a6.134,6.134,0,0,0-.812-.062,1.654,1.654,0,0,0-1.68.867V17H35.641V8.547h2.133l.063,1.008a2.092,2.092,0,0,1,1.883-1.164,2.366,2.366,0,0,1,.7.1Zm4.977,6.492a4.15,4.15,0,0,1-3.027-1.141,4.054,4.054,0,0,1-1.168-3.039v-.219a5.106,5.106,0,0,1,.492-2.277,3.612,3.612,0,0,1,1.395-1.547,3.914,3.914,0,0,1,2.059-.543,3.508,3.508,0,0,1,2.73,1.094,4.444,4.444,0,0,1,1,3.1v.922H43.461a2.1,2.1,0,0,0,.66,1.328,2,2,0,0,0,1.395.5,2.437,2.437,0,0,0,2.039-.945l1.109,1.242a3.389,3.389,0,0,1-1.375,1.121A4.511,4.511,0,0,1,45.367,17.156Zm-.258-6.937a1.414,1.414,0,0,0-1.09.453,2.341,2.341,0,0,0-.535,1.3h3.141v-.18a1.669,1.669,0,0,0-.406-1.16A1.459,1.459,0,0,0,45.109,10.219ZM52.2,8.547l.07.977A2.951,2.951,0,0,1,54.7,8.391a2.453,2.453,0,0,1,2,.789,3.682,3.682,0,0,1,.672,2.359V17H55.117V11.594a1.465,1.465,0,0,0-.312-1.043,1.4,1.4,0,0,0-1.039-.324,1.553,1.553,0,0,0-1.43.813V17H50.078V8.547Zm6.531,4.164a5.094,5.094,0,0,1,.887-3.148,2.877,2.877,0,0,1,2.426-1.172,2.589,2.589,0,0,1,2.039.922V5h2.266V17H64.313l-.109-.9a2.657,2.657,0,0,1-2.172,1.055,2.869,2.869,0,0,1-2.395-1.176A5.258,5.258,0,0,1,58.734,12.711Zm2.258.164a3.328,3.328,0,0,0,.414,1.82,1.349,1.349,0,0,0,1.2.633,1.511,1.511,0,0,0,1.477-.883V11.109a1.489,1.489,0,0,0-1.461-.883Q60.992,10.227,60.992,12.875ZM70.484,17H68.219V8.547h2.266Zm-2.4-10.641a1.112,1.112,0,0,1,.34-.836,1.465,1.465,0,0,1,1.848,0,1.105,1.105,0,0,1,.344.836,1.108,1.108,0,0,1-.348.844,1.448,1.448,0,0,1-1.836,0A1.108,1.108,0,0,1,68.086,6.359Zm6.852,8.82H79.07V17H72.055V15.625l3.977-5.25H72.172V8.547h6.773V9.883ZM85.383,17a2.507,2.507,0,0,1-.227-.758,2.732,2.732,0,0,1-2.133.914,3,3,0,0,1-2.059-.719,2.312,2.312,0,0,1-.816-1.812,2.389,2.389,0,0,1,1-2.062,4.915,4.915,0,0,1,2.879-.727h1.039v-.484a1.393,1.393,0,0,0-.3-.937,1.183,1.183,0,0,0-.949-.352,1.345,1.345,0,0,0-.895.273.929.929,0,0,0-.324.75H80.336a2.268,2.268,0,0,1,.453-1.359,3,3,0,0,1,1.281-.98,4.669,4.669,0,0,1,1.859-.355,3.689,3.689,0,0,1,2.48.785,2.747,2.747,0,0,1,.918,2.207v3.664a4.041,4.041,0,0,0,.336,1.82V17Zm-1.867-1.57a1.945,1.945,0,0,0,.922-.223,1.462,1.462,0,0,0,.625-.6V13.156h-.844q-1.7,0-1.8,1.172l-.008.133a.9.9,0,0,0,.3.7A1.153,1.153,0,0,0,83.516,15.43Zm7.938-6.883v8.914a3.024,3.024,0,0,1-.742,2.176,2.821,2.821,0,0,1-2.141.777,4.591,4.591,0,0,1-1.117-.133V18.492a4.238,4.238,0,0,0,.711.07q1.023,0,1.023-1.086V8.547ZM89.008,6.359a1.112,1.112,0,0,1,.34-.836,1.47,1.47,0,0,1,1.852,0,1.112,1.112,0,0,1,.34.836,1.108,1.108,0,0,1-.348.844,1.448,1.448,0,0,1-1.836,0A1.108,1.108,0,0,1,89.008,6.359Zm8.1,10.8a4.15,4.15,0,0,1-3.027-1.141,4.054,4.054,0,0,1-1.168-3.039v-.219a5.106,5.106,0,0,1,.492-2.277A3.612,3.612,0,0,1,94.8,8.934a3.914,3.914,0,0,1,2.059-.543,3.508,3.508,0,0,1,2.73,1.094,4.444,4.444,0,0,1,1,3.1v.922H95.2a2.1,2.1,0,0,0,.66,1.328,2,2,0,0,0,1.395.5,2.437,2.437,0,0,0,2.039-.945l1.109,1.242a3.389,3.389,0,0,1-1.375,1.121A4.511,4.511,0,0,1,97.109,17.156Zm-.258-6.937a1.414,1.414,0,0,0-1.09.453,2.341,2.341,0,0,0-.535,1.3h3.141v-.18a1.669,1.669,0,0,0-.406-1.16A1.459,1.459,0,0,0,96.852,10.219ZM35.039,41a2.507,2.507,0,0,1-.227-.758,2.732,2.732,0,0,1-2.133.914,3,3,0,0,1-2.059-.719,2.312,2.312,0,0,1-.816-1.812,2.389,2.389,0,0,1,1-2.062,4.915,4.915,0,0,1,2.879-.727h1.039v-.484a1.393,1.393,0,0,0-.3-.937,1.183,1.183,0,0,0-.949-.352,1.345,1.345,0,0,0-.895.273.929.929,0,0,0-.324.75H29.992a2.268,2.268,0,0,1,.453-1.359,3,3,0,0,1,1.281-.98,4.669,4.669,0,0,1,1.859-.355,3.689,3.689,0,0,1,2.48.785,2.747,2.747,0,0,1,.918,2.207v3.664a4.041,4.041,0,0,0,.336,1.82V41Zm-1.867-1.57a1.945,1.945,0,0,0,.922-.223,1.462,1.462,0,0,0,.625-.6V37.156h-.844q-1.7,0-1.8,1.172l-.008.133a.9.9,0,0,0,.3.7A1.153,1.153,0,0,0,33.172,39.43Zm10.609.711a2.831,2.831,0,0,1-2.312,1.016,2.67,2.67,0,0,1-2.074-.781,3.335,3.335,0,0,1-.73-2.289V32.547h2.258v5.461q0,1.32,1.2,1.32a1.631,1.631,0,0,0,1.578-.8V32.547h2.266V41H43.844Zm3.539-3.43a5.094,5.094,0,0,1,.887-3.148,2.877,2.877,0,0,1,2.426-1.172,2.589,2.589,0,0,1,2.039.922V29h2.266V41H52.9l-.109-.9a2.657,2.657,0,0,1-2.172,1.055,2.869,2.869,0,0,1-2.395-1.176A5.258,5.258,0,0,1,47.32,36.711Zm2.258.164a3.328,3.328,0,0,0,.414,1.82,1.349,1.349,0,0,0,1.2.633,1.511,1.511,0,0,0,1.477-.883V35.109a1.489,1.489,0,0,0-1.461-.883Q49.578,34.227,49.578,36.875ZM59.07,41H56.8V32.547H59.07Zm-2.4-10.641a1.112,1.112,0,0,1,.34-.836,1.465,1.465,0,0,1,1.848,0,1.193,1.193,0,0,1,0,1.68,1.448,1.448,0,0,1-1.836,0A1.108,1.108,0,0,1,56.672,30.359Zm6.961.109v2.078h1.445V34.2H63.633v4.219a1.007,1.007,0,0,0,.18.672.9.9,0,0,0,.688.2,3.6,3.6,0,0,0,.664-.055v1.711a4.648,4.648,0,0,1-1.367.2,2.156,2.156,0,0,1-2.422-2.4V34.2H60.141V32.547h1.234V30.469ZM68.719,41H66.453V32.547h2.266Zm-2.4-10.641a1.112,1.112,0,0,1,.34-.836,1.465,1.465,0,0,1,1.848,0,1.193,1.193,0,0,1,0,1.68,1.448,1.448,0,0,1-1.836,0A1.108,1.108,0,0,1,66.32,30.359Zm7.422,7.883,1.57-5.7h2.359L74.82,41H72.664l-2.852-8.453h2.359ZM78.2,36.7a5.013,5.013,0,0,1,.484-2.242,3.546,3.546,0,0,1,1.395-1.523,4.069,4.069,0,0,1,2.113-.539,3.849,3.849,0,0,1,2.793,1.047,4.2,4.2,0,0,1,1.207,2.844l.016.578a4.418,4.418,0,0,1-1.086,3.121,4.209,4.209,0,0,1-5.832,0A4.5,4.5,0,0,1,78.2,36.8Zm2.258.164a3.151,3.151,0,0,0,.453,1.84,1.629,1.629,0,0,0,2.578.008,3.448,3.448,0,0,0,.461-2.012,3.12,3.12,0,0,0-.461-1.828,1.5,1.5,0,0,0-1.3-.648,1.475,1.475,0,0,0-1.281.645A3.506,3.506,0,0,0,80.453,36.859Z" transform="translate(742 4856.729)" fill="#fff"/>
    <path id="Trazado_194016" data-name="Trazado 194016" d="M17.438,14.656H13.328L12.547,17H10.055L14.289,5.625h2.172L20.719,17H18.227Zm-3.477-1.9H16.8L15.375,8.5Zm15.281.094a5.07,5.07,0,0,1-.887,3.129,2.843,2.843,0,0,1-2.395,1.176,2.633,2.633,0,0,1-2.07-.891V20.25H21.633V8.547h2.094l.078.828a2.654,2.654,0,0,1,2.141-.984,2.862,2.862,0,0,1,2.43,1.156,5.207,5.207,0,0,1,.867,3.188Zm-2.258-.164a3.327,3.327,0,0,0-.418-1.82,1.361,1.361,0,0,0-1.215-.641,1.478,1.478,0,0,0-1.461.813V14.5a1.5,1.5,0,0,0,1.477.836Q26.984,15.336,26.984,12.688Zm8.406-2.023a6.134,6.134,0,0,0-.812-.062,1.654,1.654,0,0,0-1.68.867V17H30.641V8.547h2.133l.063,1.008a2.092,2.092,0,0,1,1.883-1.164,2.366,2.366,0,0,1,.7.1Zm4.977,6.492a4.15,4.15,0,0,1-3.027-1.141,4.054,4.054,0,0,1-1.168-3.039v-.219a5.106,5.106,0,0,1,.492-2.277,3.612,3.612,0,0,1,1.395-1.547,3.914,3.914,0,0,1,2.059-.543,3.508,3.508,0,0,1,2.73,1.094,4.444,4.444,0,0,1,1,3.1v.922H38.461a2.1,2.1,0,0,0,.66,1.328,2,2,0,0,0,1.395.5,2.437,2.437,0,0,0,2.039-.945l1.109,1.242a3.389,3.389,0,0,1-1.375,1.121A4.511,4.511,0,0,1,40.367,17.156Zm-.258-6.937a1.414,1.414,0,0,0-1.09.453,2.341,2.341,0,0,0-.535,1.3h3.141v-.18a1.669,1.669,0,0,0-.406-1.16A1.459,1.459,0,0,0,40.109,10.219ZM47.2,8.547l.07.977A2.951,2.951,0,0,1,49.7,8.391a2.453,2.453,0,0,1,2,.789,3.682,3.682,0,0,1,.672,2.359V17H50.117V11.594a1.465,1.465,0,0,0-.312-1.043,1.4,1.4,0,0,0-1.039-.324,1.553,1.553,0,0,0-1.43.813V17H45.078V8.547Zm6.531,4.164a5.094,5.094,0,0,1,.887-3.148,2.877,2.877,0,0,1,2.426-1.172,2.589,2.589,0,0,1,2.039.922V5h2.266V17H59.313l-.109-.9a2.657,2.657,0,0,1-2.172,1.055,2.869,2.869,0,0,1-2.395-1.176A5.258,5.258,0,0,1,53.734,12.711Zm2.258.164a3.328,3.328,0,0,0,.414,1.82,1.349,1.349,0,0,0,1.2.633,1.511,1.511,0,0,0,1.477-.883V11.109a1.489,1.489,0,0,0-1.461-.883Q55.992,10.227,55.992,12.875ZM65.484,17H63.219V8.547h2.266Zm-2.4-10.641a1.112,1.112,0,0,1,.34-.836,1.465,1.465,0,0,1,1.848,0,1.105,1.105,0,0,1,.344.836,1.108,1.108,0,0,1-.348.844,1.448,1.448,0,0,1-1.836,0A1.108,1.108,0,0,1,63.086,6.359Zm6.852,8.82H74.07V17H67.055V15.625l3.977-5.25H67.172V8.547h6.773V9.883ZM80.383,17a2.507,2.507,0,0,1-.227-.758,2.732,2.732,0,0,1-2.133.914,3,3,0,0,1-2.059-.719,2.312,2.312,0,0,1-.816-1.812,2.389,2.389,0,0,1,1-2.062,4.915,4.915,0,0,1,2.879-.727h1.039v-.484a1.393,1.393,0,0,0-.3-.937,1.183,1.183,0,0,0-.949-.352,1.345,1.345,0,0,0-.895.273.929.929,0,0,0-.324.75H75.336a2.268,2.268,0,0,1,.453-1.359,3,3,0,0,1,1.281-.98,4.669,4.669,0,0,1,1.859-.355,3.689,3.689,0,0,1,2.48.785,2.747,2.747,0,0,1,.918,2.207v3.664a4.041,4.041,0,0,0,.336,1.82V17Zm-1.867-1.57a1.945,1.945,0,0,0,.922-.223,1.462,1.462,0,0,0,.625-.6V13.156h-.844q-1.7,0-1.8,1.172l-.008.133a.9.9,0,0,0,.3.7A1.153,1.153,0,0,0,78.516,15.43Zm7.938-6.883v8.914a3.024,3.024,0,0,1-.742,2.176,2.821,2.821,0,0,1-2.141.777,4.591,4.591,0,0,1-1.117-.133V18.492a4.238,4.238,0,0,0,.711.07q1.023,0,1.023-1.086V8.547ZM84.008,6.359a1.112,1.112,0,0,1,.34-.836,1.47,1.47,0,0,1,1.852,0,1.112,1.112,0,0,1,.34.836,1.108,1.108,0,0,1-.348.844,1.448,1.448,0,0,1-1.836,0A1.108,1.108,0,0,1,84.008,6.359Zm8.1,10.8a4.15,4.15,0,0,1-3.027-1.141,4.054,4.054,0,0,1-1.168-3.039v-.219a5.106,5.106,0,0,1,.492-2.277A3.612,3.612,0,0,1,89.8,8.934a3.914,3.914,0,0,1,2.059-.543,3.508,3.508,0,0,1,2.73,1.094,4.444,4.444,0,0,1,1,3.1v.922H90.2a2.1,2.1,0,0,0,.66,1.328,2,2,0,0,0,1.395.5,2.437,2.437,0,0,0,2.039-.945l1.109,1.242a3.389,3.389,0,0,1-1.375,1.121A4.511,4.511,0,0,1,92.109,17.156Zm-.258-6.937a1.414,1.414,0,0,0-1.09.453,2.341,2.341,0,0,0-.535,1.3h3.141v-.18a1.669,1.669,0,0,0-.406-1.16A1.459,1.459,0,0,0,91.852,10.219ZM35.867,38.242l1.57-5.7H39.8L36.945,41H34.789l-2.852-8.453H34.3ZM43.172,41H40.906V32.547h2.266Zm-2.4-10.641a1.112,1.112,0,0,1,.34-.836,1.465,1.465,0,0,1,1.848,0,1.193,1.193,0,0,1,0,1.68,1.448,1.448,0,0,1-1.836,0A1.108,1.108,0,0,1,40.773,30.359Zm8.836,8.3a.727.727,0,0,0-.41-.652,4.659,4.659,0,0,0-1.316-.426q-3.016-.633-3.016-2.562a2.323,2.323,0,0,1,.934-1.879,3.766,3.766,0,0,1,2.441-.754,4.053,4.053,0,0,1,2.574.758,2.388,2.388,0,0,1,.965,1.969H49.523a1.092,1.092,0,0,0-.312-.8A1.322,1.322,0,0,0,48.234,34a1.351,1.351,0,0,0-.883.258.814.814,0,0,0-.312.656.7.7,0,0,0,.355.605,3.657,3.657,0,0,0,1.2.4,9.8,9.8,0,0,1,1.422.379A2.336,2.336,0,0,1,51.8,38.57a2.205,2.205,0,0,1-.992,1.871,4.28,4.28,0,0,1-2.562.715,4.47,4.47,0,0,1-1.887-.379,3.166,3.166,0,0,1-1.293-1.039,2.414,2.414,0,0,1-.469-1.426h2.141a1.179,1.179,0,0,0,.445.922,1.766,1.766,0,0,0,1.109.32,1.635,1.635,0,0,0,.98-.246A.766.766,0,0,0,49.609,38.664Zm8.711,1.477a2.831,2.831,0,0,1-2.312,1.016,2.67,2.67,0,0,1-2.074-.781,3.335,3.335,0,0,1-.73-2.289V32.547h2.258v5.461q0,1.32,1.2,1.32a1.631,1.631,0,0,0,1.578-.8V32.547h2.266V41H58.383ZM67.109,41a2.507,2.507,0,0,1-.227-.758,2.732,2.732,0,0,1-2.133.914,3,3,0,0,1-2.059-.719,2.312,2.312,0,0,1-.816-1.812,2.389,2.389,0,0,1,1-2.062,4.915,4.915,0,0,1,2.879-.727h1.039v-.484a1.393,1.393,0,0,0-.3-.937,1.183,1.183,0,0,0-.949-.352,1.345,1.345,0,0,0-.895.273.929.929,0,0,0-.324.75H62.063a2.268,2.268,0,0,1,.453-1.359,3,3,0,0,1,1.281-.98,4.669,4.669,0,0,1,1.859-.355,3.689,3.689,0,0,1,2.48.785,2.747,2.747,0,0,1,.918,2.207v3.664a4.041,4.041,0,0,0,.336,1.82V41Zm-1.867-1.57a1.945,1.945,0,0,0,.922-.223,1.462,1.462,0,0,0,.625-.6V37.156h-.844q-1.7,0-1.8,1.172l-.008.133a.9.9,0,0,0,.3.7A1.153,1.153,0,0,0,65.242,39.43ZM73.172,41H70.906V29h2.266Z" transform="translate(608 5079.729)" fill="#12263f"/>
    <path id="Trazado_194017" data-name="Trazado 194017" d="M20.438,14.656H16.328L15.547,17H13.055L17.289,5.625h2.172L23.719,17H21.227Zm-3.477-1.9H19.8L18.375,8.5Zm15.281.094a5.07,5.07,0,0,1-.887,3.129,2.843,2.843,0,0,1-2.395,1.176,2.633,2.633,0,0,1-2.07-.891V20.25H24.633V8.547h2.094l.078.828a2.654,2.654,0,0,1,2.141-.984,2.862,2.862,0,0,1,2.43,1.156,5.207,5.207,0,0,1,.867,3.188Zm-2.258-.164a3.327,3.327,0,0,0-.418-1.82,1.361,1.361,0,0,0-1.215-.641,1.478,1.478,0,0,0-1.461.813V14.5a1.5,1.5,0,0,0,1.477.836Q29.984,15.336,29.984,12.688Zm8.406-2.023a6.134,6.134,0,0,0-.812-.062,1.654,1.654,0,0,0-1.68.867V17H33.641V8.547h2.133l.063,1.008a2.092,2.092,0,0,1,1.883-1.164,2.366,2.366,0,0,1,.7.1Zm4.977,6.492a4.15,4.15,0,0,1-3.027-1.141,4.054,4.054,0,0,1-1.168-3.039v-.219a5.106,5.106,0,0,1,.492-2.277,3.612,3.612,0,0,1,1.395-1.547,3.914,3.914,0,0,1,2.059-.543,3.508,3.508,0,0,1,2.73,1.094,4.444,4.444,0,0,1,1,3.1v.922H41.461a2.1,2.1,0,0,0,.66,1.328,2,2,0,0,0,1.395.5,2.437,2.437,0,0,0,2.039-.945l1.109,1.242a3.389,3.389,0,0,1-1.375,1.121A4.511,4.511,0,0,1,43.367,17.156Zm-.258-6.937a1.414,1.414,0,0,0-1.09.453,2.341,2.341,0,0,0-.535,1.3h3.141v-.18a1.669,1.669,0,0,0-.406-1.16A1.459,1.459,0,0,0,43.109,10.219ZM50.2,8.547l.07.977A2.951,2.951,0,0,1,52.7,8.391a2.453,2.453,0,0,1,2,.789,3.682,3.682,0,0,1,.672,2.359V17H53.117V11.594a1.465,1.465,0,0,0-.312-1.043,1.4,1.4,0,0,0-1.039-.324,1.553,1.553,0,0,0-1.43.813V17H48.078V8.547Zm6.531,4.164a5.094,5.094,0,0,1,.887-3.148,2.877,2.877,0,0,1,2.426-1.172,2.589,2.589,0,0,1,2.039.922V5h2.266V17H62.313l-.109-.9a2.657,2.657,0,0,1-2.172,1.055,2.869,2.869,0,0,1-2.395-1.176A5.258,5.258,0,0,1,56.734,12.711Zm2.258.164a3.328,3.328,0,0,0,.414,1.82,1.349,1.349,0,0,0,1.2.633,1.511,1.511,0,0,0,1.477-.883V11.109a1.489,1.489,0,0,0-1.461-.883Q58.992,10.227,58.992,12.875ZM68.484,17H66.219V8.547h2.266Zm-2.4-10.641a1.112,1.112,0,0,1,.34-.836,1.465,1.465,0,0,1,1.848,0,1.105,1.105,0,0,1,.344.836,1.108,1.108,0,0,1-.348.844,1.448,1.448,0,0,1-1.836,0A1.108,1.108,0,0,1,66.086,6.359Zm6.852,8.82H77.07V17H70.055V15.625l3.977-5.25H70.172V8.547h6.773V9.883ZM83.383,17a2.507,2.507,0,0,1-.227-.758,2.732,2.732,0,0,1-2.133.914,3,3,0,0,1-2.059-.719,2.312,2.312,0,0,1-.816-1.812,2.389,2.389,0,0,1,1-2.062,4.915,4.915,0,0,1,2.879-.727h1.039v-.484a1.393,1.393,0,0,0-.3-.937,1.183,1.183,0,0,0-.949-.352,1.345,1.345,0,0,0-.895.273.929.929,0,0,0-.324.75H78.336a2.268,2.268,0,0,1,.453-1.359,3,3,0,0,1,1.281-.98,4.669,4.669,0,0,1,1.859-.355,3.689,3.689,0,0,1,2.48.785,2.747,2.747,0,0,1,.918,2.207v3.664a4.041,4.041,0,0,0,.336,1.82V17Zm-1.867-1.57a1.945,1.945,0,0,0,.922-.223,1.462,1.462,0,0,0,.625-.6V13.156h-.844q-1.7,0-1.8,1.172l-.008.133a.9.9,0,0,0,.3.7A1.153,1.153,0,0,0,81.516,15.43Zm7.938-6.883v8.914a3.024,3.024,0,0,1-.742,2.176,2.821,2.821,0,0,1-2.141.777,4.591,4.591,0,0,1-1.117-.133V18.492a4.238,4.238,0,0,0,.711.07q1.023,0,1.023-1.086V8.547ZM87.008,6.359a1.112,1.112,0,0,1,.34-.836,1.47,1.47,0,0,1,1.852,0,1.112,1.112,0,0,1,.34.836,1.108,1.108,0,0,1-.348.844,1.448,1.448,0,0,1-1.836,0A1.108,1.108,0,0,1,87.008,6.359Zm8.1,10.8a4.15,4.15,0,0,1-3.027-1.141,4.054,4.054,0,0,1-1.168-3.039v-.219a5.106,5.106,0,0,1,.492-2.277A3.612,3.612,0,0,1,92.8,8.934a3.914,3.914,0,0,1,2.059-.543,3.508,3.508,0,0,1,2.73,1.094,4.444,4.444,0,0,1,1,3.1v.922H93.2a2.1,2.1,0,0,0,.66,1.328,2,2,0,0,0,1.395.5,2.437,2.437,0,0,0,2.039-.945l1.109,1.242a3.389,3.389,0,0,1-1.375,1.121A4.511,4.511,0,0,1,95.109,17.156Zm-.258-6.937a1.414,1.414,0,0,0-1.09.453,2.341,2.341,0,0,0-.535,1.3h3.141v-.18a1.669,1.669,0,0,0-.406-1.16A1.459,1.459,0,0,0,94.852,10.219ZM18.668,37.609l-.812.813V41H15.6V29h2.258v6.648l.438-.562,2.164-2.539h2.711L20.113,36.07,23.434,41H20.84ZM26.527,41H24.262V32.547h2.266Zm-2.4-10.641a1.112,1.112,0,0,1,.34-.836,1.465,1.465,0,0,1,1.848,0,1.193,1.193,0,0,1,0,1.68,1.448,1.448,0,0,1-1.836,0A1.108,1.108,0,0,1,24.129,30.359Zm6.336,2.188.07.977a2.951,2.951,0,0,1,2.43-1.133,2.453,2.453,0,0,1,2,.789,3.682,3.682,0,0,1,.672,2.359V41H33.379V35.594a1.465,1.465,0,0,0-.312-1.043,1.4,1.4,0,0,0-1.039-.324,1.553,1.553,0,0,0-1.43.813V41H28.34V32.547Zm10.773,8.609a4.15,4.15,0,0,1-3.027-1.141,4.054,4.054,0,0,1-1.168-3.039v-.219a5.106,5.106,0,0,1,.492-2.277,3.612,3.612,0,0,1,1.395-1.547,3.914,3.914,0,0,1,2.059-.543,3.508,3.508,0,0,1,2.73,1.094,4.444,4.444,0,0,1,1,3.1v.922H39.332a2.1,2.1,0,0,0,.66,1.328,2,2,0,0,0,1.395.5,2.437,2.437,0,0,0,2.039-.945l1.109,1.242a3.389,3.389,0,0,1-1.375,1.121A4.511,4.511,0,0,1,41.238,41.156Zm-.258-6.937a1.414,1.414,0,0,0-1.09.453,2.341,2.341,0,0,0-.535,1.3H42.5v-.18a1.669,1.669,0,0,0-.406-1.16A1.459,1.459,0,0,0,40.98,34.219Zm9.594,4.445a.727.727,0,0,0-.41-.652,4.659,4.659,0,0,0-1.316-.426q-3.016-.633-3.016-2.562a2.323,2.323,0,0,1,.934-1.879,3.766,3.766,0,0,1,2.441-.754,4.053,4.053,0,0,1,2.574.758,2.388,2.388,0,0,1,.965,1.969H50.488a1.092,1.092,0,0,0-.312-.8A1.322,1.322,0,0,0,49.2,34a1.351,1.351,0,0,0-.883.258.814.814,0,0,0-.312.656.7.7,0,0,0,.355.605,3.657,3.657,0,0,0,1.2.4,9.8,9.8,0,0,1,1.422.379A2.336,2.336,0,0,1,52.77,38.57a2.205,2.205,0,0,1-.992,1.871,4.28,4.28,0,0,1-2.562.715,4.47,4.47,0,0,1-1.887-.379,3.166,3.166,0,0,1-1.293-1.039,2.414,2.414,0,0,1-.469-1.426h2.141a1.179,1.179,0,0,0,.445.922,1.766,1.766,0,0,0,1.109.32,1.635,1.635,0,0,0,.98-.246A.766.766,0,0,0,50.574,38.664Zm6.352-8.2v2.078h1.445V34.2H56.926v4.219a1.007,1.007,0,0,0,.18.672.9.9,0,0,0,.688.2,3.6,3.6,0,0,0,.664-.055v1.711a4.648,4.648,0,0,1-1.367.2,2.156,2.156,0,0,1-2.422-2.4V34.2H53.434V32.547h1.234V30.469ZM63.52,41.156a4.15,4.15,0,0,1-3.027-1.141,4.054,4.054,0,0,1-1.168-3.039v-.219a5.106,5.106,0,0,1,.492-2.277,3.612,3.612,0,0,1,1.395-1.547,3.914,3.914,0,0,1,2.059-.543A3.508,3.508,0,0,1,66,33.484a4.444,4.444,0,0,1,1,3.1v.922H61.613a2.1,2.1,0,0,0,.66,1.328,2,2,0,0,0,1.395.5,2.437,2.437,0,0,0,2.039-.945l1.109,1.242a3.389,3.389,0,0,1-1.375,1.121A4.511,4.511,0,0,1,63.52,41.156Zm-.258-6.937a1.414,1.414,0,0,0-1.09.453,2.341,2.341,0,0,0-.535,1.3h3.141v-.18a1.669,1.669,0,0,0-.406-1.16A1.459,1.459,0,0,0,63.262,34.219Zm.2-5.219h2.461l-2.164,2.422H61.926Zm9.391,9.664a.727.727,0,0,0-.41-.652,4.659,4.659,0,0,0-1.316-.426q-3.016-.633-3.016-2.562a2.323,2.323,0,0,1,.934-1.879,3.766,3.766,0,0,1,2.441-.754,4.053,4.053,0,0,1,2.574.758,2.388,2.388,0,0,1,.965,1.969H72.77a1.092,1.092,0,0,0-.312-.8A1.322,1.322,0,0,0,71.48,34a1.351,1.351,0,0,0-.883.258.814.814,0,0,0-.312.656.7.7,0,0,0,.355.605,3.657,3.657,0,0,0,1.2.4,9.8,9.8,0,0,1,1.422.379,2.336,2.336,0,0,1,1.789,2.273,2.2,2.2,0,0,1-.992,1.871,4.28,4.28,0,0,1-2.562.715,4.47,4.47,0,0,1-1.887-.379,3.166,3.166,0,0,1-1.293-1.039,2.414,2.414,0,0,1-.469-1.426h2.141a1.179,1.179,0,0,0,.445.922,1.766,1.766,0,0,0,1.109.32,1.635,1.635,0,0,0,.98-.246A.766.766,0,0,0,72.855,38.664ZM78.887,41H76.621V32.547h2.266Zm-2.4-10.641a1.112,1.112,0,0,1,.34-.836,1.465,1.465,0,0,1,1.848,0,1.193,1.193,0,0,1,0,1.68,1.448,1.448,0,0,1-1.836,0A1.108,1.108,0,0,1,76.488,30.359Zm7.773,8.977a1.481,1.481,0,0,0,1.016-.344,1.2,1.2,0,0,0,.406-.914H87.8a2.9,2.9,0,0,1-.469,1.574,3.093,3.093,0,0,1-1.262,1.109,3.949,3.949,0,0,1-1.77.395A3.67,3.67,0,0,1,81.441,40a4.56,4.56,0,0,1-1.047-3.184v-.148a4.508,4.508,0,0,1,1.039-3.117,3.627,3.627,0,0,1,2.852-1.164,3.555,3.555,0,0,1,2.543.9,3.2,3.2,0,0,1,.973,2.4H85.684a1.539,1.539,0,0,0-.406-1.066,1.513,1.513,0,0,0-2.223.164,3.324,3.324,0,0,0-.4,1.863v.234a3.366,3.366,0,0,0,.4,1.875A1.378,1.378,0,0,0,84.262,39.336ZM88.738,36.7a5.013,5.013,0,0,1,.484-2.242,3.546,3.546,0,0,1,1.395-1.523,4.069,4.069,0,0,1,2.113-.539,3.849,3.849,0,0,1,2.793,1.047,4.2,4.2,0,0,1,1.207,2.844l.016.578A4.418,4.418,0,0,1,95.66,39.98a4.209,4.209,0,0,1-5.832,0,4.5,4.5,0,0,1-1.09-3.187ZM91,36.859a3.151,3.151,0,0,0,.453,1.84,1.629,1.629,0,0,0,2.578.008,3.448,3.448,0,0,0,.461-2.012,3.12,3.12,0,0,0-.461-1.828,1.5,1.5,0,0,0-1.3-.648,1.475,1.475,0,0,0-1.281.645A3.506,3.506,0,0,0,91,36.859Z" transform="translate(884 5079.729)" fill="#fff"/>
    <path id="Trazado_194015" data-name="Trazado 194015" d="M39.137,17.77H32.668v4.066h7.641V25H28.555V7.938H40.332v3.176H32.668v3.6h6.469Zm9.3,3.668a.912.912,0,0,0-.527-.809,8.021,8.021,0,0,0-2-.633,9.138,9.138,0,0,1-2.437-.861,4.083,4.083,0,0,1-1.465-1.295,3.092,3.092,0,0,1-.5-1.746,3.5,3.5,0,0,1,1.441-2.877,5.938,5.938,0,0,1,3.773-1.131,6.579,6.579,0,0,1,4.031,1.137,3.555,3.555,0,0,1,1.523,2.988H48.313q0-1.523-1.605-1.523a1.591,1.591,0,0,0-1.043.346,1.07,1.07,0,0,0-.422.861.982.982,0,0,0,.516.855,4.872,4.872,0,0,0,1.646.539,14.228,14.228,0,0,1,1.986.5q2.859.984,2.859,3.527a3.321,3.321,0,0,1-1.541,2.824,6.758,6.758,0,0,1-3.99,1.09,6.9,6.9,0,0,1-2.906-.586,4.86,4.86,0,0,1-1.992-1.594,3.609,3.609,0,0,1-.715-2.121H44.8a1.526,1.526,0,0,0,.586,1.283,2.41,2.41,0,0,0,1.441.4,1.9,1.9,0,0,0,1.213-.328A1.05,1.05,0,0,0,48.441,21.438ZM58.7,9.168V12.32h2.086v2.742H58.7v5.8a1.481,1.481,0,0,0,.258,1,1.383,1.383,0,0,0,1.02.281,5.793,5.793,0,0,0,.984-.07v2.824a7.288,7.288,0,0,1-2.227.34,4.137,4.137,0,0,1-3.012-.961,3.939,3.939,0,0,1-.973-2.918V15.063H53.129V12.32h1.617V9.168ZM66.5,25H62.539V12.32H66.5ZM62.3,9.051a1.763,1.763,0,0,1,.609-1.383,2.591,2.591,0,0,1,3.164,0,1.763,1.763,0,0,1,.609,1.383,1.763,1.763,0,0,1-.609,1.383,2.591,2.591,0,0,1-3.164,0A1.763,1.763,0,0,1,62.3,9.051ZM73.1,25H69.137V7H73.1Zm1.934-6.457a7.484,7.484,0,0,1,.738-3.381,5.28,5.28,0,0,1,2.121-2.279,6.388,6.388,0,0,1,3.246-.8,5.83,5.83,0,0,1,4.488,1.764,6.768,6.768,0,0,1,1.641,4.8v.141a6.566,6.566,0,0,1-1.646,4.705,5.846,5.846,0,0,1-4.459,1.74,5.912,5.912,0,0,1-4.348-1.623,6.348,6.348,0,0,1-1.77-4.4Zm3.949.246a4.718,4.718,0,0,0,.551,2.578,1.835,1.835,0,0,0,1.629.82q2.109,0,2.156-3.246v-.4q0-3.41-2.18-3.41-1.98,0-2.145,2.941Zm16.664,2.648a.912.912,0,0,0-.527-.809,8.021,8.021,0,0,0-2-.633,9.138,9.138,0,0,1-2.437-.861,4.083,4.083,0,0,1-1.465-1.295,3.092,3.092,0,0,1-.5-1.746,3.5,3.5,0,0,1,1.441-2.877,5.938,5.938,0,0,1,3.773-1.131,6.579,6.579,0,0,1,4.031,1.137,3.555,3.555,0,0,1,1.523,2.988H95.516q0-1.523-1.605-1.523a1.591,1.591,0,0,0-1.043.346,1.07,1.07,0,0,0-.422.861.982.982,0,0,0,.516.855,4.872,4.872,0,0,0,1.646.539,14.228,14.228,0,0,1,1.986.5q2.859.984,2.859,3.527a3.321,3.321,0,0,1-1.541,2.824,6.758,6.758,0,0,1-3.99,1.09,6.9,6.9,0,0,1-2.906-.586,4.86,4.86,0,0,1-1.992-1.594,3.609,3.609,0,0,1-.715-2.121H92a1.526,1.526,0,0,0,.586,1.283,2.41,2.41,0,0,0,1.441.4,1.9,1.9,0,0,0,1.213-.328A1.05,1.05,0,0,0,95.645,21.438Zm11.133-2.871a7.746,7.746,0,0,1,1.3-4.746,4.282,4.282,0,0,1,3.633-1.734,3.641,3.641,0,0,1,2.859,1.336V7h3.961V25H114.98l-.2-1.359a3.739,3.739,0,0,1-3.094,1.594A4.274,4.274,0,0,1,108.1,23.5,7.991,7.991,0,0,1,106.777,18.566Zm3.949.246q0,3.375,1.969,3.375a1.944,1.944,0,0,0,1.875-1.1V16.258a1.892,1.892,0,0,0-1.852-1.125q-1.828,0-1.98,2.953Zm16.184,6.422a6.518,6.518,0,0,1-4.723-1.74,6.009,6.009,0,0,1-1.8-4.529v-.328A7.787,7.787,0,0,1,121.1,15.2a5.274,5.274,0,0,1,2.1-2.3,6.35,6.35,0,0,1,3.281-.814,5.489,5.489,0,0,1,4.219,1.658,6.516,6.516,0,0,1,1.547,4.623V19.9H124.4a2.846,2.846,0,0,0,.926,1.676,2.755,2.755,0,0,0,1.852.609,3.549,3.549,0,0,0,2.93-1.312l1.8,2.133a5.045,5.045,0,0,1-2.092,1.623A7.069,7.069,0,0,1,126.91,25.234Zm-.445-10.1q-1.734,0-2.062,2.3h3.984v-.3a1.956,1.956,0,0,0-.48-1.471A1.912,1.912,0,0,0,126.465,15.133ZM24.91,49a4.459,4.459,0,0,1-.375-1.137,3.672,3.672,0,0,1-3.047,1.371,4.5,4.5,0,0,1-3.047-1.084,3.45,3.45,0,0,1-1.254-2.725,3.546,3.546,0,0,1,1.523-3.117,7.761,7.761,0,0,1,4.43-1.055h1.219v-.668q0-1.746-1.512-1.746a1.233,1.233,0,0,0-1.406,1.383H17.492a3.546,3.546,0,0,1,1.564-2.988,6.569,6.569,0,0,1,3.99-1.148,5.764,5.764,0,0,1,3.832,1.184,4.115,4.115,0,0,1,1.441,3.246v5.613a5.748,5.748,0,0,0,.539,2.672V49Zm-2.473-2.578a2.2,2.2,0,0,0,1.225-.316,1.983,1.983,0,0,0,.7-.715V43.363H23.211q-2.062,0-2.062,1.852a1.131,1.131,0,0,0,.363.873A1.315,1.315,0,0,0,22.438,46.422Zm19.84-3.668a7.646,7.646,0,0,1-1.33,4.717,4.264,4.264,0,0,1-3.592,1.764,3.655,3.655,0,0,1-2.871-1.277v5.918H30.535V36.32h3.691l.117,1.172a3.656,3.656,0,0,1,2.988-1.406,4.3,4.3,0,0,1,3.645,1.729,7.741,7.741,0,0,1,1.3,4.752Zm-3.949-.246q0-3.375-1.969-3.375a1.859,1.859,0,0,0-1.875,1.008v4.992a1.919,1.919,0,0,0,1.9,1.055q1.887,0,1.945-3.258Zm13.359-2.613-1.3-.094A2.336,2.336,0,0,0,48,40.973V49H44.047V36.32h3.7l.129,1.629a3.058,3.058,0,0,1,2.777-1.863,3.851,3.851,0,0,1,1.1.141Zm7.559,9.34a6.518,6.518,0,0,1-4.723-1.74,6.009,6.009,0,0,1-1.8-4.529v-.328a7.787,7.787,0,0,1,.721-3.434,5.274,5.274,0,0,1,2.1-2.3,6.35,6.35,0,0,1,3.281-.814,5.489,5.489,0,0,1,4.219,1.658,6.516,6.516,0,0,1,1.547,4.623V43.9H56.738a2.846,2.846,0,0,0,.926,1.676,2.755,2.755,0,0,0,1.852.609,3.549,3.549,0,0,0,2.93-1.312l1.8,2.133a5.045,5.045,0,0,1-2.092,1.623A7.069,7.069,0,0,1,59.246,49.234Zm-.445-10.1q-1.734,0-2.062,2.3h3.984v-.3a1.956,1.956,0,0,0-.48-1.471A1.912,1.912,0,0,0,58.8,39.133Zm11-2.812.129,1.488a4.3,4.3,0,0,1,3.621-1.723,3.618,3.618,0,0,1,2.959,1.184,5.635,5.635,0,0,1,1.014,3.563V49H73.566V41a2.14,2.14,0,0,0-.387-1.412,1.789,1.789,0,0,0-1.406-.451,1.883,1.883,0,0,0-1.723.914V49H66.1V36.32Zm9.41,6.246a7.746,7.746,0,0,1,1.3-4.746,4.282,4.282,0,0,1,3.633-1.734,3.641,3.641,0,0,1,2.859,1.336V31h3.961V49H87.418l-.2-1.359a3.739,3.739,0,0,1-3.094,1.594A4.274,4.274,0,0,1,80.539,47.5,7.991,7.991,0,0,1,79.215,42.566Zm3.949.246q0,3.375,1.969,3.375a1.944,1.944,0,0,0,1.875-1.1V40.258a1.892,1.892,0,0,0-1.852-1.125q-1.828,0-1.98,2.953ZM97.379,49H93.418V36.32h3.961Zm-4.2-15.949a1.763,1.763,0,0,1,.609-1.383,2.591,2.591,0,0,1,3.164,0,1.874,1.874,0,0,1,0,2.766,2.591,2.591,0,0,1-3.164,0A1.763,1.763,0,0,1,93.184,33.051Zm11.285,12.9h5.777V49H99.477V46.8l5.625-7.43H99.723V36.32h10.395v2.133ZM119.3,49a4.459,4.459,0,0,1-.375-1.137,3.672,3.672,0,0,1-3.047,1.371,4.5,4.5,0,0,1-3.047-1.084,3.45,3.45,0,0,1-1.254-2.725,3.546,3.546,0,0,1,1.523-3.117,7.761,7.761,0,0,1,4.43-1.055h1.219v-.668q0-1.746-1.512-1.746a1.233,1.233,0,0,0-1.406,1.383h-3.949a3.546,3.546,0,0,1,1.564-2.988,6.569,6.569,0,0,1,3.99-1.148,5.764,5.764,0,0,1,3.832,1.184,4.115,4.115,0,0,1,1.441,3.246v5.613a5.748,5.748,0,0,0,.539,2.672V49Zm-2.473-2.578a2.2,2.2,0,0,0,1.225-.316,1.983,1.983,0,0,0,.7-.715V43.363h-1.148q-2.062,0-2.062,1.852a1.131,1.131,0,0,0,.363.873A1.315,1.315,0,0,0,116.832,46.422Zm12.316-10.1V49.434a4.6,4.6,0,0,1-1.289,3.469,4.952,4.952,0,0,1-3.562,1.219,8.411,8.411,0,0,1-1.863-.2V50.934a7.556,7.556,0,0,0,1.113.105,1.445,1.445,0,0,0,1.641-1.629V36.32Zm-4.254-3.27a1.763,1.763,0,0,1,.609-1.383,2.591,2.591,0,0,1,3.164,0,1.874,1.874,0,0,1,0,2.766,2.591,2.591,0,0,1-3.164,0A1.763,1.763,0,0,1,124.895,33.051Zm12.621,16.184a6.518,6.518,0,0,1-4.723-1.74,6.009,6.009,0,0,1-1.8-4.529v-.328a7.787,7.787,0,0,1,.721-3.434,5.274,5.274,0,0,1,2.1-2.3,6.35,6.35,0,0,1,3.281-.814,5.489,5.489,0,0,1,4.219,1.658,6.516,6.516,0,0,1,1.547,4.623V43.9h-7.852a2.846,2.846,0,0,0,.926,1.676,2.755,2.755,0,0,0,1.852.609,3.549,3.549,0,0,0,2.93-1.312l1.8,2.133a5.045,5.045,0,0,1-2.092,1.623A7.069,7.069,0,0,1,137.516,49.234Zm-.445-10.1q-1.734,0-2.062,2.3h3.984v-.3a1.956,1.956,0,0,0-.48-1.471A1.912,1.912,0,0,0,137.07,39.133Z" transform="translate(721 4978.463)" fill="#12263f"/>
  </g>
</svg>
