<svg xmlns="http://www.w3.org/2000/svg" xmlns:xlink="http://www.w3.org/1999/xlink" width="190" height="110.333" viewBox="0 0 190 110.333">
  <defs>
    <linearGradient id="linear-gradient" x1="0.5" x2="0.5" y2="1" gradientUnits="objectBoundingBox">
      <stop offset="0" stop-color="#f7ca2e" stop-opacity="0"/>
      <stop offset="0.091" stop-color="#f7ca2e" stop-opacity="0.129"/>
      <stop offset="0.283" stop-color="#f7ca2e" stop-opacity="0.388"/>
      <stop offset="0.465" stop-color="#f7ca2e" stop-opacity="0.612"/>
      <stop offset="0.633" stop-color="#f7ca2e" stop-opacity="0.78"/>
      <stop offset="0.784" stop-color="#f7ca2e" stop-opacity="0.902"/>
      <stop offset="0.911" stop-color="#f7ca2e" stop-opacity="0.969"/>
      <stop offset="1" stop-color="#f7ca2e"/>
    </linearGradient>
    <linearGradient id="linear-gradient-2" x1="0.5" x2="0.5" y2="1" gradientUnits="objectBoundingBox">
      <stop offset="0" stop-color="#b13e8d" stop-opacity="0"/>
      <stop offset="0.091" stop-color="#b13e8d" stop-opacity="0.129"/>
      <stop offset="0.283" stop-color="#b13e8d" stop-opacity="0.388"/>
      <stop offset="0.465" stop-color="#b13e8d" stop-opacity="0.612"/>
      <stop offset="0.633" stop-color="#b13e8d" stop-opacity="0.78"/>
      <stop offset="0.784" stop-color="#b13e8d"/>
      <stop offset="0.911" stop-color="#b13e8d" stop-opacity="0.969"/>
      <stop offset="1" stop-color="#b13e8d"/>
    </linearGradient>
    <filter id="Rectángulo_40717" x="41" y="1" width="108" height="108" filterUnits="userSpaceOnUse">
      <feOffset dy="3" input="SourceAlpha"/>
      <feGaussianBlur stdDeviation="3" result="blur"/>
      <feFlood flood-opacity="0.161"/>
      <feComposite operator="in" in2="blur"/>
      <feComposite in="SourceGraphic"/>
    </filter>
    <clipPath id="clip-path">
      <rect id="Rectángulo_43713" data-name="Rectángulo 43713" width="63" height="63" fill="none"/>
    </clipPath>
  </defs>
  <g id="Grupo_136657" data-name="Grupo 136657" transform="translate(-180 -5078)">
    <g id="Grupo_136235" data-name="Grupo 136235" transform="translate(0 4678)">
      <rect id="Rectángulo_40586" data-name="Rectángulo 40586" width="190" height="20" transform="translate(180 442)" fill="none"/>
      <g id="Grupo_108405" data-name="Grupo 108405" transform="translate(209.5 464)">
        <path id="Rectángulo_5242" data-name="Rectángulo 5242" d="M0,0H12a0,0,0,0,1,0,0V43.333a3,3,0,0,1-3,3H3a3,3,0,0,1-3-3V0A0,0,0,0,1,0,0Z" transform="translate(0 0)" fill="url(#linear-gradient)"/>
      </g>
      <g id="Grupo_108406" data-name="Grupo 108406" transform="translate(340 452) rotate(180)">
        <path id="Rectángulo_5242-2" data-name="Rectángulo 5242" d="M0,0H12a0,0,0,0,1,0,0V49a3,3,0,0,1-3,3H3a3,3,0,0,1-3-3V0A0,0,0,0,1,0,0Z" transform="translate(0 0)" fill="url(#linear-gradient-2)"/>
      </g>
      <g transform="matrix(1, 0, 0, 1, 180, 400)" filter="url(#Rectángulo_40717)">
        <path id="Rectángulo_40717-2" data-name="Rectángulo 40717" d="M10,0H80A10,10,0,0,1,90,10V90a0,0,0,0,1,0,0H10A10,10,0,0,1,0,80V10A10,10,0,0,1,10,0Z" transform="translate(50 7)" fill="#f6f6f6"/>
      </g>
    </g>
    <g id="Grupo_136467" data-name="Grupo 136467" transform="translate(244 5098)">
      <g id="Grupo_136466" data-name="Grupo 136466" clip-path="url(#clip-path)">
        <path id="Trazado_193558" data-name="Trazado 193558" d="M22.837,105.976H4.967A4.973,4.973,0,0,1,0,101.009V71.752a1.154,1.154,0,0,1,.46-.923l7.31-7.31a4.453,4.453,0,0,1,6.29,0l.029.029,6.576,7.057,2.174,0a5.288,5.288,0,0,1,3.3,9.417,5.284,5.284,0,0,1-.008,8.261,5.284,5.284,0,0,1,0,8.267,5.288,5.288,0,0,1-3.3,9.423M2.312,72.247v28.762a2.658,2.658,0,0,0,2.655,2.655h17.87a2.977,2.977,0,1,0,0-5.955h-2.3a1.156,1.156,0,0,1,0-2.312h2.3a2.978,2.978,0,0,0,0-5.955h-2.3a1.156,1.156,0,1,1,0-2.312h2.3a2.978,2.978,0,0,0,.219-5.947q-.109,0-.219,0l-2.3-.012a1.156,1.156,0,1,1,0-2.312h2.3q.112,0,.223,0a2.981,2.981,0,0,0-.223-5.953H14.785a1.158,1.158,0,0,1,0-2.317H17.5L12.413,65.14a2.135,2.135,0,0,0-3.008.013Z" transform="translate(0 -42.976)" fill="#6836b1"/>
        <path id="Trazado_193559" data-name="Trazado 193559" d="M135.924,105.977h-17.87a5.288,5.288,0,0,1-3.3-9.423,5.284,5.284,0,0,1,0-8.267,5.284,5.284,0,0,1-.007-8.261,5.287,5.287,0,0,1,3.3-9.416l2.172,0,6.576-7.057.029-.029a4.452,4.452,0,0,1,6.289,0l7.311,7.31a1.154,1.154,0,0,1,.46.923V101.01a4.972,4.972,0,0,1-4.967,4.967m-17.87-8.267a2.978,2.978,0,0,0,0,5.955h17.87a2.658,2.658,0,0,0,2.655-2.655V72.247l-7.094-7.093a2.138,2.138,0,0,0-3.008-.013L123.39,70.6H126.1a1.158,1.158,0,0,1,0,2.317h-8.05a2.981,2.981,0,0,0-.22,5.953q.109,0,.219,0h2.3a1.156,1.156,0,1,1,0,2.312l-2.293.013c-.075,0-.149,0-.223,0a2.978,2.978,0,0,0,.216,5.947h2.3a1.156,1.156,0,1,1,0,2.312h-2.3a2.977,2.977,0,0,0,0,5.955h2.3a1.156,1.156,0,1,1,0,2.312Z" transform="translate(-77.891 -42.977)" fill="#6836b1"/>
        <path id="Trazado_193560" data-name="Trazado 193560" d="M99.273,14.187a1.156,1.156,0,0,1-1.156-1.156V1.156a1.156,1.156,0,0,1,2.312,0V13.031a1.156,1.156,0,0,1-1.156,1.156" transform="translate(-67.773)" fill="#6836b1"/>
        <path id="Trazado_193561" data-name="Trazado 193561" d="M61.333,32.577a1.155,1.155,0,0,1-.977-.535l-5.13-8.062a1.156,1.156,0,0,1,1.951-1.241l5.13,8.062a1.156,1.156,0,0,1-.974,1.777" transform="translate(-38.022 -15.336)" fill="#6836b1"/>
        <path id="Trazado_193562" data-name="Trazado 193562" d="M125.754,32.577a1.156,1.156,0,0,1-.974-1.777l5.13-8.062a1.156,1.156,0,0,1,1.951,1.241l-5.13,8.062a1.155,1.155,0,0,1-.976.535" transform="translate(-86.065 -15.336)" fill="#6836b1"/>
      </g>
    </g>
  </g>
</svg>
