<svg xmlns="http://www.w3.org/2000/svg" xmlns:xlink="http://www.w3.org/1999/xlink" width="80" height="80" viewBox="0 0 80 80">
  <defs>
    <clipPath id="clip-path">
      <rect id="Rectángulo_43743" data-name="Rectángulo 43743" width="50" height="50" fill="none"/>
    </clipPath>
  </defs>
  <g id="Grupo_136591" data-name="Grupo 136591" transform="translate(-190 -5462)">
    <circle id="Elipse_5367" data-name="Elipse 5367" cx="40" cy="40" r="40" transform="translate(190 5462)" fill="#b13e8d"/>
    <g id="Grupo_136548" data-name="Grupo 136548" transform="translate(205 5477)">
      <g id="Grupo_136547" data-name="Grupo 136547" clip-path="url(#clip-path)">
        <path id="Trazado_193675" data-name="Trazado 193675" d="M.962,28.65H26.439a.961.961,0,0,0,.961-.961V17.542c0-3.646-2.663-4.679-4.426-5.363,0,0-2.093-.817-3.445-1.342a6.989,6.989,0,1,0-11.659,0c-1.351.524-3.444,1.341-3.444,1.341C2.664,12.863,0,13.9,0,17.542V27.688a.962.962,0,0,0,.962.961M13.7,1.923A5.066,5.066,0,1,1,8.634,6.989,5.072,5.072,0,0,1,13.7,1.923M1.923,17.542c0-2.168,1.266-2.821,3.2-3.571,0,0,2.52-.982,4.121-1.6a6.975,6.975,0,0,0,8.914,0c1.6.621,4.122,1.6,4.122,1.6,1.932.75,3.2,1.4,3.2,3.57v9.185H22.131V20.361a.962.962,0,1,0-1.923,0v6.366H7.192V20.361a.961.961,0,1,0-1.923,0v6.366H1.923Z" fill="#fff"/>
        <path id="Trazado_193676" data-name="Trazado 193676" d="M86.673,2.222a5.066,5.066,0,0,1,5.292,8.355.961.961,0,0,0,.331,1.578c1.783.691,4.672,1.818,4.672,1.818,1.932.749,3.2,1.4,3.2,3.57v9.185h-5.5a.961.961,0,1,0,0,1.923h6.461a.962.962,0,0,0,.962-.962V17.542c0-3.646-2.663-4.679-4.425-5.363,0,0-2.092-.817-3.44-1.339A6.991,6.991,0,0,0,86.021.412a.961.961,0,1,0,.652,1.809" transform="translate(-63.42)" fill="#fff"/>
        <path id="Trazado_193677" data-name="Trazado 193677" d="M141.711,12.179s-2.092-.817-3.44-1.339a6.991,6.991,0,0,0-8.2-10.427.961.961,0,0,0,.652,1.809,5.066,5.066,0,0,1,5.292,8.355.962.962,0,0,0,.331,1.578c1.783.691,4.672,1.817,4.672,1.817,1.932.749,3.2,1.4,3.2,3.57v9.185h-5.5a.962.962,0,0,0,0,1.923h6.462a.962.962,0,0,0,.961-.962V17.542c0-3.646-2.663-4.679-4.426-5.363" transform="translate(-96.137)" fill="#fff"/>
        <path id="Trazado_193678" data-name="Trazado 193678" d="M19.694,150.31a.962.962,0,0,0-.962.962,4.443,4.443,0,0,1-4.438,4.438H6.361a4.438,4.438,0,1,1,0-8.876h6.978a.962.962,0,1,0,0-1.923H6.361a6.361,6.361,0,1,0,0,12.722h7.933a6.368,6.368,0,0,0,6.361-6.361.962.962,0,0,0-.962-.962" transform="translate(0 -107.632)" fill="#fff"/>
        <path id="Trazado_193679" data-name="Trazado 193679" d="M70.374,144.91H63.4a6.368,6.368,0,0,0-6.361,6.361.962.962,0,1,0,1.923,0,4.443,4.443,0,0,1,4.438-4.438h6.978a.962.962,0,1,0,0-1.923" transform="translate(-42.363 -107.632)" fill="#fff"/>
        <path id="Trazado_193680" data-name="Trazado 193680" d="M94.389,165.9a.962.962,0,0,0-.962.962,4.443,4.443,0,0,1-4.438,4.438H81.773a.962.962,0,1,0,0,1.923h7.217a6.368,6.368,0,0,0,6.361-6.361.962.962,0,0,0-.962-.962" transform="translate(-60.023 -123.223)" fill="#fff"/>
        <path id="Trazado_193681" data-name="Trazado 193681" d="M128.365,144.91h-7.933a6.368,6.368,0,0,0-6.361,6.361.962.962,0,1,0,1.923,0,4.443,4.443,0,0,1,4.438-4.438h7.933a4.438,4.438,0,1,1,0,8.876h-7.217a.962.962,0,1,0,0,1.923h7.217a6.361,6.361,0,1,0,0-12.722" transform="translate(-84.727 -107.632)" fill="#fff"/>
      </g>
    </g>
  </g>
</svg>
