<svg xmlns="http://www.w3.org/2000/svg" xmlns:xlink="http://www.w3.org/1999/xlink" width="80" height="80" viewBox="0 0 80 80">
  <defs>
    <clipPath id="clip-path">
      <rect id="Rectángulo_43744" data-name="Rectángulo 43744" width="50" height="50" fill="#fff"/>
    </clipPath>
  </defs>
  <g id="Grupo_136589" data-name="Grupo 136589" transform="translate(-190 -5592)">
    <circle id="Elipse_5368" data-name="Elipse 5368" cx="40" cy="40" r="40" transform="translate(190 5592)" fill="#b13e8d"/>
    <g id="Grupo_136550" data-name="Grupo 136550" transform="translate(205 5607)">
      <g id="Grupo_136549" data-name="Grupo 136549" clip-path="url(#clip-path)">
        <path id="Trazado_193682" data-name="Trazado 193682" d="M45.563,111.309l-3.408-1.337a7.007,7.007,0,1,0-11.727.008c-1.339.52-3.414,1.329-3.414,1.329a12.277,12.277,0,0,0-2.017.937,12.322,12.322,0,0,0-2.012-.937l-3.408-1.337a7.007,7.007,0,1,0-11.727.008c-1.339.52-3.413,1.329-3.413,1.329C2.67,111.994,0,113.03,0,116.69v5.333a.985.985,0,0,0,.985.985h48.03a.985.985,0,0,0,.985-.985V116.69c0-3.659-2.67-4.7-4.437-5.381m-9.274-10.2a5.036,5.036,0,1,1-5.036,5.036,5.042,5.042,0,0,1,5.036-5.036m-22.578,0a5.036,5.036,0,1,1-5.036,5.036,5.042,5.042,0,0,1,5.036-5.036M1.971,116.69c0-2.15,1.259-2.8,3.179-3.544,0,0,2.513-.98,4.1-1.6a6.994,6.994,0,0,0,8.915,0c1.6.619,4.1,1.6,4.1,1.6.429.167.824.329,1.18.5a5.1,5.1,0,0,0-.874,3.04v4.348H1.971Zm46.059,4.348H24.549V116.69c0-2.15,1.259-2.8,3.179-3.544,0,0,2.513-.98,4.1-1.6a6.994,6.994,0,0,0,8.915,0c1.6.619,4.1,1.6,4.1,1.6,1.92.745,3.179,1.394,3.179,3.544Z" transform="translate(0 -73.008)" fill="#fff"/>
        <path id="Trazado_193683" data-name="Trazado 193683" d="M3.718,12.392a.985.985,0,0,0,.985-.985V5.615H10.5a.985.985,0,1,0,0-1.971H3.718a.985.985,0,0,0-.985.985v6.778a.985.985,0,0,0,.985.985" transform="translate(-2.013 -2.684)" fill="#fff"/>
        <path id="Trazado_193684" data-name="Trazado 193684" d="M154.756,5.615h5.792v5.792a.985.985,0,0,0,1.971,0V4.629a.985.985,0,0,0-.985-.985h-6.778a.985.985,0,1,0,0,1.971" transform="translate(-113.239 -2.684)" fill="#fff"/>
        <path id="Trazado_193685" data-name="Trazado 193685" d="M25.246,23.944a.985.985,0,1,0,1.97,0c0-3.4,2.321-4.3,4.566-5.169,0,0,3.213-1.254,5.266-2.05a8.448,8.448,0,0,0,13.085,0c2.056.8,5.266,2.05,5.266,2.05,2.245.871,4.566,1.772,4.566,5.169a.985.985,0,1,0,1.971,0c0-4.747-3.5-6.106-5.824-7.006,0,0-3.047-1.188-4.9-1.907a8.411,8.411,0,0,0,.835-3.662V5.212A5.219,5.219,0,0,0,46.838,0H40.345a5.219,5.219,0,0,0-5.213,5.213v6.157a8.407,8.407,0,0,0,.835,3.662c-1.92.745-4.9,1.907-4.9,1.907-2.319.9-5.824,2.26-5.824,7.006m18.345-6.086A6.5,6.5,0,0,1,37.1,11.369V6.023c1.774,1.283,4.5,1.51,6.984,1.717,4.074.339,5.993.709,5.993,2.625v1a6.5,6.5,0,0,1-6.489,6.489M40.345,1.97h6.492a3.246,3.246,0,0,1,3.243,3.243V6.973c-1.542-.839-3.764-1.024-5.83-1.2-2.838-.236-5.766-.48-6.722-2.165A3.243,3.243,0,0,1,40.345,1.97" transform="translate(-18.592 0.001)" fill="#fff"/>
      </g>
    </g>
  </g>
</svg>
