<svg xmlns="http://www.w3.org/2000/svg" xmlns:xlink="http://www.w3.org/1999/xlink" width="80" height="80" viewBox="0 0 80 80">
  <defs>
    <clipPath id="clip-path">
      <rect id="Rectángulo_43742" data-name="Rectángulo 43742" width="50" height="52.121" fill="none"/>
    </clipPath>
  </defs>
  <g id="Grupo_136588" data-name="Grupo 136588" transform="translate(-190 -5722)">
    <circle id="Elipse_5369" data-name="Elipse 5369" cx="40" cy="40" r="40" transform="translate(190 5722)" fill="#b13e8d"/>
    <g id="Grupo_136546" data-name="Grupo 136546" transform="translate(205 5736)">
      <g id="Grupo_136545" data-name="Grupo 136545" clip-path="url(#clip-path)">
        <path id="Trazado_193669" data-name="Trazado 193669" d="M.845,26.19h25.6a.846.846,0,0,0,.846-.846V17.506c0-3.581-2.63-4.6-4.37-5.276,0,0-1.966-.767-3.6-1.4a6.9,6.9,0,1,0-11.345,0c-1.637.636-3.6,1.4-3.6,1.4C2.63,12.9,0,13.925,0,17.506v7.839a.846.846,0,0,0,.845.846m12.8-24.5A5.211,5.211,0,1,1,8.434,6.9a5.217,5.217,0,0,1,5.211-5.211M1.691,17.506c0-2.423,1.6-3.044,3.29-3.7,0,0,2.332-.909,4.21-1.638a6.882,6.882,0,0,0,8.908,0c1.878.729,4.21,1.638,4.21,1.638,1.692.657,3.29,1.277,3.29,3.7V24.5H22V20.338a.845.845,0,1,0-1.691,0V24.5H6.985V20.338a.845.845,0,1,0-1.691,0V24.5h-3.6Z" transform="translate(0 0)" fill="#fff"/>
        <path id="Trazado_193670" data-name="Trazado 193670" d="M85.2,2a5.211,5.211,0,0,1,5.443,8.595.846.846,0,0,0,.291,1.387c1.792.694,4.695,1.826,4.695,1.826,1.692.657,3.29,1.277,3.29,3.7V24.5H93.274a.846.846,0,0,0,0,1.691h6.493a.845.845,0,0,0,.845-.845V17.506c0-3.581-2.63-4.6-4.37-5.276,0,0-2.189-.854-3.6-1.4A6.9,6.9,0,0,0,84.629.407.845.845,0,0,0,85.2,2" transform="translate(-61.998 0)" fill="#fff"/>
        <path id="Trazado_193671" data-name="Trazado 193671" d="M139.61,12.23s-2.189-.854-3.6-1.4A6.9,6.9,0,0,0,128,.407.845.845,0,1,0,128.57,2a5.211,5.211,0,0,1,5.443,8.595.845.845,0,0,0,.291,1.387c1.792.694,4.694,1.826,4.694,1.826,1.693.656,3.291,1.276,3.291,3.7V24.5h-5.647a.846.846,0,0,0,0,1.691h6.493a.846.846,0,0,0,.845-.846V17.506c0-3.581-2.63-4.6-4.37-5.277" transform="translate(-93.98 0)" fill="#fff"/>
        <path id="Trazado_193672" data-name="Trazado 193672" d="M44.206,120.84H5.794A5.8,5.8,0,0,0,0,126.634v5.244a5.8,5.8,0,0,0,5.794,5.794H7.283L9.1,140.813a.846.846,0,0,0,1.464,0l1.813-3.141H44.206A5.8,5.8,0,0,0,50,131.878v-5.244a5.8,5.8,0,0,0-5.794-5.794m4.1,11.038a4.108,4.108,0,0,1-4.1,4.1H11.886a.845.845,0,0,0-.732.423l-1.325,2.3L8.5,136.4a.845.845,0,0,0-.732-.423H5.794a4.108,4.108,0,0,1-4.1-4.1v-5.244a4.108,4.108,0,0,1,4.1-4.1H44.206a4.108,4.108,0,0,1,4.1,4.1Z" transform="translate(0 -89.115)" fill="#fff"/>
        <path id="Trazado_193673" data-name="Trazado 193673" d="M65.379,141.6H35.008a.846.846,0,0,0,0,1.691H65.379a.846.846,0,0,0,0-1.691" transform="translate(-25.194 -104.423)" fill="#fff"/>
        <path id="Trazado_193674" data-name="Trazado 193674" d="M48.111,157.756h-13.1a.845.845,0,0,0,0,1.691h13.1a.845.845,0,0,0,0-1.691" transform="translate(-25.194 -116.339)" fill="#fff"/>
      </g>
    </g>
  </g>
</svg>
