<svg xmlns="http://www.w3.org/2000/svg" xmlns:xlink="http://www.w3.org/1999/xlink" width="80" height="80" viewBox="0 0 80 80">
  <defs>
    <clipPath id="clip-path">
      <rect id="Rectángulo_43748" data-name="Rectángulo 43748" width="50" height="49.053" fill="#fff"/>
    </clipPath>
  </defs>
  <g id="Grupo_136587" data-name="Grupo 136587" transform="translate(-190 -5852)">
    <circle id="Elipse_5370" data-name="Elipse 5370" cx="40" cy="40" r="40" transform="translate(190 5852)" fill="#b13e8d"/>
    <g id="Grupo_136554" data-name="Grupo 136554" transform="translate(205 5867)">
      <g id="Grupo_136553" data-name="Grupo 136553" clip-path="url(#clip-path)">
        <path id="Trazado_193699" data-name="Trazado 193699" d="M22.393,14.111c-.158-.088-2.58-1.445-4.221-2.36a7.027,7.027,0,1,0-10.395,0c-1.641.914-4.063,2.272-4.221,2.36-2.463,1.359-3.84,2.34-3.507,6.675.332,4.314.927,10.3.933,10.363a.849.849,0,0,0,.388.632L5.416,34.37V46.458a2.6,2.6,0,0,0,2.594,2.594h9.928a2.6,2.6,0,0,0,2.594-2.594V34.37l4.046-2.589a.85.85,0,0,0,.388-.632c.006-.06.6-6.049.933-10.363.333-4.336-1.044-5.316-3.507-6.675M12.975,1.7A5.327,5.327,0,1,1,7.647,7.027,5.334,5.334,0,0,1,12.975,1.7m0,12.355A7.037,7.037,0,0,0,13.851,14L15.7,22.949,12.975,25.7l-2.729-2.753L12.1,14a7.037,7.037,0,0,0,.876.057m11.231,6.6c-.28,3.643-.75,8.49-.889,9.915l-4.091,2.617a.85.85,0,0,0-.392.716V46.458a.9.9,0,0,1-.894.894H13.825V37.527a.85.85,0,1,0-1.7,0v9.826H8.011a.9.9,0,0,1-.894-.894V33.9a.85.85,0,0,0-.392-.716L2.633,30.571c-.14-1.425-.609-6.272-.889-9.915-.266-3.456.583-3.925,2.634-5.057.163-.09,2.942-1.647,4.786-2.673a7,7,0,0,0,1.284.656l-1.96,9.469a.85.85,0,0,0,.229.771l3.638,3.67a.85.85,0,0,0,.6.252h.031a.849.849,0,0,0,.6-.252l3.639-3.67a.85.85,0,0,0,.229-.771L15.5,13.583a7,7,0,0,0,1.284-.656c1.844,1.026,4.624,2.583,4.787,2.673,2.05,1.132,2.9,1.6,2.633,5.057" transform="translate(0 0)" fill="#fff"/>
        <path id="Trazado_193700" data-name="Trazado 193700" d="M110.756,104.772s-1.6-.626-2.992-1.165a6.106,6.106,0,1,0-10.2,0l-2.992,1.165c-1.54.6-3.867,1.5-3.867,4.688v6.8a.85.85,0,0,0,.85.85h22.219a.85.85,0,0,0,.85-.85v-6.8c0-3.188-2.327-4.091-3.867-4.688m-8.092-8.923a4.407,4.407,0,1,1-4.407,4.407,4.412,4.412,0,0,1,4.407-4.407m10.26,19.564H92.4V109.46c0-1.883,1.1-2.451,2.782-3.1,0,0,1.959-.763,3.589-1.4a6.094,6.094,0,0,0,7.778,0c1.63.633,3.589,1.4,3.589,1.4,1.681.652,2.782,1.22,2.782,3.1Z" transform="translate(-65.57 -68.06)" fill="#fff"/>
        <path id="Trazado_193701" data-name="Trazado 193701" d="M103.866,43.512l3.76-4.385,2.949,2.347a.85.85,0,0,0,1.175-.112l4.293-5.007a.85.85,0,0,0-1.29-1.106l-3.76,4.385-2.949-2.347a.85.85,0,0,0-1.175.112l-4.293,5.007a.85.85,0,1,0,1.29,1.106" transform="translate(-74.004 -25.267)" fill="#fff"/>
        <path id="Trazado_193702" data-name="Trazado 193702" d="M100.7,0H75.434a.85.85,0,1,0,0,1.7H100.7a1.518,1.518,0,0,1,0,3.036H77.339a.85.85,0,1,0,0,1.7H99.849V21.4H83.906a.85.85,0,1,0,0,1.7H100.7a.85.85,0,0,0,.85-.85V6.318A3.216,3.216,0,0,0,100.7,0" transform="translate(-53.917)" fill="#fff"/>
      </g>
    </g>
  </g>
</svg>
