<svg xmlns="http://www.w3.org/2000/svg" xmlns:xlink="http://www.w3.org/1999/xlink" width="80" height="80" viewBox="0 0 80 80">
  <defs>
    <clipPath id="clip-path">
      <rect id="Rectángulo_43741" data-name="Rectángulo 43741" width="50" height="46.432" fill="none"/>
    </clipPath>
  </defs>
  <g id="Grupo_136586" data-name="Grupo 136586" transform="translate(-190 -5982)">
    <circle id="Elipse_5374" data-name="Elipse 5374" cx="40" cy="40" r="40" transform="translate(190 5982)" fill="#b13e8d"/>
    <g id="Grupo_136544" data-name="Grupo 136544" transform="translate(205 5999)">
      <g id="Grupo_136543" data-name="Grupo 136543" clip-path="url(#clip-path)">
        <path id="Trazado_193666" data-name="Trazado 193666" d="M78.277,89.2a.854.854,0,0,0,0-1.707H62.859a.854.854,0,1,0,0,1.707h6.855v17.046a.854.854,0,1,0,1.707,0V89.2Z" transform="translate(-45.568 -64.299)" fill="#fff"/>
        <path id="Trazado_193667" data-name="Trazado 193667" d="M18.533,27.9l-7.569-1.509V19.157l1.679,1.3a2.772,2.772,0,0,0,1.692.58h5.308a2.757,2.757,0,0,0,0-5.514H15.28L9.251,10.841l0,0c-.062-.056-.127-.109-.192-.161a5.828,5.828,0,1,0-6.457,0A5.127,5.127,0,0,0,.692,14.664V28.2A5.115,5.115,0,0,0,5.3,33.306L13.815,35v7.482a3.946,3.946,0,0,0,7.893,0V31.767a3.956,3.956,0,0,0-3.175-3.87M1.708,5.828A4.121,4.121,0,1,1,5.828,9.949,4.125,4.125,0,0,1,1.708,5.828M20,42.486a2.239,2.239,0,0,1-4.478,0V34.3a.854.854,0,0,0-.687-.837L5.593,31.624c-.028-.005-.078-.012-.107-.014A3.414,3.414,0,0,1,2.4,28.2V14.664A3.433,3.433,0,0,1,4.5,11.5a5.785,5.785,0,0,0,2.642,0,3.448,3.448,0,0,1,.973.615l.025.021.027.022.022.018,6.272,4.875a.855.855,0,0,0,.524.18h4.655a1.049,1.049,0,0,1,0,2.1H14.335a1.053,1.053,0,0,1-.644-.221l-3.056-2.376a.854.854,0,0,0-1.377.674v9.675a.854.854,0,0,0,.687.837L18.2,29.571a2.245,2.245,0,0,1,1.8,2.2Z" fill="#fff"/>
        <path id="Trazado_193668" data-name="Trazado 193668" d="M123.918,10.676a5.828,5.828,0,1,0-6.457,0c-.065.052-.129.1-.192.161l-6.033,4.69h-4.362a2.757,2.757,0,0,0,0,5.514h5.308a2.77,2.77,0,0,0,1.692-.58l1.679-1.3v7.231L107.984,27.9a3.957,3.957,0,0,0-3.175,3.87V42.486a3.946,3.946,0,0,0,7.893,0V35l8.514-1.7a5.115,5.115,0,0,0,4.608-5.108V14.664a5.126,5.126,0,0,0-1.906-3.988m-7.35-4.848a4.121,4.121,0,1,1,4.121,4.121,4.126,4.126,0,0,1-4.121-4.121m7.549,22.37a3.419,3.419,0,0,1-3.109,3.413c-.028,0-.056.007-.085.012l-9.242,1.842a.854.854,0,0,0-.687.837v8.182a2.239,2.239,0,0,1-4.478,0V31.767a2.245,2.245,0,0,1,1.8-2.2l8.255-1.646a.854.854,0,0,0,.687-.837V17.412a.854.854,0,0,0-1.377-.674l-3.057,2.376a1.052,1.052,0,0,1-.644.221h-5.308a1.049,1.049,0,1,1,0-2.1h4.655a.855.855,0,0,0,.524-.18l6.272-4.875.023-.018.027-.022.025-.021a3.453,3.453,0,0,1,.973-.615,5.784,5.784,0,0,0,2.642,0,3.433,3.433,0,0,1,2.1,3.162Z" transform="translate(-76.516)" fill="#fff"/>
      </g>
    </g>
  </g>
</svg>
