<svg xmlns="http://www.w3.org/2000/svg" xmlns:xlink="http://www.w3.org/1999/xlink" width="80" height="80" viewBox="0 0 80 80">
  <defs>
    <clipPath id="clip-path">
      <rect id="Rectángulo_43740" data-name="Rectángulo 43740" width="50" height="50" fill="none"/>
    </clipPath>
  </defs>
  <g id="Grupo_136542" data-name="Grupo 136542" transform="translate(-190 -6112)">
    <circle id="Elipse_5373" data-name="Elipse 5373" cx="40" cy="40" r="40" transform="translate(190 6112)" fill="#b13e8d"/>
    <g id="Grupo_136539" data-name="Grupo 136539" transform="translate(205 6127)">
      <g id="Grupo_136538" data-name="Grupo 136538" clip-path="url(#clip-path)">
        <path id="Trazado_193660" data-name="Trazado 193660" d="M42.739,31.659c-1.778.69-4.465,1.733-4.465,5.4a.888.888,0,0,0,1.777,0c0-2.447,1.618-3.075,3.331-3.74,0,0,2.612-1.019,4.269-1.661a7.033,7.033,0,0,0,9.077,0C58.385,32.3,61,33.316,61,33.316c1.713.665,3.331,1.292,3.331,3.74v7.089H60.716V39.937a.888.888,0,1,0-1.777,0v4.208H54.282a.888.888,0,1,0,0,1.777H65.216a.888.888,0,0,0,.888-.888V37.055c0-3.664-2.687-4.706-4.465-5.4,0,0-2.209-.862-3.633-1.415a7.052,7.052,0,1,0-11.633,0c-1.425.553-3.634,1.415-3.634,1.415m9.45-10.672a5.275,5.275,0,1,1-5.275,5.275,5.281,5.281,0,0,1,5.275-5.275" transform="translate(-27.189 -13.647)" fill="#fff"/>
        <path id="Trazado_193661" data-name="Trazado 193661" d="M45.812,0H4.188A4.193,4.193,0,0,0,0,4.188V27.825a.888.888,0,0,0,1.777,0V4.188A2.414,2.414,0,0,1,4.188,1.777H45.812a2.414,2.414,0,0,1,2.411,2.411V35.974H25.662a.888.888,0,0,0,0,1.777H48.223v8.061a2.414,2.414,0,0,1-2.411,2.411H16.118a.888.888,0,1,0,0,1.777H45.812A4.193,4.193,0,0,0,50,45.812V4.188A4.193,4.193,0,0,0,45.812,0" transform="translate(0 0)" fill="#fff"/>
        <path id="Trazado_193662" data-name="Trazado 193662" d="M92.1,147.02a.888.888,0,1,0,0-1.777H86.425a.888.888,0,1,0,0,1.777Z" transform="translate(-60.764 -103.177)" fill="#fff"/>
        <path id="Trazado_193663" data-name="Trazado 193663" d="M143.653,144.886a1.4,1.4,0,1,0-1.4,1.4,1.4,1.4,0,0,0,1.4-1.4" transform="translate(-100.065 -101.932)" fill="#fff"/>
        <path id="Trazado_193664" data-name="Trazado 193664" d="M124.039,144.886a1.4,1.4,0,1,0-1.4,1.4,1.4,1.4,0,0,0,1.4-1.4" transform="translate(-86.131 -101.932)" fill="#fff"/>
        <path id="Trazado_193665" data-name="Trazado 193665" d="M19.135,104.223a.889.889,0,0,0,.627-.633l4.716-18.053a.889.889,0,0,0-1.084-1.084L5.341,89.169a.888.888,0,0,0-.4,1.488L8.3,94.02l-8.04,8.04a.889.889,0,0,0,0,1.256l5.129,5.128a.888.888,0,0,0,1.256,0l8.04-8.04,3.59,3.59a.888.888,0,0,0,.861.229m-5.079-5.7-8.04,8.04-3.872-3.872,8.04-8.04a.889.889,0,0,0,0-1.256L7.29,90.5l15.086-3.941-3.941,15.086L15.312,98.52a.914.914,0,0,0-1.256,0" transform="translate(0 -59.973)" fill="#fff"/>
      </g>
    </g>
  </g>
</svg>
