<svg xmlns="http://www.w3.org/2000/svg" xmlns:xlink="http://www.w3.org/1999/xlink" width="80" height="80" viewBox="0 0 80 80">
  <defs>
    <clipPath id="clip-path">
      <rect id="Rectángulo_43739" data-name="Rectángulo 43739" width="50" height="39.361" fill="none"/>
    </clipPath>
  </defs>
  <g id="Grupo_136541" data-name="Grupo 136541" transform="translate(-190 -6242)">
    <circle id="Elipse_5372" data-name="Elipse 5372" cx="40" cy="40" r="40" transform="translate(190 6242)" fill="#b13e8d"/>
    <g id="Grupo_136537" data-name="Grupo 136537" transform="translate(205 6262)">
      <g id="Grupo_136536" data-name="Grupo 136536" clip-path="url(#clip-path)">
        <path id="Trazado_193652" data-name="Trazado 193652" d="M138.47,12.589A6.294,6.294,0,1,1,144.765,6.3a6.3,6.3,0,0,1-6.295,6.294m0-10.757A4.463,4.463,0,1,0,142.934,6.3a4.468,4.468,0,0,0-4.464-4.463" transform="translate(-94.764 -0.001)" fill="#fff"/>
        <path id="Trazado_193653" data-name="Trazado 193653" d="M145.628,19a.912.912,0,0,1-.647-.268l-1.763-1.763,1.295-1.294,1.115,1.115,2.633-2.633,1.294,1.295-3.28,3.28a.913.913,0,0,1-.647.268" transform="translate(-102.681 -10.149)" fill="#fff"/>
        <path id="Trazado_193654" data-name="Trazado 193654" d="M138.47,61.036a6.294,6.294,0,1,1,6.295-6.294,6.3,6.3,0,0,1-6.295,6.294m0-10.757a4.463,4.463,0,1,0,4.464,4.463,4.468,4.468,0,0,0-4.464-4.463" transform="translate(-94.764 -34.735)" fill="#fff"/>
        <path id="Trazado_193655" data-name="Trazado 193655" d="M145.628,67.446h0a.917.917,0,0,1-.647-.268l-1.763-1.763,1.295-1.294,1.115,1.115,2.633-2.633,1.294,1.294-3.28,3.281a.917.917,0,0,1-.647.268" transform="translate(-102.681 -44.884)" fill="#fff"/>
        <path id="Trazado_193656" data-name="Trazado 193656" d="M138.47,107.177a6.294,6.294,0,1,1,6.295-6.295,6.3,6.3,0,0,1-6.295,6.295m0-10.758a4.464,4.464,0,1,0,4.464,4.463,4.468,4.468,0,0,0-4.464-4.463" transform="translate(-94.764 -67.815)" fill="#fff"/>
        <path id="Trazado_193657" data-name="Trazado 193657" d="M145.628,113.588a.914.914,0,0,1-.647-.268l-1.763-1.763,1.295-1.294,1.115,1.116,2.633-2.633,1.294,1.294-3.28,3.28a.914.914,0,0,1-.647.268" transform="translate(-102.681 -77.965)" fill="#fff"/>
        <path id="Trazado_193658" data-name="Trazado 193658" d="M35.37,26.473A8.469,8.469,0,1,1,43.839,18a8.479,8.479,0,0,1-8.469,8.469m0-15.107A6.638,6.638,0,1,0,42.008,18a6.645,6.645,0,0,0-6.638-6.638" transform="translate(-19.287 -6.836)" fill="#fff"/>
        <path id="Trazado_193659" data-name="Trazado 193659" d="M32.166,89.557H30.336a14.252,14.252,0,0,0-28.5,0H0a16.083,16.083,0,0,1,32.166,0" transform="translate(0 -52.678)" fill="#fff"/>
      </g>
    </g>
  </g>
</svg>
