<svg id="Grupo_136570" data-name="Grupo 136570" xmlns="http://www.w3.org/2000/svg" xmlns:xlink="http://www.w3.org/1999/xlink" width="68" height="68" viewBox="0 0 68 68">
  <defs>
    <clipPath id="clip-path">
      <rect id="Rectángulo_43766" data-name="Rectángulo 43766" width="68" height="68" fill="#b13e8d"/>
    </clipPath>
  </defs>
  <g id="Grupo_136569" data-name="Grupo 136569" clip-path="url(#clip-path)">
    <path id="Trazado_193737" data-name="Trazado 193737" d="M60.842,23.107h-.79V7.158A7.166,7.166,0,0,0,52.894,0H15.761A7.166,7.166,0,0,0,8.6,7.158v5.463H7.158A7.166,7.166,0,0,0,0,19.779V46.2a7.168,7.168,0,0,0,6.495,7.127L9.884,59.2a1.307,1.307,0,0,0,2.265,0l3.372-5.839H31.635v.986a7.166,7.166,0,0,0,7.158,7.158H52.649l3.372,5.84a1.308,1.308,0,0,0,2.265,0l3.4-5.889A7.168,7.168,0,0,0,68,54.348V30.265a7.166,7.166,0,0,0-7.158-7.158M14.766,50.747a1.308,1.308,0,0,0-1.132.654l-2.617,4.532L8.4,51.4a1.308,1.308,0,0,0-1.132-.654h-.11A4.548,4.548,0,0,1,2.615,46.2V19.779a4.548,4.548,0,0,1,4.543-4.543H8.6V27.543a7.167,7.167,0,0,0,6.817,7.15l4.33,7.5a1.308,1.308,0,0,0,2.265,0L26.341,34.7h5.293V50.747ZM31.635,30.265v1.821H25.586a1.307,1.307,0,0,0-1.132.654l-3.571,6.185-3.571-6.185a1.308,1.308,0,0,0-1.132-.654h-.419a4.548,4.548,0,0,1-4.543-4.543V7.158a4.548,4.548,0,0,1,4.543-4.543H52.894a4.548,4.548,0,0,1,4.543,4.543V23.107H38.792a7.166,7.166,0,0,0-7.158,7.158m33.75,24.084a4.548,4.548,0,0,1-4.543,4.543,1.308,1.308,0,0,0-1.27,1l-2.419,4.19-2.617-4.532a1.307,1.307,0,0,0-1.132-.654H38.792a4.548,4.548,0,0,1-4.543-4.543V30.265a4.548,4.548,0,0,1,4.543-4.543h22.05a4.548,4.548,0,0,1,4.543,4.543Z" fill="#b13e8d"/>
    <path id="Trazado_193738" data-name="Trazado 193738" d="M84.684,39.252a1.308,1.308,0,0,0-1.308-1.308H54.686a1.308,1.308,0,0,0,0,2.616h28.69a1.308,1.308,0,0,0,1.308-1.308" transform="translate(-34.703 -24.669)" fill="#b13e8d"/>
    <path id="Trazado_193739" data-name="Trazado 193739" d="M60.713,60.371H54.685a1.308,1.308,0,0,0,0,2.616h6.029a1.308,1.308,0,0,0,0-2.616" transform="translate(-34.703 -39.25)" fill="#b13e8d"/>
    <path id="Trazado_193740" data-name="Trazado 193740" d="M132.486,100.153H115.062a1.308,1.308,0,1,0,0,2.616h17.424a1.308,1.308,0,0,0,0-2.616" transform="translate(-73.957 -65.114)" fill="#b13e8d"/>
    <path id="Trazado_193741" data-name="Trazado 193741" d="M123.294,122.58h-8.232a1.308,1.308,0,1,0,0,2.616h8.232a1.308,1.308,0,1,0,0-2.616" transform="translate(-73.957 -79.695)" fill="#b13e8d"/>
  </g>
</svg>
