<svg id="Grupo_136572" data-name="Grupo 136572" xmlns="http://www.w3.org/2000/svg" xmlns:xlink="http://www.w3.org/1999/xlink" width="70" height="70.005" viewBox="0 0 70 70.005">
  <defs>
    <clipPath id="clip-path">
      <rect id="Rectángulo_43767" data-name="Rectángulo 43767" width="70" height="70.005" fill="#b13e8d"/>
    </clipPath>
  </defs>
  <g id="Grupo_136571" data-name="Grupo 136571" clip-path="url(#clip-path)">
    <path id="Trazado_193742" data-name="Trazado 193742" d="M69.9,111.5c0-.014-11.7-23.3-11.7-23.3a1.128,1.128,0,0,0-1.009-.622A16.858,16.858,0,0,1,48.533,85.6a13.448,13.448,0,0,0-6.618-1.712,8.954,8.954,0,0,0-6.9,3.09,8.954,8.954,0,0,0-6.9-3.09A13.451,13.451,0,0,0,21.489,85.6a16.861,16.861,0,0,1-8.662,1.976,1.128,1.128,0,0,0-1.009.622S.122,111.487.118,111.5a1.123,1.123,0,0,0,.015.978L3.681,119.4a1.129,1.129,0,0,0,1,.614h24.4a7.353,7.353,0,0,0,11.853,0h24.4a1.129,1.129,0,0,0,1-.614l3.549-6.918a1.121,1.121,0,0,0,.014-.979M13.526,89.826a18.677,18.677,0,0,0,8.952-2.2,11.255,11.255,0,0,1,5.629-1.484,7.066,7.066,0,0,1,5.775,2.963v9.011a1.129,1.129,0,1,0,2.258,0V89.11a7.066,7.066,0,0,1,5.775-2.963,11.255,11.255,0,0,1,5.629,1.484,18.676,18.676,0,0,0,8.951,2.2L67.03,110.79a34.3,34.3,0,0,1-11.775-2.709,25.843,25.843,0,0,0-9.94-2.235,14.2,14.2,0,0,0-10.305,4.4,14.2,14.2,0,0,0-10.305-4.4,25.852,25.852,0,0,0-9.939,2.235A34.293,34.293,0,0,1,2.991,110.79Zm51.119,27.927H40.336a1.128,1.128,0,0,0-.964.542,5.1,5.1,0,0,1-8.722,0,1.129,1.129,0,0,0-.964-.541H5.376l-2.41-4.7a36.594,36.594,0,0,0,12.6-2.863c2.949-1.12,5.5-2.088,9.138-2.088a11.972,11.972,0,0,1,9.421,4.563,1.129,1.129,0,0,0,1.768,0,11.972,11.972,0,0,1,9.421-4.563c3.642,0,6.189.968,9.138,2.088a36.594,36.594,0,0,0,12.6,2.863Z" transform="translate(-0.008 -53.007)" fill="#b13e8d"/>
    <path id="Trazado_193743" data-name="Trazado 193743" d="M62.136,49.22a1.774,1.774,0,1,0-1.774-1.774,1.777,1.777,0,0,0,1.774,1.774" transform="translate(-38.141 -28.858)" fill="#b13e8d"/>
    <path id="Trazado_193744" data-name="Trazado 193744" d="M151.135,14.347a1.774,1.774,0,1,0-1.774-1.774,1.776,1.776,0,0,0,1.774,1.774" transform="translate(-94.378 -6.823)" fill="#b13e8d"/>
    <path id="Trazado_193745" data-name="Trazado 193745" d="M175.838,72.089a1.774,1.774,0,1,0,1.774-1.774,1.777,1.777,0,0,0-1.774,1.774" transform="translate(-111.108 -44.43)" fill="#b13e8d"/>
    <path id="Trazado_193746" data-name="Trazado 193746" d="M10.581,43.188c8.5,1.078,10.319,9.487,10.393,9.85a1.129,1.129,0,0,0,2.214-.445c-.021-.1-2.185-10.359-12.323-11.645a1.129,1.129,0,0,0-.284,2.241" transform="translate(-6.062 -25.868)" fill="#b13e8d"/>
    <path id="Trazado_193747" data-name="Trazado 193747" d="M142.708,53.92a1.127,1.127,0,0,0,1.33-.882c.073-.358,1.888-8.771,10.393-9.85a1.129,1.129,0,1,0-.284-2.24c-10.138,1.286-12.3,11.542-12.323,11.645a1.127,1.127,0,0,0,.883,1.327" transform="translate(-89.602 -25.868)" fill="#b13e8d"/>
    <path id="Trazado_193748" data-name="Trazado 193748" d="M93.145,22.7a1.129,1.129,0,0,0,1.129-1.129V1.129a1.129,1.129,0,0,0-2.258,0V21.573A1.129,1.129,0,0,0,93.145,22.7" transform="translate(-58.142)" fill="#b13e8d"/>
    <path id="Trazado_193749" data-name="Trazado 193749" d="M31.359,12.794h1.727V14.52a1.129,1.129,0,1,0,2.258,0V12.794h1.727a1.129,1.129,0,0,0,0-2.258H35.344V8.809a1.129,1.129,0,1,0-2.258,0v1.727H31.359a1.129,1.129,0,1,0,0,2.258" transform="translate(-19.102 -4.853)" fill="#b13e8d"/>
    <path id="Trazado_193750" data-name="Trazado 193750" d="M1.129,71.371H2.856V73.1a1.129,1.129,0,1,0,2.258,0V71.371H6.84a1.129,1.129,0,0,0,0-2.258H5.114V67.386a1.129,1.129,0,0,0-2.258,0v1.727H1.129a1.129,1.129,0,0,0,0,2.258" transform="translate(0 -41.866)" fill="#b13e8d"/>
    <path id="Trazado_193751" data-name="Trazado 193751" d="M115.789,41.1h1.727v1.727a1.129,1.129,0,1,0,2.258,0V41.1H121.5a1.129,1.129,0,1,0,0-2.258h-1.727V37.115a1.129,1.129,0,1,0-2.258,0v1.727h-1.727a1.129,1.129,0,0,0,0,2.258" transform="translate(-72.451 -22.739)" fill="#b13e8d"/>
  </g>
</svg>
