<svg id="Grupo_136560" data-name="Grupo 136560" xmlns="http://www.w3.org/2000/svg" xmlns:xlink="http://www.w3.org/1999/xlink" width="72" height="72" viewBox="0 0 72 72">
  <defs>
    <clipPath id="clip-path">
      <rect id="Rectángulo_43753" data-name="Rectángulo 43753" width="72" height="72" fill="#b13e8d"/>
    </clipPath>
  </defs>
  <g id="Grupo_136559" data-name="Grupo 136559" clip-path="url(#clip-path)">
    <path id="Trazado_193711" data-name="Trazado 193711" d="M66.811,21.918a4.983,4.983,0,0,0,1.652-.283l.618-.217a26.825,26.825,0,0,1,3.651-1.075,15.814,15.814,0,0,1,3.222-.333,16.5,16.5,0,0,1,3.249.343,28.2,28.2,0,0,1,3.651,1.067l.644.223a5,5,0,0,0,5.989-7.159,13.946,13.946,0,0,0-5.747-5.447c-.256-.135-.517-.261-.781-.381a7.156,7.156,0,1,0-13.99.014c-.263.12-.526.242-.781.377a14.027,14.027,0,0,0-5.745,5.433l0,0a5,5,0,0,0,4.37,7.433M75.964,2.642A4.514,4.514,0,1,1,71.45,7.156a4.519,4.519,0,0,1,4.514-4.514M64.752,15.767a11.557,11.557,0,0,1,4.675-4.386c.187-.1.382-.186.574-.275A7.148,7.148,0,0,0,81.932,11.1c.192.089.385.176.573.275a11.473,11.473,0,0,1,4.674,4.395,2.359,2.359,0,0,1-2.82,3.378l-.639-.221a30.372,30.372,0,0,0-3.991-1.16,19.1,19.1,0,0,0-3.764-.4,18.424,18.424,0,0,0-3.755.386,29.105,29.105,0,0,0-4,1.172l-.619.217a2.356,2.356,0,0,1-2.835-3.375" transform="translate(-39.964)" fill="#b13e8d"/>
    <path id="Trazado_193712" data-name="Trazado 193712" d="M87.287,142.185a4.966,4.966,0,0,0-3.819-.21l-.619.217a26.814,26.814,0,0,1-3.651,1.075,15.821,15.821,0,0,1-3.222.333,16.5,16.5,0,0,1-3.249-.343,28.172,28.172,0,0,1-3.651-1.067l-.644-.223a5,5,0,0,0-5.989,7.159,13.948,13.948,0,0,0,5.747,5.447c.256.135.517.261.781.381a7.156,7.156,0,1,0,13.99-.014c.263-.121.526-.242.781-.377a14.032,14.032,0,0,0,5.745-5.433l0-.005a5.02,5.02,0,0,0,.35-4.09,4.966,4.966,0,0,0-2.552-2.849m-11.32,18.783a4.514,4.514,0,1,1,4.514-4.513,4.519,4.519,0,0,1-4.514,4.513m11.212-13.125a11.557,11.557,0,0,1-4.675,4.386c-.187.1-.382.185-.574.275a7.148,7.148,0,0,0-11.93.008c-.192-.089-.386-.175-.573-.274a11.472,11.472,0,0,1-4.674-4.394,2.359,2.359,0,0,1,.917-3.207,2.362,2.362,0,0,1,1.9-.171l.639.221a30.343,30.343,0,0,0,3.991,1.16,19.136,19.136,0,0,0,3.763.4,18.431,18.431,0,0,0,3.755-.386,29.09,29.09,0,0,0,4-1.172l.619-.217a2.356,2.356,0,0,1,3,1.442,2.376,2.376,0,0,1-.168,1.933" transform="translate(-39.966 -91.61)" fill="#b13e8d"/>
    <path id="Trazado_193713" data-name="Trazado 193713" d="M156.455,68.808a7.154,7.154,0,0,0-1.515.163c-.12-.263-.242-.526-.377-.781a14.028,14.028,0,0,0-5.434-5.745l-.005,0a5.017,5.017,0,0,0-4.09-.35,5,5,0,0,0-3.059,6.372l.217.619a26.825,26.825,0,0,1,1.075,3.651,15.815,15.815,0,0,1,.333,3.222,16.5,16.5,0,0,1-.343,3.249,28.128,28.128,0,0,1-1.067,3.651l-.223.645a5,5,0,0,0,7.159,5.989,13.943,13.943,0,0,0,5.447-5.747c.135-.256.261-.517.381-.781a7.156,7.156,0,1,0,1.5-14.152m-4.217,13.7a11.47,11.47,0,0,1-4.395,4.674,2.358,2.358,0,0,1-3.378-2.82l.221-.639a30.327,30.327,0,0,0,1.16-3.99,19.111,19.111,0,0,0,.4-3.764,18.423,18.423,0,0,0-.386-3.755,29.037,29.037,0,0,0-1.172-4l-.217-.619a2.352,2.352,0,0,1,2.217-3.135,2.4,2.4,0,0,1,1.158.3,11.555,11.555,0,0,1,4.386,4.675c.1.187.185.381.275.574a7.148,7.148,0,0,0,.008,11.93c-.089.192-.175.386-.274.573m4.217-2.027a4.514,4.514,0,1,1,4.514-4.514,4.519,4.519,0,0,1-4.514,4.514" transform="translate(-91.61 -39.963)" fill="#b13e8d"/>
    <path id="Trazado_193714" data-name="Trazado 193714" d="M21.636,83.46l-.217-.619a26.873,26.873,0,0,1-1.075-3.651,15.85,15.85,0,0,1-.333-3.223,16.531,16.531,0,0,1,.343-3.249,28.146,28.146,0,0,1,1.068-3.651l.223-.644a5,5,0,0,0-7.159-5.989,13.947,13.947,0,0,0-5.447,5.747c-.135.256-.261.517-.381.781a7.156,7.156,0,1,0,.014,13.99c.121.263.242.526.377.781a14.033,14.033,0,0,0,5.434,5.745l0,0a5.04,5.04,0,0,0,2.441.631,4.994,4.994,0,0,0,4.709-6.653m-18.994-7.5a4.514,4.514,0,1,1,4.514,4.514,4.519,4.519,0,0,1-4.514-4.514M17.7,87.34a2.379,2.379,0,0,1-1.933-.168A11.558,11.558,0,0,1,11.382,82.5c-.1-.187-.185-.382-.275-.574a7.149,7.149,0,0,0-.008-11.93c.089-.192.175-.386.274-.573a11.478,11.478,0,0,1,4.394-4.674,2.359,2.359,0,0,1,3.378,2.82l-.221.639a30.37,30.37,0,0,0-1.16,3.991,19.107,19.107,0,0,0-.4,3.763,18.438,18.438,0,0,0,.385,3.756,29.12,29.12,0,0,0,1.172,4l.217.618a2.359,2.359,0,0,1-1.442,3" transform="translate(0 -39.96)" fill="#b13e8d"/>
    <path id="Trazado_193715" data-name="Trazado 193715" d="M13.043,26.74a1.321,1.321,0,0,0,1.321-1.321v-10.1h10.1a1.321,1.321,0,1,0,0-2.642H13.043A1.321,1.321,0,0,0,11.722,14V25.419a1.321,1.321,0,0,0,1.321,1.321" transform="translate(-7.579 -8.198)" fill="#b13e8d"/>
    <path id="Trazado_193716" data-name="Trazado 193716" d="M164.946,151.249a1.321,1.321,0,0,0-1.321,1.321v10.1h-10.1a1.321,1.321,0,0,0,0,2.642h11.418a1.321,1.321,0,0,0,1.321-1.321V152.57a1.321,1.321,0,0,0-1.321-1.321" transform="translate(-98.41 -97.791)" fill="#b13e8d"/>
    <path id="Trazado_193717" data-name="Trazado 193717" d="M152.57,15.321h10.1v10.1a1.321,1.321,0,0,0,2.642,0V14a1.321,1.321,0,0,0-1.321-1.321H152.57a1.321,1.321,0,0,0,0,2.642" transform="translate(-97.791 -8.198)" fill="#b13e8d"/>
    <path id="Trazado_193718" data-name="Trazado 193718" d="M25.419,162.667h-10.1v-10.1a1.321,1.321,0,0,0-2.642,0v11.418A1.321,1.321,0,0,0,14,165.31H25.419a1.321,1.321,0,0,0,0-2.642" transform="translate(-8.198 -97.791)" fill="#b13e8d"/>
  </g>
</svg>
