<svg id="Grupo_136562" data-name="Grupo 136562" xmlns="http://www.w3.org/2000/svg" xmlns:xlink="http://www.w3.org/1999/xlink" width="70" height="70" viewBox="0 0 70 70">
  <defs>
    <clipPath id="clip-path">
      <rect id="Rectángulo_43754" data-name="Rectángulo 43754" width="70" height="70" fill="#b13e8d"/>
    </clipPath>
  </defs>
  <g id="Grupo_136561" data-name="Grupo 136561" clip-path="url(#clip-path)">
    <path id="Trazado_193719" data-name="Trazado 193719" d="M26.12,115.015s-1.985-.774-3.746-1.459a8.02,8.02,0,1,0-13.548,0l-3.746,1.459c-1.9.737-5.079,1.97-5.079,6.175V130a1.213,1.213,0,0,0,1.213,1.213H29.985A1.213,1.213,0,0,0,31.2,130v-8.81c0-4.2-3.179-5.438-5.079-6.175M15.6,103.678a5.594,5.594,0,1,1-5.594,5.594,5.6,5.6,0,0,1,5.594-5.594m13.173,25.11H2.426v-7.6c0-2.373,1.334-3.061,3.531-3.914,0,0,2.478-.966,4.587-1.785a8,8,0,0,0,10.111,0c2.11.819,4.587,1.785,4.587,1.785,2.2.852,3.53,1.541,3.53,3.914Z" transform="translate(0 -61.214)" fill="#b13e8d"/>
    <path id="Trazado_193720" data-name="Trazado 193720" d="M124.244,115.015s-1.985-.774-3.746-1.459a8.02,8.02,0,1,0-13.548,0c-1.762.685-3.746,1.459-3.746,1.459-1.9.737-5.079,1.97-5.079,6.175V130a1.213,1.213,0,0,0,1.213,1.213h28.773A1.213,1.213,0,0,0,129.322,130v-8.81c0-4.2-3.179-5.438-5.079-6.175m-10.521-11.338a5.594,5.594,0,1,1-5.594,5.594,5.6,5.6,0,0,1,5.594-5.594m13.173,25.11H100.55v-7.6c0-2.373,1.334-3.061,3.53-3.914,0,0,2.478-.966,4.587-1.785a8,8,0,0,0,10.111,0c2.109.819,4.587,1.785,4.587,1.785,2.2.852,3.53,1.541,3.53,3.914Z" transform="translate(-59.322 -61.214)" fill="#b13e8d"/>
    <path id="Trazado_193721" data-name="Trazado 193721" d="M70.169,119.217a1.213,1.213,0,1,0,0,2.426H83.208a1.213,1.213,0,0,0,0-2.426Z" transform="translate(-41.688 -72.075)" fill="#b13e8d"/>
    <path id="Trazado_193722" data-name="Trazado 193722" d="M64.395,0H5.6A5.611,5.611,0,0,0,0,5.605V43.963a5.6,5.6,0,0,0,1.942,4.231,1.213,1.213,0,0,0,1.589-1.833,3.178,3.178,0,0,1-1.105-2.4V5.605A3.183,3.183,0,0,1,5.6,2.426h58.79a3.183,3.183,0,0,1,3.179,3.18V43.963a3.177,3.177,0,0,1-1.105,2.4,1.213,1.213,0,0,0,1.589,1.833A5.6,5.6,0,0,0,70,43.963V5.605A5.612,5.612,0,0,0,64.395,0" fill="#b13e8d"/>
    <path id="Trazado_193723" data-name="Trazado 193723" d="M85.487,49.382a1.213,1.213,0,0,0-.606-1.05l-15.364-8.87a1.213,1.213,0,0,0-1.819,1.05V58.253a1.213,1.213,0,0,0,1.819,1.05l15.364-8.87a1.213,1.213,0,0,0,.606-1.051M70.124,56.152V42.613l11.725,6.769Z" transform="translate(-40.928 -23.759)" fill="#b13e8d"/>
  </g>
</svg>
