<svg id="Grupo_136564" data-name="Grupo 136564" xmlns="http://www.w3.org/2000/svg" xmlns:xlink="http://www.w3.org/1999/xlink" width="70" height="69.999" viewBox="0 0 70 69.999">
  <defs>
    <clipPath id="clip-path">
      <rect id="Rectángulo_43755" data-name="Rectángulo 43755" width="70" height="69.999" fill="#b13e8d"/>
    </clipPath>
  </defs>
  <g id="Grupo_136563" data-name="Grupo 136563" clip-path="url(#clip-path)">
    <path id="Trazado_193724" data-name="Trazado 193724" d="M115.493,0H77.19a1.183,1.183,0,1,0,0,2.367h37.12V44.974H80.846a1.184,1.184,0,0,0,0,2.368h34.647a1.184,1.184,0,0,0,1.183-1.184V1.182A1.184,1.184,0,0,0,115.493,0" transform="translate(-46.677 0.001)" fill="#b13e8d"/>
    <path id="Trazado_193725" data-name="Trazado 193725" d="M148.451,149.375a1.86,1.86,0,1,0,1.86,1.86,1.862,1.862,0,0,0-1.86-1.86" transform="translate(-90.025 -91.734)" fill="#b13e8d"/>
    <path id="Trazado_193726" data-name="Trazado 193726" d="M126.478,149.375a1.86,1.86,0,1,0,1.86,1.86,1.862,1.862,0,0,0-1.86-1.86" transform="translate(-76.531 -91.734)" fill="#b13e8d"/>
    <path id="Trazado_193727" data-name="Trazado 193727" d="M104.5,149.375a1.86,1.86,0,1,0,1.86,1.86,1.862,1.862,0,0,0-1.86-1.86" transform="translate(-63.036 -91.734)" fill="#b13e8d"/>
    <path id="Trazado_193728" data-name="Trazado 193728" d="M37.747,33.666l7.5-5.745a4.56,4.56,0,0,0,1.232-5.59L56.9,13.975a1.184,1.184,0,0,0-1.481-1.847L44.907,20.555a4.573,4.573,0,0,0-5.36.232l-4.561,3.427-9.713-6.848a10.007,10.007,0,1,0-14.146-.6c-1.837,1.02-5.8,3.244-6.063,3.39C1.556,22.086-.4,23.482.07,29.656S1.394,44.37,1.4,44.456a1.184,1.184,0,0,0,.54.88l5.793,3.707V66.324A3.679,3.679,0,0,0,11.411,70h14.18a3.679,3.679,0,0,0,3.675-3.675V32.351l2.822,1.642.058.032a5.6,5.6,0,0,0,2.766.629,4.563,4.563,0,0,0,2.835-.988M18.5,2.367a7.639,7.639,0,1,1-7.639,7.639A7.648,7.648,0,0,1,18.5,2.367m10.177,26.9A1.183,1.183,0,0,0,26.9,30.292V66.324a1.309,1.309,0,0,1-1.308,1.308H19.684V53.567a1.184,1.184,0,0,0-2.367,0V67.632H11.411A1.309,1.309,0,0,1,10.1,66.324V48.395a1.183,1.183,0,0,0-.546-1L3.7,43.651c-.2-2.016-.87-8.96-1.271-14.177-.381-4.956.836-5.628,3.777-7.251.272-.15,4.785-2.681,6.851-3.827a9.979,9.979,0,0,0,10.172.426l11.1,7.822a1.182,1.182,0,0,0,1.393-.02l5.264-3.954.03-.023a2.2,2.2,0,0,1,3.56,1.955,2.169,2.169,0,0,1-.789,1.458l-7.5,5.744a2.2,2.2,0,0,1-1.375.484,3.261,3.261,0,0,1-1.663-.357Z" transform="translate(0)" fill="#b13e8d"/>
  </g>
</svg>
