<svg xmlns="http://www.w3.org/2000/svg" xmlns:xlink="http://www.w3.org/1999/xlink" width="110" height="110" viewBox="0 0 110 110">
  <defs>
    <clipPath id="clip-path">
      <rect id="Rectángulo_43800" data-name="Rectángulo 43800" width="70" height="70" fill="none" stroke="#fff" stroke-width="2"/>
    </clipPath>
  </defs>
  <g id="Grupo_136761" data-name="Grupo 136761" transform="translate(-395 -9686.729)">
    <g id="Grupo_136585" data-name="Grupo 136585" transform="translate(0 152.729)">
      <circle id="Elipse_5375" data-name="Elipse 5375" cx="55" cy="55" r="55" transform="translate(395 9534)" fill="#b13e8d"/>
    </g>
    <g id="Grupo_136686" data-name="Grupo 136686" transform="translate(415 9706.729)">
      <g id="Grupo_136685" data-name="Grupo 136685" clip-path="url(#clip-path)">
        <circle id="Elipse_5396" data-name="Elipse 5396" cx="5.833" cy="5.833" r="5.833" transform="translate(51.333 3.5)" fill="none" stroke="#fff" stroke-linecap="round" stroke-linejoin="round" stroke-width="2"/>
        <circle id="Elipse_5397" data-name="Elipse 5397" cx="5.833" cy="5.833" r="5.833" transform="translate(9.333 3.5)" fill="none" stroke="#fff" stroke-linecap="round" stroke-linejoin="round" stroke-width="2"/>
        <circle id="Elipse_5398" data-name="Elipse 5398" cx="5.833" cy="5.833" r="5.833" transform="translate(30.333 1.167)" fill="none" stroke="#fff" stroke-linecap="round" stroke-linejoin="round" stroke-width="2"/>
        <line id="Línea_466" data-name="Línea 466" x2="67.667" transform="translate(1.167 68.833)" fill="none" stroke="#fff" stroke-linecap="round" stroke-linejoin="round" stroke-width="2"/>
        <path id="Trazado_193831" data-name="Trazado 193831" d="M26.5,34.167V22.5h4.667V34.167" transform="translate(35.333 30)" fill="none" stroke="#fff" stroke-linecap="round" stroke-linejoin="round" stroke-width="2"/>
        <path id="Trazado_193832" data-name="Trazado 193832" d="M22.5,38.167V19.5h4.667V38.167" transform="translate(30 26)" fill="none" stroke="#fff" stroke-linecap="round" stroke-linejoin="round" stroke-width="2"/>
        <path id="Trazado_193833" data-name="Trazado 193833" d="M18.5,35.5v-14h4.667v14" transform="translate(24.667 28.667)" fill="none" stroke="#fff" stroke-linecap="round" stroke-linejoin="round" stroke-width="2"/>
        <path id="Trazado_193834" data-name="Trazado 193834" d="M14.5,32.833V23.5h4.667v9.333" transform="translate(19.333 31.333)" fill="none" stroke="#fff" stroke-linecap="round" stroke-linejoin="round" stroke-width="2"/>
        <path id="Trazado_193835" data-name="Trazado 193835" d="M10.5,35.5v-14h4.667v14" transform="translate(14 28.667)" fill="none" stroke="#fff" stroke-linecap="round" stroke-linejoin="round" stroke-width="2"/>
        <path id="Trazado_193836" data-name="Trazado 193836" d="M6.5,39.5v-21h4.667v21" transform="translate(8.667 24.667)" fill="none" stroke="#fff" stroke-linecap="round" stroke-linejoin="round" stroke-width="2"/>
        <path id="Trazado_193837" data-name="Trazado 193837" d="M2.5,34.167V22.5H7.167V34.167" transform="translate(3.333 30)" fill="none" stroke="#fff" stroke-linecap="round" stroke-linejoin="round" stroke-width="2"/>
        <path id="Trazado_193838" data-name="Trazado 193838" d="M22.5,8.5h9.333a7,7,0,0,1,7,7v14a2.333,2.333,0,0,1-4.667,0v7" transform="translate(30 11.333)" fill="none" stroke="#fff" stroke-linecap="round" stroke-linejoin="round" stroke-width="2"/>
        <path id="Trazado_193839" data-name="Trazado 193839" d="M17.833,8.5H8.5a7,7,0,0,0-7,7v14a2.333,2.333,0,1,0,4.667,0v7" transform="translate(2 11.333)" fill="none" stroke="#fff" stroke-linecap="round" stroke-linejoin="round" stroke-width="2"/>
        <path id="Trazado_193840" data-name="Trazado 193840" d="M29.167,35.5v-7a2.333,2.333,0,1,0,4.667,0v-14a7.021,7.021,0,0,0-7-7H17.5a7,7,0,0,0-7,7v14a2.333,2.333,0,0,0,4.667,0v7" transform="translate(14 10)" fill="none" stroke="#fff" stroke-linecap="round" stroke-linejoin="round" stroke-width="2"/>
      </g>
    </g>
  </g>
</svg>
