<svg xmlns="http://www.w3.org/2000/svg" xmlns:xlink="http://www.w3.org/1999/xlink" width="110" height="110" viewBox="0 0 110 110">
  <defs>
    <clipPath id="clip-path">
      <rect id="Rectángulo_43801" data-name="Rectángulo 43801" width="65.9" height="65.698" fill="none" stroke="#fff" stroke-width="2"/>
    </clipPath>
  </defs>
  <g id="Grupo_136762" data-name="Grupo 136762" transform="translate(-745 -9686.729)">
    <g id="Grupo_136583" data-name="Grupo 136583" transform="translate(0 152.729)">
      <circle id="Elipse_5376" data-name="Elipse 5376" cx="55" cy="55" r="55" transform="translate(745 9534)" fill="#b13e8d"/>
    </g>
    <g id="Grupo_136688" data-name="Grupo 136688" transform="translate(767 9708.729)">
      <g id="Grupo_136687" data-name="Grupo 136687" transform="translate(0 0)" clip-path="url(#clip-path)">
        <path id="Trazado_193841" data-name="Trazado 193841" d="M22.467,44.434H2.7a2.2,2.2,0,0,1-2.2-2.2V2.7A2.2,2.2,0,0,1,2.7.5h59.31a2.2,2.2,0,0,1,2.2,2.2V33.45" transform="translate(0.598 0.598)" fill="none" stroke="#fff" stroke-linecap="round" stroke-linejoin="round" stroke-width="2"/>
        <path id="Trazado_193842" data-name="Trazado 193842" d="M3.5,20.876l9.885-8.787,8.787,4.393L33.155,5.5l8.787,5.49L46.335,6.6" transform="translate(4.188 6.582)" fill="none" stroke="#fff" stroke-linecap="round" stroke-linejoin="round" stroke-width="2"/>
        <path id="Trazado_193843" data-name="Trazado 193843" d="M47.357,53.232a3.287,3.287,0,0,0,2.2-3.093V31.467a3.3,3.3,0,1,0-6.59,0v-2.2a3.3,3.3,0,0,0-6.59,0v-1.1a3.3,3.3,0,1,0-6.59,0V12.8a3.3,3.3,0,0,0-6.59,0V38.057l-3.827-8c-1.254-2.706-3.587-3.737-6.625-1.951l3.42,13.248s3.871,9.053,6.931,10.843" transform="translate(15.248 11.368)" fill="none" stroke="#fff" stroke-linecap="round" stroke-linejoin="round" stroke-width="2"/>
        <line id="Línea_467" data-name="Línea 467" y2="4.393" transform="translate(60.409 20.868)" fill="none" stroke="#fff" stroke-linecap="round" stroke-linejoin="round" stroke-width="2"/>
        <line id="Línea_468" data-name="Línea 468" x1="17.573" transform="translate(7.688 36.245)" fill="none" stroke="#fff" stroke-linecap="round" stroke-linejoin="round" stroke-width="2"/>
        <line id="Línea_469" data-name="Línea 469" y1="2.197" transform="translate(12.082 29.655)" fill="none" stroke="#fff" stroke-linecap="round" stroke-linejoin="round" stroke-width="2"/>
        <line id="Línea_470" data-name="Línea 470" y1="4.393" transform="translate(16.475 27.458)" fill="none" stroke="#fff" stroke-linecap="round" stroke-linejoin="round" stroke-width="2"/>
        <line id="Línea_471" data-name="Línea 471" y1="5.492" transform="translate(20.868 26.36)" fill="none" stroke="#fff" stroke-linecap="round" stroke-linejoin="round" stroke-width="2"/>
        <line id="Línea_472" data-name="Línea 472" y1="4.393" transform="translate(25.262 27.458)" fill="none" stroke="#fff" stroke-linecap="round" stroke-linejoin="round" stroke-width="2"/>
        <line id="Línea_473" data-name="Línea 473" y1="5.492" transform="translate(29.655 26.36)" fill="none" stroke="#fff" stroke-linecap="round" stroke-linejoin="round" stroke-width="2"/>
        <line id="Línea_474" data-name="Línea 474" y1="8.787" transform="translate(34.049 23.065)" fill="none" stroke="#fff" stroke-linecap="round" stroke-linejoin="round" stroke-width="2"/>
        <line id="Línea_475" data-name="Línea 475" y1="9.885" transform="translate(49.425 21.966)" fill="none" stroke="#fff" stroke-linecap="round" stroke-linejoin="round" stroke-width="2"/>
        <line id="Línea_476" data-name="Línea 476" y2="15.377" transform="translate(53.819 16.475)" fill="none" stroke="#fff" stroke-linecap="round" stroke-linejoin="round" stroke-width="2"/>
        <line id="Línea_477" data-name="Línea 477" y1="0.22" transform="translate(7.688 31.632)" fill="none" stroke="#fff" stroke-linecap="round" stroke-linejoin="round" stroke-width="2"/>
        <line id="Línea_478" data-name="Línea 478" y1="0.176" x2="0.176" transform="translate(53.819 9.709)" fill="none" stroke="#fff" stroke-linecap="round" stroke-linejoin="round" stroke-width="2"/>
      </g>
    </g>
  </g>
</svg>
