<svg xmlns="http://www.w3.org/2000/svg" xmlns:xlink="http://www.w3.org/1999/xlink" width="190" height="110.333" viewBox="0 0 190 110.333">
  <defs>
    <linearGradient id="linear-gradient" x1="0.5" x2="0.5" y2="1" gradientUnits="objectBoundingBox">
      <stop offset="0" stop-color="#f7ca2e" stop-opacity="0"/>
      <stop offset="0.091" stop-color="#f7ca2e" stop-opacity="0.129"/>
      <stop offset="0.283" stop-color="#f7ca2e" stop-opacity="0.388"/>
      <stop offset="0.465" stop-color="#f7ca2e" stop-opacity="0.612"/>
      <stop offset="0.633" stop-color="#f7ca2e" stop-opacity="0.78"/>
      <stop offset="0.784" stop-color="#f7ca2e" stop-opacity="0.902"/>
      <stop offset="0.911" stop-color="#f7ca2e" stop-opacity="0.969"/>
      <stop offset="1" stop-color="#f7ca2e"/>
    </linearGradient>
    <linearGradient id="linear-gradient-2" x1="0.5" x2="0.5" y2="1" gradientUnits="objectBoundingBox">
      <stop offset="0" stop-color="#b13e8d" stop-opacity="0"/>
      <stop offset="0.091" stop-color="#b13e8d" stop-opacity="0.129"/>
      <stop offset="0.283" stop-color="#b13e8d" stop-opacity="0.388"/>
      <stop offset="0.465" stop-color="#b13e8d" stop-opacity="0.612"/>
      <stop offset="0.633" stop-color="#b13e8d" stop-opacity="0.78"/>
      <stop offset="0.784" stop-color="#b13e8d"/>
      <stop offset="0.911" stop-color="#b13e8d" stop-opacity="0.969"/>
      <stop offset="1" stop-color="#b13e8d"/>
    </linearGradient>
    <filter id="Rectángulo_40717" x="41" y="1" width="108" height="108" filterUnits="userSpaceOnUse">
      <feOffset dy="3" input="SourceAlpha"/>
      <feGaussianBlur stdDeviation="3" result="blur"/>
      <feFlood flood-opacity="0.161"/>
      <feComposite operator="in" in2="blur"/>
      <feComposite in="SourceGraphic"/>
    </filter>
    <clipPath id="clip-path">
      <rect id="Rectángulo_43720" data-name="Rectángulo 43720" width="63" height="61.975" fill="none"/>
    </clipPath>
  </defs>
  <g id="Grupo_136650" data-name="Grupo 136650" transform="translate(-180 -386)">
    <g id="Grupo_136275" data-name="Grupo 136275" transform="translate(0 -14)">
      <rect id="Rectángulo_40586" data-name="Rectángulo 40586" width="190" height="20" transform="translate(180 442)" fill="none"/>
      <g id="Grupo_108405" data-name="Grupo 108405" transform="translate(209.5 464)">
        <path id="Rectángulo_5242" data-name="Rectángulo 5242" d="M0,0H12a0,0,0,0,1,0,0V43.333a3,3,0,0,1-3,3H3a3,3,0,0,1-3-3V0A0,0,0,0,1,0,0Z" transform="translate(0 0)" fill="url(#linear-gradient)"/>
      </g>
      <g id="Grupo_108406" data-name="Grupo 108406" transform="translate(340 452) rotate(180)">
        <path id="Rectángulo_5242-2" data-name="Rectángulo 5242" d="M0,0H12a0,0,0,0,1,0,0V49a3,3,0,0,1-3,3H3a3,3,0,0,1-3-3V0A0,0,0,0,1,0,0Z" transform="translate(0 0)" fill="url(#linear-gradient-2)"/>
      </g>
      <g transform="matrix(1, 0, 0, 1, 180, 400)" filter="url(#Rectángulo_40717)">
        <path id="Rectángulo_40717-2" data-name="Rectángulo 40717" d="M10,0H80A10,10,0,0,1,90,10V90a0,0,0,0,1,0,0H10A10,10,0,0,1,0,80V10A10,10,0,0,1,10,0Z" transform="translate(50 7)" fill="#f6f6f6"/>
      </g>
    </g>
    <g id="Grupo_136483" data-name="Grupo 136483" transform="translate(244 407)">
      <g id="Grupo_136482" data-name="Grupo 136482" clip-path="url(#clip-path)">
        <path id="Trazado_193575" data-name="Trazado 193575" d="M28.292,17.829c-.2-.11-3.26-1.826-5.333-2.981a8.878,8.878,0,1,0-13.133,0C7.752,16,4.693,17.718,4.493,17.828,1.381,19.546-.359,20.785.062,26.262c.419,5.451,1.17,13.017,1.178,13.093a1.073,1.073,0,0,0,.49.8l5.112,3.271V58.7a3.282,3.282,0,0,0,3.278,3.278H22.664A3.282,3.282,0,0,0,25.942,58.7V43.424l5.112-3.271a1.073,1.073,0,0,0,.49-.8c.008-.076.76-7.642,1.179-13.093.422-5.478-1.319-6.716-4.43-8.434M16.393,2.148A6.731,6.731,0,1,1,9.661,8.878a6.738,6.738,0,0,1,6.731-6.731m0,15.609a8.917,8.917,0,0,0,1.107-.071l2.341,11.31-3.448,3.478-3.448-3.478,2.341-11.31a8.923,8.923,0,0,0,1.107.071M30.582,26.1c-.354,4.6-.947,10.727-1.123,12.527l-5.169,3.307a1.074,1.074,0,0,0-.495.9V58.7a1.131,1.131,0,0,1-1.13,1.13h-5.2V47.412a1.074,1.074,0,1,0-2.148,0V59.827h-5.2a1.131,1.131,0,0,1-1.13-1.13V42.837a1.074,1.074,0,0,0-.5-.9L3.327,38.625C3.15,36.825,2.557,30.7,2.2,26.1c-.336-4.367.737-4.959,3.327-6.389.206-.113,3.717-2.081,6.047-3.377a8.852,8.852,0,0,0,1.623.829L10.724,29.124a1.075,1.075,0,0,0,.289.974l4.6,4.637a1.073,1.073,0,0,0,.762.318h.039a1.074,1.074,0,0,0,.763-.318l4.6-4.637a1.074,1.074,0,0,0,.289-.974L19.584,17.161a8.852,8.852,0,0,0,1.623-.829c2.33,1.3,5.842,3.263,6.047,3.377,2.591,1.43,3.663,2.022,3.327,6.389" transform="translate(0)" fill="#6836b1"/>
        <path id="Trazado_193576" data-name="Trazado 193576" d="M120.562,112.265s-2.3-.9-3.78-1.472a7.715,7.715,0,1,0-12.89,0c-1.483.575-3.78,1.472-3.78,1.472-1.945.755-4.885,1.9-4.885,5.923v8.6a1.074,1.074,0,0,0,1.074,1.074h28.072a1.074,1.074,0,0,0,1.074-1.074v-8.6c0-4.027-2.94-5.168-4.885-5.923m-10.225-11.274a5.568,5.568,0,1,1-5.568,5.568,5.574,5.574,0,0,1,5.568-5.568M123.3,125.71H97.375v-7.522c0-2.379,1.392-3.1,3.515-3.921,0,0,2.772-1.081,4.534-1.765a7.7,7.7,0,0,0,9.827,0c1.762.684,4.534,1.765,4.534,1.765,2.123.824,3.514,1.542,3.514,3.921Z" transform="translate(-63.472 -65.883)" fill="#6836b1"/>
        <path id="Trazado_193577" data-name="Trazado 193577" d="M82.771,2.148s30.7,0,30.728,0a1.921,1.921,0,0,1,0,3.835c-.025,0-28.554,0-28.554,0a1.074,1.074,0,1,0,0,2.148h27.542V27.043H92.343a1.074,1.074,0,1,0,0,2.148H113.56a1.074,1.074,0,0,0,1.074-1.074V7.928A4.073,4.073,0,0,0,113.78,0H82.771a1.074,1.074,0,0,0,0,2.148" transform="translate(-54.454)" fill="#6836b1"/>
        <path id="Trazado_193578" data-name="Trazado 193578" d="M114.115,41.968l3.726,2.966a1.074,1.074,0,0,0,1.484-.141l5.424-6.327a1.074,1.074,0,0,0-1.631-1.4l-4.75,5.541-3.726-2.966a1.074,1.074,0,0,0-1.484.141l-5.424,6.327a1.074,1.074,0,1,0,1.63,1.4Z" transform="translate(-71.636 -24.457)" fill="#6836b1"/>
      </g>
    </g>
  </g>
</svg>
