<svg xmlns="http://www.w3.org/2000/svg" xmlns:xlink="http://www.w3.org/1999/xlink" width="108" height="108" viewBox="0 0 108 108">
  <defs>
    <filter id="Rectángulo_43776" x="0" y="0" width="108" height="108" filterUnits="userSpaceOnUse">
      <feOffset dy="3" input="SourceAlpha"/>
      <feGaussianBlur stdDeviation="3" result="blur"/>
      <feFlood flood-opacity="0.161"/>
      <feComposite operator="in" in2="blur"/>
      <feComposite in="SourceGraphic"/>
    </filter>
    <clipPath id="clip-path">
      <rect id="Rectángulo_43787" data-name="Rectángulo 43787" width="76" height="52.25" fill="#6836bf"/>
    </clipPath>
  </defs>
  <g id="Grupo_136643" data-name="Grupo 136643" transform="translate(-536 -916)">
    <g transform="matrix(1, 0, 0, 1, 536, 916)" filter="url(#Rectángulo_43776)">
      <path id="Rectángulo_43776-2" data-name="Rectángulo 43776" d="M10,0H80A10,10,0,0,1,90,10V90a0,0,0,0,1,0,0H10A10,10,0,0,1,0,80V10A10,10,0,0,1,10,0Z" transform="translate(9 6)" fill="#f6f6f6"/>
    </g>
    <g id="Grupo_136634" data-name="Grupo 136634" transform="translate(552 941)">
      <g id="Grupo_136633" data-name="Grupo 136633" clip-path="url(#clip-path)">
        <path id="Trazado_193815" data-name="Trazado 193815" d="M33.563,37H31.188a1.188,1.188,0,0,0,0,2.375h2.375a1.188,1.188,0,0,0,0-2.375" transform="translate(5.625 6.938)" fill="#6836bf"/>
        <path id="Trazado_193816" data-name="Trazado 193816" d="M72.438,40.375H71.25V5.938A5.944,5.944,0,0,0,65.313,0h-9.5a1.188,1.188,0,0,0,0,2.375h9.5a3.567,3.567,0,0,1,3.563,3.563V40.375H52.25V39.188a5.917,5.917,0,0,0-2.993-5.124,3.54,3.54,0,0,0,.618-2V29.688a3.563,3.563,0,0,0-7.125,0v2.375a3.54,3.54,0,0,0,.618,2,5.917,5.917,0,0,0-2.993,5.124v1.188H39.188V24.938H65.313V36.813a1.188,1.188,0,0,0,2.375,0V8.313A3.567,3.567,0,0,0,64.125,4.75H11.875A3.567,3.567,0,0,0,8.313,8.313v28.5a1.188,1.188,0,0,0,2.375,0V24.938H36.813V40.375H35.625V39.188a5.917,5.917,0,0,0-2.993-5.124,3.54,3.54,0,0,0,.618-2V29.688a3.563,3.563,0,0,0-7.125,0v2.375a3.54,3.54,0,0,0,.618,2,5.917,5.917,0,0,0-2.993,5.124v1.188H7.125V5.938a3.567,3.567,0,0,1,3.563-3.562H51.063a1.188,1.188,0,0,0,0-2.375H10.688A5.944,5.944,0,0,0,4.75,5.938V40.375H3.563A3.567,3.567,0,0,0,0,43.938,8.322,8.322,0,0,0,8.313,52.25H67.688A8.322,8.322,0,0,0,76,43.938a3.567,3.567,0,0,0-3.562-3.562M42.75,22.563V21.375a3.563,3.563,0,0,1,7.125,0v1.188Zm2.375-8.312V11.875a1.188,1.188,0,0,1,2.375,0V14.25a1.188,1.188,0,0,1-2.375,0M65.313,8.313v14.25H52.25V21.375a5.917,5.917,0,0,0-2.993-5.124,3.54,3.54,0,0,0,.618-2V11.875a3.563,3.563,0,0,0-7.125,0V14.25a3.54,3.54,0,0,0,.618,2,5.917,5.917,0,0,0-2.993,5.124v1.188H39.188V7.125H64.125a1.189,1.189,0,0,1,1.188,1.188M26.125,22.563V21.375a3.563,3.563,0,0,1,7.125,0v1.188ZM28.5,14.25V11.875a1.188,1.188,0,0,1,2.375,0V14.25a1.188,1.188,0,0,1-2.375,0m7.125,8.313V21.375a5.917,5.917,0,0,0-2.993-5.124,3.54,3.54,0,0,0,.618-2V11.875a3.563,3.563,0,0,0-7.125,0V14.25a3.54,3.54,0,0,0,.618,2,5.917,5.917,0,0,0-2.993,5.124v1.188H10.688V8.313a1.189,1.189,0,0,1,1.188-1.187H36.813V22.563Zm9.5,9.5V29.688a1.188,1.188,0,0,1,2.375,0v2.375a1.188,1.188,0,0,1-2.375,0M42.75,39.188a3.563,3.563,0,0,1,7.125,0v1.188H42.75ZM28.5,32.063V29.688a1.188,1.188,0,0,1,2.375,0v2.375a1.188,1.188,0,0,1-2.375,0m-2.375,7.125a3.563,3.563,0,0,1,7.125,0v1.188H26.125ZM67.688,49.875H8.313a5.944,5.944,0,0,1-5.937-5.937A1.189,1.189,0,0,1,3.563,42.75H72.438a1.189,1.189,0,0,1,1.188,1.188,5.944,5.944,0,0,1-5.937,5.938" fill="#6836bf"/>
        <path id="Trazado_193817" data-name="Trazado 193817" d="M49.938,22a3.567,3.567,0,0,0-3.562,3.563,1.189,1.189,0,0,1-1.187,1.188,1.187,1.187,0,0,0-.84,2.027l1.679,1.679A3.536,3.536,0,0,0,48.546,31.5h3.767a3.567,3.567,0,0,0,3.563-3.562V25.563A3.567,3.567,0,0,0,52.313,22ZM53.5,25.563v2.375a1.189,1.189,0,0,1-1.187,1.188H48.546a1.2,1.2,0,0,1-.84-.348l-.372-.373a3.562,3.562,0,0,0,1.416-2.842,1.189,1.189,0,0,1,1.188-1.187h2.375A1.189,1.189,0,0,1,53.5,25.563" transform="translate(8.25 4.125)" fill="#6836bf"/>
        <path id="Trazado_193818" data-name="Trazado 193818" d="M46.027,15.456A3.536,3.536,0,0,0,48.546,16.5h3.767a3.567,3.567,0,0,0,3.563-3.562V10.563A3.567,3.567,0,0,0,52.313,7H49.938a3.567,3.567,0,0,0-3.562,3.563,1.189,1.189,0,0,1-1.187,1.188,1.187,1.187,0,0,0-.84,2.027Zm2.723-4.894a1.189,1.189,0,0,1,1.188-1.187h2.375A1.189,1.189,0,0,1,53.5,10.563v2.375a1.189,1.189,0,0,1-1.187,1.188H48.546a1.2,1.2,0,0,1-.84-.348l-.372-.373a3.562,3.562,0,0,0,1.416-2.842" transform="translate(8.25 1.313)" fill="#6836bf"/>
        <path id="Trazado_193819" data-name="Trazado 193819" d="M20.688,11.75A1.189,1.189,0,0,1,19.5,10.563,3.567,3.567,0,0,0,15.938,7H13.563A3.567,3.567,0,0,0,10,10.563v2.375A3.567,3.567,0,0,0,13.563,16.5h3.767a3.536,3.536,0,0,0,2.519-1.044l1.679-1.679a1.187,1.187,0,0,0-.84-2.027m-2.519,2.027a1.2,1.2,0,0,1-.84.348H13.563a1.189,1.189,0,0,1-1.187-1.187V10.563a1.189,1.189,0,0,1,1.188-1.187h2.375a1.189,1.189,0,0,1,1.188,1.188A3.562,3.562,0,0,0,18.54,13.4Z" transform="translate(1.875 1.313)" fill="#6836bf"/>
        <path id="Trazado_193820" data-name="Trazado 193820" d="M17.329,31.5a3.536,3.536,0,0,0,2.519-1.044l1.679-1.679a1.187,1.187,0,0,0-.84-2.027A1.189,1.189,0,0,1,19.5,25.563,3.567,3.567,0,0,0,15.938,22H13.563A3.567,3.567,0,0,0,10,25.563v2.375A3.567,3.567,0,0,0,13.563,31.5Zm-4.954-3.562V25.563a1.189,1.189,0,0,1,1.188-1.187h2.375a1.189,1.189,0,0,1,1.188,1.188A3.562,3.562,0,0,0,18.54,28.4l-.372.373a1.2,1.2,0,0,1-.84.348H13.563a1.189,1.189,0,0,1-1.187-1.187" transform="translate(1.875 4.125)" fill="#6836bf"/>
      </g>
    </g>
  </g>
</svg>
