<svg xmlns="http://www.w3.org/2000/svg" xmlns:xlink="http://www.w3.org/1999/xlink" width="108" height="108" viewBox="0 0 108 108">
  <defs>
    <filter id="Rectángulo_43778" x="0" y="0" width="108" height="108" filterUnits="userSpaceOnUse">
      <feOffset dy="3" input="SourceAlpha"/>
      <feGaussianBlur stdDeviation="3" result="blur"/>
      <feFlood flood-opacity="0.161"/>
      <feComposite operator="in" in2="blur"/>
      <feComposite in="SourceGraphic"/>
    </filter>
    <clipPath id="clip-path">
      <rect id="Rectángulo_43785" data-name="Rectángulo 43785" width="76" height="59.803" fill="#6836bf"/>
    </clipPath>
  </defs>
  <g id="Grupo_136645" data-name="Grupo 136645" transform="translate(-536 -1343)">
    <g transform="matrix(1, 0, 0, 1, 536, 1343)" filter="url(#Rectángulo_43778)">
      <path id="Rectángulo_43778-2" data-name="Rectángulo 43778" d="M10,0H80A10,10,0,0,1,90,10V90a0,0,0,0,1,0,0H10A10,10,0,0,1,0,80V10A10,10,0,0,1,10,0Z" transform="translate(9 6)" fill="#f6f6f6"/>
    </g>
    <g id="Grupo_136630" data-name="Grupo 136630" transform="translate(552 1364.098)">
      <g id="Grupo_136629" data-name="Grupo 136629" clip-path="url(#clip-path)">
        <path id="Trazado_193796" data-name="Trazado 193796" d="M33.563,41H31.188a1.247,1.247,0,0,0,0,2.492h2.375a1.247,1.247,0,0,0,0-2.492" transform="translate(5.625 10.082)" fill="#6836bf"/>
        <path id="Trazado_193797" data-name="Trazado 193797" d="M36.188,16A1.218,1.218,0,0,0,35,17.246v1.246a1.189,1.189,0,1,0,2.375,0V17.246A1.218,1.218,0,0,0,36.188,16" transform="translate(6.563 3.934)" fill="#6836bf"/>
        <path id="Trazado_193798" data-name="Trazado 193798" d="M28.188,16A1.218,1.218,0,0,0,27,17.246v1.246a1.189,1.189,0,1,0,2.375,0V17.246A1.218,1.218,0,0,0,28.188,16" transform="translate(5.063 3.934)" fill="#6836bf"/>
        <path id="Trazado_193799" data-name="Trazado 193799" d="M5.188,23.492h7.125a1.247,1.247,0,0,0,0-2.492H5.188a1.247,1.247,0,0,0,0,2.492" transform="translate(0.75 5.164)" fill="#6836bf"/>
        <path id="Trazado_193800" data-name="Trazado 193800" d="M12.313,27.492a1.247,1.247,0,0,0,0-2.492H5.188a1.247,1.247,0,0,0,0,2.492Z" transform="translate(0.75 6.148)" fill="#6836bf"/>
        <path id="Trazado_193801" data-name="Trazado 193801" d="M72.438,37.377A3.658,3.658,0,0,0,76,33.639V26.164a3.658,3.658,0,0,0-3.562-3.738H71.25V11.213a6.1,6.1,0,0,0-5.937-6.23H48.591a13.746,13.746,0,0,0-21.183,0H10.688a6.1,6.1,0,0,0-5.937,6.23V22.426H3.562A3.658,3.658,0,0,0,0,26.164v7.475a3.658,3.658,0,0,0,3.562,3.738H4.75v9.967H3.562A3.658,3.658,0,0,0,0,51.082,8.534,8.534,0,0,0,8.313,59.8H67.688A8.534,8.534,0,0,0,76,51.082a3.658,3.658,0,0,0-3.562-3.738H71.25V37.377Zm1.188-11.213v7.475a1.22,1.22,0,0,1-1.187,1.246H59.172a1.155,1.155,0,0,1-.841-.365l-2.057-2.158a3.688,3.688,0,0,0,3.1-3.707V26.164a1.22,1.22,0,0,1,1.188-1.246H72.438a1.22,1.22,0,0,1,1.188,1.246M48.687,21.18V16.2a2.495,2.495,0,0,1,0,4.984m-6.23,26.164-2.041-7.5.886-3.717h3.823A10.973,10.973,0,0,1,55.812,47.344Zm-22.27,0A10.973,10.973,0,0,1,30.875,36.131H34.7l.886,3.717-2.041,7.5ZM38.854,36.131l-.594,2.492h-.52l-.594-2.492Zm-1.146,4.984h.584l1.7,6.23H36.012ZM38,33.639A8.2,8.2,0,0,1,31.188,29.9H38a1.247,1.247,0,0,0,0-2.492H30.038a9.062,9.062,0,0,1-.35-2.492v-6.23H38.2a3.455,3.455,0,0,0,2.52-1.1l.84-.881.84.881a3.455,3.455,0,0,0,2.52,1.1h1.391v6.23A8.534,8.534,0,0,1,38,33.639M46.312,16.2H44.922a1.155,1.155,0,0,1-.841-.365L42.4,14.07a1.148,1.148,0,0,0-1.679,0l-1.679,1.762a1.155,1.155,0,0,1-.841.365H29.687V14.951A8.534,8.534,0,0,1,38,6.23a8.534,8.534,0,0,1,8.312,8.721Zm-19,1.246V21.18a2.495,2.495,0,0,1,0-4.984ZM26.125,23.5a4.474,4.474,0,0,0,1.188.177v1.246a11.679,11.679,0,0,0,.126,1.628,3.785,3.785,0,0,1-1.313-2.874ZM38,2.492A12.128,12.128,0,0,1,49.823,13.864a4.508,4.508,0,0,0-1.135-.159h-.07A10.9,10.9,0,0,0,38,3.738,10.9,10.9,0,0,0,27.383,13.7h-.07a4.508,4.508,0,0,0-1.135.159A12.128,12.128,0,0,1,38,2.492M2.375,33.639V26.164a1.22,1.22,0,0,1,1.187-1.246H15.437a1.22,1.22,0,0,1,1.188,1.246v2.492a3.688,3.688,0,0,0,3.1,3.707L17.669,34.52a1.155,1.155,0,0,1-.841.365H3.562a1.22,1.22,0,0,1-1.187-1.246m4.75,3.738h9.7a3.455,3.455,0,0,0,2.52-1.1L23.4,32.028a1.291,1.291,0,0,0,.258-1.358,1.19,1.19,0,0,0-1.1-.769H20.188A1.22,1.22,0,0,1,19,28.656V26.164a3.658,3.658,0,0,0-3.563-3.738H7.125V11.213a3.658,3.658,0,0,1,3.563-3.738H25.679a15.138,15.138,0,0,0-1.1,2.492H13.062A3.658,3.658,0,0,0,9.5,13.7v4.984a1.189,1.189,0,1,0,2.375,0V13.7a1.22,1.22,0,0,1,1.188-1.246h10.9a15.647,15.647,0,0,0-.215,2.492v.476a5.073,5.073,0,0,0,0,6.524v1.722a6.175,6.175,0,0,0,4.612,6.06A11.189,11.189,0,0,0,31.3,33.639h-.423c-7.2,0-13.062,6.149-13.062,13.7H11.875v-6.23a1.189,1.189,0,1,0-2.375,0v6.23H7.125Zm66.5,13.7a6.1,6.1,0,0,1-5.937,6.23H8.313a6.1,6.1,0,0,1-5.937-6.23,1.22,1.22,0,0,1,1.187-1.246H72.438a1.22,1.22,0,0,1,1.188,1.246m-4.75-3.738H66.5v-6.23a1.189,1.189,0,1,0-2.375,0v6.23H58.187c0-7.556-5.86-13.7-13.062-13.7H44.7a11.4,11.4,0,0,0,3.985-8.721V23.672a4.876,4.876,0,0,0,4.75-4.984,5.081,5.081,0,0,0-1.187-3.262v-.476a15.647,15.647,0,0,0-.215-2.492h10.9A1.22,1.22,0,0,1,64.125,13.7v4.984a1.189,1.189,0,1,0,2.375,0V13.7a3.658,3.658,0,0,0-3.563-3.738H51.419a15.139,15.139,0,0,0-1.1-2.492H65.313a3.658,3.658,0,0,1,3.563,3.738V22.426H60.562A3.658,3.658,0,0,0,57,26.164v2.492A1.22,1.22,0,0,1,55.812,29.9H53.437a1.19,1.19,0,0,0-1.1.769,1.291,1.291,0,0,0,.258,1.358l4.054,4.254a3.455,3.455,0,0,0,2.52,1.1h9.7Z" fill="#6836bf"/>
        <path id="Trazado_193802" data-name="Trazado 193802" d="M53.187,21a1.247,1.247,0,0,0,0,2.492h7.125a1.247,1.247,0,0,0,0-2.492Z" transform="translate(9.75 5.164)" fill="#6836bf"/>
        <path id="Trazado_193803" data-name="Trazado 193803" d="M60.312,25H53.187a1.247,1.247,0,0,0,0,2.492h7.125a1.247,1.247,0,0,0,0-2.492" transform="translate(9.75 6.148)" fill="#6836bf"/>
      </g>
    </g>
  </g>
</svg>
