<svg xmlns="http://www.w3.org/2000/svg" xmlns:xlink="http://www.w3.org/1999/xlink" width="108" height="108" viewBox="0 0 108 108">
  <defs>
    <filter id="Rectángulo_43779" x="0" y="0" width="108" height="108" filterUnits="userSpaceOnUse">
      <feOffset dy="3" input="SourceAlpha"/>
      <feGaussianBlur stdDeviation="3" result="blur"/>
      <feFlood flood-opacity="0.161"/>
      <feComposite operator="in" in2="blur"/>
      <feComposite in="SourceGraphic"/>
    </filter>
    <clipPath id="clip-path">
      <rect id="Rectángulo_43784" data-name="Rectángulo 43784" width="76" height="47.5" fill="#6836bf"/>
    </clipPath>
  </defs>
  <g id="Grupo_136646" data-name="Grupo 136646" transform="translate(-957 -1562)">
    <g transform="matrix(1, 0, 0, 1, 957, 1562)" filter="url(#Rectángulo_43779)">
      <path id="Rectángulo_43779-2" data-name="Rectángulo 43779" d="M10,0H80A10,10,0,0,1,90,10V90a0,0,0,0,1,0,0H10A10,10,0,0,1,0,80V10A10,10,0,0,1,10,0Z" transform="translate(9 6)" fill="#f6f6f6"/>
    </g>
    <g id="Grupo_136628" data-name="Grupo 136628" transform="translate(973 1589)">
      <g id="Grupo_136627" data-name="Grupo 136627" clip-path="url(#clip-path)">
        <path id="Trazado_193791" data-name="Trazado 193791" d="M76,29.688a3.567,3.567,0,0,0-3.562-3.562H68.875V23.75h1.188a1.188,1.188,0,0,0,0-2.375H68.875V19h1.188a1.188,1.188,0,0,0,0-2.375H68.875a4.755,4.755,0,0,0-4.75-4.75,4.7,4.7,0,0,0-2.375.66v-6.6A5.944,5.944,0,0,0,55.813,0H52.25a1.188,1.188,0,0,0,0,2.375h3.563a3.567,3.567,0,0,1,3.563,3.563V38H7.125V5.938a3.567,3.567,0,0,1,3.563-3.562H47.5A1.188,1.188,0,0,0,47.5,0H10.688A5.944,5.944,0,0,0,4.75,5.938V38H1.188A1.188,1.188,0,0,0,0,39.188,8.322,8.322,0,0,0,8.313,47.5h61.75a3.567,3.567,0,0,0,3.563-3.562V33.032A3.558,3.558,0,0,0,76,29.688M64.125,14.25A2.377,2.377,0,0,1,66.5,16.625H65.313a1.188,1.188,0,0,0,0,2.375H66.5v2.375H65.313a1.188,1.188,0,0,0,0,2.375H66.5v2.375H61.75v-9.5a2.377,2.377,0,0,1,2.375-2.375M2.495,40.375h61.51a5.947,5.947,0,0,1-5.818,4.75H8.313a5.947,5.947,0,0,1-5.818-4.75m69.943-9.5H65.313a1.188,1.188,0,0,0,0,2.375H71.25V43.938a1.189,1.189,0,0,1-1.187,1.188H63.994A8.285,8.285,0,0,0,66.5,39.188,1.188,1.188,0,0,0,65.313,38H61.75V28.5H72.438a1.188,1.188,0,0,1,0,2.375" fill="#6836bf"/>
        <path id="Trazado_193792" data-name="Trazado 193792" d="M29.563,35H27.188a1.188,1.188,0,0,0,0,2.375h2.375a1.188,1.188,0,0,0,0-2.375" transform="translate(4.875 6.563)" fill="#6836bf"/>
        <path id="Trazado_193793" data-name="Trazado 193793" d="M27,7.563A3.567,3.567,0,0,0,23.438,4H11.563A3.567,3.567,0,0,0,8,7.563v9.5a1.187,1.187,0,0,0,2.027.84l4.054-4.054a1.182,1.182,0,0,1,.841-.348h8.516A3.567,3.567,0,0,0,27,9.938ZM24.625,9.938a1.189,1.189,0,0,1-1.187,1.188H14.922a3.537,3.537,0,0,0-2.52,1.044L10.375,14.2V7.563a1.189,1.189,0,0,1,1.188-1.187H23.438a1.189,1.189,0,0,1,1.188,1.188Z" transform="translate(1.5 0.75)" fill="#6836bf"/>
        <path id="Trazado_193794" data-name="Trazado 193794" d="M23.438,18H11.563A3.567,3.567,0,0,0,8,21.563v9.5a1.187,1.187,0,0,0,2.027.84l4.054-4.054a1.182,1.182,0,0,1,.841-.348h8.516A3.567,3.567,0,0,0,27,23.938V21.563A3.567,3.567,0,0,0,23.438,18m1.188,5.938a1.189,1.189,0,0,1-1.187,1.188H14.922a3.537,3.537,0,0,0-2.52,1.044L10.375,28.2V21.563a1.189,1.189,0,0,1,1.188-1.187H23.438a1.189,1.189,0,0,1,1.188,1.188Z" transform="translate(1.5 3.375)" fill="#6836bf"/>
        <path id="Trazado_193795" data-name="Trazado 193795" d="M32,14.563v2.375A3.567,3.567,0,0,0,35.563,20.5h8.516a1.182,1.182,0,0,1,.841.348L48.973,24.9A1.187,1.187,0,0,0,51,24.063v-9.5A3.567,3.567,0,0,0,47.438,11H35.563A3.567,3.567,0,0,0,32,14.563m16.625,0V21.2L46.6,19.169a3.537,3.537,0,0,0-2.52-1.044H35.563a1.189,1.189,0,0,1-1.187-1.187V14.563a1.189,1.189,0,0,1,1.188-1.187H47.438a1.189,1.189,0,0,1,1.188,1.188" transform="translate(6 2.063)" fill="#6836bf"/>
      </g>
    </g>
  </g>
</svg>
