<svg xmlns="http://www.w3.org/2000/svg" xmlns:xlink="http://www.w3.org/1999/xlink" width="108" height="108" viewBox="0 0 108 108">
  <defs>
    <filter id="Rectángulo_43780" x="0" y="0" width="108" height="108" filterUnits="userSpaceOnUse">
      <feOffset dy="3" input="SourceAlpha"/>
      <feGaussianBlur stdDeviation="3" result="blur"/>
      <feFlood flood-opacity="0.161"/>
      <feComposite operator="in" in2="blur"/>
      <feComposite in="SourceGraphic"/>
    </filter>
    <clipPath id="clip-path">
      <rect id="Rectángulo_43783" data-name="Rectángulo 43783" width="76" height="48" transform="translate(0 -0.25)" fill="#6836bf"/>
    </clipPath>
  </defs>
  <g id="Grupo_136647" data-name="Grupo 136647" transform="translate(-536 -1791)">
    <g transform="matrix(1, 0, 0, 1, 536, 1791)" filter="url(#Rectángulo_43780)">
      <path id="Rectángulo_43780-2" data-name="Rectángulo 43780" d="M10,0H80A10,10,0,0,1,90,10V90a0,0,0,0,1,0,0H10A10,10,0,0,1,0,80V10A10,10,0,0,1,10,0Z" transform="translate(9 6)" fill="#f6f6f6"/>
    </g>
    <g id="Grupo_136625" data-name="Grupo 136625" transform="translate(552 1818.25)">
      <g id="Grupo_136624" data-name="Grupo 136624" clip-path="url(#clip-path)">
        <path id="Trazado_193784" data-name="Trazado 193784" d="M29.563,35H27.188a1.188,1.188,0,0,0,0,2.375h2.375a1.188,1.188,0,0,0,0-2.375" transform="translate(4.875 6.563)" fill="#6836bf"/>
        <path id="Trazado_193785" data-name="Trazado 193785" d="M10.188,4A1.187,1.187,0,0,0,9,5.188v28.5a1.187,1.187,0,0,0,1.188,1.188h42.75a1.187,1.187,0,0,0,1.188-1.187V5.188A1.187,1.187,0,0,0,52.938,4Zm1.188,11.875H23.25V23H11.375ZM33.7,9.938l3.8-2.532v5.063ZM34.765,13.5H28.36l3.2-2.135Zm5.11-1.031V7.406l3.8,2.532Zm5.938-1.1,3.2,2.135H42.61ZM31.563,8.51l-3.2-2.135h6.405ZM29.421,9.938l-3.8,2.532V7.406Zm-3.8,5.938H37.5V23H25.625Zm14.25,0H51.75V23H39.875ZM51.75,12.469l-3.8-2.532,3.8-2.531ZM45.813,8.51l-3.2-2.135h6.407ZM11.375,6.375H23.25V13.5H11.375Zm0,19H23.25V32.5H11.375Zm14.25,0H37.5V32.5H25.625ZM51.75,32.5H39.875V25.375H51.75Z" transform="translate(1.688 0.75)" fill="#6836bf"/>
        <path id="Trazado_193786" data-name="Trazado 193786" d="M18.938,7h-4.75a1.188,1.188,0,0,0,0,2.375h4.75a1.188,1.188,0,0,0,0-2.375" transform="translate(2.438 1.313)" fill="#6836bf"/>
        <path id="Trazado_193787" data-name="Trazado 193787" d="M29.938,15h-4.75a1.188,1.188,0,0,0,0,2.375h4.75a1.188,1.188,0,0,0,0-2.375" transform="translate(4.5 2.813)" fill="#6836bf"/>
        <path id="Trazado_193788" data-name="Trazado 193788" d="M29.938,23h-4.75a1.188,1.188,0,0,0,0,2.375h4.75a1.188,1.188,0,0,0,0-2.375" transform="translate(4.5 4.313)" fill="#6836bf"/>
        <path id="Trazado_193789" data-name="Trazado 193789" d="M41.938,15h-4.75a1.188,1.188,0,0,0,0,2.375h4.75a1.188,1.188,0,0,0,0-2.375" transform="translate(6.75 2.813)" fill="#6836bf"/>
        <path id="Trazado_193790" data-name="Trazado 193790" d="M76,29.688a3.567,3.567,0,0,0-3.562-3.562H68.875V23.75h1.188a1.188,1.188,0,0,0,0-2.375H68.875V19h1.188a1.188,1.188,0,0,0,0-2.375H68.875a4.755,4.755,0,0,0-4.75-4.75,4.7,4.7,0,0,0-2.375.66v-6.6A5.944,5.944,0,0,0,55.813,0H52.25a1.188,1.188,0,0,0,0,2.375h3.563a3.567,3.567,0,0,1,3.563,3.563V38H7.125V5.938a3.567,3.567,0,0,1,3.563-3.562H47.5A1.188,1.188,0,0,0,47.5,0H10.688A5.944,5.944,0,0,0,4.75,5.938V38H1.188A1.187,1.187,0,0,0,0,39.188,8.322,8.322,0,0,0,8.313,47.5h61.75a3.567,3.567,0,0,0,3.563-3.562V33.032A3.558,3.558,0,0,0,76,29.688M64.125,14.25A2.377,2.377,0,0,1,66.5,16.625H65.313a1.188,1.188,0,0,0,0,2.375H66.5v2.375H65.313a1.188,1.188,0,0,0,0,2.375H66.5v2.375H61.75v-9.5a2.377,2.377,0,0,1,2.375-2.375M2.495,40.375h61.51a5.947,5.947,0,0,1-5.818,4.75H8.313a5.947,5.947,0,0,1-5.818-4.75m69.943-9.5H65.313a1.188,1.188,0,0,0,0,2.375H71.25V43.938a1.189,1.189,0,0,1-1.187,1.188H63.993A8.281,8.281,0,0,0,66.5,39.188,1.187,1.187,0,0,0,65.313,38H61.75V28.5H72.438a1.188,1.188,0,0,1,0,2.375" fill="#6836bf"/>
      </g>
    </g>
  </g>
</svg>
