<svg xmlns="http://www.w3.org/2000/svg" xmlns:xlink="http://www.w3.org/1999/xlink" width="190" height="111" viewBox="0 0 190 111">
  <defs>
    <linearGradient id="linear-gradient" x1="0.5" x2="0.5" y2="1" gradientUnits="objectBoundingBox">
      <stop offset="0" stop-color="#f7ca2e" stop-opacity="0"/>
      <stop offset="0.091" stop-color="#f7ca2e" stop-opacity="0.129"/>
      <stop offset="0.283" stop-color="#f7ca2e" stop-opacity="0.388"/>
      <stop offset="0.465" stop-color="#f7ca2e" stop-opacity="0.612"/>
      <stop offset="0.633" stop-color="#f7ca2e" stop-opacity="0.78"/>
      <stop offset="0.784" stop-color="#f7ca2e" stop-opacity="0.902"/>
      <stop offset="0.911" stop-color="#f7ca2e" stop-opacity="0.969"/>
      <stop offset="1" stop-color="#f7ca2e"/>
    </linearGradient>
    <linearGradient id="linear-gradient-2" x1="0.5" x2="0.5" y2="1" gradientUnits="objectBoundingBox">
      <stop offset="0" stop-color="#b13e8d" stop-opacity="0"/>
      <stop offset="0.091" stop-color="#b13e8d" stop-opacity="0.129"/>
      <stop offset="0.283" stop-color="#b13e8d" stop-opacity="0.388"/>
      <stop offset="0.465" stop-color="#b13e8d" stop-opacity="0.612"/>
      <stop offset="0.633" stop-color="#b13e8d" stop-opacity="0.78"/>
      <stop offset="0.784" stop-color="#b13e8d"/>
      <stop offset="0.911" stop-color="#b13e8d" stop-opacity="0.969"/>
      <stop offset="1" stop-color="#b13e8d"/>
    </linearGradient>
    <filter id="Rectángulo_40715" x="41" y="3" width="108" height="108" filterUnits="userSpaceOnUse">
      <feOffset dy="3" input="SourceAlpha"/>
      <feGaussianBlur stdDeviation="3" result="blur"/>
      <feFlood flood-opacity="0.161"/>
      <feComposite operator="in" in2="blur"/>
      <feComposite in="SourceGraphic"/>
    </filter>
    <clipPath id="clip-path">
      <rect id="Rectángulo_43718" data-name="Rectángulo 43718" width="63" height="66.599" fill="none"/>
    </clipPath>
  </defs>
  <g id="Grupo_136649" data-name="Grupo 136649" transform="translate(-179 -2132.42)">
    <g id="Grupo_133509" data-name="Grupo 133509" transform="translate(-5 820.42)">
      <rect id="Rectángulo_40586" data-name="Rectángulo 40586" width="190" height="20" transform="translate(184 1357)" fill="none"/>
      <g id="Grupo_108405" data-name="Grupo 108405" transform="translate(213.5 1376)">
        <path id="Rectángulo_5242" data-name="Rectángulo 5242" d="M0,0H12a0,0,0,0,1,0,0V43.333a3,3,0,0,1-3,3H3a3,3,0,0,1-3-3V0A0,0,0,0,1,0,0Z" transform="translate(0 0)" fill="url(#linear-gradient)"/>
      </g>
      <g id="Grupo_108406" data-name="Grupo 108406" transform="translate(344 1364) rotate(180)">
        <path id="Rectángulo_5242-2" data-name="Rectángulo 5242" d="M0,0H12a0,0,0,0,1,0,0V49a3,3,0,0,1-3,3H3a3,3,0,0,1-3-3V0A0,0,0,0,1,0,0Z" transform="translate(0 0)" fill="url(#linear-gradient-2)"/>
      </g>
      <g transform="matrix(1, 0, 0, 1, 184, 1312)" filter="url(#Rectángulo_40715)">
        <path id="Rectángulo_40715-2" data-name="Rectángulo 40715" d="M10,0H80A10,10,0,0,1,90,10V90a0,0,0,0,1,0,0H10A10,10,0,0,1,0,80V10A10,10,0,0,1,10,0Z" transform="translate(50 9)" fill="#f6f6f6"/>
      </g>
    </g>
    <g id="Grupo_136479" data-name="Grupo 136479" transform="translate(242.5 2154.5)">
      <g id="Grupo_136478" data-name="Grupo 136478" clip-path="url(#clip-path)">
        <path id="Trazado_193573" data-name="Trazado 193573" d="M73.363,64.178l-4.209-1.651a8.64,8.64,0,1,0-14.455.009c-1.653.642-4.215,1.642-4.215,1.642-2.179.845-5.471,2.123-5.471,6.634v8.654a1.211,1.211,0,0,0,1.211,1.212h31.4a1.212,1.212,0,0,0,1.212-1.212V70.812c0-4.512-3.293-5.789-5.471-6.634M61.923,51.589a6.217,6.217,0,1,1-6.217,6.217,6.224,6.224,0,0,1,6.217-6.217M76.411,78.254H71.7V74.286a1.212,1.212,0,0,0-2.423,0v3.968H54.564V74.286a1.211,1.211,0,1,0-2.423,0v3.968H47.435V70.812c0-2.654,1.554-3.456,3.925-4.376,0,0,3.1-1.208,5.065-1.971a8.623,8.623,0,0,0,11,0c1.969.764,5.065,1.971,5.065,1.971,2.371.92,3.925,1.721,3.925,4.376Z" transform="translate(-30.423 -33.231)" fill="#6836b1"/>
        <path id="Trazado_193574" data-name="Trazado 193574" d="M62.807,48.991a5.569,5.569,0,0,0-2.029-3.013A31.09,31.09,0,0,0,37.066,4.909a5.61,5.61,0,0,0-11.132,0A31.09,31.09,0,0,0,2.223,45.978a5.612,5.612,0,0,0,1.942,9.891,5.643,5.643,0,0,0,1.462.193,5.555,5.555,0,0,0,2.179-.447,31.048,31.048,0,0,0,47.387,0,5.555,5.555,0,0,0,2.179.447,5.643,5.643,0,0,0,1.462-.193,5.616,5.616,0,0,0,3.971-6.878M31.5,2.423a3.193,3.193,0,1,1-3.193,3.193A3.2,3.2,0,0,1,31.5,2.423M4.792,53.528a3.194,3.194,0,0,1,.821-6.278,3.214,3.214,0,0,1,.831.11,3.193,3.193,0,1,1-1.652,6.168M31.5,64.176A28.616,28.616,0,0,1,9.786,54.2a5.614,5.614,0,0,0-5.356-9.248A28.67,28.67,0,0,1,26.155,7.33a5.613,5.613,0,0,0,10.691,0A28.67,28.67,0,0,1,58.57,44.957,5.613,5.613,0,0,0,53.214,54.2,28.616,28.616,0,0,1,31.5,64.176M60.147,52.041a3.193,3.193,0,1,1-3.592-4.681,3.217,3.217,0,0,1,.832-.11,3.194,3.194,0,0,1,2.76,4.79" transform="translate(0)" fill="#6836b1"/>
      </g>
    </g>
  </g>
</svg>
