<svg xmlns="http://www.w3.org/2000/svg" xmlns:xlink="http://www.w3.org/1999/xlink" width="90" height="90" viewBox="0 0 90 90">
  <defs>
    <clipPath id="clip-path">
      <rect id="Rectángulo_43728" data-name="Rectángulo 43728" width="60" height="61.786" fill="none" stroke="#fff" stroke-width="2"/>
    </clipPath>
  </defs>
  <g id="Grupo_136522" data-name="Grupo 136522" transform="translate(-335 -1924)">
    <circle id="Elipse_5201" data-name="Elipse 5201" cx="45" cy="45" r="45" transform="translate(335 1924)" fill="#b13e8d"/>
    <g id="Grupo_136504" data-name="Grupo 136504" transform="translate(352 1941)">
      <path id="Trazado_193593" data-name="Trazado 193593" d="M69.625,22.186,83.6,36.061,72.916,46.873,58.166,32.936" transform="translate(-39.291 -14.686)" fill="none" stroke="#fff" stroke-linecap="square" stroke-miterlimit="10" stroke-width="2"/>
      <path id="Trazado_193594" data-name="Trazado 193594" d="M56.492,66.151,51.438,72" transform="translate(-34.439 -42.495)" fill="none" stroke="#fff" stroke-linecap="square" stroke-miterlimit="10" stroke-width="2"/>
      <line id="Línea_465" data-name="Línea 465" x1="5.486" y2="5.783" transform="translate(21.5 27.717)" fill="none" stroke="#fff" stroke-linecap="square" stroke-miterlimit="10" stroke-width="2"/>
      <g id="Grupo_136503" data-name="Grupo 136503" transform="translate(-2 -3)">
        <g id="Grupo_136502" data-name="Grupo 136502" clip-path="url(#clip-path)">
          <path id="Trazado_193595" data-name="Trazado 193595" d="M13.528,91.741a4.552,4.552,0,0,1,6.438,6.438L8.3,109.846l-6.438-6.438,8.531-8.531" transform="translate(1.503 -57.119)" fill="none" stroke="#fff" stroke-linecap="square" stroke-miterlimit="10" stroke-width="2"/>
          <path id="Trazado_193596" data-name="Trazado 193596" d="M53.468,8.736l.726-.726a3.921,3.921,0,0,0-5.545-5.546l-3.105,3.1-6.918,6.918a3.921,3.921,0,1,0,5.546,5.546l6.379-6.379,10.5,10.5" transform="translate(-22.076 1.864)" fill="none" stroke="#fff" stroke-linecap="square" stroke-miterlimit="10" stroke-width="2"/>
          <path id="Trazado_193597" data-name="Trazado 193597" d="M97.5,76.906l-2.936-2.936a1.845,1.845,0,0,1,0-2.609L107.52,58.4a1.845,1.845,0,0,1,2.609,0l2.936,2.936a1.845,1.845,0,0,1,0,2.609L100.107,76.906A1.845,1.845,0,0,1,97.5,76.906Z" transform="translate(-59.511 -35.571)" fill="none" stroke="#fff" stroke-linecap="square" stroke-miterlimit="10" stroke-width="2"/>
          <path id="Trazado_193598" data-name="Trazado 193598" d="M101.108,133.907a3.446,3.446,0,0,1,3.282-2.4h10.828a3.444,3.444,0,0,1,3.444,3.444v2.516H100.945" transform="translate(-67.742 -84.331)" fill="none" stroke="#fff" stroke-linecap="square" stroke-miterlimit="10" stroke-width="2"/>
          <path id="Trazado_193599" data-name="Trazado 193599" d="M113.877,157.349H86.183v-6.97a1.23,1.23,0,0,1,1.23-1.23h25.234a1.23,1.23,0,0,1,1.23,1.23Z" transform="translate(-57.969 -96.007)" fill="none" stroke="#fff" stroke-linecap="square" stroke-miterlimit="10" stroke-width="2"/>
        </g>
      </g>
    </g>
  </g>
</svg>
