<svg xmlns="http://www.w3.org/2000/svg" xmlns:xlink="http://www.w3.org/1999/xlink" width="110" height="110" viewBox="0 0 110 110">
  <defs>
    <clipPath id="clip-path">
      <rect id="Rectángulo_43721" data-name="Rectángulo 43721" width="78" height="78" fill="#fff" stroke="#fff" stroke-width="1"/>
    </clipPath>
  </defs>
  <g id="Grupo_136640" data-name="Grupo 136640" transform="translate(-395 -2475)">
    <circle id="Elipse_5380" data-name="Elipse 5380" cx="55" cy="55" r="55" transform="translate(395 2475)" fill="#b13e8d"/>
    <g id="Grupo_136488" data-name="Grupo 136488" transform="translate(411 2489)">
      <g id="Grupo_136487" data-name="Grupo 136487" transform="translate(0 2)" clip-path="url(#clip-path)">
        <path id="Trazado_193579" data-name="Trazado 193579" d="M81.924,46.852a.9.9,0,0,0-1.233.33L72.1,62.068a2.336,2.336,0,0,0-.279-.018,2.291,2.291,0,0,0-1.383.465l-8.6-4.963a.9.9,0,1,0-.9,1.563l8.6,4.962a2.336,2.336,0,0,0-.019.279,2.306,2.306,0,1,0,4.147-1.383l8.6-14.888a.9.9,0,0,0-.33-1.233" transform="translate(-32.819 -25.356)" fill="#fff" stroke="#fff" stroke-width="1"/>
        <path id="Trazado_193581" data-name="Trazado 193581" d="M110.315,92.461a17.854,17.854,0,1,0,17.854,17.854,17.874,17.874,0,0,0-17.854-17.854m0,33.9a16.049,16.049,0,1,1,16.049-16.049,16.067,16.067,0,0,1-16.049,16.049" transform="translate(-50.169 -50.169)" fill="#fff" stroke="#fff" stroke-width="1"/>
        <path id="Trazado_193582" data-name="Trazado 193582" d="M44.654,75.769A37.653,37.653,0,0,1,39,76.2,37.2,37.2,0,1,1,76.2,39a37.658,37.658,0,0,1-.427,5.654.9.9,0,0,0,1.784.272A39.03,39.03,0,0,0,39,0a39,39,0,1,0,0,78,39.465,39.465,0,0,0,5.926-.447.9.9,0,0,0-.272-1.784" transform="translate(0 -0.001)" fill="#fff" stroke="#fff" stroke-width="1"/>
        <path id="Trazado_193583" data-name="Trazado 193583" d="M77.52,48.322a.9.9,0,0,0,1.8.045s.02-.62.02-.8A31.781,31.781,0,1,0,47.562,79.345c.183,0,.8-.02.8-.02a.9.9,0,0,0,.88-.924.891.891,0,0,0-.924-.88s-.6.019-.759.019a29.791,29.791,0,0,1-14.2-3.582l1.692-2.932a.9.9,0,1,0-1.563-.9L31.806,73.05a30.2,30.2,0,0,1-9.73-9.73L25,61.631a.9.9,0,1,0-.9-1.563L21.168,61.76a29.78,29.78,0,0,1-3.56-13.295h3.383a.9.9,0,0,0,0-1.8H17.608a29.777,29.777,0,0,1,3.56-13.294L24.1,35.059A.9.9,0,0,0,25,33.5l-2.926-1.69a30.2,30.2,0,0,1,9.73-9.73L33.495,25a.9.9,0,1,0,1.563-.9l-1.692-2.932a29.774,29.774,0,0,1,13.295-3.56v3.382a.9.9,0,1,0,1.8,0V17.609a29.777,29.777,0,0,1,13.295,3.56L60.067,24.1a.9.9,0,1,0,1.563.9l1.689-2.926a30.2,30.2,0,0,1,9.73,9.73L70.123,33.5a.9.9,0,0,0,.9,1.563l2.932-1.692a29.787,29.787,0,0,1,3.582,14.2c0,.162-.02.758-.02.758" transform="translate(-8.563 -8.563)" fill="#fff" stroke="#fff" stroke-width="1"/>
      </g>
    </g>
  </g>
</svg>
