<svg xmlns="http://www.w3.org/2000/svg" xmlns:xlink="http://www.w3.org/1999/xlink" width="110" height="110" viewBox="0 0 110 110">
  <defs>
    <clipPath id="clip-path">
      <rect id="Rectángulo_43722" data-name="Rectángulo 43722" width="66" height="69.726" transform="translate(-2 -2)" fill="#fff9f9" stroke="#fff" stroke-width="1"/>
    </clipPath>
  </defs>
  <g id="Grupo_136639" data-name="Grupo 136639" transform="translate(-745 -2475)">
    <circle id="Elipse_5378" data-name="Elipse 5378" cx="55" cy="55" r="55" transform="translate(745 2475)" fill="#b13e8d"/>
    <g id="Grupo_136490" data-name="Grupo 136490" transform="translate(770 2497.31)">
      <g id="Grupo_136489" data-name="Grupo 136489" clip-path="url(#clip-path)">
        <path id="Trazado_193584" data-name="Trazado 193584" d="M134.559,65.616a.705.705,0,0,0-.955.291L127.82,76.764H115.836a.706.706,0,1,0,0,1.412h12.408a.706.706,0,0,0,.623-.374l5.983-11.231a.706.706,0,0,0-.291-.955" transform="translate(-73.933 -42.083)" fill="#fff9f9" stroke="#fff" stroke-width="1"/>
        <path id="Trazado_193585" data-name="Trazado 193585" d="M51.6,41.375a4.887,4.887,0,0,0-4.439-2.856H37.937A3.508,3.508,0,0,1,34.35,34.9c0-.473-.005-1.6-.006-2.976a3.748,3.748,0,0,0,1.917.524H47.492a3.752,3.752,0,1,0,0-7.5H38.807L35.8,17.385a9.263,9.263,0,1,0-12.018-2.838,17.706,17.706,0,0,0-5.876,7.17c-1.116-2.464-2.287-4.213-4.043-4.578-1.678-.35-3.6.63-6.057,3.083a26.655,26.655,0,1,0,37.7,37.7A13.5,13.5,0,0,0,47,56.149l2.949,6.473a4.877,4.877,0,0,0,9.007-.313,4.828,4.828,0,0,0-.121-3.711ZM31.375,1.412a7.846,7.846,0,1,1-7.845,7.845,7.854,7.854,0,0,1,7.845-7.845M44.505,56.92a25.243,25.243,0,0,1-35.7-35.7c1.837-1.837,3.279-2.738,4.388-2.738a1.9,1.9,0,0,1,.384.038c1.761.366,3.012,3.541,4.46,7.217,1.724,4.375,3.869,9.82,8,13.95,4,4,8.321,4.8,12.9,5.651,1.291.239,2.625.487,3.969.812a5.475,5.475,0,0,1,4.237,3.723c.615,2.187-.346,4.755-2.636,7.045m13.126,4.894a3.471,3.471,0,0,1-3.244,2.253,3.476,3.476,0,0,1-3.156-2.03l-3.354-7.363a7.239,7.239,0,0,0,.624-5.181,6.933,6.933,0,0,0-5.265-4.713c-1.382-.334-2.735-.585-4.043-.828-4.544-.844-8.468-1.573-12.157-5.262-3.923-3.923-6.009-9.216-7.685-13.47-.221-.562-.436-1.106-.649-1.632a16.348,16.348,0,0,1,5.982-7.942,9.239,9.239,0,0,0,9.829,2.321l3.159,7.948a.706.706,0,0,0,.656.445h9.164a2.341,2.341,0,0,1,0,4.681H36.261a2.329,2.329,0,0,1-2.175-1.476L31.7,23.556a.706.706,0,1,0-1.312.521l2.387,6.008c.047.118.1.232.159.343,0,2.036,0,3.848.006,4.487a4.924,4.924,0,0,0,5,5.016h9.228a3.466,3.466,0,0,1,3.145,2.01l7.229,17.223a3.441,3.441,0,0,1,.092,2.651" transform="translate(0 0)" fill="#fff9f9" stroke="#fff" stroke-width="1"/>
      </g>
    </g>
  </g>
</svg>
