<svg xmlns="http://www.w3.org/2000/svg" xmlns:xlink="http://www.w3.org/1999/xlink" width="505" height="346" viewBox="0 0 505 346">
  <defs>
    <clipPath id="clip-path">
      <path id="Trazado_193421" data-name="Trazado 193421" d="M0-8H505V338H0Z" transform="translate(180 2775)" fill="#701010"/>
    </clipPath>
  </defs>
  <g id="Enmascarar_grupo_185" data-name="Enmascarar grupo 185" transform="translate(-180 -2767)" clip-path="url(#clip-path)">
    <g id="IL1" transform="translate(180.002 2793.037)">
      <g id="Capa_2" data-name="Capa 2" transform="translate(0 9)">
        <g id="Capa_1" data-name="Capa 1">
          <g id="Grupo_136395" data-name="Grupo 136395" transform="translate(0 -5.588)">
            <g id="Grupo_136394" data-name="Grupo 136394" transform="translate(-0.002 -25.949)">
              <path id="Trazado_193298" data-name="Trazado 193298" d="M454.528,104.3C455.843,54.849,405-16.336,315-25.021S139.184,20.1,96.479,77.562s-.658,84.2-9.854,89.54-62.4,8.026-80.149,55.467,6.566,82.861,6.566,82.861H470.291c34.165-7.348,48.613-76.182,17.736-108.258s-34.823-43.437-33.508-92.884Z" transform="translate(4.002 23.345)" fill="#e8e1f6"/>
              <g id="_8" data-name="8" transform="translate(238.359 31.228)">
                <g id="_6" data-name="6" transform="translate(3.249 7.08)">
                  <g id="Grupo_136352" data-name="Grupo 136352" transform="translate(0 18.291)">
                    <path id="Trazado_193299" data-name="Trazado 193299" d="M266.037,33.445l-8.746-2.666A1.891,1.891,0,0,0,254.7,32l-13.061,42.8a.6.6,0,0,0,.342.757l.063.018a.6.6,0,0,0,.712-.432l.153-.5,10.62,3.243-.144.486a.57.57,0,1,0,1.081.333l13.052-42.786a1.89,1.89,0,0,0-1.468-2.468Z" transform="translate(-241.605 -30.65)" fill="#7a95c9"/>
                    <path id="Trazado_193300" data-name="Trazado 193300" d="M255.3,33.976,242.887,74.645l5.251,1.6,12.98-42.542-3.585-1.09a1.869,1.869,0,0,0-2.243,1.369Z" transform="translate(-241.605 -30.65)" fill="#fff"/>
                    <path id="Trazado_193301" data-name="Trazado 193301" d="M264.83,34.832,261.119,33.7,248.139,76.24l5.377,1.639L265.929,37.21a1.868,1.868,0,0,0-1.1-2.387Z" transform="translate(-241.605 -30.65)" fill="#fdfdfd"/>
                    <path id="Trazado_193302" data-name="Trazado 193302" d="M262.524,35c-2.873,5.576-5.7,19.042-5.7,19.042C261.7,40.128,261.785,38.48,262.524,35Z" transform="translate(-241.605 -30.65)" fill="#e6e0ff"/>
                    <path id="Trazado_193303" data-name="Trazado 193303" d="M261.074,39.534l-1.405,4.594,4.152,1.27-.3-2.6,1.838-1.946Z" transform="translate(-241.605 -30.65)" fill="#7b83bb"/>
                  </g>
                  <g id="Grupo_136353" data-name="Grupo 136353" transform="translate(40.402 3.324)">
                    <rect id="Rectángulo_43642" data-name="Rectángulo 43642" width="6.296" height="63.485" transform="translate(5.107)" fill="#fcedae"/>
                    <rect id="Rectángulo_43643" data-name="Rectángulo 43643" width="5.116" height="63.485" fill="#e6e0ff"/>
                    <rect id="Rectángulo_43644" data-name="Rectángulo 43644" width="11.413" height="2.423" transform="translate(0 8.566)" fill="#e6e0ff"/>
                    <rect id="Rectángulo_43645" data-name="Rectángulo 43645" width="11.413" height="2.423" transform="translate(0 12.097)" fill="#e6e0ff"/>
                  </g>
                  <g id="Grupo_136354" data-name="Grupo 136354" transform="translate(26.008 9.233)">
                    <rect id="Rectángulo_43646" data-name="Rectángulo 43646" width="7.936" height="57.576" transform="translate(6.449)" fill="#c0ade3"/>
                    <rect id="Rectángulo_43647" data-name="Rectángulo 43647" width="6.449" height="57.576" fill="#e6e0ff"/>
                    <rect id="Rectángulo_43648" data-name="Rectángulo 43648" width="14.385" height="2.198" transform="translate(0 13.466)" fill="#fff"/>
                    <rect id="Rectángulo_43649" data-name="Rectángulo 43649" width="14.385" height="2.198" transform="translate(0 16.664)" fill="#fff"/>
                  </g>
                  <g id="Grupo_136355" data-name="Grupo 136355" transform="translate(51.85)">
                    <rect id="Rectángulo_43650" data-name="Rectángulo 43650" width="9.971" height="66.809" transform="translate(8.107)" fill="#b13e8d"/>
                    <rect id="Rectángulo_43651" data-name="Rectángulo 43651" width="8.107" height="66.809" fill="#e6e0ff"/>
                    <rect id="Rectángulo_43652" data-name="Rectángulo 43652" width="18.078" height="2.549" transform="translate(0 15.628)" fill="#fdfdfd"/>
                    <rect id="Rectángulo_43653" data-name="Rectángulo 43653" width="18.078" height="2.549" transform="translate(0 19.348)" fill="#fdfdfd"/>
                    <rect id="Rectángulo_43654" data-name="Rectángulo 43654" width="18.078" height="2.549" transform="translate(0 53.442)" fill="#fdfdfd"/>
                    <rect id="Rectángulo_43655" data-name="Rectángulo 43655" width="18.078" height="2.549" transform="translate(0 57.153)" fill="#fdfdfd"/>
                  </g>
                  <g id="Grupo_136356" data-name="Grupo 136356" transform="translate(69.82 9.026)">
                    <rect id="Rectángulo_43656" data-name="Rectángulo 43656" width="7.323" height="57.783" transform="translate(5.954)" fill="#7b83bb"/>
                    <rect id="Rectángulo_43657" data-name="Rectángulo 43657" width="5.954" height="57.783" fill="#7b83bb"/>
                    <rect id="Rectángulo_43658" data-name="Rectángulo 43658" width="13.277" height="2.207" transform="translate(0 13.52)" fill="#fdfdfd"/>
                    <rect id="Rectángulo_43659" data-name="Rectángulo 43659" width="13.277" height="2.207" transform="translate(0 16.727)" fill="#fdfdfd"/>
                    <rect id="Rectángulo_43660" data-name="Rectángulo 43660" width="13.277" height="2.207" transform="translate(0 46.218)" fill="#fdfdfd"/>
                    <rect id="Rectángulo_43661" data-name="Rectángulo 43661" width="13.277" height="2.207" transform="translate(0 49.433)" fill="#fdfdfd"/>
                  </g>
                </g>
                <g id="_7" data-name="7" transform="translate(89.643)">
                  <g id="Grupo_136357" data-name="Grupo 136357">
                    <path id="Trazado_193304" data-name="Trazado 193304" d="M328,6.359V79.3h10.16V5.278H328Z" transform="translate(-327.999 -5.278)" fill="#f3e2ee"/>
                    <path id="Trazado_193305" data-name="Trazado 193305" d="M338.16,17.862V79.3h9.908V5.278H338.16Z" transform="translate(-327.999 -5.278)" fill="#e4bbd7"/>
                    <path id="Trazado_193306" data-name="Trazado 193306" d="M330.08,8.521V59.54h15.9V8.521h-15.9Z" transform="translate(-327.999 -5.278)" fill="#fdfdfd"/>
                    <path id="Trazado_193307" data-name="Trazado 193307" d="M338.187,64.467h-.153a4.865,4.865,0,0,0,0,9.656h.153a4.884,4.884,0,0,0,0-9.647Z" transform="translate(-327.999 -5.278)" fill="#c2b9f0"/>
                    <path id="Trazado_193308" data-name="Trazado 193308" d="M338.16,65.187h-.135a4.139,4.139,0,0,0,0,8.215h.135a4.159,4.159,0,0,0,0-8.215Z" transform="translate(-327.999 -5.278)" fill="#fdfdfd"/>
                  </g>
                  <g id="Grupo_136358" data-name="Grupo 136358" transform="translate(20.069)">
                    <path id="Trazado_193309" data-name="Trazado 193309" d="M348.068,29.067V79.3h10.169V5.278H348.068Z" transform="translate(-348.068 -5.278)" fill="#cab8e9"/>
                    <path id="Trazado_193310" data-name="Trazado 193310" d="M358.238,40.57V79.3h9.9V5.278h-9.9Z" transform="translate(-348.068 -5.278)" fill="#6836bf"/>
                    <path id="Trazado_193311" data-name="Trazado 193311" d="M350.149,8.521V59.54h15.907V8.521H350.149Z" transform="translate(-348.068 -5.278)" fill="#fdfdfd"/>
                    <path id="Trazado_193312" data-name="Trazado 193312" d="M358.256,64.467H358.1a4.865,4.865,0,0,0,0,9.656h.153a4.884,4.884,0,0,0,0-9.647Z" transform="translate(-348.068 -5.278)" fill="#c2b9f0"/>
                    <path id="Trazado_193313" data-name="Trazado 193313" d="M358.238,65.187H358.1a4.139,4.139,0,0,0,0,8.215h.135a4.159,4.159,0,0,0,0-8.215Z" transform="translate(-348.068 -5.278)" fill="#fdfdfd"/>
                  </g>
                </g>
                <g id="_8-2" data-name="8" transform="translate(0 73.979)">
                  <rect id="Rectángulo_43662" data-name="Rectángulo 43662" width="187.78" height="6.846" fill="#3e2072"/>
                </g>
                <g id="_14" data-name="14" transform="translate(138.536 22.555)">
                  <g id="Grupo_136360" data-name="Grupo 136360" transform="translate(3.593)">
                    <g id="Grupo_136359" data-name="Grupo 136359">
                      <path id="Trazado_193314" data-name="Trazado 193314" d="M398.844,28.725a10.76,10.76,0,0,0-1.756-.531A8.491,8.491,0,0,0,395.97,28h-.009a2,2,0,0,0-.324-.045.824.824,0,0,0-.153-.009,13.317,13.317,0,0,0-1.838-.117,14,14,0,0,0-7.575,1.9,9.826,9.826,0,0,0-2.252,1.856c-5.6,6.134-3.315,18.15.793,23.329a11.549,11.549,0,0,0,8.737,4.531,6.057,6.057,0,0,0,.982-.063,8.661,8.661,0,0,0,1.549-.288,11.668,11.668,0,0,0,2.306-.91c.261-.144.531-.288.793-.459h0a9.27,9.27,0,0,0,.784-.531,13.047,13.047,0,0,0,2.414-2.288c5.053-6.224,7.593-22.068-3.342-26.185Z" transform="translate(-380.485 -27.833)" fill="#c2b9f0"/>
                      <path id="Trazado_193315" data-name="Trazado 193315" d="M398.844,28.725a10.76,10.76,0,0,0-1.756-.531q-.324.054-.649.135c-.135.036-.279.072-.405.108a.236.236,0,0,0-.072.027c-12.358,3.378-10.755,20.078-5.927,26.5a11.463,11.463,0,0,0,4.855,3.774,9.422,9.422,0,0,0,1,.36,11.669,11.669,0,0,0,2.306-.91c.261-.144.531-.288.793-.459h0a9.275,9.275,0,0,0,.784-.531,13.047,13.047,0,0,0,2.414-2.288c5.053-6.224,7.593-22.068-3.342-26.185Z" transform="translate(-380.485 -27.833)" fill="#e6e0ff"/>
                    </g>
                    <path id="Trazado_193316" data-name="Trazado 193316" d="M396.475,59.441c-.162-4.4-.522-31.436-.522-31.436C390.737,37.219,394.412,53.054,396.475,59.441Z" transform="translate(-380.485 -27.833)" fill="#c2b9f0"/>
                    <path id="Trazado_193317" data-name="Trazado 193317" d="M396.439,28.329c-.153-.108-.315-.216-.468-.324h-.009a2,2,0,0,0-.324-.045.824.824,0,0,0-.153-.009c.18.144.36.315.549.5,3.891,3.63,8.764,11.971,2.954,29.274a8.938,8.938,0,0,0,.784-.513c3.747-6.5,9.62-19.9-3.333-28.86Z" transform="translate(-380.485 -27.833)" fill="#c2b9f0"/>
                  </g>
                  <g id="Grupo_136361" data-name="Grupo 136361" transform="translate(1.216 24.185)">
                    <path id="Trazado_193318" data-name="Trazado 193318" d="M407.761,52.018H378.856c-1.9,5.846.054,12.484,3.252,19.573,1.135,2.522,2.432,5.1,3.756,7.719a33.239,33.239,0,0,0,14.889,0c4.765-9.395,9.062-18.258,7.413-25.861-.108-.486-.252-.955-.405-1.432Z" transform="translate(-378.108 -52.018)" fill="#6a2554"/>
                    <path id="Trazado_193319" data-name="Trazado 193319" d="M384.972,77.537c.3.594.595,1.18.9,1.774a33.238,33.238,0,0,0,14.889,0c.3-.594.6-1.189.9-1.774a42.964,42.964,0,0,1-16.682,0Z" transform="translate(-378.108 -52.018)" fill="#6a2554"/>
                  </g>
                  <rect id="Rectángulo_43663" data-name="Rectángulo 43663" width="32.85" height="3.639" transform="translate(0 21.996)" fill="#63254b"/>
                </g>
              </g>
              <g id="Grupo_136373" data-name="Grupo 136373" transform="translate(22.647 27.091)">
                <g id="Grupo_136362" data-name="Grupo 136362" transform="translate(3.62 203.446)">
                  <path id="Trazado_193320" data-name="Trazado 193320" d="M28.86,204.615C21.294,207.929,30.8,220.7,50.55,231.6c12.71,7.017,23.023,9.35,49.406,7.656,0,0-17.312-58.216-71.1-34.634Z" transform="translate(-26.265 -199)" fill="#c5a122"/>
                  <path id="Trazado_193321" data-name="Trazado 193321" d="M44.884,211.415s27.482,1.243,52.081,28.013l3-.18s-24.041-31.013-55.081-27.842Z" transform="translate(-26.265 -199)" fill="#c5a122"/>
                </g>
                <path id="Trazado_193323" data-name="Trazado 193323" d="M113.278,2.135C54.577,41.272,102.244,96.5,102.244,96.5c18.808-25.59,23.122-37.534,24.257-54.937,1.783-27.032-4.981-44.92-13.232-39.426Z" transform="translate(-22.645 -1.142)" fill="#c5a122"/>
                <path id="Trazado_193324" data-name="Trazado 193324" d="M102.253,96.5l2.117-2.918c-11.151-42.236,5.414-70.835,5.414-70.835C86.454,52.09,102.262,96.5,102.262,96.5Z" transform="translate(-22.645 -1.142)" fill="#fff"/>
                <path id="Trazado_193325" data-name="Trazado 193325" d="M171.233,75.195C101.992,61.719,97.02,134.5,97.02,134.5c31.364-4.954,42.831-10.413,55.892-21.978C173.205,94.561,180.97,77.1,171.233,75.195Z" transform="translate(-22.645 0.964)" fill="#cab8e9"/>
                <path id="Trazado_193326" data-name="Trazado 193326" d="M97.02,134.5l3.549-.585c21.8-37.859,53.676-46.542,53.676-46.542C117.017,91.823,97.02,134.5,97.02,134.5Z" transform="translate(-22.645 1.198)" fill="#fff"/>
                <g id="Grupo_136363" data-name="Grupo 136363" transform="translate(70.412 140.309)">
                  <path id="Trazado_193327" data-name="Trazado 193327" d="M157.721,139.085c-60.332-11.737-64.665,51.676-64.665,51.676,27.338-4.315,37.327-9.071,48.713-19.15C159.424,155.965,166.2,140.742,157.721,139.085Z" transform="translate(-93.057 -137.636)" fill="#947917"/>
                  <path id="Trazado_193328" data-name="Trazado 193328" d="M93.057,190.761l3.1-.5c18.988-32.985,46.758-40.561,46.758-40.561-32.436,3.882-49.857,41.065-49.857,41.065Z" transform="translate(-93.057 -137.636)" fill="#f7fcf3"/>
                </g>
                <g id="Grupo_136364" data-name="Grupo 136364" transform="translate(74.375 191.831)">
                  <path id="Trazado_193329" data-name="Trazado 193329" d="M194.022,197.922c-67.313-37.327-97,36.516-97,36.516,34.22,5.441,47.956,3.639,65.4-3.963C189.518,218.675,203.48,203.164,194.022,197.922Z" transform="translate(-97.02 -187.385)" fill="#c5a122"/>
                  <path id="Trazado_193330" data-name="Trazado 193330" d="M97.02,234.438l3.882.6c35.363-31.95,71.376-30.2,71.376-30.2C132.149,196.9,97.02,234.447,97.02,234.447Z" transform="translate(-97.02 -187.385)" fill="#e8f6dd"/>
                </g>
                <g id="Grupo_136365" data-name="Grupo 136365" transform="translate(70.413 118.89)">
                  <path id="Trazado_193331" data-name="Trazado 193331" d="M120.881,120.98C95.525,128.564,88.9,165.5,95.39,166.423c4.134.594,6.314-9.143,25-11.413,15.3-1.874,26.518-25.2,29.247-31.8,2.36-5.684-3.4-9.809-28.761-2.234Z" transform="translate(-93.058 -116.854)" fill="#fcedae"/>
                  <path id="Trazado_193332" data-name="Trazado 193332" d="M94.174,165.8l1.216.622c15.727-30,41.182-38.867,41.182-38.867C107.856,132.131,94.164,165.8,94.164,165.8Z" transform="translate(-93.058 -116.854)" fill="#f7fcf3"/>
                </g>
                <g id="Grupo_136366" data-name="Grupo 136366" transform="translate(76.278 67.908)">
                  <path id="Trazado_193333" data-name="Trazado 193333" d="M116.251,71.673c-17.538,6.99-19.916,33.67-15.232,33.913,2.972.162,3.909-6.9,17.051-9.692,10.755-2.288,17.258-19.591,18.772-24.446,1.315-4.188-3.036-6.756-20.591.234Z" transform="translate(-98.923 -67.328)" fill="#947917"/>
                  <path id="Trazado_193334" data-name="Trazado 193334" d="M100.127,105.154a.718.718,0,0,0,.153.135l.739.3c9.278-22.321,26.815-30.229,26.815-30.229-19.5,4.909-27.248,28.365-27.7,29.8Z" transform="translate(-98.923 -67.328)" fill="#fff"/>
                </g>
                <g id="Grupo_136367" data-name="Grupo 136367" transform="translate(69.322 173.58)">
                  <path id="Trazado_193335" data-name="Trazado 193335" d="M134.194,170.4c-5.8,1.5-26.482,8.107-29.824,20.591-4.071,15.259-12.412,15.925-12.4,19.438.009,5.5,31.472,4.306,40.732-15.862C141.949,174.385,139.193,169.125,134.194,170.4Z" transform="translate(-91.967 -170.224)" fill="#cab8e9"/>
                  <path id="Trazado_193336" data-name="Trazado 193336" d="M91.967,210.433l.378,1.081s29.563-7.431,36.715-30.752c0,0-10.332,20.114-37.093,29.68Z" transform="translate(-91.967 -170.224)" fill="#eff9e8"/>
                </g>
                <g id="Grupo_136368" data-name="Grupo 136368" transform="translate(9.479 162.157)">
                  <path id="Trazado_193337" data-name="Trazado 193337" d="M61.134,160.658c-26.14-4.161-31.3.694-28.212,6.017,3.558,6.17,17.781,27.815,33.184,27.644,18.826-.216,22.267,9.152,26.293,8.017,6.305-1.774-5.143-37.516-31.274-41.678Z" transform="translate(-32.124 -159.09)" fill="#cab8e9"/>
                  <path id="Trazado_193338" data-name="Trazado 193338" d="M46.443,169.251s26.41,5.413,45.965,33.085l1.117-.784S75.5,169.99,46.443,169.251Z" transform="translate(-32.124 -159.09)" fill="#f7fcf3"/>
                </g>
                <path id="Trazado_193339" data-name="Trazado 193339" d="M60.756,68.989C27.923,58.378,20.186,64.494,23.266,71.9c3.54,8.593,18.177,39.012,38.12,41.444,24.356,2.963,27.383,16.511,32.589,14.889,4.134-1.3-6.729-50.676-33.22-59.242Z" transform="translate(-22.645 0.705)" fill="#c5a122"/>
                <g id="Grupo_136369" data-name="Grupo 136369" transform="translate(3.024 129.955)">
                  <path id="Trazado_193340" data-name="Trazado 193340" d="M29.3,129.015c-8.476,1.648-1.7,16.871,15.961,32.526,11.385,10.07,21.366,14.826,48.695,19.141,0,0-4.324-63.413-64.665-51.667Z" transform="translate(-25.668 -127.563)" fill="#c5a122"/>
                  <path id="Trazado_193341" data-name="Trazado 193341" d="M44.11,139.616s27.788,7.566,46.776,40.552l3.09.5S76.555,143.49,44.119,139.616Z" transform="translate(-25.668 -127.563)" fill="#fff"/>
                </g>
                <g id="Grupo_136370" data-name="Grupo 136370" transform="translate(41.819 42.012)">
                  <path id="Trazado_193342" data-name="Trazado 193342" d="M71.357,42.236c-7.35-2.792-9.413,12.205-3.288,32.787,3.945,13.241,9.368,21.717,28.41,38.174,0,0,27.113-51.046-25.122-70.952Z" transform="translate(-64.464 -41.901)" fill="#fcedae"/>
                  <path id="Trazado_193343" data-name="Trazado 193343" d="M77.69,57.54s17.835,19.186,16.637,53.775L96.47,113.2s4.4-37.084-18.781-55.657Z" transform="translate(-64.464 -41.901)" fill="#fff"/>
                </g>
                <g id="Grupo_136371" data-name="Grupo 136371" transform="translate(37.453 123.91)">
                  <path id="Trazado_193344" data-name="Trazado 193344" d="M76.933,125.682c-14.151-5.819-17.691-3.783-16.673-.378,1.2,3.945,6.3,18,14.979,19.961,10.611,2.387,11.3,8.116,13.709,8.008C92.732,153.119,91.066,131.5,76.933,125.682Z" transform="translate(-60.097 -122.006)" fill="#fcedae"/>
                  <path id="Trazado_193345" data-name="Trazado 193345" d="M67.529,128.555s14.115,6.566,21.42,24.717l.73-.288S83.77,132.843,67.529,128.555Z" transform="translate(-59.082 -122.004)" fill="#fff"/>
                </g>
                <g id="Grupo_136372" data-name="Grupo 136372" transform="translate(44.882 210.771)">
                  <path id="Trazado_193346" data-name="Trazado 193346" d="M84.355,210c-14.142-5.819-17.691-3.783-16.664-.378,1.18,3.945,6.287,18,14.97,19.961,10.611,2.387,11.3,8.107,13.709,8.008,3.783-.153,2.126-21.762-12.016-27.581Z" transform="translate(-67.526 -206.326)" fill="#7a95c9"/>
                  <path id="Trazado_193347" data-name="Trazado 193347" d="M74.951,212.874s14.115,6.557,21.42,24.717l.73-.279s-5.909-20.141-22.149-24.428Z" transform="translate(-67.526 -206.326)" fill="#7b83bb"/>
                </g>
                <path id="Trazado_193322" data-name="Trazado 193322" d="M103.469,82.959c-30.4,69.979-6.657,171.233-6.657,171.233h5.666c-13.043-86.553-5.495-123.07,1-151.668s0-19.564,0-19.564Z" transform="translate(-22.645 4.446)" fill="#3e2072"/>
              </g>
              <path id="Trazado_193348" data-name="Trazado 193348" d="M78.717,283.664,15.34,295.59H489.666l-63.377-11.926Z" transform="translate(0.002 31.537)" fill="#e6e0ff"/>
              <path id="Trazado_193349" data-name="Trazado 193349" d="M15.34,297.221a4.705,4.705,0,0,0,4.7,4.7H484.964a4.705,4.705,0,0,0,4.7-4.7v-1.865H15.34Z" transform="translate(0.002 31.537)" fill="#3e2072"/>
              <g id="Grupo_136381" data-name="Grupo 136381" transform="translate(367.446 267.174)">
                <g id="Grupo_136375" data-name="Grupo 136375" transform="translate(0 38.714)">
                  <rect id="Rectángulo_43664" data-name="Rectángulo 43664" width="88.49" height="17.231" transform="translate(3.549 1.883)" fill="#fdfdfd"/>
                  <g id="Grupo_136374" data-name="Grupo 136374" transform="translate(3.549 4.72)">
                    <rect id="Rectángulo_43665" data-name="Rectángulo 43665" width="88.49" height="0.441" transform="translate(0 6.449)" fill="#e6e0ff"/>
                    <rect id="Rectángulo_43666" data-name="Rectángulo 43666" width="88.49" height="0.558" fill="#e6e0ff"/>
                  </g>
                  <path id="Trazado_193350" data-name="Trazado 193350" d="M457.032,274.351H367.443v.27a2.48,2.48,0,0,0,2.423,2.54h84.274c2.423,0,4.378,3.2,4.378,7.134v1.1c0,3.945-1.964,7.134-4.378,7.134H370.092a2.72,2.72,0,0,0-2.648,2.81h89.589c2.954,0,5.35-3.9,5.35-8.71v-3.567C462.383,278.251,459.986,274.351,457.032,274.351Z" transform="translate(-367.443 -274.351)" fill="#fcedae"/>
                </g>
                <g id="Grupo_136377" data-name="Grupo 136377" transform="translate(32.247)">
                  <rect id="Rectángulo_43667" data-name="Rectángulo 43667" width="53.532" height="14.925" transform="translate(3.189 1.603)" fill="#fff"/>
                  <g id="Grupo_136376" data-name="Grupo 136376" transform="translate(3.189 5.179)">
                    <rect id="Rectángulo_43668" data-name="Rectángulo 43668" width="53.532" height="0.558" fill="#e6e0ff"/>
                    <rect id="Rectángulo_43669" data-name="Rectángulo 43669" width="53.532" height="0.441" transform="translate(0 6.341)" fill="#e6e0ff"/>
                  </g>
                  <path id="Trazado_193351" data-name="Trazado 193351" d="M454.978,235.645H399.7v.667a1.547,1.547,0,0,0,1.441,1.63h51.928c1.486,0,2.693,2.783,2.693,6.215v.955c0,3.432-1.207,6.215-2.693,6.215H401.393a1.829,1.829,0,0,0-1.7,1.928v.585h55.279c1.82,0,3.3-3.378,3.3-7.557v-3.09c0-4.17-1.477-7.557-3.3-7.557Z" transform="translate(-399.69 -235.636)" fill="#6836bf"/>
                </g>
                <g id="Grupo_136380" data-name="Grupo 136380" transform="translate(27.869 18.078)">
                  <g id="Grupo_136379" data-name="Grupo 136379">
                    <rect id="Rectángulo_43670" data-name="Rectángulo 43670" width="62.503" height="17.231" transform="translate(2.513 1.883)" fill="#fff"/>
                    <g id="Grupo_136378" data-name="Grupo 136378" transform="translate(2.513 5.954)">
                      <rect id="Rectángulo_43671" data-name="Rectángulo 43671" width="62.503" height="0.414" fill="#e6e0ff"/>
                      <rect id="Rectángulo_43672" data-name="Rectángulo 43672" width="62.503" height="0.414" transform="translate(0 7.503)" fill="#e6e0ff"/>
                    </g>
                    <path id="Trazado_193352" data-name="Trazado 193352" d="M458.6,253.715H395.313v.216a2.458,2.458,0,0,0,2.3,2.594h58.954c1.711,0,3.1,3.2,3.1,7.134v1.1c0,3.945-1.387,7.134-3.1,7.134H397.33a2.156,2.156,0,0,0-2.009,2.279v.531h63.287c2.09,0,3.774-3.9,3.774-8.71v-3.567c0-4.81-1.693-8.71-3.774-8.71Z" transform="translate(-395.313 -253.715)" fill="#6a2554"/>
                  </g>
                  <path id="Trazado_193353" data-name="Trazado 193353" d="M444.908,266.181l1.811,2.855,1.937-2.819V259.65h-3.747Z" transform="translate(-395.313 -253.715)" fill="#b13e8d"/>
                </g>
              </g>
              <g id="Grupo_136390" data-name="Grupo 136390" transform="translate(178.788 143.623)">
                <g id="Grupo_136383" data-name="Grupo 136383" transform="translate(-1 56.695)">
                  <path id="Trazado_193354" data-name="Trazado 193354" d="M320.866,180.664c-12.331-6.792-29.7-7.548-36.237-8.3-1.765-2.828-9.818-3.522-9.818-3.522s-21.393,2.513-39.246,4.008-17.628,9.323-27.194,26.185-20.384,40.516-20.384,40.516-12.079,15.1-8.557,27.176c5.864,20.1,20.132,19.627,20.132,19.627s133.879,0,150.741-3.522,16.358-12.583,14.1-28.437c-7.3-41.02-31.2-66.944-43.533-73.735Z" transform="translate(-178.786 -168.837)" fill="#6a2554"/>
                  <g id="Grupo_136382" data-name="Grupo 136382" transform="translate(2.796 15.437)">
                    <path id="Trazado_193355" data-name="Trazado 193355" d="M294.194,245.464s-27.176-23.149-57.3-31.373C244.95,220.378,283.457,238.834,294.194,245.464Z" transform="translate(-181.582 -184.274)" fill="#6a2554" opacity="0.3"/>
                    <path id="Trazado_193356" data-name="Trazado 193356" d="M343.177,251.129c13.5,7.044,14.592,19.961,14.763,26.761C364.651,262.542,356.914,251.463,343.177,251.129Z" transform="translate(-181.582 -184.274)" fill="#6a2554" opacity="0.3"/>
                    <path id="Trazado_193357" data-name="Trazado 193357" d="M318.262,230.917c-.676-9.395-.919-18.456-1.09-26.428a139.425,139.425,0,0,1,.757-16.186c1.513-11.494-8.557,7.972-8.557,7.972.757,3.108,2.261,22.4,1.847,36.327-.288,9.656-7.656,30.833-17.691,25.446-20.231-10.872-64.548-32.04-71.844-35.751a281.268,281.268,0,0,1,.622-35.913c.333-6.963-7.8,5.54-7.8,5.54s2.018,9.9,3.945,16.358a227.355,227.355,0,0,0,2.405,25.816l1.333,49.631h97.02l-2.081-21.078,3.828-1.765s-2.018-20.555-2.684-29.95Z" transform="translate(-181.582 -184.274)" fill="#6a2554" opacity="0.3"/>
                    <path id="Trazado_193358" data-name="Trazado 193358" d="M201.489,245.689c-9.566-.5-15.1,2.432-18.537,6.377s.324,6.837,3.351,3.792,14.178-12.683,28.608-2.45a16.414,16.414,0,0,0-13.421-7.719Z" transform="translate(-181.582 -184.274)" fill="#6a2554" opacity="0.3"/>
                  </g>
                </g>
                <g id="Grupo_136385" data-name="Grupo 136385" transform="translate(31.873 163.652)">
                  <path id="Trazado_193359" data-name="Trazado 193359" d="M287.97,277.7a371.327,371.327,0,0,1-63.062.45,85.976,85.976,0,0,1-12.43,12.286c-.585.5-1.2.991-1.82,1.5a476.664,476.664,0,0,0,102.974,1.261c-1.189-.459-2.351-.928-3.477-1.405-9.9-4.2-17.565-9.143-22.195-14.088Z" transform="translate(-210.659 -275.738)" fill="#243262"/>
                  <path id="Trazado_193360" data-name="Trazado 193360" d="M287.97,277.7a371.327,371.327,0,0,1-63.062.45,85.976,85.976,0,0,1-12.43,12.286,478.456,478.456,0,0,0,97.677,1.351c-9.9-4.2-17.565-9.143-22.195-14.088Z" transform="translate(-210.659 -275.738)" fill="#c2b9f0"/>
                  <path id="Trazado_193361" data-name="Trazado 193361" d="M288.06,275.747a371.777,371.777,0,0,1-61.9.432,88.108,88.108,0,0,1-13.8,13.25,476.894,476.894,0,0,0,100.857,1.207c-11.322-4.288-20.078-9.584-25.149-14.9Z" transform="translate(-210.659 -275.738)" fill="#fff"/>
                  <g id="Grupo_136384" data-name="Grupo 136384" transform="translate(12.592 3.081)">
                    <path id="Trazado_193362" data-name="Trazado 193362" d="M293.51,286.033l-.162-.081h-.2a33.261,33.261,0,0,0-5.549.585l-.549.1.378.3c.378.3.793.594,1.189.874s.8.567,1.171.865l.171.135h.261c2.054,0,4.1-.09,6.062-.288l.649-.063-.847-.667a15.313,15.313,0,0,0-2.576-1.756Zm-3.171,2.216c-.342-.261-.694-.5-1.036-.748-.252-.18-.513-.36-.757-.54a30.389,30.389,0,0,1,4.576-.459,14.05,14.05,0,0,1,2.2,1.54c-1.621.144-3.3.216-4.981.216Z" transform="translate(-223.251 -278.818)" fill="#d8d7d6"/>
                    <path id="Trazado_193363" data-name="Trazado 193363" d="M288.916,281.953l-.189-.207-.369.054c-.712.1-1.432.243-2.144.387-.685.135-1.4.288-2.072.378l-.531.072.306.288c.333.306.658.622.982.928s.658.64,1.009.955l.18.171.315-.027c1.639-.126,3.207-.36,4.585-.567l.567-.081-.387-.3a17.941,17.941,0,0,1-2.252-2.045Zm-2.432,2.45c-.279-.261-.549-.513-.82-.775-.225-.216-.459-.441-.694-.658.549-.09,1.108-.207,1.648-.315.567-.117,1.144-.234,1.7-.324a18.359,18.359,0,0,0,1.765,1.63C288.97,284.124,287.745,284.3,286.484,284.4Z" transform="translate(-223.251 -278.818)" fill="#d8d7d6"/>
                    <path id="Trazado_193364" data-name="Trazado 193364" d="M285.961,279.134l-.171-.207-.369.045c-.676.081-1.432.135-2.153.18-.748.054-1.513.1-2.234.189l-.531.063.306.27c.243.225.54.5.829.793.306.3.612.594.865.829l.189.171.324-.045c.73-.09,1.423-.18,2.108-.27s1.351-.18,2.054-.27l.549-.072-.342-.279a10.571,10.571,0,0,1-1.423-1.414Zm-1.144,1.558c-.576.072-1.162.153-1.765.225-.207-.2-.441-.414-.667-.64-.189-.18-.378-.36-.549-.531.531-.054,1.09-.09,1.639-.126.622-.045,1.252-.09,1.865-.153a11.754,11.754,0,0,0,1,1.018c-.513.063-1.018.135-1.522.2Z" transform="translate(-223.251 -278.818)" fill="#d8d7d6"/>
                    <path id="Trazado_193365" data-name="Trazado 193365" d="M223.548,286.349l-.3.531c11.692,1,23.771,1.594,35.985,1.765,7.728.108,15.448.045,23.1-.2l-.153-.549a507.927,507.927,0,0,1-58.63-1.549Z" transform="translate(-223.251 -278.818)" fill="#d8d7d6"/>
                    <path id="Trazado_193366" data-name="Trazado 193366" d="M225.476,284.673l-.306.513c11.349,1.117,23.176,1.765,35.111,1.928q3.918.054,7.828.036l-.045-.54a422.683,422.683,0,0,1-42.587-1.937Z" transform="translate(-223.251 -278.818)" fill="#d8d7d6"/>
                    <path id="Trazado_193367" data-name="Trazado 193367" d="M227.3,282.7l-.3.5c9.521.991,19.375,1.558,29.355,1.693,8.224.108,16.448-.081,24.554-.558l-.189-.513A332.563,332.563,0,0,1,227.3,282.7Z" transform="translate(-223.251 -278.818)" fill="#d8d7d6"/>
                    <path id="Trazado_193368" data-name="Trazado 193368" d="M250.193,283.16l-.09.513c2.162.072,4.351.117,6.539.153,1.549.018,3.1.027,4.63.027v-.513c-3.684,0-7.413-.054-11.079-.18Z" transform="translate(-223.251 -278.818)" fill="#d8d7d6"/>
                    <path id="Trazado_193369" data-name="Trazado 193369" d="M226.836,282.07c5.233.558,10.656.991,16.105,1.288l.162-.5c-5.4-.3-10.773-.721-15.961-1.27l-.3.486Z" transform="translate(-223.251 -278.818)" fill="#d8d7d6"/>
                    <path id="Trazado_193370" data-name="Trazado 193370" d="M228.782,279.782l-.288.468c8.827.946,17.97,1.477,27.239,1.6,6.575.081,13.151-.045,19.663-.378l-.153-.486a296.9,296.9,0,0,1-46.461-1.207Z" transform="translate(-223.251 -278.818)" fill="#d8d7d6"/>
                    <path id="Trazado_193371" data-name="Trazado 193371" d="M239.69,279.62l-.2.477c3.531.252,7.125.405,10.737.45,1.135.018,2.27.018,3.4.009l.018-.486C248.977,280.1,244.275,279.944,239.69,279.62Z" transform="translate(-223.251 -278.818)" fill="#d8d7d6"/>
                    <path id="Trazado_193372" data-name="Trazado 193372" d="M231.043,279.278c1.585.189,3.225.369,4.864.522l.243-.468c-1.621-.144-3.243-.324-4.81-.513Z" transform="translate(-223.251 -278.818)" fill="#d8d7d6"/>
                  </g>
                </g>
                <g id="Grupo_136386" data-name="Grupo 136386" transform="translate(78.667 131.333)">
                  <path id="Trazado_193373" data-name="Trazado 193373" d="M284.223,243.473c-.91-.261-1.774.477-2.423,1.171-4.134,4.423-22.411,31.842-24.347,41.651a222.712,222.712,0,0,0,27.113-38.741c.766-1.387,1.189-3.648-.333-4.08Z" transform="translate(-257.453 -243.419)" fill="#3e2072"/>
                  <path id="Trazado_193374" data-name="Trazado 193374" d="M346.78,253.039c-5.125-2.54-11.232-.775-16.664,1.018q-10.971,3.635-21.951,7.278A10.273,10.273,0,0,1,304,262.1c-3.891-.36-6.017-4.693-9.332-6.765-4.215-2.621-9.665-1.27-14.412.162q-6.161,1.865-12.331,3.72c-2.918.883-6.188,2.063-7.359,4.873a1.717,1.717,0,0,0-.126,1.243,2,2,0,0,0,1.378.937c2.225.676,4.864-.441,7.152-.072-.856.982-.685,4.288.387,5.035a7.16,7.16,0,0,0,3.765.91,2.607,2.607,0,0,0,2.387,3.882c-1.207.189-1.531,1.973-.8,2.954a5.47,5.47,0,0,0,3.2,1.648c1.946.5,3.891.982,5.837,1.477a38.506,38.506,0,0,0,7.728,1.414c3.756.171,7.476-.73,11.232-.883a65.366,65.366,0,0,1,8.071.405A168.527,168.527,0,0,0,347,282.115c2.216-.3,4.54-.685,6.26-2.108a9.357,9.357,0,0,0,2.783-4.693,15.276,15.276,0,0,0-.811-10.638c-1.747-3.819-4.972-9.917-8.458-11.647Z" transform="translate(-257.453 -243.419)" fill="#ffbb96"/>
                  <path id="Trazado_193375" data-name="Trazado 193375" d="M273.126,272.144l11.467-1.856C279.458,269.361,273.126,272.144,273.126,272.144Z" transform="translate(-257.453 -243.419)" fill="#ff917a"/>
                  <path id="Trazado_193376" data-name="Trazado 193376" d="M268.424,265.821l13.691-2.018C276.152,262.7,268.424,265.821,268.424,265.821Z" transform="translate(-257.453 -243.419)" fill="#ff917a"/>
                  <path id="Trazado_193377" data-name="Trazado 193377" d="M306.273,271.928c1.729-3.675-3.036-8.674-3.036-8.674S304.238,269.388,306.273,271.928Z" transform="translate(-257.453 -243.419)" fill="#ff917a"/>
                  <path id="Trazado_193378" data-name="Trazado 193378" d="M288.97,278.6c.207-6.936-6.891-17.547-6.891-17.547S286.889,272.585,288.97,278.6Z" transform="translate(-257.453 -243.419)" fill="#ff917a"/>
                  <path id="Trazado_193379" data-name="Trazado 193379" d="M286.538,274.441l-11.322,2S282.557,277.251,286.538,274.441Z" transform="translate(-257.453 -243.419)" fill="#ff917a"/>
                  <path id="Trazado_193380" data-name="Trazado 193380" d="M345.321,248.607c-15.844-4.711-31.382,8.566-37.048,9.8s-14.709-4.152-13.6-3.072c4.441,2.162,12.025,23.573,13.845,27.788,3.009,1.342,21.978,1.729,27.113,1.342a123.854,123.854,0,0,0,20.393-3.369C362.444,279.494,361.165,253.318,345.321,248.607Z" transform="translate(-257.453 -243.419)" fill="#873363"/>
                  <path id="Trazado_193381" data-name="Trazado 193381" d="M322.532,271.7c-7.783-.459-14.466-8.611-20.582-13.79-4.261-1.153-8.008-3.288-7.278-2.567,4.441,2.162,12.025,23.573,13.845,27.788,3.009,1.342,21.978,1.729,27.113,1.342a123.846,123.846,0,0,0,20.393-3.369c3.9-.982,4.963-11.043,1.621-19.844-5.161,2.315-25.284,11.025-35.111,10.44Z" transform="translate(-257.453 -243.419)" fill="#6a2554" opacity="0.3"/>
                </g>
                <g id="Grupo_136388" data-name="Grupo 136388" transform="translate(24.125)">
                  <path id="Trazado_193382" data-name="Trazado 193382" d="M247.851,182.681s3.666,13.673,11.007,12.674,15.34-13.34,15.34-15.673-5.332-13.673-5.332-13.673L247.86,182.681Z" transform="translate(-202.91 -112.086)" fill="#ff917a"/>
                  <path id="Trazado_193383" data-name="Trazado 193383" d="M276.458,149.047c3.144-8.242,2.594-19.726-1.288-25.3-5.612-8.062-14.394-4.765-14.394-4.765-1.964-7.2-10.827-9.3-20.609-3.7s-14.853,1.189-27.149,4.963-12.457,17.357-5.4,25.87,18.862,4.324,18.862,4.324l15.295,31.86L270.5,170.422c7.377-3.288,10.854-11.557,7.783-18.456a12.668,12.668,0,0,0-1.819-2.909Z" transform="translate(-202.91 -112.086)" fill="#243262"/>
                  <path id="Trazado_193384" data-name="Trazado 193384" d="M242.419,122.088c-14.5,4.333-20.924,12.529-18.366,28.365.126.8.315,1.594.486,2.387.811,3.738,2.144,8.152,3.945,9.62,0,0,1.243,20.933,22.42,29.166,2.414.937,9.611-3.7,11.548-5.179,16.286-12.4,4.81-31.373,4.81-31.373-.18-1.4,6.287-5.116,6.071-6.548-2.126-13.718-13.2-31.733-30.9-26.446Z" transform="translate(-202.91 -112.086)" fill="#ffbb96"/>
                  <path id="Trazado_193385" data-name="Trazado 193385" d="M228.268,162.261c.072.063.135.135.207.2a35.955,35.955,0,0,0,10.431,21.564,17.02,17.02,0,0,0-10.638-21.753Z" transform="translate(-202.91 -112.086)" fill="#ff917a"/>
                  <path id="Trazado_193386" data-name="Trazado 193386" d="M271.621,150.714a8.364,8.364,0,0,0-7.9-.613c-4.486,2.189-5.855,8.6-3.063,14.331,2.252,4.612,6.512,7.368,10.422,7.134.829-8.791-3.819-16.493-3.819-16.493-.117-.9,2.531-2.765,4.36-4.36Z" transform="translate(-202.91 -112.086)" fill="#ff917a"/>
                  <path id="Trazado_193387" data-name="Trazado 193387" d="M247.689,180.357l.054.874a9.233,9.233,0,0,0,2.972-.8c2.315-1,5.495-3.243,7.683-8.26l-.8-.351c-3.522,8.053-9.845,8.539-9.908,8.539Z" transform="translate(-202.91 -112.086)" fill="#38261f"/>
                  <path id="Trazado_193388" data-name="Trazado 193388" d="M254.3,151.921c-.3-.027-7.116.117-7.71,1.811a2.011,2.011,0,0,0,.82,2.108c1.144.784,2.414-.4,6.3-1.108,1.82-.333,2.639-.279,2.684-.585.072-.513.153-2-2.1-2.234Z" transform="translate(-202.91 -112.086)" fill="#243262"/>
                  <path id="Trazado_193389" data-name="Trazado 193389" d="M230.277,158.694a2.452,2.452,0,0,0-.82,3c.144.216.658-.189,1.991-.73,2.819-1.153,4.1-.784,4.558-1.91a2.128,2.128,0,0,0-.243-2.036c-1.018-1.081-5.3,1.522-5.486,1.675Z" transform="translate(-202.91 -112.086)" fill="#243262"/>
                  <path id="Trazado_193390" data-name="Trazado 193390" d="M249.778,159.532c-.6.252-.775,1.216-.387,2.162s1.2,1.5,1.792,1.261.775-1.216.387-2.162S250.373,159.289,249.778,159.532Z" transform="translate(-202.91 -112.086)" fill="#38261f"/>
                  <path id="Trazado_193391" data-name="Trazado 193391" d="M234.42,163.117c-.558.207-.73,1.144-.378,2.1s1.081,1.567,1.639,1.36.73-1.144.378-2.1S234.979,162.91,234.42,163.117Z" transform="translate(-202.91 -112.086)" fill="#38261f"/>
                  <path id="Trazado_193392" data-name="Trazado 193392" d="M272.1,128.942c-3.117-1.838-10.638-8.89-26.1-10.1s-25.834,9.494-32.2,15.385,10.269,16.223,10.269,16.223a17.137,17.137,0,0,1,.081-7.314A15.15,15.15,0,0,0,231.2,143c2,1.8,6.7,3.045,9.791,1.847,2.468-.955,5.314-4.044,6.368-7.665,6.7,5.323,10.593,3.522,10.593,3.522l7.791,13.3L269.5,159.1l.1,1.558c2.477,2.243,5.387,1.441,5.576-1.892.585-10.449.9-27.482-3.081-29.833Z" transform="translate(-202.91 -112.086)" fill="#243262"/>
                  <path id="Trazado_193393" data-name="Trazado 193393" d="M223.7,131.176s-4.107,5.972-8.755,3.153-1.5-6.476-1.5-6.476-4.215,2.63-2.558,6.909,6.972,5.792,12.827.928c0,0,10.458,4.612,16.087-6.675,0,0-5.387,8.17-16.087,2.162Z" transform="translate(-202.91 -112.086)" fill="#7a95c9"/>
                  <path id="Trazado_193394" data-name="Trazado 193394" d="M247.328,136.554s-4.738,8.845-9.539,8.332a11.547,11.547,0,0,1-7.7-4.342,9.318,9.318,0,0,1-5.8,10.53s6.116-.135,9.6-4.783c0,0,7.81,3.729,13.025-1.657,0,0,7.963,3.108,11.782-1.243-3.2-.234-7.215-1.847-11.367-6.828Z" transform="translate(-202.91 -112.086)" fill="#ff917a"/>
                  <g id="Grupo_136387" data-name="Grupo 136387" transform="translate(60.586 32.845)">
                    <path id="Trazado_193395" data-name="Trazado 193395" d="M269.919,145c-4.161.6-7,4.837-6.323,9.44s4.594,7.855,8.755,7.251,7-4.837,6.323-9.44S274.081,144.4,269.919,145Z" transform="translate(-263.496 -144.931)" fill="#ffbb96"/>
                    <path id="Trazado_193396" data-name="Trazado 193396" d="M269.216,154.227a4.543,4.543,0,0,1,1.126-3.387,3.38,3.38,0,0,1,2.414-.874l.081-.865a4.251,4.251,0,0,0-3.09,1.1,5.72,5.72,0,0,0-1.387,4.6l.027.558.531-.162c.766-.234,2.945-.658,3.837.216l.6-.622c-1.1-1.063-3.162-.775-4.152-.558Z" transform="translate(-263.496 -144.931)" fill="#38261f"/>
                  </g>
                  <path id="Trazado_193397" data-name="Trazado 193397" d="M251.463,129.132s5.4,25.473,13.349,23.221L255.3,132.239l-3.846-3.108Z" transform="translate(-202.91 -112.086)" fill="#243262"/>
                  <path id="Trazado_193398" data-name="Trazado 193398" d="M240.672,173.052a.19.19,0,0,1-.189-.108c-.477-.775.459-3.882,1.279-5.846l-.8-.333c-.36.856-2.1,5.206-1.216,6.639a1.08,1.08,0,0,0,.874.522,11.439,11.439,0,0,0,4.756-1.171l-.378-.784a10.92,10.92,0,0,1-4.315,1.081Z" transform="translate(-202.91 -112.086)" fill="#38261f"/>
                  <path id="Trazado_193399" data-name="Trazado 193399" d="M223.278,142.057s-1.243,5.972.847,8.926c7.656-1.306,6.215-11.079,6.215-11.079l-7.062,2.144Z" transform="translate(-202.91 -112.086)" fill="#243262"/>
                  <path id="Trazado_193400" data-name="Trazado 193400" d="M246.274,135.77s5.72,9.674,14.259,7.81c-4.351-7.008-7.593-11.908-7.593-11.908l-6.675,4.1Z" transform="translate(-202.91 -112.086)" fill="#243262"/>
                </g>
                <g id="Grupo_136389" data-name="Grupo 136389" transform="translate(0.188 135.666)">
                  <path id="Trazado_193401" data-name="Trazado 193401" d="M238.951,281.088C232,275.26,226.836,270.7,213.757,271.7a8.047,8.047,0,0,1-1.585-.243l-1.774-1.684a60.45,60.45,0,0,1-4.855-16.9,3.151,3.151,0,0,0-.613-1.784,2.827,2.827,0,0,0-1.234-.658,17.853,17.853,0,0,0-17.475,3.828,16.105,16.105,0,0,0-3.864,17.249,29.93,29.93,0,0,0,3.756,6.152c4.188,5.747,14.367,13.953,14.988,14.8s2.243,3.171,3.243,3.531a21.585,21.585,0,0,0,13.259.378,6.118,6.118,0,0,0,2.6-1.324,2.542,2.542,0,0,0,.721-2.684,6.751,6.751,0,0,0,3.99-.685c1.153-.757,1.666-2.594.631-3.5a27.031,27.031,0,0,1,4.08.288,4.3,4.3,0,0,0,3.711-1.315,2.274,2.274,0,0,0-.207-2.837,21.334,21.334,0,0,0,5.089,1.558,2.836,2.836,0,0,0,1.576-.045,2.051,2.051,0,0,0,.919-2.486,5.21,5.21,0,0,0-1.774-2.252Z" transform="translate(-178.974 -247.751)" fill="#ffbb96"/>
                  <path id="Trazado_193402" data-name="Trazado 193402" d="M220.936,292.69,210.9,289.483C214.379,292.447,220.936,292.69,220.936,292.69Z" transform="translate(-178.974 -247.751)" fill="#ff917a"/>
                  <path id="Trazado_193403" data-name="Trazado 193403" d="M201.849,291.465a51.768,51.768,0,0,1,9.719-18.709C203.263,279.134,201.849,291.465,201.849,291.465Z" transform="translate(-178.974 -247.751)" fill="#ff917a"/>
                  <path id="Trazado_193404" data-name="Trazado 193404" d="M233.466,283.908a49.436,49.436,0,0,0-14.268-6.756Z" transform="translate(-178.974 -247.751)" fill="#ff917a"/>
                  <path id="Trazado_193405" data-name="Trazado 193405" d="M226.854,287.421l-11.989-3.72A21.577,21.577,0,0,0,226.854,287.421Z" transform="translate(-178.974 -247.751)" fill="#ff917a"/>
                  <path id="Trazado_193406" data-name="Trazado 193406" d="M200.408,247.995c-12.421-1.838-19.411,7.233-20.528,10.278-1.883,5.143-.585,11.5,1.648,15.142s11.331,14.9,18.619,18.186c1.009-8.386,6.729-18.006,12.611-20.186a32.831,32.831,0,0,1-2.693-6.368Z" transform="translate(-178.974 -247.751)" fill="#6a2554"/>
                </g>
              </g>
              <path id="Trazado_193407" data-name="Trazado 193407" d="M97.155,290.627h92.4a1.64,1.64,0,0,1,1.639,1.639v1.666a1.64,1.64,0,0,1-1.639,1.639h-92.4a1.64,1.64,0,0,1-1.639-1.639v-1.666A1.64,1.64,0,0,1,97.155,290.627Z" transform="translate(0.002 31.537)" fill="#e0e7f3"/>
              <g id="Grupo_136392" data-name="Grupo 136392" transform="translate(14.886 237.953)">
                <path id="Trazado_193408" data-name="Trazado 193408" d="M106.163,290.627h92.4a1.64,1.64,0,0,1,1.639,1.639v1.666a1.64,1.64,0,0,1-1.639,1.639h-92.4a1.64,1.64,0,0,1-1.639-1.639v-1.666A1.64,1.64,0,0,1,106.163,290.627Z" transform="translate(-14.884 -206.416)" fill="#c5a122"/>
                <g id="Grupo_136391" data-name="Grupo 136391">
                  <path id="Trazado_193409" data-name="Trazado 193409" d="M125.105,213a8.82,8.82,0,0,0-8.359-6.584H21.933c-3.729,0-6.431,3.792-5.414,7.611l20.375,76.7a5.7,5.7,0,0,0,5.414,4.36h98.686c3.774,0,6.485-3.882,5.386-7.728L125.105,213Z" transform="translate(-14.884 -206.416)" fill="#fef7dc"/>
                  <path id="Trazado_193410" data-name="Trazado 193410" d="M121.691,215.153a8.648,8.648,0,0,0-8.206-6.449H20.411a5.8,5.8,0,0,0-5.314,7.458L35.1,291.312a5.593,5.593,0,0,0,5.314,4.27h96.876c3.711,0,6.368-3.8,5.287-7.575L121.7,215.153Z" transform="translate(-14.884 -206.416)" fill="#fff"/>
                  <path id="Trazado_193411" data-name="Trazado 193411" d="M35.1,291.312a5.593,5.593,0,0,0,5.314,4.27h96.876a5.6,5.6,0,0,0,5.341-4.369c-25.653-19.3-103.3-59.729-126.655-71.745L35.1,291.321Z" transform="translate(-14.884 -206.416)" fill="#fff"/>
                  <ellipse id="Elipse_5382" data-name="Elipse 5382" cx="4.918" cy="7.674" rx="4.918" ry="7.674" transform="matrix(0.848, -0.529, 0.529, 0.848, 52.402, 43.443)" fill="#d1d1d1"/>
                </g>
              </g>
              <g id="Grupo_136393" data-name="Grupo 136393" transform="translate(396.921 208.255)">
                <path id="Trazado_193412" data-name="Trazado 193412" d="M454.951,178.232a2.312,2.312,0,1,0,1.342,2.981A2.308,2.308,0,0,0,454.951,178.232Z" transform="translate(-396.919 -178.081)" fill="#f7ca2e"/>
                <path id="Trazado_193413" data-name="Trazado 193413" d="M400.051,180.754a2.312,2.312,0,1,0,1.342,2.981A2.308,2.308,0,0,0,400.051,180.754Z" transform="translate(-396.919 -178.081)" fill="#f7ca2e"/>
                <path id="Trazado_193414" data-name="Trazado 193414" d="M436.972,181.42l8.323,6.9-2.207,2.819a25.059,25.059,0,0,0-12.079-5.107v-1.648c0-.189-.117-.342-.252-.342h-6.63c-.135,0-.252.162-.252.351v1.621a.414.414,0,0,0,.009.09,24.944,24.944,0,0,0-12.565,5.855l-2.189-2.189,7.044-7.359s-25.662-10.6-17.3,18.1l7.467-7.81,2.162,2.162a24.864,24.864,0,0,0,.414,32.085l-4.873,6.134s-.018.027-.027.045l-2.441,2.783,5.215.117.207-.252a.649.649,0,0,0,.216-.171l4.6-5.81a24.9,24.9,0,0,0,31.995-.225l5.026,6.161a.6.6,0,0,0,.225.171l.171.207,5.215-.126-2.477-2.81-5.287-6.485a24.852,24.852,0,0,0-.64-32.769l2.351-3,7.837,6.494s8.782-26.329-19.276-15.979Z" transform="translate(-396.919 -178.081)" fill="#cab8e9"/>
                <ellipse id="Elipse_5383" data-name="Elipse 5383" cx="21.897" cy="21.879" rx="21.897" ry="21.879" transform="translate(8.807 10.786) rotate(-0.06)" fill="#fff"/>
                <path id="Trazado_193415" data-name="Trazado 193415" d="M427.785,194.778h-.027a1.242,1.242,0,0,0-1.216,1.279l.324,13.836-10.593,6.584a1.246,1.246,0,1,0,1.315,2.117l11.809-7.332-.36-15.268a1.254,1.254,0,0,0-1.252-1.216Z" transform="translate(-396.919 -178.081)" fill="#e8e1f6"/>
                <path id="Trazado_193416" data-name="Trazado 193416" d="M427.731,190.608a1.036,1.036,0,1,0,1.036,1.036A1.036,1.036,0,0,0,427.731,190.608Z" transform="translate(-396.919 -178.081)" fill="#c2b9f0"/>
                <path id="Trazado_193417" data-name="Trazado 193417" d="M428.136,227.872a1.036,1.036,0,1,0,1.036,1.036A1.036,1.036,0,0,0,428.136,227.872Z" transform="translate(-396.919 -178.081)" fill="#c2b9f0"/>
                <path id="Trazado_193418" data-name="Trazado 193418" d="M446.223,209.055a1.036,1.036,0,1,0,1.036,1.036A1.036,1.036,0,0,0,446.223,209.055Z" transform="translate(-396.919 -178.081)" fill="#c2b9f0"/>
                <path id="Trazado_193419" data-name="Trazado 193419" d="M409.626,209.037a1.036,1.036,0,1,0,1.036,1.036A1.036,1.036,0,0,0,409.626,209.037Z" transform="translate(-396.919 -178.081)" fill="#c2b9f0"/>
                <path id="Trazado_193420" data-name="Trazado 193420" d="M427.839,206.812a3.544,3.544,0,1,0,3.549,3.54A3.537,3.537,0,0,0,427.839,206.812Z" transform="translate(-396.919 -178.081)" fill="#f7ca2e"/>
              </g>
            </g>
            <ellipse id="Elipse_5384" data-name="Elipse 5384" cx="8.107" cy="6.756" rx="8.107" ry="6.756" transform="translate(193.788 255.276)" fill="#6a2554"/>
          </g>
        </g>
      </g>
    </g>
  </g>
</svg>
