<svg xmlns="http://www.w3.org/2000/svg" xmlns:xlink="http://www.w3.org/1999/xlink" width="90" height="90" viewBox="0 0 90 90">
  <defs>
    <clipPath id="clip-path">
      <rect id="Rectángulo_43732" data-name="Rectángulo 43732" width="60" height="55.459" fill="none"/>
    </clipPath>
  </defs>
  <g id="Grupo_136533" data-name="Grupo 136533" transform="translate(-545 -1924)">
    <g id="Grupo_136521" data-name="Grupo 136521">
      <circle id="Elipse_5238" data-name="Elipse 5238" cx="45" cy="45" r="45" transform="translate(545 1924)" fill="#b13e8d"/>
      <g id="Grupo_136512" data-name="Grupo 136512" transform="translate(560 1941.27)">
        <g id="Grupo_136511" data-name="Grupo 136511" clip-path="url(#clip-path)">
          <path id="Trazado_193612" data-name="Trazado 193612" d="M59.9,26.189a5.2,5.2,0,0,0-2.811-3.642c-.082-.045-.163-.088-.243-.129-.022-.017-.044-.032-.068-.047a15.686,15.686,0,0,0-5.241-1.854A5.383,5.383,0,1,0,42.51,18.5a27.625,27.625,0,0,1-4.228-3.081q-.667-.652-1.407-1.314a1.018,1.018,0,0,0-1.412,1.464c.075.077.638.655,1.54,1.442,5.228,5.136,6.24,9.355.082,17.681l-6.068-7.473V11.59L42.632,6.9a1.018,1.018,0,0,0,0-1.887L30.381.074a1.018,1.018,0,0,0-1.4.944v26.2l-6.068,7.473c-6.155-8.324-5.145-12.543.079-17.678.9-.788,1.468-1.368,1.543-1.445A1.018,1.018,0,0,0,23.125,14.1q-.75.673-1.428,1.335A27.486,27.486,0,0,1,17.488,18.5a5.384,5.384,0,1,0-9.025,2.015A15.745,15.745,0,0,0,3.22,22.372c-.023.015-.046.031-.068.048q-.12.061-.242.128A5.2,5.2,0,0,0,.1,26.189c-.614,3.2,1.764,6.92,3.868,9.475A1.018,1.018,0,1,0,5.537,34.37c-2.581-3.135-3.8-5.9-3.44-7.8a3.22,3.22,0,0,1,1.793-2.242c2.038-1.121,2.965-.466,3.27-.251,3.073,2.167,3.47,12.462,2.34,22.543-.18,1.254-.351,2.532-.524,3.822l-.129.959a1,1,0,0,0,.071.522L7.4,53.8a1.017,1.017,0,0,0,.79,1.659H51.813A1.017,1.017,0,0,0,52.6,53.8l-1.522-1.874a1.008,1.008,0,0,0,.071-.522l-.129-.959c-.173-1.29-.345-2.568-.525-3.822-1.13-10.081-.732-20.376,2.34-22.543.3-.215,1.232-.869,3.27.251A3.22,3.22,0,0,1,57.9,26.573c.363,1.893-.858,4.663-3.44,7.8a1.018,1.018,0,1,0,1.571,1.294c2.1-2.554,4.482-6.272,3.868-9.475M31.018,2.525l8.514,3.435L31.018,9.4ZM47.627,13.482a3.348,3.348,0,1,1-3.349,3.349,3.352,3.352,0,0,1,3.349-3.349m-35.253,0a3.348,3.348,0,1,1-3.349,3.349,3.352,3.352,0,0,1,3.349-3.349m-3.826,9.1a18.62,18.62,0,0,1,3.834-.363,12.078,12.078,0,0,0,5.274-1.5c-1.379,2.9-1.407,6.037.419,9.952a7.368,7.368,0,0,0-3.061-.356,1.018,1.018,0,0,0-.73.4,16.055,16.055,0,0,0-2.2,4.161C11.9,29.359,10.947,24.5,8.548,22.579M11.5,47.033c.862-6.047,1.893-11.492,4.128-14.709h.117c2.2,0,3.505,1.1,5.842,4L11.249,49.056q.131-.982.249-2.024m-1.174,6.391L30,29.191,49.677,53.424Zm28.091-17.1c2.379-2.956,3.7-4.037,5.959-4,2.235,3.218,3.266,8.663,4.128,14.71q.118,1.04.249,2.023Zm9.5-1.454a16.063,16.063,0,0,0-2.2-4.161,1.019,1.019,0,0,0-.73-.4q-.363-.028-.7-.027a6.984,6.984,0,0,0-2.357.384c1.826-3.918,1.8-7.057.417-9.957a12.125,12.125,0,0,0,5.293,1.5,18.517,18.517,0,0,1,3.818.362c-2.4,1.925-3.355,6.781-3.533,12.295" transform="translate(0 0)" fill="#fff"/>
        </g>
      </g>
    </g>
  </g>
</svg>
