<svg xmlns="http://www.w3.org/2000/svg" xmlns:xlink="http://www.w3.org/1999/xlink" width="88" height="88" viewBox="0 0 88 88">
  <defs>
    <filter id="Rect치ngulo_40719" x="0" y="0" width="88" height="88" filterUnits="userSpaceOnUse">
      <feOffset dy="3" input="SourceAlpha"/>
      <feGaussianBlur stdDeviation="3" result="blur"/>
      <feFlood flood-opacity="0.161"/>
      <feComposite operator="in" in2="blur"/>
      <feComposite in="SourceGraphic"/>
    </filter>
  </defs>
  <g id="Grupo_136675" data-name="Grupo 136675" transform="translate(-1263.333 -392)">
    <g id="Grupo_128459" data-name="Grupo 128459" transform="translate(1038.333 -517)">
      <g transform="matrix(1, 0, 0, 1, 225, 909)" filter="url(#Rect치ngulo_40719)">
        <path id="Rect치ngulo_40719-2" data-name="Rect치ngulo 40719" d="M10,0H60A10,10,0,0,1,70,10V70a0,0,0,0,1,0,0H10A10,10,0,0,1,0,60V10A10,10,0,0,1,10,0Z" transform="translate(9 6)" fill="#b13e8d"/>
      </g>
    </g>
    <g id="Grupo_136150" data-name="Grupo 136150" transform="translate(8.185 -4.887)">
      <g id="Grupo_136148" data-name="Grupo 136148" transform="translate(1274.149 427.878)">
        <path id="Trazado_190420" data-name="Trazado 190420" d="M369.309,97.226H355.387a3.927,3.927,0,0,1-3.87-3.974V69.845a.932.932,0,0,1,.359-.739l5.7-5.848a3.406,3.406,0,0,1,4.9,0l.022.024,5.123,5.646,1.693,0a4.182,4.182,0,0,1,4.12,4.232,4.269,4.269,0,0,1-1.546,3.3,4.3,4.3,0,0,1-.006,6.609,4.3,4.3,0,0,1,0,6.614,4.268,4.268,0,0,1,1.552,3.307,4.182,4.182,0,0,1-4.121,4.232M353.318,70.241V93.252a2.1,2.1,0,0,0,2.068,2.124h13.923a2.383,2.383,0,0,0,0-4.764h-1.791a.925.925,0,0,1,0-1.849h1.791a2.383,2.383,0,0,0,0-4.764h-1.791a.925.925,0,0,1,0-1.849h1.791a2.385,2.385,0,0,0,.17-4.758q-.085,0-.17,0l-1.791-.01a.925.925,0,0,1,0-1.85h1.791q.087,0,.173,0a2.388,2.388,0,0,0-.173-4.763h-6.273a.927.927,0,0,1,0-1.853h2.114l-3.964-4.366a1.633,1.633,0,0,0-2.343.01Z" transform="translate(-351.517 -62.218)" fill="#fff"/>
        <path id="Trazado_190421" data-name="Trazado 190421" d="M482.326,97.226H468.4a4.182,4.182,0,0,1-4.121-4.232,4.268,4.268,0,0,1,1.552-3.307,4.3,4.3,0,0,1,0-6.614,4.3,4.3,0,0,1-.006-6.609,4.267,4.267,0,0,1-1.547-3.3,4.182,4.182,0,0,1,4.121-4.232l1.692,0,5.123-5.646.022-.023a3.405,3.405,0,0,1,4.9,0l5.7,5.848a.932.932,0,0,1,.359.739V93.252a3.927,3.927,0,0,1-3.87,3.974M468.4,90.612a2.383,2.383,0,0,0,0,4.764h13.923a2.1,2.1,0,0,0,2.069-2.124V70.241l-5.527-5.675a1.635,1.635,0,0,0-2.343-.01l-3.964,4.366h2.115a.927.927,0,0,1,0,1.853H468.4a2.388,2.388,0,0,0-.172,4.763c.056,0,.113,0,.17,0h1.792a.925.925,0,0,1,0,1.85l-1.787.01c-.058,0-.116,0-.174,0a2.385,2.385,0,0,0,.169,4.758h1.792a.925.925,0,0,1,0,1.85H468.4a2.383,2.383,0,0,0,0,4.764h1.792a.925.925,0,0,1,0,1.849Z" transform="translate(-436.195 -62.218)" fill="#fff"/>
      </g>
      <g id="Grupo_136149" data-name="Grupo 136149" transform="translate(1287.869 412.887)">
        <path id="Trazado_190422" data-name="Trazado 190422" d="M450.535,11.053a.9.9,0,0,1-.9-.9V.9a.9.9,0,0,1,1.8,0v9.252a.9.9,0,0,1-.9.9" transform="translate(-439.255)" fill="#fff"/>
        <path id="Trazado_190423" data-name="Trazado 190423" d="M411.461,30.286a.9.9,0,0,1-.761-.417l-4-6.281a.9.9,0,0,1,1.52-.967l4,6.281a.9.9,0,0,1-.759,1.384" transform="translate(-406.562 -16.854)" fill="#fff"/>
        <path id="Trazado_190424" data-name="Trazado 190424" d="M477.016,30.286a.9.9,0,0,1-.759-1.384l4-6.281a.9.9,0,0,1,1.52.967l-4,6.281a.9.9,0,0,1-.761.417" transform="translate(-459.355 -16.854)" fill="#fff"/>
      </g>
    </g>
  </g>
</svg>
